<svg xmlns="http://www.w3.org/2000/svg" viewBox="0 -0.5 328 158" shape-rendering="crispEdges">
<metadata>Made with Pixels to Svg https://codepen.io/shshaw/pen/XbxvNj</metadata>
<path stroke="#070e01" d="M0 0h328M0 1h328M0 2h328M0 3h328M0 4h328M0 5h328M0 6h66M68 6h260M0 7h66M68 7h260M0 8h328M0 9h328M0 10h328M0 11h328M0 12h328M0 13h328M0 14h328M0 15h328M0 16h328M0 17h328M0 18h218M220 18h108M0 19h218M220 19h108M0 20h2M4 20h324M0 21h2M4 21h324M0 22h328M0 23h328M0 24h316M318 24h10M0 25h316M318 25h10M0 26h34M62 26h8M96 26h6M128 26h8M162 26h6M196 26h12M298 26h30M0 27h34M62 27h8M96 27h6M128 27h8M162 27h6M196 27h12M298 27h30M0 28h34M62 28h8M96 28h6M128 28h8M162 28h6M196 28h12M298 28h30M0 29h34M62 29h8M96 29h6M128 29h8M162 29h6M196 29h12M298 29h30M0 30h34M62 30h8M96 30h6M128 30h8M162 30h6M196 30h12M298 30h30M0 31h34M62 31h8M96 31h6M128 31h8M162 31h6M196 31h12M298 31h30M0 32h34M62 32h8M96 32h6M128 32h8M162 32h6M196 32h12M298 32h30M0 33h34M62 33h8M96 33h6M128 33h8M162 33h6M196 33h12M298 33h30M0 34h34M62 34h8M96 34h6M128 34h8M162 34h6M196 34h12M298 34h30M0 35h34M62 35h8M96 35h6M128 35h8M162 35h6M196 35h12M298 35h30M0 36h34M44 36h26M80 36h6M96 36h6M112 36h6M128 36h8M146 36h22M180 36h28M298 36h30M0 37h34M44 37h26M80 37h6M96 37h6M112 37h6M128 37h8M146 37h22M180 37h28M298 37h30M0 38h34M62 38h8M96 38h6M128 38h8M146 38h22M196 38h12M224 38h58M298 38h30M0 39h34M62 39h8M96 39h6M128 39h8M146 39h22M196 39h12M224 39h58M298 39h30M0 40h34M62 40h8M96 40h6M128 40h8M146 40h22M196 40h12M222 40h60M298 40h30M0 41h34M62 41h8M96 41h6M128 41h8M146 41h22M196 41h12M222 41h60M298 41h30M0 42h34M62 42h8M96 42h6M128 42h8M146 42h22M196 42h12M222 42h60M298 42h30M0 43h34M62 43h8M96 43h6M128 43h8M146 43h22M196 43h12M222 43h60M298 43h30M0 44h34M62 44h8M96 44h6M128 44h8M146 44h22M196 44h12M222 44h60M298 44h30M0 45h34M62 45h8M96 45h6M128 45h8M146 45h22M196 45h12M222 45h60M298 45h30M0 46h34M62 46h8M96 46h6M128 46h8M146 46h22M196 46h12M222 46h60M298 46h30M0 47h34M62 47h8M96 47h6M128 47h8M146 47h22M196 47h12M222 47h60M298 47h30M0 48h50M62 48h8M80 48h22M112 48h6M128 48h8M146 48h22M180 48h28M222 48h60M298 48h30M0 49h50M62 49h8M80 49h22M112 49h6M128 49h8M146 49h22M180 49h28M222 49h60M298 49h30M0 50h34M62 50h8M80 50h22M112 50h6M128 50h8M162 50h6M196 50h12M222 50h60M298 50h30M0 51h34M62 51h8M80 51h22M112 51h6M128 51h8M162 51h6M196 51h12M222 51h60M298 51h30M0 52h34M62 52h8M80 52h22M112 52h6M128 52h8M162 52h6M196 52h12M222 52h60M298 52h30M0 53h34M62 53h8M80 53h22M112 53h6M128 53h8M162 53h6M196 53h12M222 53h60M298 53h30M0 54h34M62 54h8M80 54h22M112 54h6M128 54h8M162 54h6M196 54h12M222 54h60M298 54h30M0 55h34M62 55h8M80 55h22M112 55h6M128 55h8M162 55h6M196 55h12M222 55h60M298 55h30M0 56h34M62 56h8M80 56h22M112 56h6M128 56h8M162 56h6M196 56h12M222 56h60M298 56h30M0 57h34M62 57h8M80 57h22M112 57h6M128 57h8M162 57h6M196 57h12M222 57h60M298 57h30M0 58h34M62 58h8M80 58h22M112 58h6M128 58h8M162 58h6M196 58h12M222 58h60M298 58h30M0 59h34M62 59h8M80 59h22M112 59h6M128 59h8M162 59h6M196 59h12M222 59h60M298 59h30M0 60h208M222 60h60M298 60h30M0 61h208M222 61h60M298 61h30M0 62h208M222 62h20M262 62h20M298 62h30M0 63h208M222 63h20M262 63h20M298 63h30M0 64h34M84 64h6M140 64h6M196 64h12M222 64h20M262 64h20M298 64h30M0 65h34M84 65h6M140 65h6M196 65h12M222 65h20M262 65h20M298 65h30M0 66h34M84 66h6M140 66h6M196 66h12M222 66h20M262 66h20M298 66h30M0 67h34M84 67h6M140 67h6M196 67h12M222 67h20M262 67h20M298 67h30M0 68h34M84 68h6M140 68h6M196 68h12M222 68h20M262 68h20M298 68h30M0 69h34M84 69h6M140 69h6M196 69h12M222 69h20M262 69h20M298 69h30M0 70h34M84 70h6M140 70h6M196 70h12M222 70h20M262 70h20M298 70h30M0 71h34M84 71h6M140 71h6M196 71h12M222 71h20M262 71h20M298 71h30M0 72h34M84 72h6M140 72h6M196 72h12M222 72h20M262 72h20M298 72h30M0 73h34M84 73h6M140 73h6M196 73h12M222 73h20M262 73h20M298 73h30M0 74h34M84 74h6M140 74h6M196 74h12M222 74h20M262 74h20M298 74h30M0 75h34M84 75h6M140 75h6M196 75h12M222 75h20M262 75h20M298 75h30M0 76h34M84 76h6M140 76h6M196 76h12M222 76h60M298 76h30M0 77h34M84 77h6M140 77h6M196 77h12M222 77h60M298 77h30M0 78h34M84 78h6M140 78h6M196 78h12M222 78h60M298 78h30M0 79h34M84 79h6M140 79h6M196 79h12M222 79h60M298 79h30M0 80h34M84 80h6M140 80h6M196 80h12M222 80h60M298 80h30M0 81h34M84 81h6M140 81h6M196 81h12M222 81h60M298 81h30M0 82h34M84 82h6M140 82h6M196 82h12M222 82h60M298 82h30M0 83h34M84 83h6M140 83h6M196 83h12M222 83h60M298 83h30M0 84h34M84 84h6M140 84h6M196 84h12M222 84h60M298 84h30M0 85h34M84 85h6M140 85h6M196 85h12M222 85h60M298 85h30M0 86h34M52 86h38M108 86h14M140 86h22M180 86h28M222 86h60M298 86h30M0 87h34M52 87h38M108 87h14M140 87h22M180 87h28M222 87h60M298 87h30M0 88h34M52 88h38M108 88h14M140 88h22M180 88h28M222 88h60M298 88h30M0 89h34M52 89h38M108 89h14M140 89h22M180 89h28M222 89h60M298 89h30M0 90h34M52 90h38M108 90h14M140 90h22M180 90h28M222 90h60M298 90h30M0 91h34M52 91h38M108 91h14M140 91h22M180 91h28M222 91h60M298 91h30M0 92h34M52 92h38M140 92h22M180 92h28M222 92h60M298 92h30M0 93h34M52 93h38M140 93h22M180 93h28M222 93h60M298 93h30M0 94h34M52 94h38M140 94h22M180 94h28M222 94h60M298 94h30M0 95h34M52 95h38M140 95h22M180 95h28M222 95h60M298 95h30M0 96h34M52 96h38M140 96h22M180 96h28M248 96h32M298 96h30M0 97h34M52 97h38M140 97h22M180 97h28M248 97h32M298 97h30M0 98h34M52 98h38M140 98h22M180 98h28M246 98h32M298 98h30M0 99h34M52 99h38M140 99h22M180 99h28M246 99h32M298 99h30M0 100h34M52 100h38M140 100h22M180 100h28M244 100h32M298 100h30M0 101h34M52 101h38M140 101h22M180 101h28M244 101h32M298 101h30M0 102h34M52 102h38M140 102h22M180 102h28M242 102h32M298 102h30M0 103h34M52 103h38M140 103h22M180 103h28M242 103h32M298 103h30M0 104h34M52 104h38M140 104h22M180 104h28M240 104h32M298 104h30M0 105h34M52 105h38M140 105h22M180 105h28M240 105h32M298 105h30M0 106h50M52 106h54M108 106h30M140 106h38M180 106h56M238 106h58M298 106h30M0 107h50M52 107h54M108 107h30M140 107h38M180 107h56M238 107h58M298 107h30M0 108h34M52 108h38M108 108h14M140 108h22M180 108h28M236 108h32M298 108h30M0 109h34M52 109h38M108 109h14M140 109h22M180 109h28M236 109h32M298 109h30M0 110h34M52 110h38M108 110h14M140 110h22M180 110h28M234 110h32M298 110h30M0 111h34M52 111h38M108 111h14M140 111h22M180 111h28M234 111h32M298 111h30M0 112h50M52 112h54M108 112h30M140 112h38M180 112h50M232 112h64M298 112h30M0 113h50M52 113h54M108 113h30M140 113h38M180 113h50M232 113h64M298 113h30M0 114h50M52 114h54M108 114h30M140 114h38M180 114h48M230 114h66M298 114h14M314 114h14M0 115h50M52 115h54M108 115h30M140 115h38M180 115h48M230 115h66M298 115h14M314 115h14M0 116h34M52 116h38M108 116h14M140 116h22M180 116h28M228 116h32M298 116h30M0 117h34M52 117h38M108 117h14M140 117h22M180 117h28M228 117h32M298 117h30M0 118h34M52 118h38M108 118h14M140 118h22M180 118h28M226 118h32M298 118h30M0 119h34M52 119h38M108 119h14M140 119h22M180 119h28M226 119h32M298 119h30M0 120h50M52 120h54M108 120h30M140 120h38M180 120h42M224 120h72M298 120h30M0 121h50M52 121h54M108 121h30M140 121h38M180 121h42M224 121h72M298 121h30M0 122h50M52 122h54M108 122h30M140 122h38M180 122h40M222 122h74M298 122h30M0 123h50M52 123h54M108 123h30M140 123h38M180 123h40M222 123h74M298 123h30M0 124h26M28 124h22M52 124h54M108 124h30M140 124h38M180 124h38M220 124h76M298 124h30M0 125h26M28 125h22M52 125h54M108 125h30M140 125h38M180 125h38M220 125h76M298 125h30M0 126h34M84 126h6M108 126h14M140 126h22M180 126h28M218 126h32M298 126h30M0 127h34M84 127h6M108 127h14M140 127h22M180 127h28M218 127h32M298 127h30M0 128h82M84 128h22M108 128h30M140 128h38M180 128h116M298 128h30M0 129h82M84 129h22M108 129h30M140 129h38M180 129h116M298 129h30M0 130h82M84 130h22M108 130h30M140 130h38M180 130h116M298 130h22M322 130h6M0 131h82M84 131h22M108 131h30M140 131h38M180 131h116M298 131h22M322 131h6M0 132h82M84 132h22M108 132h30M140 132h38M180 132h116M298 132h30M0 133h82M84 133h22M108 133h30M140 133h38M180 133h116M298 133h30M0 134h82M84 134h22M108 134h30M140 134h38M180 134h116M298 134h30M0 135h82M84 135h22M108 135h30M140 135h38M180 135h116M298 135h30M0 136h82M84 136h22M108 136h30M140 136h38M180 136h116M298 136h30M0 137h82M84 137h22M108 137h30M140 137h38M180 137h116M298 137h30M0 138h34M84 138h6M108 138h14M140 138h22M180 138h28M298 138h30M0 139h34M84 139h6M108 139h14M140 139h22M180 139h28M298 139h30M0 140h328M0 141h328M0 142h328M0 143h328M0 144h328M0 145h328M0 146h328M0 147h328M0 148h66M70 148h258M0 149h66M70 149h258M0 150h66M70 150h258M0 151h66M70 151h258M0 152h202M204 152h124M0 153h202M204 153h124M0 154h328M0 155h328M0 156h328M0 157h328" />
<path stroke="#ffffff" d="M66 6h2M66 7h2M218 18h2M218 19h2M2 20h2M2 21h2M316 24h2M316 25h2M60 26h2M94 26h2M126 26h2M160 26h2M194 26h2M296 26h2M60 27h2M94 27h2M126 27h2M160 27h2M194 27h2M296 27h2M60 28h2M94 28h2M126 28h2M160 28h2M194 28h2M296 28h2M60 29h2M94 29h2M126 29h2M160 29h2M194 29h2M296 29h2M60 30h2M94 30h2M126 30h2M160 30h2M194 30h2M296 30h2M60 31h2M94 31h2M126 31h2M160 31h2M194 31h2M296 31h2M60 32h2M94 32h2M126 32h2M160 32h2M194 32h2M296 32h2M60 33h2M94 33h2M126 33h2M160 33h2M194 33h2M296 33h2M42 34h20M78 34h8M94 34h2M110 34h8M126 34h2M144 34h18M178 34h18M296 34h2M42 35h20M78 35h8M94 35h2M110 35h8M126 35h2M144 35h18M178 35h18M296 35h2M42 36h2M78 36h2M94 36h2M110 36h2M126 36h2M144 36h2M178 36h2M224 36h58M296 36h2M42 37h2M78 37h2M94 37h2M110 37h2M126 37h2M144 37h2M178 37h2M224 37h58M296 37h2M60 38h2M94 38h2M126 38h2M144 38h2M194 38h2M222 38h2M296 38h2M60 39h2M94 39h2M126 39h2M144 39h2M194 39h2M222 39h2M296 39h2M60 40h2M94 40h2M126 40h2M144 40h2M194 40h2M220 40h2M296 40h2M60 41h2M94 41h2M126 41h2M144 41h2M194 41h2M220 41h2M296 41h2M60 42h2M94 42h2M126 42h2M144 42h2M194 42h2M220 42h2M296 42h2M60 43h2M94 43h2M126 43h2M144 43h2M194 43h2M220 43h2M296 43h2M60 44h2M94 44h2M126 44h2M144 44h2M194 44h2M220 44h2M296 44h2M60 45h2M94 45h2M126 45h2M144 45h2M194 45h2M220 45h2M296 45h2M34 46h16M60 46h2M78 46h18M110 46h8M126 46h2M144 46h2M178 46h18M220 46h2M296 46h2M34 47h16M60 47h2M78 47h18M110 47h8M126 47h2M144 47h2M178 47h18M220 47h2M296 47h2M60 48h2M78 48h2M110 48h2M126 48h2M144 48h2M178 48h2M220 48h2M296 48h2M60 49h2M78 49h2M110 49h2M126 49h2M144 49h2M178 49h2M220 49h2M296 49h2M60 50h2M78 50h2M110 50h2M126 50h2M160 50h2M194 50h2M220 50h2M296 50h2M60 51h2M78 51h2M110 51h2M126 51h2M160 51h2M194 51h2M220 51h2M296 51h2M60 52h2M78 52h2M110 52h2M126 52h2M160 52h2M194 52h2M220 52h2M296 52h2M60 53h2M78 53h2M110 53h2M126 53h2M160 53h2M194 53h2M220 53h2M296 53h2M60 54h2M78 54h2M110 54h2M126 54h2M160 54h2M194 54h2M220 54h2M296 54h2M60 55h2M78 55h2M110 55h2M126 55h2M160 55h2M194 55h2M220 55h2M296 55h2M60 56h2M78 56h2M110 56h2M126 56h2M160 56h2M194 56h2M220 56h2M296 56h2M60 57h2M78 57h2M110 57h2M126 57h2M160 57h2M194 57h2M220 57h2M296 57h2M34 58h28M70 58h10M102 58h10M118 58h10M136 58h26M168 58h28M220 58h2M296 58h2M34 59h28M70 59h10M102 59h10M118 59h10M136 59h26M168 59h28M220 59h2M296 59h2M220 60h2M296 60h2M220 61h2M296 61h2M220 62h2M260 62h2M296 62h2M220 63h2M260 63h2M296 63h2M82 64h2M138 64h2M194 64h2M220 64h2M260 64h2M296 64h2M82 65h2M138 65h2M194 65h2M220 65h2M260 65h2M296 65h2M82 66h2M138 66h2M194 66h2M220 66h2M260 66h2M296 66h2M82 67h2M138 67h2M194 67h2M220 67h2M260 67h2M296 67h2M82 68h2M138 68h2M194 68h2M220 68h2M260 68h2M296 68h2M82 69h2M138 69h2M194 69h2M220 69h2M260 69h2M296 69h2M82 70h2M138 70h2M194 70h2M220 70h2M260 70h2M296 70h2M82 71h2M138 71h2M194 71h2M220 71h2M260 71h2M296 71h2M82 72h2M138 72h2M194 72h2M220 72h2M260 72h2M296 72h2M82 73h2M138 73h2M194 73h2M220 73h2M260 73h2M296 73h2M82 74h2M138 74h2M194 74h2M220 74h2M242 74h20M296 74h2M82 75h2M138 75h2M194 75h2M220 75h2M242 75h20M296 75h2M82 76h2M138 76h2M194 76h2M220 76h2M296 76h2M82 77h2M138 77h2M194 77h2M220 77h2M296 77h2M82 78h2M138 78h2M194 78h2M220 78h2M296 78h2M82 79h2M138 79h2M194 79h2M220 79h2M296 79h2M82 80h2M138 80h2M194 80h2M220 80h2M296 80h2M82 81h2M138 81h2M194 81h2M220 81h2M296 81h2M82 82h2M138 82h2M194 82h2M220 82h2M296 82h2M82 83h2M138 83h2M194 83h2M220 83h2M296 83h2M50 84h34M106 84h16M138 84h2M146 84h16M178 84h18M220 84h2M296 84h2M50 85h34M106 85h16M138 85h2M146 85h16M178 85h18M220 85h2M296 85h2M50 86h2M106 86h2M138 86h2M178 86h2M220 86h2M296 86h2M50 87h2M106 87h2M138 87h2M178 87h2M220 87h2M296 87h2M50 88h2M106 88h2M138 88h2M178 88h2M220 88h2M296 88h2M50 89h2M106 89h2M138 89h2M178 89h2M220 89h2M296 89h2M50 90h2M106 90h2M138 90h2M178 90h2M220 90h2M296 90h2M50 91h2M106 91h2M138 91h2M178 91h2M220 91h2M296 91h2M50 92h2M138 92h2M178 92h2M220 92h2M296 92h2M50 93h2M138 93h2M178 93h2M220 93h2M296 93h2M50 94h2M138 94h2M178 94h2M220 94h2M296 94h2M50 95h2M138 95h2M178 95h2M220 95h2M296 95h2M50 96h2M138 96h2M178 96h2M246 96h2M296 96h2M50 97h2M138 97h2M178 97h2M246 97h2M296 97h2M50 98h2M138 98h2M178 98h2M244 98h2M296 98h2M50 99h2M138 99h2M178 99h2M244 99h2M296 99h2M50 100h2M138 100h2M178 100h2M242 100h2M296 100h2M50 101h2M138 101h2M178 101h2M242 101h2M296 101h2M50 102h2M138 102h2M178 102h2M240 102h2M296 102h2M50 103h2M138 103h2M178 103h2M240 103h2M296 103h2M50 104h2M106 104h16M138 104h2M178 104h2M238 104h2M296 104h2M50 105h2M106 105h16M138 105h2M178 105h2M238 105h2M296 105h2M50 106h2M106 106h2M138 106h2M178 106h2M236 106h2M296 106h2M50 107h2M106 107h2M138 107h2M178 107h2M236 107h2M296 107h2M50 108h2M106 108h2M138 108h2M178 108h2M234 108h2M296 108h2M50 109h2M106 109h2M138 109h2M178 109h2M234 109h2M296 109h2M50 110h2M106 110h2M138 110h2M178 110h2M232 110h2M296 110h2M50 111h2M106 111h2M138 111h2M178 111h2M232 111h2M296 111h2M50 112h2M106 112h2M138 112h2M178 112h2M230 112h2M296 112h2M50 113h2M106 113h2M138 113h2M178 113h2M230 113h2M296 113h2M50 114h2M106 114h2M138 114h2M178 114h2M228 114h2M296 114h2M312 114h2M50 115h2M106 115h2M138 115h2M178 115h2M228 115h2M296 115h2M312 115h2M50 116h2M106 116h2M138 116h2M178 116h2M226 116h2M296 116h2M50 117h2M106 117h2M138 117h2M178 117h2M226 117h2M296 117h2M50 118h2M106 118h2M138 118h2M178 118h2M224 118h2M296 118h2M50 119h2M106 119h2M138 119h2M178 119h2M224 119h2M296 119h2M50 120h2M106 120h2M138 120h2M178 120h2M222 120h2M296 120h2M50 121h2M106 121h2M138 121h2M178 121h2M222 121h2M296 121h2M50 122h2M106 122h2M138 122h2M178 122h2M220 122h2M296 122h2M50 123h2M106 123h2M138 123h2M178 123h2M220 123h2M296 123h2M26 124h2M50 124h2M106 124h2M138 124h2M178 124h2M218 124h2M296 124h2M26 125h2M50 125h2M106 125h2M138 125h2M178 125h2M218 125h2M296 125h2M82 126h2M106 126h2M138 126h2M178 126h2M216 126h2M296 126h2M82 127h2M106 127h2M138 127h2M178 127h2M216 127h2M296 127h2M82 128h2M106 128h2M138 128h2M178 128h2M296 128h2M82 129h2M106 129h2M138 129h2M178 129h2M296 129h2M82 130h2M106 130h2M138 130h2M178 130h2M296 130h2M320 130h2M82 131h2M106 131h2M138 131h2M178 131h2M296 131h2M320 131h2M82 132h2M106 132h2M138 132h2M178 132h2M296 132h2M82 133h2M106 133h2M138 133h2M178 133h2M296 133h2M82 134h2M106 134h2M138 134h2M178 134h2M296 134h2M82 135h2M106 135h2M138 135h2M178 135h2M296 135h2M82 136h2M106 136h2M138 136h2M178 136h2M296 136h2M82 137h2M106 137h2M138 137h2M178 137h2M296 137h2M34 138h50M90 138h18M122 138h18M162 138h18M208 138h90M34 139h50M90 139h18M122 139h18M162 139h18M208 139h90M66 148h4M66 149h4M66 150h4M66 151h4M202 152h2M202 153h2" />
<path stroke="#15ffe8" d="M34 26h26M70 26h24M102 26h24M136 26h24M168 26h26M208 26h88M34 27h26M70 27h24M102 27h24M136 27h24M168 27h26M208 27h88M34 28h26M70 28h24M102 28h24M136 28h24M168 28h26M208 28h88M34 29h26M70 29h24M102 29h24M136 29h24M168 29h26M208 29h88M34 30h26M70 30h24M102 30h24M136 30h24M168 30h26M208 30h88M34 31h26M70 31h24M102 31h24M136 31h24M168 31h26M208 31h88M34 32h26M70 32h24M102 32h24M136 32h24M168 32h26M208 32h88M34 33h26M70 33h24M102 33h24M136 33h24M168 33h26M208 33h88M34 34h8M70 34h8M86 34h8M102 34h8M118 34h8M136 34h8M168 34h10M208 34h88M34 35h8M70 35h8M86 35h8M102 35h8M118 35h8M136 35h8M168 35h10M208 35h88M34 36h8M70 36h8M86 36h8M102 36h8M118 36h8M136 36h8M168 36h10M208 36h16M282 36h14M34 37h8M70 37h8M86 37h8M102 37h8M118 37h8M136 37h8M168 37h10M208 37h16M282 37h14M34 38h26M70 38h24M102 38h24M136 38h8M168 38h26M208 38h14M282 38h14M34 39h26M70 39h24M102 39h24M136 39h8M168 39h26M208 39h14M282 39h14M34 40h26M70 40h24M102 40h24M136 40h8M168 40h26M208 40h12M282 40h14M34 41h26M70 41h24M102 41h24M136 41h8M168 41h26M208 41h12M282 41h14M34 42h26M70 42h24M102 42h24M136 42h8M168 42h26M208 42h12M282 42h14M34 43h26M70 43h24M102 43h24M136 43h8M168 43h26M208 43h12M282 43h14M34 44h26M70 44h24M102 44h24M136 44h8M168 44h26M208 44h12M282 44h14M34 45h26M70 45h24M102 45h24M136 45h8M168 45h26M208 45h12M282 45h14M50 46h10M70 46h8M102 46h8M118 46h8M136 46h8M168 46h10M208 46h12M282 46h14M50 47h10M70 47h8M102 47h8M118 47h8M136 47h8M168 47h10M208 47h12M282 47h14M50 48h10M70 48h8M102 48h8M118 48h8M136 48h8M168 48h10M208 48h12M282 48h14M50 49h10M70 49h8M102 49h8M118 49h8M136 49h8M168 49h10M208 49h12M282 49h14M34 50h26M70 50h8M102 50h8M118 50h8M136 50h24M168 50h26M208 50h12M282 50h14M34 51h26M70 51h8M102 51h8M118 51h8M136 51h24M168 51h26M208 51h12M282 51h14M34 52h26M70 52h8M102 52h8M118 52h8M136 52h24M168 52h26M208 52h12M282 52h14M34 53h26M70 53h8M102 53h8M118 53h8M136 53h24M168 53h26M208 53h12M282 53h14M34 54h26M70 54h8M102 54h8M118 54h8M136 54h24M168 54h26M208 54h12M282 54h14M34 55h26M70 55h8M102 55h8M118 55h8M136 55h24M168 55h26M208 55h12M282 55h14M34 56h26M70 56h8M102 56h8M118 56h8M136 56h24M168 56h26M208 56h12M282 56h14M34 57h26M70 57h8M102 57h8M118 57h8M136 57h24M168 57h26M208 57h12M282 57h14M208 58h12M282 58h14M208 59h12M282 59h14M208 60h12M282 60h14M208 61h12M282 61h14M208 62h12M242 62h18M282 62h14M208 63h12M242 63h18M282 63h14M34 64h48M90 64h48M146 64h48M208 64h12M242 64h18M282 64h14M34 65h48M90 65h48M146 65h48M208 65h12M242 65h18M282 65h14M34 66h48M90 66h48M146 66h48M208 66h12M242 66h18M282 66h14M34 67h48M90 67h48M146 67h48M208 67h12M242 67h18M282 67h14M34 68h48M90 68h48M146 68h48M208 68h12M242 68h18M282 68h14M34 69h48M90 69h48M146 69h48M208 69h12M242 69h18M282 69h14M34 70h48M90 70h48M146 70h48M208 70h12M242 70h18M282 70h14M34 71h48M90 71h48M146 71h48M208 71h12M242 71h18M282 71h14M34 72h48M90 72h48M146 72h48M208 72h12M242 72h18M282 72h14M34 73h48M90 73h48M146 73h48M208 73h12M242 73h18M282 73h14M34 74h48M90 74h48M146 74h48M208 74h12M282 74h14M34 75h48M90 75h48M146 75h48M208 75h12M282 75h14M34 76h48M90 76h48M146 76h48M208 76h12M282 76h14M34 77h48M90 77h48M146 77h48M208 77h12M282 77h14M34 78h48M90 78h48M146 78h48M208 78h12M282 78h14M34 79h48M90 79h48M146 79h48M208 79h12M282 79h14M34 80h48M90 80h48M146 80h48M208 80h12M282 80h14M34 81h48M90 81h48M146 81h48M208 81h12M282 81h14M34 82h48M90 82h48M146 82h48M208 82h12M282 82h14M34 83h48M90 83h48M146 83h48M208 83h12M282 83h14M34 84h16M90 84h16M122 84h16M162 84h16M208 84h12M282 84h14M34 85h16M90 85h16M122 85h16M162 85h16M208 85h12M282 85h14M34 86h16M90 86h16M122 86h16M162 86h16M208 86h12M282 86h14M34 87h16M90 87h16M122 87h16M162 87h16M208 87h12M282 87h14M34 88h16M90 88h16M122 88h16M162 88h16M208 88h12M282 88h14M34 89h16M90 89h16M122 89h16M162 89h16M208 89h12M282 89h14M34 90h16M90 90h16M122 90h16M162 90h16M208 90h12M282 90h14M34 91h16M90 91h16M122 91h16M162 91h16M208 91h12M282 91h14M34 92h16M90 92h48M162 92h16M208 92h12M282 92h14M34 93h16M90 93h48M162 93h16M208 93h12M282 93h14M34 94h16M90 94h48M162 94h16M208 94h12M282 94h14M34 95h16M90 95h48M162 95h16M208 95h12M282 95h14M34 96h16M90 96h48M162 96h16M208 96h38M280 96h16M34 97h16M90 97h48M162 97h16M208 97h38M280 97h16M34 98h16M90 98h48M162 98h16M208 98h36M278 98h18M34 99h16M90 99h48M162 99h16M208 99h36M278 99h18M34 100h16M90 100h48M162 100h16M208 100h34M276 100h20M34 101h16M90 101h48M162 101h16M208 101h34M276 101h20M34 102h16M90 102h48M162 102h16M208 102h32M274 102h22M34 103h16M90 103h48M162 103h16M208 103h32M274 103h22M34 104h16M90 104h16M122 104h16M162 104h16M208 104h30M272 104h24M34 105h16M90 105h16M122 105h16M162 105h16M208 105h30M272 105h24M34 108h16M90 108h16M122 108h16M162 108h16M208 108h26M268 108h28M34 109h16M90 109h16M122 109h16M162 109h16M208 109h26M268 109h28M34 110h16M90 110h16M122 110h16M162 110h16M208 110h24M266 110h30M34 111h16M90 111h16M122 111h16M162 111h16M208 111h24M266 111h30M34 116h16M90 116h16M122 116h16M162 116h16M208 116h18M260 116h36M34 117h16M90 117h16M122 117h16M162 117h16M208 117h18M260 117h36M34 118h16M90 118h16M122 118h16M162 118h16M208 118h16M258 118h38M34 119h16M90 119h16M122 119h16M162 119h16M208 119h16M258 119h38M34 126h48M90 126h16M122 126h16M162 126h16M208 126h8M250 126h46M34 127h48M90 127h16M122 127h16M162 127h16M208 127h8M250 127h46" />
</svg>