<svg xmlns="http://www.w3.org/2000/svg" viewBox="0 -0.5 256 144" shape-rendering="crispEdges">
<metadata>Made with Pixels to Svg https://codepen.io/shshaw/pen/XbxvNj</metadata>
<path stroke="#000000" d="M0 0h256M0 1h256M0 2h256M0 3h256M0 4h256M0 5h256M0 6h256M0 7h256M0 8h256M0 9h256M0 10h256M0 11h256M0 12h256M0 13h256M0 15h256M0 19h256M0 25h30M31 25h52M86 25h34M121 25h52M176 25h80M62 121h1M60 122h4M135 122h4M56 123h6M63 123h1M71 123h3M79 123h4M84 123h1M131 123h6M138 123h1M146 123h3M208 123h1M211 123h3M46 124h1M50 124h1M53 124h1M55 124h2M58 124h2M61 124h4M67 124h2M71 124h15M125 124h1M128 124h1M130 124h2M133 124h2M136 124h4M142 124h2M146 124h5M198 124h2M201 124h4M207 124h2M211 124h15M228 124h5M46 125h31M78 125h2M82 125h6M121 125h31M168 125h5M185 125h32M218 125h2M222 125h7M232 125h6M250 125h6M19 126h1M21 126h3M32 126h2M46 126h4M53 126h4M60 126h3M64 126h15M83 126h1M85 126h3M96 126h13M121 126h17M139 126h15M160 126h3M167 126h2M171 126h3M185 126h5M194 126h4M201 126h2M204 126h15M223 126h1M225 126h3M232 126h2M236 126h3M250 126h5M12 127h3M19 127h5M28 127h7M45 127h5M54 127h3M61 127h18M83 127h5M92 127h6M99 127h6M106 127h4M120 127h34M158 127h6M166 127h8M184 127h6M194 127h3M201 127h18M223 127h6M231 127h8M249 127h6M12 128h4M18 128h6M28 128h8M45 128h6M53 128h4M61 128h19M82 128h6M92 128h9M102 128h9M120 128h35M157 128h18M184 128h7M193 128h5M200 128h20M222 128h18M249 128h7M0 129h6M8 129h1M11 129h14M27 129h10M44 129h14M60 129h29M91 129h21M119 129h57M183 129h58M248 129h8M0 130h256M0 131h256M0 132h256M0 133h256M0 134h256M0 135h256M0 136h256M0 137h256M0 138h256M0 139h256M0 140h256M0 141h256M0 142h256M0 143h256" />
<path stroke="#0b2015" d="M0 14h256M0 16h256M0 17h256M0 18h256M0 20h256M0 21h256M0 22h35M36 22h89M126 22h130M0 23h256M0 24h84M85 24h89M175 24h81M84 25h1M174 25h1M0 26h84M85 26h89M175 26h44M220 26h36M0 27h256M0 28h256M0 29h256M0 30h256M0 31h256M0 32h256M0 33h256M0 34h256M0 35h217M218 35h38M0 36h19M20 36h158M179 36h77M0 37h110M111 37h145M0 38h256M0 39h256M0 40h46M47 40h37M85 40h171M0 41h256M0 42h256M0 43h148M149 43h107M0 44h256M0 45h256M0 46h256M0 47h190M191 47h65M0 48h125M129 48h127M0 49h125M129 49h127M0 50h64M65 50h60M129 50h127M0 51h125M129 51h127M0 52h126M128 52h128M0 53h126M128 53h128M0 54h126M128 54h128M0 55h21M27 55h1M30 55h2M34 55h1M41 55h85M128 55h34M166 55h2M173 55h2M179 55h5M191 55h1M194 55h2M198 55h1M205 55h51M0 56h23M25 56h3M30 56h2M34 56h1M37 56h89M128 56h33M167 56h1M174 56h1M177 56h1M180 56h7M189 56h3M194 56h2M198 56h1M201 56h55M0 57h23M25 57h3M30 57h2M34 57h1M37 57h89M128 57h33M163 57h2M167 57h1M170 57h2M174 57h1M177 57h2M181 57h6M189 57h3M194 57h2M198 57h1M201 57h19M221 57h35M0 58h23M25 58h3M30 58h2M34 58h1M37 58h89M128 58h33M163 58h2M167 58h1M170 58h2M174 58h1M177 58h2M181 58h6M189 58h3M194 58h2M198 58h1M201 58h18M220 58h1M222 58h34M0 59h23M25 59h3M34 59h1M41 59h54M96 59h30M128 59h33M167 59h1M170 59h2M174 59h1M177 59h2M181 59h4M189 59h3M198 59h1M205 59h15M221 59h35M0 60h23M25 60h3M30 60h2M34 60h1M37 60h89M128 60h33M163 60h2M167 60h1M170 60h2M174 60h1M177 60h2M181 60h6M189 60h3M194 60h2M198 60h1M201 60h55M0 61h23M25 61h3M30 61h2M34 61h1M37 61h89M128 61h33M163 61h2M167 61h1M170 61h2M174 61h1M177 61h1M180 61h7M189 61h3M194 61h2M198 61h1M201 61h55M0 62h18M19 62h4M25 62h3M30 62h2M34 62h1M41 62h67M109 62h16M129 62h32M163 62h2M167 62h1M170 62h2M174 62h1M179 62h8M189 62h3M194 62h2M198 62h1M205 62h51M0 63h117M138 63h118M0 64h117M138 64h118M0 65h23M29 65h7M38 65h14M54 65h18M78 65h39M120 65h5M129 65h6M138 65h25M169 65h6M177 65h12M199 65h6M211 65h2M219 65h8M233 65h1M235 65h21M0 66h22M30 66h5M39 66h12M55 66h16M79 66h46M129 66h33M170 66h4M178 66h12M198 66h5M221 66h5M234 66h22M0 67h21M27 67h2M31 67h3M40 67h10M56 67h14M76 67h2M80 67h3M90 67h35M129 67h32M167 67h2M171 67h2M179 67h12M197 67h5M208 67h2M214 67h3M222 67h3M231 67h2M235 67h21M0 68h21M27 68h1M31 68h3M40 68h10M56 68h14M76 68h2M80 68h2M84 68h1M91 68h27M119 68h6M129 68h32M167 68h2M171 68h2M179 68h12M197 68h4M207 68h3M214 68h3M223 68h2M231 68h2M235 68h21M0 69h21M27 69h2M31 69h3M40 69h10M56 69h14M76 69h2M80 69h2M84 69h2M92 69h33M129 69h32M167 69h2M171 69h2M179 69h12M197 69h4M207 69h3M214 69h3M223 69h2M231 69h25M0 70h21M27 70h2M31 70h3M40 70h10M56 70h14M76 70h2M80 70h2M84 70h3M93 70h32M129 70h32M167 70h2M171 70h2M179 70h12M197 70h4M207 70h3M214 70h3M223 70h2M231 70h25M0 71h21M27 71h2M31 71h3M40 71h10M56 71h14M76 71h2M80 71h2M84 71h3M93 71h32M129 71h32M167 71h2M171 71h2M179 71h12M197 71h4M207 71h3M214 71h3M223 71h2M231 71h25M0 72h21M27 72h2M31 72h3M40 72h10M56 72h14M76 72h2M80 72h2M84 72h2M93 72h32M129 72h32M167 72h2M171 72h2M179 72h12M197 72h4M207 72h3M214 72h3M223 72h2M231 72h25M0 73h21M27 73h2M31 73h3M40 73h10M56 73h14M76 73h2M80 73h2M84 73h3M93 73h32M129 73h32M167 73h2M171 73h2M179 73h12M197 73h4M207 73h3M214 73h3M223 73h2M231 73h25M0 74h21M27 74h2M31 74h3M40 74h10M56 74h14M76 74h2M80 74h2M84 74h3M93 74h32M129 74h32M167 74h2M171 74h2M179 74h1M181 74h10M197 74h4M207 74h3M214 74h3M223 74h2M231 74h25M0 75h21M27 75h2M31 75h3M40 75h10M56 75h14M76 75h2M80 75h2M84 75h3M93 75h32M129 75h32M167 75h2M171 75h2M179 75h12M197 75h4M207 75h3M214 75h3M223 75h2M231 75h25M0 76h21M27 76h2M31 76h3M40 76h10M56 76h14M76 76h2M80 76h2M84 76h3M93 76h32M129 76h32M167 76h2M171 76h2M179 76h12M197 76h4M207 76h3M214 76h3M223 76h2M231 76h25M0 77h21M27 77h7M40 77h10M56 77h4M66 77h4M76 77h2M80 77h2M84 77h3M93 77h32M129 77h32M167 77h6M179 77h12M197 77h4M207 77h3M214 77h3M223 77h2M231 77h25M0 79h21M27 79h7M40 79h10M56 79h2M64 79h2M68 79h2M76 79h2M80 79h2M84 79h3M93 79h32M129 79h32M167 79h6M179 79h12M197 79h4M207 79h4M213 79h4M223 79h2M231 79h25M0 80h22M27 80h7M40 80h10M56 80h2M64 80h2M68 80h2M76 80h2M80 80h2M84 80h3M93 80h32M129 80h33M167 80h6M179 80h12M197 80h4M207 80h10M223 80h2M231 80h25M0 81h23M27 81h7M40 81h10M56 81h2M64 81h2M68 81h2M76 81h2M80 81h2M84 81h3M93 81h32M129 81h34M167 81h6M179 81h12M197 81h4M207 81h10M223 81h2M231 81h25M0 82h24M28 82h6M40 82h10M56 82h2M64 82h2M68 82h2M76 82h2M80 82h2M84 82h3M93 82h32M129 82h35M168 82h5M179 82h12M197 82h4M207 82h10M223 82h2M231 82h25M0 83h25M29 83h5M40 83h10M56 83h2M64 83h2M68 83h2M76 83h2M80 83h2M84 83h3M93 83h32M129 83h36M169 83h4M179 83h12M197 83h4M207 83h10M223 83h2M231 83h2M235 83h21M0 85h25M31 85h3M40 85h10M56 85h2M64 85h2M68 85h2M76 85h2M80 85h2M84 85h3M93 85h32M129 85h36M171 85h2M179 85h12M197 85h4M207 85h10M223 85h2M235 85h21M0 86h20M21 86h4M31 86h3M40 86h3M44 86h6M56 86h2M64 86h2M68 86h2M79 86h3M84 86h3M93 86h3M97 86h13M111 86h14M129 86h4M134 86h31M171 86h2M179 86h8M188 86h3M197 86h4M207 86h10M223 86h2M235 86h21M0 87h25M31 87h3M40 87h10M56 87h2M64 87h2M68 87h2M78 87h4M84 87h3M93 87h32M129 87h36M171 87h2M179 87h12M197 87h4M207 87h10M223 87h2M231 87h2M235 87h21M0 89h25M31 89h3M40 89h10M56 89h2M64 89h2M68 89h2M76 89h2M80 89h2M84 89h3M93 89h32M129 89h36M171 89h2M179 89h12M197 89h4M207 89h10M223 89h2M231 89h25M0 92h25M31 92h3M40 92h3M47 92h3M56 92h2M64 92h2M68 92h2M76 92h2M80 92h2M84 92h3M93 92h32M129 92h36M171 92h2M179 92h12M197 92h4M207 92h10M223 92h2M231 92h25" />
<path stroke="#ffffff" d="M35 22h1M125 22h1M84 24h1M174 24h1M30 25h1M83 25h1M85 25h1M120 25h1M173 25h1M175 25h1M84 26h1M174 26h1M219 26h1M217 35h1M19 36h1M178 36h1M110 37h1M46 40h1M84 40h1M148 43h1M190 47h1M64 50h1M220 57h1M219 58h1M221 58h1M95 59h1M185 59h2M220 59h1M18 62h1M108 62h1M234 65h1M28 68h1M118 68h1M86 72h1M180 74h1M20 86h1M43 86h1M96 86h1M110 86h1M133 86h1M187 86h1" />
<path stroke="#f9eb7f" d="M125 48h4M128 49h1M128 50h1M127 51h2M22 55h1M24 55h1M29 55h1M36 55h1M38 55h1M163 55h1M169 55h1M176 55h2M185 55h2M188 55h1M193 55h1M200 55h1M202 55h1M29 56h1M33 56h1M36 56h1M162 56h1M169 56h2M176 56h1M193 56h1M197 56h1M200 56h1M24 57h1M29 57h1M33 57h1M36 57h1M169 57h1M188 57h1M193 57h1M200 57h1M29 58h1M33 58h1M36 58h1M166 58h1M173 58h1M180 58h1M193 58h1M197 58h1M200 58h1M24 59h1M29 59h2M32 59h2M36 59h1M38 59h3M163 59h2M166 59h1M169 59h1M173 59h1M176 59h1M180 59h1M188 59h1M193 59h2M196 59h2M200 59h1M202 59h3M24 60h1M29 60h1M33 60h1M36 60h1M162 60h1M166 60h1M169 60h1M173 60h1M176 60h1M180 60h1M188 60h1M193 60h1M197 60h1M200 60h1M24 61h1M29 61h1M33 61h1M36 61h1M162 61h1M166 61h1M169 61h1M173 61h1M176 61h1M179 61h1M188 61h1M193 61h1M197 61h1M200 61h1M24 62h1M29 62h1M33 62h1M36 62h5M125 62h4M162 62h1M166 62h1M169 62h1M173 62h1M176 62h3M188 62h1M193 62h1M197 62h1M200 62h5M117 63h8M127 63h11M117 64h1M127 64h2M135 64h3M26 65h3M37 65h1M53 65h1M75 65h3M117 65h1M127 65h1M135 65h3M166 65h3M176 65h1M192 65h7M208 65h3M216 65h3M230 65h3M25 66h3M37 66h2M53 66h2M74 66h3M127 66h1M165 66h3M176 66h2M193 66h5M206 66h3M210 66h3M214 66h3M218 66h3M229 66h3M24 67h3M37 67h2M53 67h2M73 67h3M84 67h6M127 67h1M164 67h3M176 67h2M194 67h3M205 67h3M212 67h2M219 67h3M228 67h3M24 68h2M37 68h1M53 68h1M73 68h2M83 68h1M88 68h3M127 68h1M164 68h2M176 68h1M194 68h3M204 68h3M212 68h2M220 68h3M228 68h2M24 69h1M30 69h1M73 69h1M79 69h1M83 69h1M89 69h3M164 69h1M170 69h1M194 69h2M204 69h2M212 69h1M220 69h2M228 69h1M30 70h1M39 70h1M55 70h1M79 70h1M83 70h1M90 70h2M170 70h1M178 70h1M194 70h1M204 70h1M220 70h1M26 71h1M38 71h2M54 71h2M75 71h1M83 71h1M90 71h1M166 71h1M177 71h2M230 71h1M25 72h2M30 72h1M37 72h2M53 72h2M74 72h2M79 72h1M83 72h1M165 72h2M170 72h1M176 72h2M196 72h1M206 72h1M213 72h1M222 72h1M229 72h2M24 73h2M30 73h1M37 73h1M39 73h1M53 73h1M55 73h1M73 73h2M79 73h1M83 73h1M92 73h1M164 73h2M170 73h1M176 73h1M178 73h1M195 73h2M205 73h2M212 73h2M221 73h2M228 73h2M24 74h1M26 74h1M30 74h1M38 74h2M54 74h2M73 74h1M75 74h1M79 74h1M83 74h1M91 74h2M164 74h1M166 74h1M170 74h1M177 74h2M194 74h2M204 74h2M212 74h1M220 74h2M228 74h1M230 74h1M25 75h2M30 75h1M37 75h3M53 75h3M74 75h2M79 75h1M83 75h1M90 75h2M165 75h2M170 75h1M176 75h3M194 75h1M196 75h1M204 75h1M206 75h1M213 75h1M220 75h1M222 75h1M229 75h2M24 76h3M30 76h1M37 76h3M53 76h3M73 76h3M79 76h1M83 76h1M90 76h1M92 76h1M164 76h3M170 76h1M176 76h3M195 76h2M205 76h2M212 76h2M221 76h2M228 76h3M24 77h3M37 77h3M53 77h3M63 77h3M73 77h3M79 77h1M83 77h1M91 77h2M164 77h3M176 77h3M194 77h3M204 77h3M212 77h2M220 77h3M228 77h3M24 78h3M37 78h3M53 78h3M62 78h3M73 78h3M79 78h1M83 78h1M90 78h3M164 78h3M176 78h3M194 78h3M204 78h3M212 78h2M220 78h3M228 78h3M24 79h3M37 79h3M53 79h3M61 79h3M73 79h3M79 79h1M83 79h1M90 79h3M164 79h3M176 79h3M194 79h3M204 79h3M212 79h1M220 79h3M228 79h3M25 80h2M37 80h3M53 80h3M61 80h2M73 80h3M79 80h1M83 80h1M90 80h3M165 80h2M176 80h3M194 80h3M204 80h3M220 80h3M228 80h3M26 81h1M37 81h3M53 81h3M61 81h1M67 81h1M73 81h3M79 81h1M83 81h1M90 81h3M166 81h1M176 81h3M194 81h3M204 81h3M220 81h3M228 81h3M27 82h1M37 82h3M53 82h3M67 82h1M73 82h3M79 82h1M83 82h1M90 82h3M167 82h1M176 82h3M194 82h3M204 82h3M220 82h3M228 82h3M28 83h1M37 83h3M53 83h3M63 83h1M73 83h3M79 83h1M83 83h1M90 83h3M168 83h1M176 83h3M194 83h3M204 83h3M220 83h3M228 83h3M234 83h1M28 84h1M37 84h3M53 84h3M62 84h2M67 84h1M73 84h3M79 84h1M83 84h1M90 84h3M168 84h1M176 84h3M194 84h3M204 84h3M220 84h3M228 84h3M234 84h1M37 85h3M53 85h3M61 85h2M67 85h1M73 85h3M79 85h1M83 85h1M90 85h3M176 85h3M194 85h3M204 85h3M220 85h3M228 85h7M30 86h1M37 86h3M53 86h3M61 86h1M63 86h1M67 86h1M73 86h4M78 86h1M83 86h1M90 86h3M170 86h1M176 86h3M194 86h3M204 86h3M220 86h3M228 86h3M234 86h1M29 87h2M37 87h3M53 87h3M62 87h2M67 87h1M73 87h5M83 87h1M90 87h3M169 87h2M176 87h3M194 87h3M204 87h3M220 87h3M228 87h3M234 87h1M28 88h2M37 88h3M53 88h3M61 88h3M67 88h1M73 88h3M78 88h1M83 88h1M90 88h3M168 88h2M176 88h3M194 88h3M204 88h3M220 88h3M228 88h3M234 88h1M28 89h1M30 89h1M37 89h3M53 89h3M61 89h3M67 89h1M73 89h3M79 89h1M83 89h1M90 89h3M168 89h1M170 89h1M176 89h3M194 89h3M204 89h3M220 89h3M228 89h3M29 90h2M37 90h3M45 90h1M53 90h3M61 90h3M67 90h1M73 90h3M79 90h1M83 90h1M90 90h3M169 90h2M176 90h3M194 90h3M204 90h3M220 90h3M228 90h3M28 91h3M37 91h3M45 91h1M53 91h3M61 91h3M67 91h1M73 91h3M79 91h1M83 91h1M90 91h3M168 91h3M176 91h3M194 91h3M204 91h3M220 91h3M228 91h3M28 92h3M37 92h3M53 92h3M61 92h3M67 92h1M73 92h3M79 92h1M83 92h1M90 92h3M168 92h3M176 92h3M194 92h3M204 92h3M220 92h3M228 92h3M28 93h3M37 93h3M53 93h3M61 93h3M67 93h1M73 93h3M79 93h1M83 93h1M90 93h3M168 93h3M176 93h3M194 93h3M204 93h3M220 93h3M228 93h3M28 94h3M37 94h3M46 94h1M53 94h3M61 94h3M67 94h1M73 94h3M79 94h1M83 94h1M90 94h3M168 94h3M176 94h3M194 94h3M204 94h3M220 94h3M228 94h3M22 95h1M28 95h3M37 95h3M45 95h2M53 95h3M61 95h3M67 95h1M73 95h3M79 95h1M83 95h1M90 95h3M162 95h1M168 95h3M176 95h3M194 95h3M204 95h3M220 95h3M228 95h3M22 96h1M28 96h3M37 96h3M45 96h1M53 96h3M61 96h3M67 96h1M73 96h3M79 96h1M83 96h1M90 96h3M162 96h1M168 96h3M176 96h3M194 96h3M204 96h3M220 96h3M228 96h3M22 97h1M28 97h3M37 97h3M46 97h1M53 97h3M61 97h3M67 97h1M73 97h3M79 97h1M83 97h1M89 97h3M162 97h1M168 97h3M176 97h3M194 97h3M204 97h3M220 97h3M228 97h3M22 98h1M28 98h3M37 98h3M45 98h2M53 98h3M62 98h3M66 98h1M73 98h3M79 98h1M83 98h1M88 98h3M162 98h1M168 98h3M176 98h3M194 98h3M204 98h3M220 98h3M228 98h3M22 99h1M28 99h3M37 99h3M45 99h2M53 99h3M63 99h3M73 99h3M79 99h1M84 99h6M162 99h1M168 99h3M176 99h3M194 99h3M204 99h3M220 99h3M228 99h3M22 100h1M28 100h3M37 100h3M45 100h2M53 100h3M73 100h3M79 100h1M162 100h1M168 100h3M176 100h3M194 100h3M204 100h3M220 100h3M228 100h3M22 101h1M28 101h3M37 101h3M45 101h2M53 101h3M73 101h3M162 101h1M168 101h3M176 101h3M194 101h3M204 101h3M220 101h3M228 101h3M234 101h1M22 102h1M28 102h3M38 102h3M45 102h2M52 102h3M73 102h3M162 102h1M168 102h3M176 102h3M194 102h3M204 102h3M220 102h3M228 102h3M234 102h1M23 103h1M27 103h3M39 103h3M43 103h3M47 103h3M51 103h3M73 103h2M163 103h1M167 103h3M177 103h3M193 103h5M204 103h2M220 103h2M229 103h3M233 103h1M24 104h5M41 104h3M49 104h3M73 104h1M164 104h5M178 104h9M192 104h7M204 104h1M220 104h1M230 104h3" />
<path stroke="#545829" d="M125 49h1M125 50h1M125 51h2M21 55h1M28 55h1M32 55h1M35 55h1M162 55h1M168 55h1M170 55h1M175 55h1M184 55h1M192 55h1M196 55h1M199 55h1M23 56h1M28 56h1M32 56h1M35 56h1M161 56h1M164 56h1M168 56h1M171 56h1M175 56h1M178 56h1M187 56h1M192 56h1M196 56h1M199 56h1M23 57h1M28 57h1M32 57h1M35 57h1M161 57h1M165 57h1M168 57h1M172 57h1M175 57h1M179 57h1M187 57h1M192 57h1M196 57h1M199 57h1M23 58h1M28 58h1M32 58h1M35 58h1M161 58h1M165 58h1M168 58h1M172 58h1M175 58h1M179 58h1M187 58h1M192 58h1M196 58h1M199 58h1M23 59h1M28 59h1M35 59h1M161 59h1M168 59h1M172 59h1M175 59h1M179 59h1M187 59h1M192 59h1M199 59h1M23 60h1M28 60h1M32 60h1M35 60h1M161 60h1M165 60h1M168 60h1M172 60h1M175 60h1M179 60h1M187 60h1M192 60h1M196 60h1M199 60h1M23 61h1M28 61h1M32 61h1M35 61h1M161 61h1M165 61h1M168 61h1M172 61h1M175 61h1M178 61h1M187 61h1M192 61h1M196 61h1M199 61h1M23 62h1M28 62h1M32 62h1M35 62h1M161 62h1M165 62h1M168 62h1M172 62h1M175 62h1M187 62h1M192 62h1M196 62h1M199 62h1M125 63h2M118 64h9M129 64h6M23 65h3M36 65h1M52 65h1M72 65h3M118 65h2M126 65h1M163 65h3M175 65h1M189 65h3M205 65h3M213 65h3M227 65h3M22 66h3M28 66h1M35 66h2M51 66h2M71 66h3M77 66h1M126 66h1M162 66h3M168 66h1M174 66h2M190 66h3M203 66h3M209 66h1M213 66h1M217 66h1M226 66h3M232 66h1M21 67h3M29 67h1M34 67h3M50 67h3M70 67h3M78 67h1M83 67h1M126 67h1M161 67h3M169 67h1M173 67h3M191 67h3M202 67h3M210 67h2M217 67h2M225 67h3M233 67h1M21 68h3M29 68h1M34 68h3M50 68h3M70 68h3M78 68h1M82 68h1M85 68h3M126 68h1M161 68h3M169 68h1M173 68h3M191 68h3M201 68h3M210 68h2M217 68h3M225 68h3M233 68h1M21 69h3M29 69h1M34 69h3M50 69h3M70 69h3M78 69h1M82 69h1M86 69h3M161 69h3M169 69h1M173 69h3M191 69h3M201 69h3M210 69h2M217 69h3M225 69h3M21 70h3M29 70h1M34 70h3M50 70h3M70 70h3M78 70h1M82 70h1M87 70h3M161 70h3M169 70h1M173 70h3M191 70h3M201 70h3M210 70h2M217 70h3M225 70h3M21 71h3M29 71h1M34 71h3M50 71h3M70 71h3M78 71h1M82 71h1M87 71h3M161 71h3M169 71h1M173 71h3M191 71h3M201 71h3M210 71h2M217 71h3M225 71h3M21 72h3M29 72h1M34 72h3M50 72h3M70 72h3M78 72h1M82 72h1M87 72h3M161 72h3M169 72h1M173 72h3M191 72h3M201 72h3M210 72h2M217 72h3M225 72h3M21 73h3M29 73h1M34 73h3M50 73h3M70 73h3M78 73h1M82 73h1M87 73h3M161 73h3M169 73h1M173 73h3M191 73h3M201 73h3M210 73h2M217 73h3M225 73h3M21 74h3M29 74h1M34 74h3M50 74h3M70 74h3M78 74h1M82 74h1M87 74h3M161 74h3M169 74h1M173 74h3M191 74h3M201 74h3M210 74h2M217 74h3M225 74h3M21 75h3M29 75h1M34 75h3M50 75h3M70 75h3M78 75h1M82 75h1M87 75h3M161 75h3M169 75h1M173 75h3M191 75h3M201 75h3M210 75h2M217 75h3M225 75h3M21 76h3M29 76h1M34 76h3M50 76h3M70 76h3M78 76h1M82 76h1M87 76h3M161 76h3M169 76h1M173 76h3M191 76h3M201 76h3M210 76h2M217 76h3M225 76h3M21 77h3M34 77h3M50 77h3M60 77h3M70 77h3M78 77h1M82 77h1M87 77h3M161 77h3M173 77h3M191 77h3M201 77h3M210 77h2M217 77h3M225 77h3M21 78h3M34 78h3M50 78h3M59 78h3M65 78h1M70 78h3M78 78h1M82 78h1M87 78h3M161 78h3M173 78h3M191 78h3M201 78h3M210 78h2M217 78h3M225 78h3M21 79h3M34 79h3M50 79h3M58 79h3M66 79h1M70 79h3M78 79h1M82 79h1M87 79h3M161 79h3M173 79h3M191 79h3M201 79h3M211 79h1M217 79h3M225 79h3M22 80h3M34 80h3M50 80h3M58 80h3M66 80h1M70 80h3M78 80h1M82 80h1M87 80h3M162 80h3M173 80h3M191 80h3M201 80h3M217 80h3M225 80h3M23 81h3M34 81h3M50 81h3M58 81h3M66 81h1M70 81h3M78 81h1M82 81h1M87 81h3M163 81h3M173 81h3M191 81h3M201 81h3M217 81h3M225 81h3M24 82h3M34 82h3M50 82h3M58 82h3M66 82h1M70 82h3M78 82h1M82 82h1M87 82h3M164 82h3M173 82h3M191 82h3M201 82h3M217 82h3M225 82h3M25 83h3M34 83h3M50 83h3M58 83h3M66 83h1M70 83h3M78 83h1M82 83h1M87 83h3M165 83h3M173 83h3M191 83h3M201 83h3M217 83h3M225 83h3M233 83h1M25 84h3M34 84h3M50 84h3M58 84h3M66 84h1M70 84h3M78 84h1M82 84h1M87 84h3M165 84h3M173 84h3M191 84h3M201 84h3M217 84h3M225 84h3M233 84h1M25 85h3M34 85h3M50 85h3M58 85h3M66 85h1M70 85h3M78 85h1M82 85h1M87 85h3M165 85h3M173 85h3M191 85h3M201 85h3M217 85h3M225 85h3M25 86h3M34 86h3M50 86h3M58 86h3M66 86h1M70 86h3M77 86h1M82 86h1M87 86h3M165 86h3M173 86h3M191 86h3M201 86h3M217 86h3M225 86h3M231 86h3M25 87h3M34 87h3M50 87h3M58 87h3M66 87h1M70 87h3M82 87h1M87 87h3M165 87h3M173 87h3M191 87h3M201 87h3M217 87h3M225 87h3M233 87h1M25 88h3M34 88h3M50 88h3M58 88h3M66 88h1M70 88h3M76 88h2M82 88h1M87 88h3M165 88h3M173 88h3M191 88h3M201 88h3M217 88h3M225 88h3M233 88h1M25 89h3M34 89h3M50 89h3M58 89h3M66 89h1M70 89h3M78 89h1M82 89h1M87 89h3M165 89h3M173 89h3M191 89h3M201 89h3M217 89h3M225 89h3M25 90h3M34 90h3M44 90h1M50 90h3M58 90h3M66 90h1M70 90h3M78 90h1M82 90h1M87 90h3M165 90h3M173 90h3M191 90h3M201 90h3M217 90h3M225 90h3M25 91h3M34 91h3M43 91h2M50 91h3M58 91h3M66 91h1M70 91h3M78 91h1M82 91h1M87 91h3M165 91h3M173 91h3M191 91h3M201 91h3M217 91h3M225 91h3M25 92h3M34 92h3M43 92h2M50 92h3M58 92h3M66 92h1M70 92h3M78 92h1M82 92h1M87 92h3M165 92h3M173 92h3M191 92h3M201 92h3M217 92h3M225 92h3M25 93h3M34 93h3M43 93h2M50 93h3M58 93h3M66 93h1M70 93h3M78 93h1M82 93h1M87 93h3M165 93h3M173 93h3M191 93h3M201 93h3M217 93h3M225 93h3M25 94h3M34 94h3M43 94h2M50 94h3M58 94h3M66 94h1M70 94h3M78 94h1M82 94h1M87 94h3M165 94h3M173 94h3M191 94h3M201 94h3M217 94h3M225 94h3M21 95h1M25 95h3M34 95h3M43 95h2M50 95h3M58 95h3M66 95h1M70 95h3M78 95h1M82 95h1M87 95h3M161 95h1M165 95h3M173 95h3M191 95h3M201 95h3M217 95h3M225 95h3M21 96h1M25 96h3M34 96h3M43 96h2M50 96h3M58 96h3M66 96h1M70 96h3M78 96h1M82 96h1M87 96h3M161 96h1M165 96h3M173 96h3M191 96h3M201 96h3M217 96h3M225 96h3M21 97h1M25 97h3M34 97h3M43 97h2M50 97h3M58 97h3M66 97h1M70 97h3M78 97h1M82 97h1M86 97h3M161 97h1M165 97h3M173 97h3M191 97h3M201 97h3M217 97h3M225 97h3M21 98h1M25 98h3M34 98h3M43 98h2M50 98h3M59 98h3M65 98h1M70 98h3M78 98h1M82 98h1M85 98h3M161 98h1M165 98h3M173 98h3M191 98h3M201 98h3M217 98h3M225 98h3M21 99h1M25 99h3M34 99h3M43 99h2M50 99h3M60 99h3M70 99h3M78 99h1M83 99h1M161 99h1M165 99h3M173 99h3M191 99h3M201 99h3M217 99h3M225 99h3M21 100h1M25 100h3M34 100h3M43 100h2M50 100h3M70 100h3M78 100h1M161 100h1M165 100h3M173 100h3M191 100h3M201 100h3M217 100h3M225 100h3M21 101h1M25 101h3M34 101h3M43 101h2M50 101h3M70 101h3M78 101h1M161 101h1M165 101h3M173 101h3M191 101h3M201 101h3M217 101h3M225 101h3M233 101h1M21 102h1M25 102h3M35 102h3M43 102h2M50 102h2M70 102h3M161 102h1M165 102h3M173 102h3M191 102h3M201 102h3M217 102h3M225 102h3M233 102h1M22 103h1M24 103h3M36 103h3M42 103h1M46 103h1M50 103h1M71 103h2M162 103h1M164 103h3M172 103h5M190 103h3M202 103h2M218 103h2M226 103h3M232 103h1M23 104h1M38 104h3M46 104h3M72 104h1M163 104h1M171 104h7M188 104h4M203 104h1M219 104h1M227 104h3" />
<path stroke="#e60000" d="M126 49h2M126 50h2" />
<path stroke="#4c5000" d="M126 52h2M126 55h2M126 57h2M126 58h2M126 60h2M126 61h2" />
<path stroke="#646931" d="M126 53h2M126 54h2M126 56h2M126 59h2" />
<path stroke="#f6f9ff" d="M23 55h1M25 55h2M33 55h1M37 55h1M39 55h2M164 55h2M171 55h2M178 55h1M187 55h1M189 55h2M197 55h1M201 55h1M203 55h2M24 56h1M163 56h1M165 56h2M172 56h2M179 56h1M188 56h1M162 57h1M166 57h1M173 57h1M176 57h1M180 57h1M197 57h1M24 58h1M162 58h1M169 58h1M176 58h1M188 58h1M31 59h1M37 59h1M162 59h1M165 59h1M195 59h1M201 59h1M128 65h1M29 66h1M78 66h1M128 66h1M169 66h1M233 66h1M30 67h1M39 67h1M55 67h1M79 67h1M128 67h1M170 67h1M178 67h1M234 67h1M26 68h1M30 68h1M38 68h2M54 68h2M75 68h1M79 68h1M128 68h1M166 68h1M170 68h1M177 68h2M230 68h1M234 68h1M25 69h2M37 69h3M53 69h3M74 69h2M128 69h1M165 69h2M176 69h3M196 69h1M206 69h1M213 69h1M222 69h1M229 69h2M24 70h3M37 70h2M53 70h2M73 70h3M92 70h1M128 70h1M164 70h3M176 70h2M195 70h2M205 70h2M212 70h2M221 70h2M228 70h3M24 71h2M30 71h1M37 71h1M53 71h1M73 71h2M79 71h1M91 71h2M127 71h2M164 71h2M170 71h1M176 71h1M194 71h3M204 71h3M212 71h2M220 71h3M228 71h2M24 72h1M39 72h1M55 72h1M73 72h1M90 72h3M127 72h2M164 72h1M178 72h1M194 72h2M204 72h2M212 72h1M220 72h2M228 72h1M26 73h1M38 73h1M54 73h1M75 73h1M90 73h2M126 73h3M166 73h1M177 73h1M194 73h1M204 73h1M220 73h1M230 73h1M25 74h1M37 74h1M53 74h1M74 74h1M90 74h1M125 74h4M165 74h1M176 74h1M196 74h1M206 74h1M213 74h1M222 74h1M229 74h1M24 75h1M73 75h1M92 75h1M125 75h2M128 75h1M164 75h1M195 75h1M205 75h1M212 75h1M221 75h1M228 75h1M91 76h1M125 76h1M128 76h1M194 76h1M204 76h1M220 76h1M90 77h1M125 77h1M128 77h1M66 78h1M128 78h1M67 79h1M127 79h2M63 80h1M67 80h1M127 80h2M62 81h2M126 81h1M128 81h1M61 82h3M126 82h1M128 82h1M61 83h2M67 83h1M125 83h1M128 83h1M29 84h1M61 84h1M125 84h1M128 84h1M169 84h1M28 85h3M63 85h1M128 85h1M168 85h3M28 86h2M62 86h1M128 86h1M168 86h2M28 87h1M61 87h1M128 87h1M168 87h1M30 88h1M128 88h1M170 88h1M29 89h1M128 89h1M169 89h1M28 90h1M128 90h1M168 90h1M46 91h1M128 91h1M45 92h2M128 92h1M45 93h2M128 93h1M45 94h1M46 96h1M45 97h1" />
<path stroke="#8994aa" d="M125 65h1M125 66h1M125 67h1M125 68h1M125 69h3M125 70h3M125 71h2M125 72h2M125 73h1M127 75h1M126 76h2M126 77h2M125 78h3M125 79h2M125 80h2M125 81h1M127 81h1M125 82h1M127 82h1M126 83h2M126 84h2M125 85h3M125 86h3M125 87h3M125 88h3M125 89h3M125 90h3M125 91h3M125 92h3M125 93h3" />
<path stroke="#246645" d="M0 78h21M27 78h7M40 78h10M56 78h3M67 78h3M76 78h2M80 78h2M84 78h3M93 78h32M129 78h32M167 78h6M179 78h12M197 78h4M207 78h3M214 78h3M223 78h2M231 78h25M0 84h25M30 84h4M40 84h10M56 84h2M64 84h2M68 84h2M76 84h2M80 84h2M84 84h3M93 84h32M129 84h36M170 84h3M179 84h12M197 84h4M207 84h10M223 84h2M231 84h2M235 84h21M0 88h25M31 88h3M40 88h10M56 88h2M64 88h2M68 88h2M79 88h3M84 88h3M93 88h32M129 88h36M171 88h2M179 88h12M197 88h4M207 88h10M223 88h2M231 88h2M235 88h21M0 90h25M31 90h3M40 90h4M46 90h4M56 90h2M64 90h2M68 90h2M76 90h2M80 90h2M84 90h3M93 90h32M129 90h36M171 90h2M179 90h12M197 90h4M207 90h10M223 90h2M231 90h25M0 91h25M31 91h3M40 91h3M47 91h3M56 91h2M64 91h2M68 91h2M76 91h2M80 91h2M84 91h3M93 91h32M129 91h36M171 91h2M179 91h12M197 91h4M207 91h10M223 91h2M231 91h25M0 93h25M31 93h3M40 93h3M47 93h3M56 93h2M64 93h2M68 93h2M76 93h2M80 93h2M84 93h3M93 93h32M129 93h36M171 93h2M179 93h12M197 93h4M207 93h10M223 93h2M231 93h25M0 94h25M31 94h3M40 94h3M47 94h3M56 94h2M64 94h2M68 94h2M76 94h2M80 94h2M84 94h3M93 94h24M138 94h27M171 94h2M179 94h12M197 94h4M207 94h10M223 94h2M231 94h25M0 95h21M23 95h2M31 95h3M40 95h3M47 95h3M56 95h2M64 95h2M68 95h2M76 95h2M80 95h2M84 95h3M93 95h24M138 95h23M163 95h2M171 95h2M179 95h12M197 95h4M207 95h10M223 95h2M231 95h25M0 96h21M23 96h2M31 96h3M40 96h3M47 96h3M56 96h2M64 96h2M68 96h2M76 96h2M80 96h2M84 96h3M93 96h24M138 96h23M163 96h2M171 96h2M179 96h12M197 96h4M207 96h10M223 96h2M231 96h25M0 97h21M23 97h2M31 97h3M40 97h3M47 97h3M56 97h2M64 97h2M68 97h2M76 97h2M80 97h2M84 97h2M92 97h26M136 97h25M163 97h2M171 97h2M179 97h12M197 97h4M207 97h10M223 97h2M231 97h25M0 99h21M23 99h2M31 99h3M40 99h3M47 99h3M56 99h4M66 99h4M76 99h2M80 99h3M90 99h28M136 99h25M163 99h2M171 99h2M179 99h12M197 99h4M207 99h10M223 99h2M231 99h25M0 100h21M23 100h2M31 100h3M40 100h3M47 100h3M56 100h14M76 100h2M80 100h38M136 100h25M163 100h2M171 100h2M179 100h12M197 100h4M207 100h10M223 100h2M231 100h25M0 101h21M23 101h2M31 101h3M40 101h3M47 101h3M56 101h14M76 101h2M79 101h39M136 101h25M163 101h2M171 101h2M179 101h12M197 101h4M207 101h10M223 101h2M231 101h2M235 101h21" />
<path stroke="#737753" d="M117 94h10M117 95h10M117 96h10M118 97h18M118 98h18M118 99h18M118 100h10M118 101h10M118 102h18M118 103h18M118 104h10M118 105h10M115 106h10M115 107h3M120 107h5M115 108h2M121 108h3M115 109h2M121 109h3M126 109h1M129 109h1M132 109h2" />
<path stroke="#9ea276" d="M127 94h11M127 95h11M127 96h11M128 100h8M128 101h8M128 104h8M128 105h8M125 106h14M125 107h13M126 108h1M129 108h1M132 108h3M134 109h1" />
<path stroke="#09b8d3" d="M0 98h21M23 98h2M31 98h3M40 98h3M47 98h3M56 98h3M67 98h3M76 98h2M80 98h2M84 98h1M91 98h27M136 98h25M163 98h2M171 98h2M179 98h12M197 98h4M207 98h10M223 98h2M231 98h25M0 102h21M23 102h2M31 102h4M41 102h2M47 102h3M55 102h15M76 102h42M136 102h25M163 102h2M171 102h2M179 102h12M197 102h4M207 102h10M223 102h2M231 102h2M235 102h21M0 103h22M30 103h6M54 103h17M75 103h43M136 103h26M170 103h2M180 103h10M198 103h4M206 103h12M222 103h4M234 103h22M0 104h23M29 104h9M44 104h2M52 104h20M74 104h44M136 104h27M169 104h2M187 104h1M199 104h4M205 104h14M221 104h6M233 104h23M0 105h118M136 105h120M0 106h115M139 106h117M0 107h3M5 107h42M49 107h18M68 107h12M82 107h14M97 107h5M103 107h12M139 107h12M153 107h103M0 108h2M6 108h3M11 108h1M14 108h1M17 108h3M23 108h7M32 108h13M46 108h1M50 108h3M55 108h1M58 108h1M61 108h3M68 108h2M71 108h3M77 108h2M83 108h3M88 108h1M91 108h1M94 108h1M97 108h1M99 108h3M104 108h1M106 108h2M111 108h1M139 108h2M142 108h3M148 108h2M154 108h3M159 108h1M162 108h1M165 108h3M171 108h7M180 108h16M198 108h18M217 108h12M231 108h3M236 108h7M245 108h11M0 109h2M6 109h3M11 109h1M14 109h1M17 109h3M23 109h7M32 109h13M46 109h1M50 109h3M55 109h1M58 109h1M61 109h3M68 109h2M71 109h3M77 109h2M83 109h3M88 109h1M91 109h1M94 109h1M97 109h1M99 109h3M104 109h1M106 109h2M111 109h1M139 109h2M142 109h3M148 109h2M154 109h3M159 109h1M162 109h1M165 109h3M171 109h7M180 109h14M195 109h1M199 109h3M204 109h1M207 109h1M210 109h3M217 109h2M220 109h3M226 109h2M232 109h2M236 109h7M245 109h11M23 110h1M27 110h2M33 110h3M38 110h1M41 110h1M44 110h1M171 110h1M175 110h2M181 110h3M187 110h1M190 110h1M193 110h1M195 110h1M199 110h3M204 110h1M207 110h1M210 110h3M217 110h2M220 110h3M226 110h2M232 110h2M236 110h1M240 110h2M246 110h3M252 110h1M255 110h1" />
<path stroke="#557a41" d="M3 107h2M47 107h2M67 107h1M80 107h2M96 107h1M102 107h1M118 107h2M138 107h1M151 107h2M2 108h4M9 108h2M12 108h2M15 108h2M20 108h3M30 108h2M45 108h1M47 108h3M53 108h2M56 108h2M59 108h2M64 108h4M70 108h1M74 108h3M79 108h4M86 108h2M89 108h2M92 108h2M95 108h2M98 108h1M102 108h2M105 108h1M108 108h3M112 108h3M117 108h4M124 108h2M127 108h2M130 108h2M135 108h4M141 108h1M145 108h3M150 108h4M157 108h2M160 108h2M163 108h2M168 108h3M178 108h2M196 108h2M216 108h1M229 108h2M234 108h2M243 108h2M2 109h4M9 109h2M12 109h2M15 109h2M20 109h3M30 109h2M45 109h1M47 109h3M53 109h2M56 109h2M59 109h2M64 109h4M70 109h1M74 109h3M79 109h4M86 109h2M89 109h2M92 109h2M95 109h2M98 109h1M102 109h2M105 109h1M108 109h3M112 109h3M117 109h4M124 109h2M127 109h2M130 109h2M135 109h4M141 109h1M145 109h3M150 109h4M157 109h2M160 109h2M163 109h2M168 109h3M178 109h2M194 109h1M196 109h3M202 109h2M205 109h2M208 109h2M213 109h4M219 109h1M223 109h3M228 109h4M234 109h2M243 109h2M0 110h23M24 110h3M29 110h4M36 110h2M39 110h2M42 110h2M45 110h126M172 110h3M177 110h4M184 110h3M188 110h2M191 110h2M194 110h1M196 110h3M202 110h2M205 110h2M208 110h2M213 110h4M219 110h1M223 110h3M228 110h4M234 110h2M237 110h3M242 110h4M249 110h3M253 110h2M3 111h2M6 111h6M14 111h1M17 111h3M21 111h26M49 111h3M53 111h2M58 111h1M61 111h1M65 111h2M68 111h3M73 111h1M76 111h1M80 111h2M83 111h6M91 111h1M94 111h14M109 111h2M112 111h3M117 111h1M120 111h3M124 111h2M129 111h1M132 111h1M136 111h2M139 111h3M144 111h1M147 111h1M151 111h2M154 111h6M162 111h1M165 111h3M169 111h87M3 112h2M6 112h6M14 112h1M17 112h3M21 112h26M49 112h3M53 112h2M58 112h1M61 112h1M65 112h2M68 112h3M73 112h1M76 112h1M80 112h2M83 112h6M91 112h1M94 112h14M109 112h2M112 112h3M117 112h1M120 112h3M124 112h2M129 112h1M132 112h1M136 112h2M139 112h3M144 112h1M147 112h1M151 112h2M154 112h6M162 112h1M165 112h3M169 112h27M198 112h3M202 112h2M207 112h1M210 112h1M214 112h2M217 112h3M222 112h1M225 112h1M229 112h2M232 112h24M24 113h3M29 113h1M32 113h3M36 113h2M41 113h1M44 113h1M172 113h3M177 113h1M180 113h3M184 113h3M190 113h1M193 113h3M198 113h3M202 113h2M207 113h1M210 113h1M214 113h2M217 113h3M222 113h1M225 113h1M229 113h2M232 113h2M237 113h3M242 113h1M245 113h3M249 113h3M255 113h1" />
<path stroke="#3c552e" d="M0 111h3M5 111h1M12 111h2M15 111h2M20 111h1M47 111h2M52 111h1M55 111h3M59 111h2M62 111h3M67 111h1M71 111h2M74 111h2M77 111h3M82 111h1M89 111h2M92 111h2M108 111h1M111 111h1M115 111h2M118 111h2M123 111h1M126 111h3M130 111h2M133 111h3M138 111h1M142 111h2M145 111h2M148 111h3M153 111h1M160 111h2M163 111h2M168 111h1M0 112h3M5 112h1M12 112h2M15 112h2M20 112h1M47 112h2M52 112h1M55 112h3M59 112h2M62 112h3M67 112h1M71 112h2M74 112h2M77 112h3M82 112h1M89 112h2M92 112h2M108 112h1M111 112h1M115 112h2M118 112h2M123 112h1M126 112h3M130 112h2M133 112h3M138 112h1M142 112h2M145 112h2M148 112h3M153 112h1M160 112h2M163 112h2M168 112h1M196 112h2M201 112h1M204 112h3M208 112h2M211 112h3M216 112h1M220 112h2M223 112h2M226 112h3M231 112h1M0 113h24M27 113h2M30 113h2M35 113h1M38 113h3M42 113h2M45 113h127M175 113h2M178 113h2M183 113h1M187 113h3M191 113h2M196 113h2M201 113h1M204 113h3M208 113h2M211 113h3M216 113h1M220 113h2M223 113h2M226 113h3M231 113h1M234 113h3M240 113h2M243 113h2M248 113h1M252 113h3M0 114h8M17 114h239M0 115h8M17 115h53M76 115h9M94 115h47M147 115h9M165 115h54M225 115h31M0 116h6M17 116h4M23 116h23M47 116h23M76 116h9M94 116h47M147 116h9M165 116h30M196 116h23M225 116h31M24 117h8M33 117h6M42 117h3M47 117h2M50 117h6M59 117h3M64 117h3M76 117h7M94 117h5M102 117h5M108 117h1M112 117h8M121 117h6M130 117h3M135 117h3M147 117h7M165 117h4M171 117h23M196 117h2M199 117h6M208 117h3M213 117h3M225 117h7M236 117h20M24 118h8M33 118h6M42 118h3M64 118h1M94 118h5M102 118h5M115 118h3M135 118h1M172 118h8M181 118h7M191 118h3M213 118h1M237 118h8M246 118h7M27 119h3M64 119h1M104 119h1M115 119h3M135 119h1M172 119h8M181 119h7M191 119h3M213 119h1M237 119h8M246 119h7M27 120h2M64 120h1M115 120h2M135 120h1M175 120h3M213 120h1M240 120h3M175 121h2M240 121h2M175 122h2M240 122h2" />
<path stroke="#2e261a" d="M8 114h9M8 115h6M15 115h2M70 115h6M85 115h2M145 115h2M156 115h2M159 115h3M219 115h4M224 115h1M6 116h4M11 116h6M21 116h2M70 116h4M75 116h1M85 116h2M90 116h1M141 116h1M145 116h2M156 116h6M219 116h6M1 117h3M6 117h4M12 117h11M32 117h1M49 117h1M56 117h3M63 117h1M67 117h1M70 117h4M83 117h4M88 117h1M93 117h1M107 117h1M133 117h2M138 117h5M145 117h2M154 117h8M163 117h1M169 117h2M195 117h1M198 117h1M205 117h3M211 117h2M216 117h9M233 117h3M1 118h2M6 118h2M9 118h8M18 118h5M32 118h1M46 118h15M65 118h2M70 118h2M73 118h8M82 118h5M92 118h2M107 118h3M112 118h1M121 118h14M139 118h3M145 118h2M148 118h8M157 118h5M167 118h5M188 118h3M194 118h7M204 118h3M210 118h2M214 118h7M222 118h5M232 118h5M253 118h3M6 119h10M17 119h5M26 119h1M30 119h6M39 119h5M46 119h5M52 119h10M70 119h10M81 119h5M90 119h6M99 119h5M105 119h6M114 119h1M118 119h1M121 119h5M127 119h8M136 119h1M145 119h10M156 119h5M165 119h7M180 119h1M188 119h3M194 119h8M210 119h3M214 119h6M221 119h5M230 119h7M245 119h1M253 119h3M1 120h2M7 120h5M13 120h8M25 120h2M29 120h1M31 120h5M38 120h6M46 120h16M65 120h2M71 120h5M77 120h8M89 120h7M98 120h7M106 120h5M113 120h2M117 120h2M121 120h14M136 120h1M139 120h3M146 120h5M152 120h8M164 120h5M170 120h5M178 120h5M185 120h17M204 120h3M211 120h2M214 120h2M217 120h8M229 120h5M235 120h5M243 120h5M250 120h6M1 121h3M7 121h12M25 121h3M29 121h7M38 121h7M46 121h2M49 121h6M56 121h6M63 121h5M71 121h12M89 121h3M93 121h3M98 121h7M106 121h5M113 121h7M121 121h2M124 121h6M131 121h6M138 121h5M146 121h12M164 121h3M168 121h7M177 121h7M185 121h3M189 121h6M196 121h6M203 121h5M211 121h12M229 121h3M233 121h7M242 121h7M250 121h3M254 121h2M1 122h3M5 122h1M9 122h7M22 122h2M27 122h8M37 122h8M46 122h8M55 122h5M64 122h4M69 122h1M73 122h7M86 122h2M91 122h6M98 122h7M107 122h3M112 122h8M121 122h8M130 122h5M139 122h4M144 122h1M148 122h7M161 122h2M166 122h8M177 122h7M185 122h9M195 122h5M204 122h4M209 122h1M213 122h7M226 122h2M231 122h8M242 122h7M250 122h6M1 123h3M5 123h2M10 123h5M19 123h1M21 123h4M28 123h6M36 123h9M46 123h10M62 123h1M64 123h4M69 123h2M74 123h5M83 123h1M85 123h4M92 123h5M98 123h8M108 123h1M111 123h9M121 123h10M137 123h1M139 123h4M144 123h2M149 123h5M158 123h1M160 123h4M167 123h6M175 123h9M185 123h11M202 123h1M204 123h4M209 123h2M214 123h5M223 123h1M225 123h4M232 123h6M240 123h9M250 123h6M1 124h2M5 124h2M22 124h2M29 124h4M35 124h10M47 124h3M51 124h2M54 124h1M57 124h1M60 124h1M65 124h2M69 124h2M86 124h2M93 124h4M100 124h5M106 124h2M110 124h10M122 124h3M126 124h2M129 124h1M132 124h1M135 124h1M140 124h2M144 124h2M161 124h2M168 124h4M174 124h10M187 124h8M197 124h1M200 124h1M205 124h2M209 124h2M226 124h2M233 124h4M239 124h10M252 124h4M13 125h1M16 125h2M25 125h3M35 125h11M77 125h1M80 125h2M89 125h3M97 125h2M105 125h3M110 125h11M152 125h1M155 125h2M164 125h3M174 125h11M217 125h1M220 125h2M229 125h3M239 125h11M5 126h6M15 126h4M20 126h1M24 126h4M30 126h2M35 126h11M50 126h3M57 126h3M63 126h1M79 126h4M84 126h1M88 126h4M94 126h2M110 126h11M138 126h1M154 126h4M159 126h1M163 126h4M169 126h2M174 126h11M190 126h4M198 126h3M203 126h1M219 126h4M224 126h1M228 126h4M234 126h2M239 126h11M255 126h1M5 127h7M15 127h4M24 127h4M35 127h10M50 127h4M57 127h4M79 127h4M88 127h4M98 127h1M105 127h1M110 127h10M154 127h4M164 127h2M174 127h10M190 127h4M197 127h4M219 127h4M229 127h2M239 127h10M255 127h1M5 128h7M16 128h2M24 128h4M36 128h9M51 128h2M57 128h4M80 128h2M88 128h4M101 128h1M111 128h9M155 128h2M175 128h9M191 128h2M198 128h2M220 128h2M240 128h9M6 129h2M9 129h2M25 129h2M37 129h7M58 129h2M89 129h2M112 129h7M176 129h7M241 129h7" />
<path stroke="#201b12" d="M14 115h1M87 115h7M141 115h4M158 115h1M162 115h3M223 115h1M10 116h1M46 116h1M74 116h1M87 116h3M91 116h3M142 116h3M162 116h3M195 116h1M0 117h1M4 117h2M10 117h2M23 117h1M39 117h3M45 117h2M62 117h1M68 117h2M74 117h2M87 117h1M89 117h4M99 117h3M109 117h3M120 117h1M127 117h3M143 117h2M162 117h1M164 117h1M194 117h1M232 117h1M0 118h1M3 118h3M8 118h1M17 118h1M23 118h1M39 118h3M45 118h1M61 118h3M67 118h3M72 118h1M81 118h1M87 118h5M99 118h3M110 118h2M113 118h2M118 118h3M136 118h3M142 118h3M147 118h1M156 118h1M162 118h5M180 118h1M201 118h3M207 118h3M212 118h1M221 118h1M227 118h5M245 118h1M0 119h6M16 119h1M22 119h4M36 119h3M44 119h2M51 119h1M62 119h2M65 119h5M80 119h1M86 119h4M96 119h3M111 119h3M119 119h2M126 119h1M137 119h8M155 119h1M161 119h4M202 119h8M220 119h1M226 119h4M0 120h1M3 120h4M12 120h1M21 120h4M30 120h1M36 120h2M44 120h2M62 120h2M67 120h4M76 120h1M85 120h4M96 120h2M105 120h1M111 120h2M119 120h2M137 120h2M142 120h4M151 120h1M160 120h4M169 120h1M183 120h2M202 120h2M207 120h4M216 120h1M225 120h4M234 120h1M248 120h2M0 121h1M4 121h3M19 121h6M28 121h1M36 121h2M45 121h1M48 121h1M55 121h1M68 121h3M83 121h6M92 121h1M96 121h2M105 121h1M111 121h2M120 121h1M123 121h1M130 121h1M137 121h1M143 121h3M158 121h6M167 121h1M184 121h1M188 121h1M195 121h1M202 121h1M208 121h3M223 121h6M232 121h1M249 121h1M253 121h1M0 122h1M4 122h1M6 122h3M16 122h6M24 122h3M35 122h2M45 122h1M54 122h1M68 122h1M70 122h3M80 122h6M88 122h3M97 122h1M105 122h2M110 122h2M120 122h1M129 122h1M143 122h1M145 122h3M155 122h6M163 122h3M174 122h1M184 122h1M194 122h1M200 122h4M208 122h1M210 122h3M220 122h6M228 122h3M239 122h1M249 122h1M0 123h1M4 123h1M7 123h3M15 123h4M20 123h1M25 123h3M34 123h2M45 123h1M68 123h1M89 123h3M97 123h1M106 123h2M109 123h2M120 123h1M143 123h1M154 123h4M159 123h1M164 123h3M173 123h2M184 123h1M196 123h6M203 123h1M219 123h4M224 123h1M229 123h3M238 123h2M249 123h1M0 124h1M3 124h2M7 124h15M24 124h5M33 124h2M45 124h1M88 124h5M97 124h3M105 124h1M108 124h2M120 124h2M151 124h10M163 124h5M172 124h2M184 124h3M195 124h2M237 124h2M249 124h3M0 125h13M14 125h2M18 125h7M28 125h7M88 125h1M92 125h5M99 125h6M108 125h2M153 125h2M157 125h7M167 125h1M173 125h1M238 125h1M0 126h5M11 126h4M28 126h2M34 126h1M92 126h2M109 126h1M158 126h1M0 127h5M0 128h5" />
</svg>