<svg xmlns="http://www.w3.org/2000/svg" viewBox="0 -0.5 384 216" shape-rendering="crispEdges">
<metadata>Made with Pixels to Svg https://codepen.io/shshaw/pen/XbxvNj</metadata>
<path stroke="#ffffff" d="M0 0h128M138 0h117M265 0h63M338 0h46M0 1h128M138 1h117M266 1h61M338 1h46M0 2h128M138 2h117M338 2h46M0 3h128M138 3h79M218 3h37M274 3h3M338 3h46M0 4h128M138 4h80M219 4h2M222 4h33M260 4h3M273 4h5M288 4h3M338 4h46M0 5h128M138 5h117M271 5h1M280 5h1M287 5h4M326 5h3M338 5h46M0 6h128M138 6h117M272 6h4M277 6h1M279 6h1M286 6h1M291 6h1M325 6h5M338 6h46M0 7h128M138 7h117M264 7h1M266 7h2M287 7h2M290 7h1M323 7h1M332 7h1M338 7h46M0 8h128M138 8h6M150 8h6M162 8h3M177 8h3M201 8h3M210 8h3M219 8h3M228 8h6M240 8h15M324 8h4M329 8h1M331 8h1M338 8h46M0 9h82M83 9h42M126 9h2M138 9h6M150 9h6M162 9h3M177 9h3M201 9h3M210 9h3M219 9h3M228 9h6M240 9h15M338 9h46M0 10h80M81 10h2M84 10h42M127 10h1M129 10h2M134 10h1M138 10h6M150 10h6M162 10h3M177 10h3M201 10h3M210 10h3M219 10h3M228 10h6M240 10h16M258 10h3M337 10h47M0 11h81M82 11h1M84 11h2M87 11h39M127 11h1M138 11h6M150 11h6M162 11h3M171 11h9M186 11h9M201 11h3M210 11h3M219 11h3M228 11h6M240 11h17M336 11h48M0 12h81M82 12h1M84 12h1M86 12h40M127 12h1M138 12h6M150 12h6M162 12h3M171 12h9M186 12h9M201 12h3M210 12h3M219 12h3M228 12h6M240 12h51M303 12h81M0 13h81M82 13h1M84 13h1M86 13h42M138 13h2M141 13h3M150 13h6M162 13h3M171 13h9M186 13h9M201 13h3M210 13h3M219 13h3M228 13h6M240 13h52M302 13h82M0 14h81M82 14h1M84 14h1M86 14h42M138 14h6M150 14h6M162 14h3M171 14h9M186 14h9M201 14h3M210 14h3M219 14h3M228 14h6M240 14h23M264 14h16M281 14h11M302 14h82M0 15h83M84 15h44M138 15h6M150 15h6M162 15h3M171 15h9M186 15h9M201 15h3M210 15h3M219 15h3M228 15h6M240 15h52M302 15h82M0 16h128M138 16h6M150 16h6M162 16h3M171 16h9M186 16h9M201 16h3M210 16h3M219 16h3M228 16h6M240 16h30M271 16h21M302 16h82M0 17h128M130 17h3M134 17h1M136 17h1M138 17h6M150 17h6M162 17h3M171 17h9M186 17h9M201 17h3M210 17h3M219 17h3M228 17h6M240 17h46M287 17h5M302 17h82M0 18h128M138 18h6M150 18h6M162 18h3M171 18h9M186 18h9M201 18h3M210 18h3M219 18h3M228 18h6M240 18h52M302 18h5M308 18h16M325 18h6M332 18h52M0 19h128M138 19h6M150 19h6M162 19h3M171 19h9M186 19h9M201 19h3M210 19h3M219 19h3M228 19h6M240 19h49M290 19h2M302 19h82M0 20h128M138 20h6M150 20h6M162 20h3M171 20h9M186 20h9M201 20h3M210 20h3M219 20h3M228 20h6M240 20h52M302 20h12M315 20h69M0 21h62M65 21h1M68 21h60M138 21h6M150 21h6M162 21h3M171 21h9M186 21h9M201 21h3M210 21h3M219 21h3M228 21h6M240 21h38M279 21h13M302 21h28M331 21h53M0 22h61M62 22h3M66 22h2M69 22h37M107 22h21M138 22h6M150 22h6M162 22h3M171 22h9M186 22h9M201 22h3M210 22h3M219 22h3M228 22h6M240 22h52M302 22h60M363 22h21M0 23h58M61 23h3M65 23h4M70 23h58M138 23h6M150 23h6M162 23h3M171 23h9M186 23h9M201 23h3M210 23h3M219 23h3M228 23h6M240 23h52M302 23h31M334 23h16M351 23h10M362 23h22M0 24h57M58 24h3M63 24h2M66 24h4M71 24h37M110 24h18M138 24h6M150 24h6M162 24h3M171 24h9M186 24h9M201 24h3M210 24h3M219 24h3M228 24h6M240 24h31M281 24h11M302 24h49M352 24h4M357 24h4M362 24h22M0 25h57M59 25h7M67 25h3M71 25h37M110 25h4M115 25h13M138 25h6M150 25h6M162 25h3M171 25h9M186 25h9M201 25h3M210 25h3M219 25h3M228 25h6M240 25h30M271 25h10M282 25h10M302 25h20M323 25h28M352 25h1M354 25h3M358 25h3M362 25h22M0 26h57M58 26h1M61 26h1M63 26h6M71 26h35M107 26h21M134 26h2M138 26h6M150 26h6M162 26h3M171 26h9M186 26h9M201 26h3M210 26h3M219 26h3M228 26h6M240 26h29M270 26h1M281 26h1M283 26h9M302 26h49M352 26h5M358 26h1M360 26h1M362 26h22M0 27h57M58 27h3M66 27h1M71 27h39M111 27h17M138 27h6M150 27h6M162 27h3M171 27h9M186 27h9M201 27h3M210 27h3M219 27h3M228 27h6M240 27h28M269 27h1M282 27h1M284 27h8M302 27h55M358 27h1M360 27h5M366 27h18M0 28h27M28 28h29M58 28h3M63 28h1M65 28h1M71 28h33M105 28h7M114 28h14M138 28h6M150 28h6M162 28h3M171 28h9M186 28h9M201 28h3M210 28h3M219 28h3M228 28h6M240 28h28M284 28h8M302 28h52M355 28h2M358 28h1M360 28h24M0 29h57M58 29h2M63 29h1M65 29h1M71 29h41M114 29h14M130 29h1M133 29h1M135 29h2M138 29h6M150 29h6M162 29h3M171 29h9M186 29h9M201 29h3M210 29h3M219 29h3M228 29h6M240 29h28M284 29h8M296 29h4M302 29h20M323 29h31M355 29h7M363 29h21M0 30h29M31 30h27M59 30h1M62 30h2M66 30h1M70 30h37M109 30h19M138 30h6M150 30h6M162 30h3M171 30h9M186 30h9M201 30h3M210 30h3M219 30h3M228 30h6M240 30h28M284 30h8M302 30h19M322 30h2M325 30h29M355 30h29M0 31h29M31 31h4M36 31h71M109 31h19M130 31h4M138 31h6M150 31h6M162 31h3M171 31h9M186 31h9M201 31h3M210 31h3M219 31h3M228 31h6M240 31h28M276 31h3M284 31h8M293 31h2M296 31h1M299 31h1M302 31h16M319 31h2M322 31h1M324 31h60M0 32h27M28 32h85M114 32h14M138 32h6M150 32h6M162 32h3M171 32h9M186 32h9M201 32h3M210 32h3M219 32h3M228 32h6M240 32h27M275 32h1M279 32h1M284 32h8M302 32h17M320 32h1M322 32h1M324 32h60M0 33h31M32 33h73M106 33h22M138 33h6M150 33h6M162 33h3M171 33h9M186 33h9M201 33h3M210 33h3M219 33h3M228 33h6M240 33h26M267 33h1M284 33h8M302 33h17M320 33h1M322 33h1M324 33h60M0 34h25M26 34h7M35 34h93M138 34h6M150 34h6M162 34h3M171 34h9M186 34h9M201 34h3M210 34h3M219 34h3M228 34h6M240 34h26M284 34h8M294 34h2M302 34h17M320 34h1M322 34h1M324 34h60M0 35h33M35 35h93M138 35h6M162 35h3M177 35h3M201 35h3M210 35h3M219 35h3M240 35h26M284 35h8M302 35h19M322 35h62M0 36h28M30 36h98M138 36h6M162 36h3M177 36h3M201 36h3M210 36h3M219 36h3M240 36h27M284 36h8M302 36h82M0 37h28M30 37h83M114 37h6M121 37h7M138 37h6M162 37h3M177 37h3M201 37h3M210 37h3M219 37h3M240 37h28M284 37h8M302 37h82M0 38h34M35 38h63M99 38h29M138 38h6M150 38h6M162 38h3M171 38h9M186 38h9M201 38h3M210 38h3M219 38h15M240 38h29M283 38h9M302 38h82M0 39h26M27 39h68M96 39h2M99 39h29M138 39h6M150 39h6M162 39h3M171 39h9M186 39h9M201 39h3M210 39h3M219 39h15M240 39h30M271 39h1M273 39h3M277 39h2M280 39h12M302 39h82M0 40h96M97 40h1M99 40h15M115 40h13M138 40h6M150 40h6M162 40h3M171 40h9M186 40h9M201 40h3M210 40h3M219 40h15M240 40h52M302 40h82M0 41h44M54 41h42M97 41h1M99 41h29M138 41h6M150 41h6M162 41h3M171 41h9M186 41h9M201 41h3M210 41h3M219 41h15M240 41h52M302 41h82M0 42h43M44 42h10M55 42h41M97 42h1M100 42h11M112 42h16M138 42h6M150 42h6M162 42h3M171 42h9M186 42h9M201 42h3M210 42h3M219 42h15M240 42h52M302 42h82M0 43h42M43 43h12M56 43h40M97 43h1M100 43h28M138 43h6M150 43h6M162 43h3M171 43h9M186 43h9M201 43h3M210 43h3M219 43h15M240 43h52M293 43h1M295 43h1M297 43h3M302 43h82M0 44h41M42 44h14M57 44h39M97 44h1M99 44h1M101 44h21M123 44h5M138 44h6M150 44h6M162 44h3M171 44h9M186 44h9M201 44h3M210 44h3M219 44h15M240 44h52M303 44h50M354 44h30M0 45h41M42 45h14M57 45h39M97 45h1M99 45h1M101 45h26M138 45h6M150 45h6M162 45h3M171 45h9M186 45h9M201 45h3M210 45h3M219 45h15M240 45h52M327 45h57M0 46h41M42 46h14M57 46h26M138 46h6M150 46h6M162 46h3M171 46h9M186 46h9M201 46h3M210 46h3M219 46h15M240 46h52M328 46h22M352 46h32M0 47h41M42 47h6M53 47h3M57 47h25M95 47h1M100 47h1M138 47h6M150 47h6M162 47h3M177 47h3M186 47h9M201 47h3M219 47h3M240 47h52M329 47h16M346 47h4M352 47h32M0 48h41M42 48h5M49 48h3M54 48h2M57 48h24M88 48h3M96 48h2M99 48h1M130 48h3M138 48h6M150 48h6M162 48h3M177 48h3M186 48h9M201 48h3M219 48h3M240 48h18M259 48h33M304 48h3M318 48h3M329 48h24M354 48h30M0 49h40M42 49h5M48 49h5M54 49h2M57 49h24M106 49h3M120 49h3M138 49h6M150 49h6M162 49h3M177 49h3M186 49h9M201 49h3M219 49h3M240 49h52M304 49h4M317 49h5M329 49h20M350 49h34M0 50h12M13 50h26M40 50h1M42 50h5M48 50h5M54 50h2M57 50h24M105 50h5M119 50h4M138 50h122M262 50h30M295 50h1M298 50h3M303 50h1M308 50h1M314 50h1M323 50h1M329 50h17M348 50h7M356 50h28M0 51h39M40 51h1M42 51h4M49 51h3M55 51h1M57 51h24M103 51h1M112 51h1M118 51h1M123 51h1M133 51h1M135 51h2M138 51h122M262 51h4M267 51h25M304 51h2M307 51h1M315 51h1M317 51h1M319 51h4M329 51h17M348 51h36M0 52h14M16 52h23M40 52h1M42 52h6M53 52h3M57 52h24M104 52h4M109 52h1M111 52h1M119 52h1M121 52h2M138 52h120M259 52h33M329 52h22M353 52h31M0 53h14M16 53h4M21 53h19M42 53h6M53 53h3M57 53h24M138 53h21M168 53h3M180 53h9M201 53h3M207 53h3M213 53h3M225 53h37M263 53h30M329 53h22M353 53h31M0 54h12M13 54h28M43 54h12M57 54h24M82 54h2M137 54h22M168 54h3M180 54h9M201 54h3M207 54h3M213 54h3M225 54h31M257 54h7M266 54h28M329 54h17M347 54h37M0 55h16M17 55h25M56 55h25M136 55h23M168 55h3M180 55h9M201 55h3M207 55h3M213 55h3M225 55h39M266 55h52M329 55h25M355 55h29M0 56h10M11 56h7M20 56h23M44 56h1M46 56h3M50 56h2M53 56h28M92 56h70M165 56h6M174 56h21M198 56h6M207 56h3M213 56h3M219 56h40M261 56h58M329 56h55M0 57h18M20 57h61M83 57h2M86 57h1M91 57h71M165 57h6M174 57h21M198 57h6M207 57h3M213 57h3M219 57h40M261 57h58M329 57h55M0 58h13M15 58h66M91 58h51M152 58h10M165 58h6M174 58h21M198 58h6M207 58h3M213 58h3M219 58h46M266 58h53M329 58h55M0 59h13M15 59h66M91 59h6M98 59h6M105 59h16M122 59h19M142 59h10M153 59h9M165 59h6M180 59h15M198 59h6M213 59h3M225 59h32M258 59h61M329 59h55M0 60h19M20 60h22M43 60h38M91 60h49M141 60h12M154 60h8M165 60h6M180 60h15M198 60h6M213 60h3M225 60h94M329 60h55M0 61h11M12 61h18M31 61h10M42 61h39M91 61h23M115 61h24M140 61h14M155 61h7M165 61h6M180 61h15M198 61h6M213 61h3M225 61h76M311 61h8M329 61h55M0 62h31M32 62h4M37 62h4M42 62h38M91 62h7M99 62h40M140 62h14M155 62h7M165 62h12M180 62h15M198 62h6M207 62h3M213 62h3M219 62h81M301 62h10M312 62h7M329 62h55M0 63h31M32 63h1M34 63h3M38 63h3M42 63h28M91 63h48M140 63h14M155 63h7M165 63h12M180 63h15M198 63h6M207 63h3M213 63h3M219 63h80M300 63h12M313 63h6M329 63h55M0 64h31M32 64h5M38 64h1M40 64h1M42 64h27M91 64h4M96 64h43M140 64h6M151 64h3M155 64h7M165 64h12M180 64h15M198 64h6M207 64h3M213 64h3M219 64h79M299 64h14M314 64h5M329 64h24M357 64h27M0 65h37M38 65h1M40 65h5M46 65h22M91 65h48M140 65h5M147 65h3M152 65h2M155 65h7M165 65h12M180 65h15M198 65h6M207 65h3M213 65h3M219 65h79M299 65h14M314 65h5M329 65h24M354 65h3M359 65h25M0 66h34M35 66h2M38 66h1M40 66h28M91 66h15M107 66h31M140 66h5M146 66h5M152 66h2M155 66h7M165 66h12M180 66h15M198 66h6M207 66h3M213 66h3M219 66h79M299 66h14M314 66h5M329 66h23M353 66h5M359 66h25M0 67h34M35 67h7M43 67h25M74 67h2M91 67h46M138 67h1M140 67h5M146 67h5M152 67h2M155 67h7M165 67h12M180 67h15M198 67h6M207 67h3M213 67h3M219 67h79M299 67h3M307 67h6M314 67h5M329 67h23M353 67h6M361 67h23M0 68h34M35 68h33M91 68h46M138 68h1M140 68h4M147 68h3M153 68h1M155 68h4M168 68h3M180 68h15M198 68h6M207 68h3M213 68h3M225 68h73M299 68h2M303 68h3M308 68h5M314 68h5M329 68h23M353 68h7M362 68h22M0 69h68M91 69h46M138 69h1M140 69h6M151 69h3M155 69h4M168 69h3M180 69h15M198 69h6M207 69h3M213 69h3M225 69h73M299 69h2M302 69h5M308 69h5M315 69h4M329 69h22M352 69h1M354 69h7M362 69h22M0 70h68M71 70h1M73 70h2M91 70h47M140 70h6M151 70h3M155 70h4M168 70h3M180 70h15M198 70h6M207 70h3M213 70h3M225 70h73M299 70h2M302 70h5M308 70h5M314 70h1M316 70h3M329 70h22M352 70h2M356 70h5M363 70h21M0 71h68M90 71h49M141 71h12M155 71h104M260 71h38M299 71h1M303 71h3M309 71h4M314 71h1M316 71h3M329 71h22M352 71h4M357 71h4M363 71h21M0 72h68M89 72h51M154 72h106M261 72h10M272 72h26M299 72h3M307 72h6M314 72h1M316 72h3M329 72h22M352 72h6M359 72h1M363 72h21M0 73h68M79 73h62M142 73h1M144 73h3M148 73h2M151 73h109M261 73h4M266 73h4M271 73h27M299 73h3M307 73h6M315 73h4M329 73h22M352 73h4M357 73h2M363 73h21M0 74h68M78 74h60M156 74h3M177 74h3M201 74h3M210 74h9M225 74h3M246 74h14M261 74h3M265 74h3M269 74h1M271 74h27M300 74h12M314 74h5M329 74h16M349 74h2M352 74h3M356 74h2M363 74h21M0 75h68M78 75h5M84 75h54M156 75h3M177 75h3M201 75h3M210 75h9M225 75h3M246 75h14M261 75h1M263 75h1M265 75h5M271 75h28M313 75h6M329 75h15M345 75h2M350 75h2M353 75h1M356 75h1M362 75h22M0 76h68M78 76h60M156 76h3M177 76h3M201 76h3M210 76h9M225 76h3M246 76h10M257 76h5M263 76h1M265 76h37M303 76h2M306 76h3M310 76h1M312 76h7M329 76h15M345 76h3M350 76h34M0 77h68M78 77h3M82 77h56M144 77h6M156 77h3M165 77h6M177 77h3M186 77h9M201 77h3M210 77h9M225 77h3M234 77h6M246 77h16M263 77h1M265 77h2M268 77h51M329 77h34M365 77h19M0 78h64M65 78h3M78 78h30M112 78h26M144 78h6M156 78h3M165 78h6M177 78h3M186 78h9M201 78h3M210 78h9M225 78h3M234 78h6M246 78h13M260 78h7M268 78h51M329 78h25M358 78h4M363 78h2M366 78h18M0 79h22M28 79h32M61 79h7M78 79h30M109 79h3M114 79h24M144 79h6M156 79h3M165 79h6M177 79h3M186 79h9M201 79h3M210 79h9M225 79h3M234 79h6M246 79h21M268 79h51M329 79h24M354 79h3M358 79h26M0 80h21M22 80h6M29 80h39M78 80h29M108 80h5M114 80h24M144 80h6M156 80h3M165 80h6M177 80h3M186 80h9M201 80h3M210 80h9M225 80h3M234 80h6M246 80h73M329 80h55M0 81h20M21 81h1M25 81h4M30 81h35M66 81h2M78 81h10M89 81h18M108 81h6M116 81h22M144 81h6M156 81h3M165 81h6M177 81h3M186 81h9M201 81h3M210 81h9M225 81h3M234 81h6M246 81h73M329 81h55M0 82h19M20 82h1M22 82h4M29 82h1M31 82h35M67 82h1M78 82h29M108 82h7M117 82h21M144 82h6M156 82h3M165 82h6M177 82h3M186 82h9M201 82h3M210 82h9M225 82h3M234 82h6M246 82h73M329 82h55M0 83h19M20 83h1M22 83h1M26 83h2M29 83h1M31 83h32M64 83h2M67 83h1M78 83h2M81 83h25M107 83h1M109 83h7M117 83h21M144 83h15M165 83h6M177 83h3M186 83h9M201 83h3M210 83h9M225 83h3M234 83h6M246 83h73M329 83h55M0 84h19M20 84h1M22 84h6M29 84h1M31 84h33M65 84h1M67 84h1M78 84h28M107 84h2M111 84h5M118 84h20M144 84h15M165 84h6M177 84h3M186 84h9M201 84h3M210 84h9M225 84h3M234 84h6M246 84h73M329 84h55M0 85h19M21 85h1M28 85h1M31 85h25M57 85h7M65 85h1M67 85h1M78 85h6M85 85h21M107 85h4M112 85h4M118 85h20M144 85h15M165 85h6M177 85h3M186 85h9M201 85h3M210 85h9M225 85h3M234 85h6M246 85h46M295 85h1M298 85h21M329 85h55M0 86h19M20 86h1M22 86h6M29 86h1M31 86h33M65 86h1M67 86h1M78 86h28M107 86h6M114 86h1M118 86h20M144 86h15M165 86h6M177 86h3M186 86h9M201 86h3M210 86h9M225 86h3M234 86h6M246 86h45M292 86h3M296 86h2M299 86h20M329 86h25M355 86h29M0 87h19M20 87h2M28 87h2M31 87h35M67 87h1M78 87h28M107 87h4M112 87h2M118 87h20M144 87h15M165 87h6M177 87h3M186 87h9M201 87h3M210 87h9M225 87h3M234 87h6M246 87h42M291 87h3M295 87h4M300 87h19M329 87h55M0 88h19M20 88h3M24 88h1M26 88h1M28 88h2M31 88h35M67 88h1M78 88h22M104 88h2M107 88h3M111 88h2M118 88h20M144 88h15M165 88h6M177 88h3M186 88h9M201 88h3M210 88h9M225 88h3M234 88h6M246 88h41M288 88h3M293 88h2M296 88h4M301 88h18M329 88h27M358 88h26M0 89h18M19 89h4M24 89h3M28 89h3M32 89h36M78 89h1M80 89h19M100 89h2M105 89h2M108 89h1M111 89h1M117 89h21M144 89h15M165 89h6M177 89h3M186 89h9M201 89h3M210 89h9M225 89h3M234 89h6M246 89h30M277 89h10M289 89h7M297 89h3M301 89h18M329 89h27M358 89h4M363 89h21M0 90h28M29 90h39M78 90h21M100 90h3M105 90h33M144 90h15M165 90h6M177 90h3M186 90h9M201 90h3M210 90h9M225 90h3M234 90h6M246 90h29M276 90h2M279 90h8M288 90h1M291 90h1M293 90h6M301 90h18M329 90h25M355 90h29M0 91h68M78 91h40M120 91h18M144 91h15M165 91h6M177 91h3M186 91h9M201 91h3M210 91h9M225 91h3M234 91h6M246 91h4M256 91h16M273 91h2M276 91h1M278 91h9M288 91h3M296 91h1M301 91h18M329 91h29M359 91h25M0 92h45M55 92h13M78 92h3M82 92h27M113 92h4M118 92h2M121 92h17M144 92h15M165 92h6M177 92h3M186 92h9M201 92h3M210 92h9M225 92h3M234 92h6M246 92h3M251 92h4M257 92h16M274 92h1M276 92h1M278 92h9M288 92h3M293 92h1M295 92h1M301 92h17M329 92h23M353 92h7M362 92h22M0 93h44M45 93h10M56 93h12M78 93h30M109 93h3M113 93h25M144 93h15M165 93h6M177 93h3M186 93h9M201 93h3M210 93h9M225 93h3M234 93h6M246 93h3M250 93h2M254 93h2M257 93h16M274 93h1M276 93h1M278 93h9M288 93h2M293 93h1M295 93h1M301 93h9M329 93h31M362 93h22M0 94h43M44 94h1M55 94h1M57 94h11M78 94h60M144 94h15M165 94h6M177 94h3M186 94h9M201 94h3M210 94h9M225 94h3M234 94h6M246 94h3M250 94h1M252 94h2M255 94h1M257 94h16M274 94h1M276 94h1M278 94h10M289 94h1M292 94h2M296 94h1M300 94h9M329 94h26M357 94h27M0 95h42M43 95h1M56 95h1M58 95h10M72 95h3M78 95h60M144 95h15M165 95h6M177 95h3M186 95h9M201 95h3M210 95h9M225 95h3M234 95h6M246 95h3M250 95h1M253 95h1M255 95h1M257 95h18M276 95h32M329 95h26M357 95h27M0 96h42M58 96h10M71 96h4M78 96h60M144 96h15M165 96h6M177 96h3M186 96h9M201 96h3M210 96h9M225 96h3M234 96h6M246 96h3M250 96h2M253 96h1M255 96h1M257 96h51M329 96h32M362 96h22M0 97h42M58 97h10M69 97h1M76 97h1M78 97h60M144 97h15M165 97h6M177 97h3M186 97h9M201 97h3M210 97h9M225 97h3M234 97h6M246 97h3M253 97h1M255 97h1M257 97h51M316 97h3M329 97h24M354 97h30M0 98h42M58 98h10M70 98h2M73 98h1M75 98h1M78 98h60M144 98h15M165 98h6M177 98h3M186 98h9M201 98h3M210 98h9M225 98h3M234 98h6M246 98h8M255 98h1M257 98h51M315 98h5M329 98h55M0 99h42M47 99h3M58 99h10M78 99h48M127 99h11M144 99h15M165 99h6M177 99h3M186 99h9M201 99h3M210 99h9M225 99h3M234 99h6M246 99h8M255 99h1M257 99h51M313 99h1M322 99h1M329 99h55M0 100h42M46 100h1M50 100h1M59 100h9M78 100h47M126 100h2M129 100h9M144 100h15M165 100h6M177 100h3M186 100h9M201 100h3M210 100h9M225 100h3M234 100h6M246 100h8M255 100h1M257 100h2M266 100h42M314 100h4M319 100h1M321 100h1M329 100h55M0 101h42M58 101h1M60 101h8M78 101h44M123 101h2M126 101h1M128 101h10M144 101h15M165 101h6M174 101h6M186 101h9M201 101h3M210 101h9M225 101h3M234 101h6M246 101h8M255 101h1M257 101h1M260 101h5M267 101h41M328 101h56M0 102h42M60 102h8M78 102h45M124 102h1M126 102h1M128 102h10M144 102h15M165 102h6M174 102h6M186 102h9M201 102h3M210 102h9M225 102h3M234 102h6M246 102h8M255 102h1M257 102h1M259 102h7M267 102h41M327 102h57M0 103h42M60 103h8M78 103h45M124 103h1M126 103h1M128 103h10M144 103h15M165 103h6M174 103h6M186 103h9M201 103h3M210 103h9M225 103h3M234 103h6M246 103h8M255 103h1M257 103h1M259 103h7M267 103h41M319 103h65M0 104h11M12 104h30M59 104h9M78 104h45M124 104h1M126 104h1M128 104h10M144 104h6M156 104h3M177 104h3M186 104h9M201 104h3M210 104h3M216 104h3M225 104h3M234 104h6M246 104h8M255 104h1M257 104h1M260 104h1M263 104h2M268 104h40M318 104h66M0 105h12M13 105h10M24 105h18M58 105h10M78 105h47M126 105h12M144 105h6M156 105h3M177 105h3M186 105h9M201 105h3M210 105h3M216 105h3M225 105h3M234 105h6M246 105h8M255 105h1M257 105h1M259 105h6M266 105h1M268 105h40M318 105h66M0 106h12M13 106h4M18 106h4M23 106h20M57 106h11M78 106h60M144 106h6M156 106h3M177 106h3M186 106h9M201 106h3M210 106h3M216 106h3M225 106h3M234 106h6M246 106h8M255 106h1M257 106h1M259 106h1M262 106h1M265 106h2M268 106h40M310 106h1M312 106h2M318 106h66M0 107h12M13 107h3M17 107h3M21 107h1M23 107h23M47 107h2M50 107h3M54 107h1M56 107h12M78 107h60M144 107h6M156 107h3M165 107h6M177 107h3M186 107h9M201 107h3M210 107h3M216 107h3M225 107h3M234 107h6M246 107h8M255 107h1M257 107h1M260 107h2M263 107h3M268 107h40M318 107h66M0 108h12M13 108h1M15 108h1M17 108h5M23 108h45M78 108h60M144 108h6M156 108h3M165 108h6M177 108h3M186 108h9M201 108h3M210 108h3M216 108h3M225 108h3M234 108h6M246 108h8M255 108h1M257 108h1M259 108h5M269 108h39M318 108h66M0 109h8M9 109h5M15 109h1M17 109h27M45 109h23M78 109h60M144 109h6M156 109h3M165 109h6M177 109h3M186 109h9M201 109h3M210 109h3M216 109h3M225 109h3M234 109h6M246 109h8M255 109h1M257 109h1M259 109h4M269 109h39M309 109h4M314 109h1M318 109h66M0 110h14M15 110h1M17 110h2M20 110h48M78 110h60M144 110h6M156 110h3M165 110h6M177 110h3M186 110h9M201 110h3M210 110h3M216 110h3M225 110h3M234 110h6M246 110h8M255 110h1M257 110h1M260 110h2M269 110h39M318 110h46M365 110h19M0 111h11M12 111h7M20 111h26M48 111h20M78 111h60M144 111h6M156 111h3M165 111h6M177 111h3M186 111h9M201 111h3M210 111h3M216 111h3M225 111h3M234 111h6M246 111h8M255 111h1M257 111h2M269 111h39M318 111h44M363 111h2M366 111h18M0 112h19M20 112h26M48 112h4M53 112h15M78 112h60M144 112h6M156 112h3M165 112h6M177 112h3M186 112h9M201 112h3M210 112h3M216 112h3M225 112h3M234 112h6M246 112h8M255 112h1M257 112h2M269 112h39M318 112h45M364 112h1M366 112h2M369 112h15M0 113h44M45 113h23M78 113h60M156 113h3M165 113h6M177 113h3M201 113h3M225 113h3M234 113h6M246 113h8M255 113h1M257 113h2M269 113h39M318 113h45M364 113h1M366 113h1M368 113h16M0 114h48M49 114h19M78 114h60M156 114h3M165 114h6M177 114h3M201 114h3M225 114h3M234 114h6M246 114h8M255 114h1M257 114h2M269 114h39M318 114h20M339 114h24M364 114h1M366 114h1M368 114h16M0 115h42M43 115h7M52 115h16M78 115h60M156 115h3M165 115h6M177 115h3M201 115h3M225 115h3M234 115h6M246 115h8M257 115h2M269 115h39M318 115h17M336 115h2M339 115h24M364 115h1M366 115h1M368 115h16M0 116h50M52 116h16M70 116h3M78 116h174M253 116h55M311 116h3M318 116h18M337 116h1M339 116h26M366 116h18M0 117h45M47 117h21M78 117h25M104 117h204M311 117h4M318 117h18M337 117h1M339 117h45M0 118h45M47 118h21M78 118h22M101 118h2M104 118h145M251 118h57M309 118h1M316 118h1M318 118h18M337 118h1M340 118h44M0 119h51M52 119h16M70 119h1M75 119h2M78 119h23M102 119h1M104 119h66M171 119h73M245 119h4M251 119h57M310 119h2M313 119h1M315 119h1M318 119h18M337 119h1M340 119h44M0 120h43M44 120h24M78 120h14M93 120h8M102 120h1M104 120h54M159 120h10M170 120h82M253 120h55M318 120h18M337 120h1M339 120h1M341 120h43M0 121h68M78 121h12M91 121h2M94 121h7M102 121h1M105 121h54M160 121h4M165 121h4M170 121h78M249 121h59M319 121h17M337 121h1M339 121h1M341 121h43M0 122h68M74 122h2M78 122h13M92 122h1M94 122h7M102 122h1M105 122h54M160 122h1M162 122h3M166 122h3M170 122h75M247 122h7M255 122h53M345 122h39M0 123h68M78 123h13M92 123h1M94 123h2M97 123h4M102 123h1M104 123h1M106 123h53M160 123h5M166 123h1M168 123h1M170 123h75M247 123h61M334 123h1M342 123h1M346 123h38M0 124h68M79 124h12M92 124h1M94 124h1M96 124h5M102 124h1M104 124h1M106 124h59M166 124h1M168 124h5M174 124h76M252 124h56M335 124h1M337 124h1M340 124h2M347 124h37M0 125h68M70 125h4M112 125h50M163 125h2M166 125h1M168 125h82M252 125h56M311 125h1M313 125h3M317 125h1M347 125h37M0 126h68M89 126h1M97 126h1M100 126h1M106 126h1M113 126h49M163 126h7M171 126h74M246 126h62M337 126h1M342 126h1M347 126h37M0 127h68M75 127h2M90 127h3M94 127h1M96 127h1M101 127h1M103 127h1M105 127h1M114 127h48M163 127h90M254 127h54M347 127h37M0 128h68M82 128h3M114 128h194M321 128h4M327 128h2M347 128h37M0 129h68M114 129h92M207 129h69M277 129h31M347 129h37M0 130h68M114 130h91M206 130h2M209 130h66M276 130h2M279 130h30M347 130h37M0 131h68M90 131h1M94 131h3M99 131h1M114 131h88M203 131h2M206 131h1M208 131h64M273 131h2M276 131h1M278 131h32M347 131h37M0 132h68M114 132h31M146 132h57M204 132h1M206 132h1M208 132h65M274 132h1M276 132h1M278 132h58M347 132h37M0 133h69M114 133h29M144 133h2M147 133h56M204 133h1M206 133h1M208 133h65M274 133h1M276 133h1M278 133h59M347 133h37M0 134h27M31 134h39M114 134h30M145 134h1M147 134h2M150 134h53M204 134h1M206 134h1M208 134h65M274 134h1M276 134h1M278 134h59M348 134h36M0 135h27M28 135h3M33 135h70M114 135h30M145 135h1M147 135h1M149 135h56M206 135h69M276 135h61M0 136h26M27 136h5M33 136h71M108 136h4M114 136h30M145 136h1M147 136h1M149 136h188M0 137h26M27 137h6M35 137h69M114 137h30M145 137h1M147 137h1M149 137h188M356 137h4M0 138h26M27 138h7M36 138h68M105 138h2M108 138h1M111 138h1M114 138h32M147 138h190M374 138h1M376 138h2M0 139h25M26 139h1M28 139h7M36 139h68M114 139h223M353 139h2M356 139h1M359 139h1M0 140h25M26 140h2M30 140h5M37 140h67M114 140h65M180 140h157M0 141h25M26 141h4M31 141h4M37 141h67M106 141h2M114 141h223M373 141h4M378 141h1M0 142h25M26 142h6M33 142h1M37 142h67M114 142h62M178 142h159M354 142h2M0 143h25M26 143h4M31 143h2M37 143h67M114 143h57M172 143h4M178 143h160M0 144h19M23 144h2M26 144h3M30 144h2M37 144h67M114 144h65M180 144h159M0 145h18M19 145h2M24 145h2M27 145h1M30 145h1M36 145h68M114 145h61M176 145h208M0 146h18M19 146h3M24 146h80M114 146h58M174 146h7M182 146h169M352 146h16M369 146h6M376 146h8M0 147h37M39 147h65M114 147h58M174 147h104M281 147h1M284 147h100M0 148h28M32 148h4M37 148h2M40 148h54M95 148h9M114 148h63M179 148h64M253 148h24M278 148h3M282 148h2M285 148h73M359 148h25M0 149h27M28 149h3M32 149h60M93 149h2M96 149h8M114 149h63M179 149h63M243 149h10M254 149h20M277 149h3M281 149h4M286 149h88M375 149h9M0 150h93M94 150h1M96 150h8M105 150h1M107 150h1M109 150h3M114 150h58M173 150h68M242 150h12M255 150h18M274 150h3M279 150h2M282 150h4M287 150h97M0 151h93M94 151h1M96 151h2M99 151h5M114 151h66M181 151h59M241 151h14M256 151h17M275 151h7M283 151h3M287 151h90M378 151h6M0 152h93M94 152h1M96 152h1M98 152h5M114 152h126M241 152h14M256 152h17M274 152h1M277 152h1M279 152h6M287 152h97M0 153h88M114 153h21M136 153h104M241 153h14M256 153h17M274 153h3M282 153h1M287 153h79M367 153h17M0 154h13M14 154h6M21 154h16M38 154h49M91 154h1M99 154h1M114 154h126M241 154h3M249 154h6M256 154h17M274 154h3M279 154h1M281 154h1M287 154h31M319 154h65M0 155h86M92 155h3M96 155h1M98 155h1M114 155h18M134 155h106M241 155h2M245 155h3M250 155h5M256 155h17M274 155h2M279 155h1M281 155h1M287 155h32M320 155h10M331 155h53M0 156h30M31 156h55M114 156h13M128 156h4M134 156h106M241 156h2M244 156h5M250 156h5M257 156h17M275 156h1M278 156h2M282 156h1M286 156h33M320 156h4M325 156h4M330 156h54M0 157h14M15 157h47M72 157h14M114 157h21M136 157h104M241 157h2M244 157h5M250 157h5M256 157h1M258 157h61M320 157h3M324 157h3M328 157h1M330 157h54M0 158h61M62 158h10M73 158h13M114 158h17M132 158h108M241 158h1M245 158h3M251 158h4M256 158h1M258 158h61M320 158h1M322 158h1M324 158h5M330 158h54M0 159h11M12 159h48M61 159h12M74 159h12M114 159h14M130 159h7M138 159h28M167 159h73M241 159h3M249 159h6M256 159h1M258 159h57M316 159h5M322 159h1M324 159h60M0 160h59M60 160h14M75 160h11M114 160h14M130 160h35M166 160h2M169 160h71M241 160h3M249 160h6M257 160h64M322 160h1M324 160h2M327 160h57M0 161h22M23 161h36M60 161h14M75 161h11M114 161h19M135 161h27M163 161h2M166 161h1M168 161h72M242 161h12M256 161h62M319 161h7M327 161h57M0 162h59M60 162h14M75 162h11M113 162h20M135 162h28M164 162h1M166 162h1M168 162h73M255 162h71M327 162h57M45 163h14M60 163h3M68 163h6M75 163h11M112 163h16M129 163h34M164 163h1M166 163h1M168 163h63M232 163h12M245 163h2M248 163h3M252 163h1M254 163h130M46 164h13M60 164h2M64 164h3M69 164h5M75 164h11M97 164h39M137 164h26M164 164h1M166 164h1M168 164h60M229 164h2M232 164h152M24 165h3M47 165h12M60 165h2M63 165h5M69 165h5M76 165h10M96 165h69M166 165h63M230 165h1M232 165h152M47 166h12M60 166h2M63 166h5M69 166h5M75 166h1M77 166h9M96 166h133M230 166h1M232 166h152M6 167h1M8 167h4M47 167h12M60 167h1M64 167h3M70 167h4M75 167h1M77 167h9M96 167h133M230 167h1M233 167h88M331 167h53M24 168h1M29 168h2M47 168h12M60 168h3M68 168h6M75 168h1M77 168h9M96 168h133M230 168h1M233 168h87M321 168h10M332 168h52M47 169h6M54 169h5M60 169h3M68 169h6M76 169h10M96 169h133M230 169h1M232 169h1M234 169h85M320 169h12M333 169h51M38 170h1M40 170h1M42 170h3M47 170h7M55 170h2M58 170h1M61 170h12M75 170h11M96 170h133M230 170h1M232 170h1M234 170h84M319 170h14M334 170h50M28 171h2M47 171h7M55 171h1M57 171h3M74 171h12M96 171h120M269 171h49M319 171h14M334 171h50M47 172h7M55 172h1M57 172h6M64 172h1M67 172h3M71 172h1M73 172h13M96 172h119M245 172h2M249 172h1M251 172h2M270 172h48M319 172h14M334 172h50M47 173h4M52 173h2M55 173h1M57 173h7M65 173h2M68 173h18M96 173h118M220 173h1M222 173h2M227 173h1M234 173h1M261 173h2M264 173h1M271 173h47M319 173h6M330 173h3M334 173h50M0 174h36M47 174h5M53 174h1M55 174h1M57 174h7M65 174h1M67 174h19M96 174h118M228 174h2M233 174h1M239 174h3M253 174h3M271 174h47M319 174h5M326 174h3M331 174h2M334 174h26M361 174h23M0 175h37M47 175h5M53 175h1M55 175h1M57 175h4M62 175h2M65 175h1M67 175h19M96 175h40M140 175h74M238 175h5M252 175h4M271 175h46M319 175h5M325 175h5M331 175h2M334 175h50M0 176h37M48 176h4M53 176h1M55 176h1M57 176h5M63 176h1M65 176h1M67 176h18M96 176h40M137 176h3M142 176h72M224 176h2M229 176h2M232 176h1M236 176h1M245 176h1M250 176h1M257 176h1M271 176h45M317 176h1M319 176h5M325 176h5M331 176h2M334 176h23M359 176h25M0 177h37M96 177h39M136 177h5M142 177h72M237 177h4M242 177h1M244 177h1M251 177h2M254 177h1M256 177h1M271 177h45M317 177h1M319 177h4M326 177h3M332 177h1M334 177h18M353 177h4M359 177h25M0 178h37M50 178h1M57 178h1M96 178h39M136 178h6M144 178h70M271 178h45M317 178h1M319 178h6M330 178h3M334 178h26M361 178h23M0 179h37M51 179h1M53 179h1M55 179h2M62 179h1M67 179h1M77 179h3M81 179h1M96 179h39M136 179h7M145 179h69M215 179h2M271 179h46M319 179h6M330 179h3M334 179h22M357 179h27M0 180h37M63 180h4M86 180h3M96 180h38M135 180h1M137 180h7M145 180h26M181 180h33M271 180h47M320 180h12M334 180h19M355 180h7M363 180h21M0 181h37M85 181h5M96 181h38M135 181h2M139 181h5M146 181h24M171 181h10M182 181h32M225 181h35M272 181h47M333 181h20M355 181h29M0 182h37M57 182h3M82 182h1M91 182h1M96 182h38M135 182h4M140 182h4M146 182h23M170 182h12M183 182h31M219 182h1M221 182h2M224 182h37M293 182h27M321 182h1M323 182h3M327 182h2M330 182h28M360 182h24M0 183h37M43 183h1M45 183h4M57 183h4M83 183h1M85 183h1M87 183h4M96 183h38M135 183h6M142 183h1M146 183h22M169 183h14M184 183h30M224 183h37M294 183h64M360 183h24M0 184h37M55 184h1M62 184h1M96 184h38M135 184h4M140 184h2M146 184h22M169 184h14M184 184h30M224 184h6M231 184h6M238 184h16M255 184h6M295 184h58M354 184h30M0 185h37M56 185h1M58 185h1M60 185h2M96 185h32M132 185h2M135 185h3M139 185h2M146 185h22M169 185h14M184 185h30M224 185h37M273 185h1M276 185h1M278 185h3M286 185h3M295 185h66M362 185h22M0 186h38M95 186h32M128 186h2M133 186h2M136 186h1M139 186h1M145 186h23M169 186h6M180 186h3M184 186h30M224 186h23M248 186h13M285 186h5M295 186h89M0 187h39M94 187h33M128 187h3M133 187h35M169 187h5M176 187h3M181 187h2M184 187h29M224 187h7M232 187h29M283 187h1M292 187h1M295 187h20M316 187h68M0 188h146M148 188h19M169 188h5M175 188h5M181 188h2M184 188h19M224 188h37M284 188h4M289 188h1M291 188h1M295 188h17M313 188h2M316 188h68M0 189h137M141 189h4M146 189h2M149 189h17M167 189h1M169 189h5M175 189h5M181 189h2M184 189h18M224 189h4M229 189h32M295 189h18M314 189h1M316 189h68M0 190h136M137 190h3M141 190h25M167 190h1M169 190h4M176 190h3M182 190h1M184 190h17M224 190h38M295 190h9M305 190h8M314 190h1M316 190h68M0 191h166M167 191h1M169 191h6M180 191h3M184 191h17M224 191h15M240 191h23M295 191h7M303 191h2M306 191h7M314 191h1M317 191h67M0 192h167M169 192h6M180 192h3M184 192h17M224 192h60M295 192h8M304 192h1M306 192h7M314 192h1M317 192h67M0 193h24M25 193h143M170 193h12M184 193h17M224 193h61M295 193h8M304 193h1M306 193h2M309 193h4M314 193h1M316 193h1M318 193h66M0 194h169M183 194h18M224 194h29M254 194h16M271 194h6M278 194h7M296 194h7M304 194h1M306 194h1M308 194h5M314 194h1M316 194h1M318 194h66M0 195h26M28 195h142M171 195h1M173 195h3M177 195h2M180 195h21M224 195h61M329 195h55M0 196h26M28 196h4M33 196h168M223 196h37M261 196h24M311 196h1M319 196h1M330 196h54M0 197h24M25 197h176M222 197h23M251 197h25M277 197h8M301 197h1M308 197h1M312 197h1M314 197h1M317 197h2M331 197h53M0 198h28M29 198h172M212 198h32M245 198h6M252 198h33M302 198h2M307 198h1M331 198h53M0 199h22M23 199h7M32 199h74M107 199h94M211 199h32M244 199h1M248 199h4M253 199h26M280 199h5M292 199h1M294 199h3M298 199h1M331 199h53M0 200h30M32 200h73M106 200h2M109 200h92M211 200h5M217 200h25M243 200h1M245 200h4M252 200h1M254 200h31M318 200h1M323 200h1M331 200h53M0 201h25M27 201h75M103 201h2M106 201h1M108 201h93M211 201h31M243 201h1M245 201h1M249 201h2M252 201h1M254 201h14M269 201h16M331 201h53M8 202h17M27 202h76M104 202h1M106 202h1M108 202h93M211 202h3M215 202h27M243 202h1M245 202h6M252 202h1M254 202h31M302 202h4M308 202h2M331 202h53M0 203h8M9 203h22M32 203h71M104 203h1M106 203h1M108 203h89M198 203h3M211 203h31M244 203h1M251 203h1M254 203h32M331 203h53M0 204h3M8 204h1M10 204h13M24 204h79M104 204h1M106 204h1M108 204h85M194 204h7M211 204h31M245 204h6M252 204h1M254 204h33M331 204h53M0 205h2M4 205h3M9 205h1M11 205h94M106 205h95M211 205h31M244 205h1M252 205h1M254 205h66M331 205h53M0 206h2M3 206h5M9 206h1M11 206h187M199 206h2M202 206h3M207 206h2M211 206h10M222 206h19M244 206h1M249 206h1M252 206h2M255 206h66M331 206h53M0 207h1M2 207h6M9 207h1M11 207h188M200 207h1M211 207h29M243 207h1M245 207h1M249 207h1M253 207h1M256 207h31M288 207h6M295 207h16M312 207h9M332 207h52M0 208h1M2 208h5M9 208h1M11 208h185M197 208h2M200 208h1M211 208h2M214 208h27M243 208h1M249 208h1M251 208h2M256 208h65M334 208h50M0 209h1M3 209h2M14 209h183M198 209h1M200 209h1M211 209h32M244 209h1M248 209h2M251 209h1M253 209h51M305 209h16M0 210h2M14 210h183M198 210h1M200 210h1M211 210h33M252 210h36M289 210h32M0 211h1M2 211h1M8 211h1M10 211h1M12 211h1M14 211h183M198 211h1M200 211h1M211 211h32M246 211h4M253 211h68M347 211h4M353 211h2M0 212h3M7 212h192M200 212h1M211 212h74M286 212h35M0 213h3M7 213h1M9 213h1M11 213h1M13 213h186M200 213h1M211 213h110M0 214h4M13 214h188M211 214h85M297 214h24M337 214h1M339 214h3M343 214h1M0 215h9M11 215h190M211 215h110" />
<path stroke="#000000" d="M128 0h10M255 0h10M328 0h10M128 1h10M255 1h11M327 1h11M128 2h10M255 2h83M128 3h10M217 3h1M255 3h19M277 3h61M128 4h10M218 4h1M221 4h1M255 4h5M263 4h10M278 4h10M291 4h47M128 5h10M255 5h16M272 5h8M281 5h6M291 5h35M329 5h9M128 6h10M255 6h17M276 6h1M278 6h1M280 6h6M287 6h4M292 6h33M330 6h8M128 7h10M255 7h9M265 7h1M268 7h19M289 7h1M291 7h32M324 7h8M333 7h5M128 8h10M144 8h6M156 8h6M165 8h12M180 8h21M204 8h6M213 8h6M222 8h6M234 8h6M255 8h69M328 8h1M330 8h1M332 8h6M82 9h1M125 9h1M128 9h10M144 9h6M156 9h6M165 9h12M180 9h21M204 9h6M213 9h6M222 9h6M234 9h6M255 9h83M80 10h1M83 10h1M126 10h1M128 10h1M131 10h3M135 10h3M144 10h6M156 10h6M165 10h12M180 10h21M204 10h6M213 10h6M222 10h6M234 10h6M256 10h2M261 10h76M81 11h1M83 11h1M86 11h1M126 11h1M128 11h10M144 11h6M156 11h6M165 11h6M180 11h6M195 11h6M204 11h6M213 11h6M222 11h6M234 11h6M257 11h79M81 12h1M83 12h1M85 12h1M126 12h1M128 12h10M144 12h6M156 12h6M165 12h6M180 12h6M195 12h6M204 12h6M213 12h6M222 12h6M234 12h6M291 12h12M81 13h1M83 13h1M85 13h1M128 13h10M140 13h1M144 13h6M156 13h6M165 13h6M180 13h6M195 13h6M204 13h6M213 13h6M222 13h6M234 13h6M292 13h10M81 14h1M83 14h1M85 14h1M128 14h10M144 14h6M156 14h6M165 14h6M180 14h6M195 14h6M204 14h6M213 14h6M222 14h6M234 14h6M263 14h1M280 14h1M292 14h10M83 15h1M128 15h10M144 15h6M156 15h6M165 15h6M180 15h6M195 15h6M204 15h6M213 15h6M222 15h6M234 15h6M292 15h10M128 16h10M144 16h6M156 16h6M165 16h6M180 16h6M195 16h6M204 16h6M213 16h6M222 16h6M234 16h6M270 16h1M292 16h10M128 17h2M133 17h1M135 17h1M137 17h1M144 17h6M156 17h6M165 17h6M180 17h6M195 17h6M204 17h6M213 17h6M222 17h6M234 17h6M286 17h1M292 17h10M128 18h10M144 18h6M156 18h6M165 18h6M180 18h6M195 18h6M204 18h6M213 18h6M222 18h6M234 18h6M292 18h10M307 18h1M324 18h1M331 18h1M128 19h10M144 19h6M156 19h6M165 19h6M180 19h6M195 19h6M204 19h6M213 19h6M222 19h6M234 19h6M289 19h1M292 19h10M128 20h10M144 20h6M156 20h6M165 20h6M180 20h6M195 20h6M204 20h6M213 20h6M222 20h6M234 20h6M292 20h10M314 20h1M62 21h3M66 21h2M128 21h10M144 21h6M156 21h6M165 21h6M180 21h6M195 21h6M204 21h6M213 21h6M222 21h6M234 21h6M278 21h1M292 21h10M330 21h1M61 22h1M65 22h1M68 22h1M106 22h1M128 22h10M144 22h6M156 22h6M165 22h6M180 22h6M195 22h6M204 22h6M213 22h6M222 22h6M234 22h6M292 22h10M362 22h1M58 23h3M64 23h1M69 23h1M128 23h10M144 23h6M156 23h6M165 23h6M180 23h6M195 23h6M204 23h6M213 23h6M222 23h6M234 23h6M292 23h10M333 23h1M350 23h1M361 23h1M57 24h1M61 24h2M65 24h1M70 24h1M108 24h2M128 24h10M144 24h6M156 24h6M165 24h6M180 24h6M195 24h6M204 24h6M213 24h6M222 24h6M234 24h6M271 24h10M292 24h10M351 24h1M356 24h1M361 24h1M57 25h2M66 25h1M70 25h1M108 25h2M114 25h1M128 25h10M144 25h6M156 25h6M165 25h6M180 25h6M195 25h6M204 25h6M213 25h6M222 25h6M234 25h6M270 25h1M281 25h1M292 25h10M322 25h1M351 25h1M353 25h1M357 25h1M361 25h1M57 26h1M59 26h2M62 26h1M69 26h2M106 26h1M128 26h6M136 26h2M144 26h6M156 26h6M165 26h6M180 26h6M195 26h6M204 26h6M213 26h6M222 26h6M234 26h6M269 26h1M271 26h10M282 26h1M292 26h10M351 26h1M357 26h1M359 26h1M361 26h1M57 27h1M61 27h5M67 27h4M110 27h1M128 27h10M144 27h6M156 27h6M165 27h6M180 27h6M195 27h6M204 27h6M213 27h6M222 27h6M234 27h6M268 27h1M270 27h12M283 27h1M292 27h10M357 27h1M359 27h1M365 27h1M27 28h1M57 28h1M61 28h2M64 28h1M66 28h5M104 28h1M112 28h2M128 28h10M144 28h6M156 28h6M165 28h6M180 28h6M195 28h6M204 28h6M213 28h6M222 28h6M234 28h6M268 28h16M292 28h10M354 28h1M357 28h1M359 28h1M57 29h1M60 29h3M64 29h1M66 29h5M112 29h2M128 29h2M131 29h2M134 29h1M137 29h1M144 29h6M156 29h6M165 29h6M180 29h6M195 29h6M204 29h6M213 29h6M222 29h6M234 29h6M268 29h16M292 29h4M300 29h2M322 29h1M354 29h1M362 29h1M29 30h2M58 30h1M60 30h2M64 30h2M67 30h3M107 30h2M128 30h10M144 30h6M156 30h6M165 30h6M180 30h6M195 30h6M204 30h6M213 30h6M222 30h6M234 30h6M268 30h16M292 30h10M321 30h1M324 30h1M354 30h1M29 31h2M35 31h1M107 31h2M128 31h2M134 31h4M144 31h6M156 31h6M165 31h6M180 31h6M195 31h6M204 31h6M213 31h6M222 31h6M234 31h6M268 31h8M279 31h5M292 31h1M295 31h1M297 31h2M300 31h2M318 31h1M321 31h1M323 31h1M27 32h1M113 32h1M128 32h10M144 32h6M156 32h6M165 32h6M180 32h6M195 32h6M204 32h6M213 32h6M222 32h6M234 32h6M267 32h8M276 32h3M280 32h4M292 32h10M319 32h1M321 32h1M323 32h1M31 33h1M105 33h1M128 33h10M144 33h6M156 33h6M165 33h6M180 33h6M195 33h6M204 33h6M213 33h6M222 33h6M234 33h6M266 33h1M268 33h16M292 33h10M319 33h1M321 33h1M323 33h1M25 34h1M33 34h2M128 34h10M144 34h6M156 34h6M165 34h6M180 34h6M195 34h6M204 34h6M213 34h6M222 34h6M234 34h6M266 34h18M292 34h2M296 34h6M319 34h1M321 34h1M323 34h1M33 35h2M128 35h10M144 35h18M165 35h12M180 35h21M204 35h6M213 35h6M222 35h18M266 35h18M292 35h10M321 35h1M28 36h2M128 36h10M144 36h18M165 36h12M180 36h21M204 36h6M213 36h6M222 36h18M267 36h17M292 36h10M28 37h2M113 37h1M120 37h1M128 37h10M144 37h18M165 37h12M180 37h21M204 37h6M213 37h6M222 37h18M268 37h16M292 37h10M34 38h1M98 38h1M128 38h10M144 38h6M156 38h6M165 38h6M180 38h6M195 38h6M204 38h6M213 38h6M234 38h6M269 38h14M292 38h10M26 39h1M95 39h1M98 39h1M128 39h10M144 39h6M156 39h6M165 39h6M180 39h6M195 39h6M204 39h6M213 39h6M234 39h6M270 39h1M272 39h1M276 39h1M279 39h1M292 39h10M96 40h1M98 40h1M114 40h1M128 40h10M144 40h6M156 40h6M165 40h6M180 40h6M195 40h6M204 40h6M213 40h6M234 40h6M292 40h10M44 41h10M96 41h1M98 41h1M128 41h10M144 41h6M156 41h6M165 41h6M180 41h6M195 41h6M204 41h6M213 41h6M234 41h6M292 41h10M43 42h1M54 42h1M96 42h1M98 42h2M111 42h1M128 42h10M144 42h6M156 42h6M165 42h6M180 42h6M195 42h6M204 42h6M213 42h6M234 42h6M292 42h10M42 43h1M55 43h1M96 43h1M98 43h2M128 43h10M144 43h6M156 43h6M165 43h6M180 43h6M195 43h6M204 43h6M213 43h6M234 43h6M292 43h1M294 43h1M296 43h1M300 43h2M41 44h1M56 44h1M96 44h1M98 44h1M100 44h1M122 44h1M128 44h10M144 44h6M156 44h6M165 44h6M180 44h6M195 44h6M204 44h6M213 44h6M234 44h6M292 44h11M353 44h1M41 45h1M56 45h1M96 45h1M98 45h1M100 45h1M127 45h11M144 45h6M156 45h6M165 45h6M180 45h6M195 45h6M204 45h6M213 45h6M234 45h6M292 45h35M41 46h1M56 46h1M83 46h55M144 46h6M156 46h6M165 46h6M180 46h6M195 46h6M204 46h6M213 46h6M234 46h6M292 46h36M350 46h2M41 47h1M48 47h5M56 47h1M82 47h13M96 47h4M101 47h37M144 47h6M156 47h6M165 47h12M180 47h6M195 47h6M204 47h15M222 47h18M292 47h37M345 47h1M350 47h2M41 48h1M47 48h2M52 48h2M56 48h1M81 48h7M91 48h5M98 48h1M100 48h30M133 48h5M144 48h6M156 48h6M165 48h12M180 48h6M195 48h6M204 48h15M222 48h18M258 48h1M292 48h12M307 48h11M321 48h8M353 48h1M40 49h2M47 49h1M53 49h1M56 49h1M81 49h25M109 49h11M123 49h15M144 49h6M156 49h6M165 49h12M180 49h6M195 49h6M204 49h15M222 49h18M292 49h12M308 49h9M322 49h7M349 49h1M12 50h1M39 50h1M41 50h1M47 50h1M53 50h1M56 50h1M81 50h24M110 50h9M123 50h15M260 50h2M292 50h3M296 50h2M301 50h2M304 50h4M309 50h5M315 50h8M324 50h5M346 50h2M355 50h1M39 51h1M41 51h1M46 51h3M52 51h3M56 51h1M81 51h22M104 51h8M113 51h5M119 51h4M124 51h9M134 51h1M137 51h1M260 51h2M266 51h1M292 51h12M306 51h1M308 51h7M316 51h1M318 51h1M323 51h6M346 51h2M14 52h2M39 52h1M41 52h1M48 52h5M56 52h1M81 52h23M108 52h1M110 52h1M112 52h7M120 52h1M123 52h15M258 52h1M292 52h37M351 52h2M14 53h2M20 53h1M40 53h2M48 53h5M56 53h1M81 53h57M159 53h9M171 53h9M189 53h12M204 53h3M210 53h3M216 53h9M262 53h1M293 53h36M351 53h2M12 54h1M41 54h2M55 54h2M81 54h1M84 54h53M159 54h9M171 54h9M189 54h12M204 54h3M210 54h3M216 54h9M256 54h1M264 54h2M294 54h35M346 54h1M16 55h1M42 55h14M81 55h55M159 55h9M171 55h9M189 55h12M204 55h3M210 55h3M216 55h9M264 55h2M318 55h11M354 55h1M10 56h1M18 56h2M43 56h1M45 56h1M49 56h1M52 56h1M81 56h11M162 56h3M171 56h3M195 56h3M204 56h3M210 56h3M216 56h3M259 56h2M319 56h10M18 57h2M81 57h2M85 57h1M87 57h4M162 57h3M171 57h3M195 57h3M204 57h3M210 57h3M216 57h3M259 57h2M319 57h10M13 58h2M81 58h10M142 58h10M162 58h3M171 58h3M195 58h3M204 58h3M210 58h3M216 58h3M265 58h1M319 58h10M13 59h2M81 59h10M97 59h1M104 59h1M121 59h1M141 59h1M152 59h1M162 59h3M171 59h9M195 59h3M204 59h9M216 59h9M257 59h1M319 59h10M19 60h1M42 60h1M81 60h10M140 60h1M153 60h1M162 60h3M171 60h9M195 60h3M204 60h9M216 60h9M319 60h10M11 61h1M30 61h1M41 61h1M81 61h10M114 61h1M139 61h1M154 61h1M162 61h3M171 61h9M195 61h3M204 61h9M216 61h9M301 61h10M319 61h10M31 62h1M36 62h1M41 62h1M80 62h11M98 62h1M139 62h1M154 62h1M162 62h3M177 62h3M195 62h3M204 62h3M210 62h3M216 62h3M300 62h1M311 62h1M319 62h10M31 63h1M33 63h1M37 63h1M41 63h1M70 63h21M139 63h1M154 63h1M162 63h3M177 63h3M195 63h3M204 63h3M210 63h3M216 63h3M299 63h1M312 63h1M319 63h10M31 64h1M37 64h1M39 64h1M41 64h1M69 64h22M95 64h1M139 64h1M146 64h5M154 64h1M162 64h3M177 64h3M195 64h3M204 64h3M210 64h3M216 64h3M298 64h1M313 64h1M319 64h10M353 64h4M37 65h1M39 65h1M45 65h1M68 65h23M139 65h1M145 65h2M150 65h2M154 65h1M162 65h3M177 65h3M195 65h3M204 65h3M210 65h3M216 65h3M298 65h1M313 65h1M319 65h10M353 65h1M357 65h2M34 66h1M37 66h1M39 66h1M68 66h23M106 66h1M138 66h2M145 66h1M151 66h1M154 66h1M162 66h3M177 66h3M195 66h3M204 66h3M210 66h3M216 66h3M298 66h1M313 66h1M319 66h10M352 66h1M358 66h1M34 67h1M42 67h1M68 67h6M76 67h15M137 67h1M139 67h1M145 67h1M151 67h1M154 67h1M162 67h3M177 67h3M195 67h3M204 67h3M210 67h3M216 67h3M298 67h1M302 67h5M313 67h1M319 67h10M352 67h1M359 67h2M34 68h1M68 68h23M137 68h1M139 68h1M144 68h3M150 68h3M154 68h1M159 68h9M171 68h9M195 68h3M204 68h3M210 68h3M216 68h9M298 68h1M301 68h2M306 68h2M313 68h1M319 68h10M352 68h1M360 68h2M68 69h23M137 69h1M139 69h1M146 69h5M154 69h1M159 69h9M171 69h9M195 69h3M204 69h3M210 69h3M216 69h9M298 69h1M301 69h1M307 69h1M313 69h2M319 69h10M351 69h1M353 69h1M361 69h1M68 70h3M72 70h1M75 70h16M138 70h2M146 70h5M154 70h1M159 70h9M171 70h9M195 70h3M204 70h3M210 70h3M216 70h9M298 70h1M301 70h1M307 70h1M313 70h1M315 70h1M319 70h10M351 70h1M354 70h2M361 70h2M68 71h22M139 71h2M153 71h2M259 71h1M298 71h1M300 71h3M306 71h3M313 71h1M315 71h1M319 71h10M351 71h1M356 71h1M361 71h2M68 72h21M140 72h14M260 72h1M271 72h1M298 72h1M302 72h5M313 72h1M315 72h1M319 72h10M351 72h1M358 72h1M360 72h3M68 73h11M141 73h1M143 73h1M147 73h1M150 73h1M260 73h1M265 73h1M270 73h1M298 73h1M302 73h5M313 73h2M319 73h10M351 73h1M356 73h1M359 73h4M68 74h10M138 74h18M159 74h18M180 74h21M204 74h6M219 74h6M228 74h18M260 74h1M264 74h1M268 74h1M270 74h1M298 74h2M312 74h2M319 74h10M345 74h4M351 74h1M355 74h1M358 74h5M68 75h10M83 75h1M138 75h18M159 75h18M180 75h21M204 75h6M219 75h6M228 75h18M260 75h1M262 75h1M264 75h1M270 75h1M299 75h14M319 75h10M344 75h1M347 75h3M352 75h1M354 75h2M357 75h5M68 76h10M138 76h18M159 76h18M180 76h21M204 76h6M219 76h6M228 76h18M256 76h1M262 76h1M264 76h1M302 76h1M305 76h1M309 76h1M311 76h1M319 76h10M344 76h1M348 76h2M68 77h10M81 77h1M138 77h6M150 77h6M159 77h6M171 77h6M180 77h6M195 77h6M204 77h6M219 77h6M228 77h6M240 77h6M262 77h1M264 77h1M267 77h1M319 77h10M363 77h2M64 78h1M68 78h10M108 78h4M138 78h6M150 78h6M159 78h6M171 78h6M180 78h6M195 78h6M204 78h6M219 78h6M228 78h6M240 78h6M259 78h1M267 78h1M319 78h10M354 78h4M362 78h1M365 78h1M22 79h6M60 79h1M68 79h10M108 79h1M112 79h2M138 79h6M150 79h6M159 79h6M171 79h6M180 79h6M195 79h6M204 79h6M219 79h6M228 79h6M240 79h6M267 79h1M319 79h10M353 79h1M357 79h1M21 80h1M28 80h1M68 80h10M107 80h1M113 80h1M138 80h6M150 80h6M159 80h6M171 80h6M180 80h6M195 80h6M204 80h6M219 80h6M228 80h6M240 80h6M319 80h10M20 81h1M22 81h3M29 81h1M65 81h1M68 81h10M88 81h1M107 81h1M114 81h2M138 81h6M150 81h6M159 81h6M171 81h6M180 81h6M195 81h6M204 81h6M219 81h6M228 81h6M240 81h6M319 81h10M19 82h1M21 82h1M26 82h3M30 82h1M66 82h1M68 82h10M107 82h1M115 82h2M138 82h6M150 82h6M159 82h6M171 82h6M180 82h6M195 82h6M204 82h6M219 82h6M228 82h6M240 82h6M319 82h10M19 83h1M21 83h1M23 83h3M28 83h1M30 83h1M63 83h1M66 83h1M68 83h10M80 83h1M106 83h1M108 83h1M116 83h1M138 83h6M159 83h6M171 83h6M180 83h6M195 83h6M204 83h6M219 83h6M228 83h6M240 83h6M319 83h10M19 84h1M21 84h1M28 84h1M30 84h1M64 84h1M66 84h1M68 84h10M106 84h1M109 84h2M116 84h2M138 84h6M159 84h6M171 84h6M180 84h6M195 84h6M204 84h6M219 84h6M228 84h6M240 84h6M319 84h10M19 85h2M22 85h6M29 85h2M56 85h1M64 85h1M66 85h1M68 85h10M84 85h1M106 85h1M111 85h1M116 85h2M138 85h6M159 85h6M171 85h6M180 85h6M195 85h6M204 85h6M219 85h6M228 85h6M240 85h6M292 85h3M296 85h2M319 85h10M19 86h1M21 86h1M28 86h1M30 86h1M64 86h1M66 86h1M68 86h10M106 86h1M113 86h1M115 86h3M138 86h6M159 86h6M171 86h6M180 86h6M195 86h6M204 86h6M219 86h6M228 86h6M240 86h6M291 86h1M295 86h1M298 86h1M319 86h10M354 86h1M19 87h1M22 87h6M30 87h1M66 87h1M68 87h10M106 87h1M111 87h1M114 87h4M138 87h6M159 87h6M171 87h6M180 87h6M195 87h6M204 87h6M219 87h6M228 87h6M240 87h6M288 87h3M294 87h1M299 87h1M319 87h10M19 88h1M23 88h1M25 88h1M27 88h1M30 88h1M66 88h1M68 88h10M100 88h4M106 88h1M110 88h1M113 88h5M138 88h6M159 88h6M171 88h6M180 88h6M195 88h6M204 88h6M219 88h6M228 88h6M240 88h6M287 88h1M291 88h2M295 88h1M300 88h1M319 88h10M356 88h2M18 89h1M23 89h1M27 89h1M31 89h1M68 89h10M79 89h1M99 89h1M102 89h3M107 89h1M109 89h2M112 89h5M138 89h6M159 89h6M171 89h6M180 89h6M195 89h6M204 89h6M219 89h6M228 89h6M240 89h6M276 89h1M287 89h2M296 89h1M300 89h1M319 89h10M356 89h2M362 89h1M28 90h1M68 90h10M99 90h1M103 90h2M138 90h6M159 90h6M171 90h6M180 90h6M195 90h6M204 90h6M219 90h6M228 90h6M240 90h6M275 90h1M278 90h1M287 90h1M289 90h2M292 90h1M299 90h2M319 90h10M354 90h1M68 91h10M118 91h2M138 91h6M159 91h6M171 91h6M180 91h6M195 91h6M204 91h6M219 91h6M228 91h6M240 91h6M250 91h6M272 91h1M275 91h1M277 91h1M287 91h1M291 91h5M297 91h4M319 91h10M358 91h1M45 92h10M68 92h10M81 92h1M109 92h4M117 92h1M120 92h1M138 92h6M159 92h6M171 92h6M180 92h6M195 92h6M204 92h6M219 92h6M228 92h6M240 92h6M249 92h2M255 92h2M273 92h1M275 92h1M277 92h1M287 92h1M291 92h2M294 92h1M296 92h5M318 92h11M352 92h1M360 92h2M44 93h1M55 93h1M68 93h10M108 93h1M112 93h1M138 93h6M159 93h6M171 93h6M180 93h6M195 93h6M204 93h6M219 93h6M228 93h6M240 93h6M249 93h1M252 93h2M256 93h1M273 93h1M275 93h1M277 93h1M287 93h1M290 93h3M294 93h1M296 93h5M310 93h19M360 93h2M43 94h1M45 94h10M56 94h1M68 94h10M138 94h6M159 94h6M171 94h6M180 94h6M195 94h6M204 94h6M219 94h6M228 94h6M240 94h6M249 94h1M251 94h1M254 94h1M256 94h1M273 94h1M275 94h1M277 94h1M288 94h1M290 94h2M294 94h2M297 94h3M309 94h20M355 94h2M42 95h1M44 95h12M57 95h1M68 95h4M75 95h3M138 95h6M159 95h6M171 95h6M180 95h6M195 95h6M204 95h6M219 95h6M228 95h6M240 95h6M249 95h1M251 95h2M254 95h1M256 95h1M275 95h1M308 95h21M355 95h2M42 96h16M68 96h3M75 96h3M138 96h6M159 96h6M171 96h6M180 96h6M195 96h6M204 96h6M219 96h6M228 96h6M240 96h6M249 96h1M252 96h1M254 96h1M256 96h1M308 96h21M361 96h1M42 97h16M68 97h1M70 97h6M77 97h1M138 97h6M159 97h6M171 97h6M180 97h6M195 97h6M204 97h6M219 97h6M228 97h6M240 97h6M249 97h4M254 97h1M256 97h1M308 97h8M319 97h10M353 97h1M42 98h16M68 98h2M72 98h1M74 98h1M76 98h2M138 98h6M159 98h6M171 98h6M180 98h6M195 98h6M204 98h6M219 98h6M228 98h6M240 98h6M254 98h1M256 98h1M308 98h7M320 98h9M42 99h5M50 99h8M68 99h10M126 99h1M138 99h6M159 99h6M171 99h6M180 99h6M195 99h6M204 99h6M219 99h6M228 99h6M240 99h6M254 99h1M256 99h1M308 99h5M314 99h8M323 99h6M42 100h4M47 100h3M51 100h8M68 100h10M125 100h1M128 100h1M138 100h6M159 100h6M171 100h6M180 100h6M195 100h6M204 100h6M219 100h6M228 100h6M240 100h6M254 100h1M256 100h1M259 100h7M308 100h6M318 100h1M320 100h1M322 100h7M42 101h16M59 101h1M68 101h10M122 101h1M125 101h1M127 101h1M138 101h6M159 101h6M171 101h3M180 101h6M195 101h6M204 101h6M219 101h6M228 101h6M240 101h6M254 101h1M256 101h1M258 101h2M265 101h2M308 101h20M42 102h18M68 102h10M123 102h1M125 102h1M127 102h1M138 102h6M159 102h6M171 102h3M180 102h6M195 102h6M204 102h6M219 102h6M228 102h6M240 102h6M254 102h1M256 102h1M258 102h1M266 102h1M308 102h19M42 103h18M68 103h10M123 103h1M125 103h1M127 103h1M138 103h6M159 103h6M171 103h3M180 103h6M195 103h6M204 103h6M219 103h6M228 103h6M240 103h6M254 103h1M256 103h1M258 103h1M266 103h1M308 103h11M11 104h1M42 104h17M68 104h10M123 104h1M125 104h1M127 104h1M138 104h6M150 104h6M159 104h18M180 104h6M195 104h6M204 104h6M213 104h3M219 104h6M228 104h6M240 104h6M254 104h1M256 104h1M258 104h2M261 104h2M265 104h3M308 104h10M12 105h1M23 105h1M42 105h16M68 105h10M125 105h1M138 105h6M150 105h6M159 105h18M180 105h6M195 105h6M204 105h6M213 105h3M219 105h6M228 105h6M240 105h6M254 105h1M256 105h1M258 105h1M265 105h1M267 105h1M308 105h10M12 106h1M17 106h1M22 106h1M43 106h14M68 106h10M138 106h6M150 106h6M159 106h18M180 106h6M195 106h6M204 106h6M213 106h3M219 106h6M228 106h6M240 106h6M254 106h1M256 106h1M258 106h1M260 106h2M263 106h2M267 106h1M308 106h2M311 106h1M314 106h4M12 107h1M16 107h1M20 107h1M22 107h1M46 107h1M49 107h1M53 107h1M55 107h1M68 107h10M138 107h6M150 107h6M159 107h6M171 107h6M180 107h6M195 107h6M204 107h6M213 107h3M219 107h6M228 107h6M240 107h6M254 107h1M256 107h1M258 107h2M262 107h1M266 107h2M308 107h10M12 108h1M14 108h1M16 108h1M22 108h1M68 108h10M138 108h6M150 108h6M159 108h6M171 108h6M180 108h6M195 108h6M204 108h6M213 108h3M219 108h6M228 108h6M240 108h6M254 108h1M256 108h1M258 108h1M264 108h3M268 108h1M308 108h10M8 109h1M14 109h1M16 109h1M44 109h1M68 109h10M138 109h6M150 109h6M159 109h6M171 109h6M180 109h6M195 109h6M204 109h6M213 109h3M219 109h6M228 109h6M240 109h6M254 109h1M256 109h1M258 109h1M263 109h2M268 109h1M308 109h1M313 109h1M315 109h3M14 110h1M16 110h1M19 110h1M68 110h10M138 110h6M150 110h6M159 110h6M171 110h6M180 110h6M195 110h6M204 110h6M213 110h3M219 110h6M228 110h6M240 110h6M254 110h1M256 110h1M258 110h2M262 110h2M268 110h1M308 110h10M364 110h1M11 111h1M19 111h1M46 111h2M68 111h10M138 111h6M150 111h6M159 111h6M171 111h6M180 111h6M195 111h6M204 111h6M213 111h3M219 111h6M228 111h6M240 111h6M254 111h1M256 111h1M259 111h3M263 111h1M268 111h1M308 111h10M362 111h1M365 111h1M19 112h1M46 112h2M52 112h1M68 112h10M138 112h6M150 112h6M159 112h6M171 112h6M180 112h6M195 112h6M204 112h6M213 112h3M219 112h6M228 112h6M240 112h6M254 112h1M256 112h1M259 112h1M263 112h1M268 112h1M308 112h10M363 112h1M365 112h1M368 112h1M44 113h1M68 113h10M138 113h18M159 113h6M171 113h6M180 113h21M204 113h21M228 113h6M240 113h6M254 113h1M256 113h1M259 113h1M263 113h1M268 113h1M308 113h10M363 113h1M365 113h1M367 113h1M48 114h1M68 114h10M138 114h18M159 114h6M171 114h6M180 114h21M204 114h21M228 114h6M240 114h6M254 114h1M256 114h1M259 114h1M263 114h1M268 114h1M308 114h10M338 114h1M363 114h1M365 114h1M367 114h1M42 115h1M50 115h2M68 115h10M138 115h18M159 115h6M171 115h6M180 115h21M204 115h21M228 115h6M240 115h6M254 115h3M259 115h10M308 115h10M335 115h1M338 115h1M363 115h1M365 115h1M367 115h1M50 116h2M68 116h2M73 116h5M252 116h1M308 116h3M314 116h4M336 116h1M338 116h1M365 116h1M45 117h2M68 117h10M103 117h1M308 117h3M315 117h3M336 117h1M338 117h1M45 118h2M68 118h10M100 118h1M103 118h1M249 118h2M308 118h1M310 118h6M317 118h1M336 118h1M338 118h2M51 119h1M68 119h2M71 119h4M77 119h1M101 119h1M103 119h1M170 119h1M244 119h1M249 119h2M308 119h2M312 119h1M314 119h1M316 119h2M336 119h1M338 119h2M43 120h1M68 120h10M92 120h1M101 120h1M103 120h1M158 120h1M169 120h1M252 120h1M308 120h10M336 120h1M338 120h1M340 120h1M68 121h10M90 121h1M93 121h1M101 121h1M103 121h2M159 121h1M164 121h1M169 121h1M248 121h1M308 121h11M336 121h1M338 121h1M340 121h1M68 122h6M76 122h2M91 122h1M93 122h1M101 122h1M103 122h2M159 122h1M161 122h1M165 122h1M169 122h1M245 122h2M254 122h1M308 122h37M68 123h10M91 123h1M93 123h1M96 123h1M101 123h1M103 123h1M105 123h1M159 123h1M165 123h1M167 123h1M169 123h1M245 123h2M308 123h26M335 123h7M343 123h3M68 124h11M91 124h1M93 124h1M95 124h1M101 124h1M103 124h1M105 124h1M165 124h1M167 124h1M173 124h1M250 124h2M308 124h27M336 124h1M338 124h2M342 124h5M68 125h2M74 125h38M162 125h1M165 125h1M167 125h1M250 125h2M308 125h3M312 125h1M316 125h1M318 125h29M68 126h21M90 126h7M98 126h2M101 126h5M107 126h6M162 126h1M170 126h1M245 126h1M308 126h29M338 126h4M343 126h4M68 127h7M77 127h13M93 127h1M95 127h1M97 127h4M102 127h1M104 127h1M106 127h8M162 127h1M253 127h1M308 127h39M68 128h14M85 128h29M308 128h13M325 128h2M329 128h18M68 129h46M206 129h1M276 129h1M308 129h39M68 130h46M205 130h1M208 130h1M275 130h1M278 130h1M309 130h38M68 131h22M91 131h3M97 131h2M100 131h14M202 131h1M205 131h1M207 131h1M272 131h1M275 131h1M277 131h1M310 131h37M68 132h46M145 132h1M203 132h1M205 132h1M207 132h1M273 132h1M275 132h1M277 132h1M336 132h11M69 133h45M143 133h1M146 133h1M203 133h1M205 133h1M207 133h1M273 133h1M275 133h1M277 133h1M337 133h10M27 134h4M70 134h44M144 134h1M146 134h1M149 134h1M203 134h1M205 134h1M207 134h1M273 134h1M275 134h1M277 134h1M337 134h11M27 135h1M31 135h2M103 135h11M144 135h1M146 135h1M148 135h1M205 135h1M275 135h1M337 135h47M26 136h1M32 136h1M104 136h4M112 136h2M144 136h1M146 136h1M148 136h1M337 136h47M26 137h1M33 137h2M104 137h10M144 137h1M146 137h1M148 137h1M337 137h19M360 137h24M26 138h1M34 138h2M104 138h1M107 138h1M109 138h2M112 138h2M146 138h1M337 138h37M375 138h1M378 138h6M25 139h1M27 139h1M35 139h1M104 139h10M337 139h16M355 139h1M357 139h2M360 139h24M25 140h1M28 140h2M35 140h2M104 140h10M179 140h1M337 140h47M25 141h1M30 141h1M35 141h2M104 141h2M108 141h6M337 141h36M377 141h1M379 141h5M25 142h1M32 142h1M34 142h3M104 142h10M176 142h2M337 142h17M356 142h28M25 143h1M30 143h1M33 143h4M104 143h10M171 143h1M176 143h2M338 143h46M19 144h4M25 144h1M29 144h1M32 144h5M104 144h10M179 144h1M339 144h45M18 145h1M21 145h3M26 145h1M28 145h2M31 145h5M104 145h10M175 145h1M18 146h1M22 146h2M104 146h10M172 146h2M181 146h1M351 146h1M368 146h1M375 146h1M37 147h2M104 147h10M172 147h2M278 147h3M282 147h2M28 148h4M36 148h1M39 148h1M94 148h1M104 148h10M177 148h2M243 148h10M277 148h1M281 148h1M284 148h1M358 148h1M27 149h1M31 149h1M92 149h1M95 149h1M104 149h10M177 149h2M242 149h1M253 149h1M274 149h3M280 149h1M285 149h1M374 149h1M93 150h1M95 150h1M104 150h1M106 150h1M108 150h1M112 150h2M172 150h1M241 150h1M254 150h1M273 150h1M277 150h2M281 150h1M286 150h1M93 151h1M95 151h1M98 151h1M104 151h10M180 151h1M240 151h1M255 151h1M273 151h2M282 151h1M286 151h1M377 151h1M93 152h1M95 152h1M97 152h1M103 152h11M240 152h1M255 152h1M273 152h1M275 152h2M278 152h1M285 152h2M88 153h26M135 153h1M240 153h1M255 153h1M273 153h1M277 153h5M283 153h4M366 153h1M13 154h1M20 154h1M37 154h1M87 154h4M92 154h7M100 154h14M240 154h1M244 154h5M255 154h1M273 154h1M277 154h2M280 154h1M282 154h5M318 154h1M86 155h6M95 155h1M97 155h1M99 155h15M132 155h2M240 155h1M243 155h2M248 155h2M255 155h1M273 155h1M276 155h3M280 155h1M282 155h5M319 155h1M330 155h1M30 156h1M86 156h28M127 156h1M132 156h2M240 156h1M243 156h1M249 156h1M255 156h2M274 156h1M276 156h2M280 156h2M283 156h3M319 156h1M324 156h1M329 156h1M14 157h1M62 157h10M86 157h28M135 157h1M240 157h1M243 157h1M249 157h1M255 157h1M257 157h1M319 157h1M323 157h1M327 157h1M329 157h1M61 158h1M72 158h1M86 158h28M131 158h1M240 158h1M242 158h3M248 158h3M255 158h1M257 158h1M319 158h1M321 158h1M323 158h1M329 158h1M11 159h1M60 159h1M73 159h1M86 159h28M128 159h2M137 159h1M166 159h1M240 159h1M244 159h5M255 159h1M257 159h1M315 159h1M321 159h1M323 159h1M59 160h1M74 160h1M86 160h28M128 160h2M165 160h1M168 160h1M240 160h1M244 160h5M255 160h2M321 160h1M323 160h1M326 160h1M22 161h1M59 161h1M74 161h1M86 161h28M133 161h2M162 161h1M165 161h1M167 161h1M240 161h2M254 161h2M318 161h1M326 161h1M59 162h1M74 162h1M86 162h27M133 162h2M163 162h1M165 162h1M167 162h1M241 162h14M326 162h1M0 163h45M59 163h1M63 163h5M74 163h1M86 163h26M128 163h1M163 163h1M165 163h1M167 163h1M231 163h1M244 163h1M247 163h1M251 163h1M253 163h1M0 164h46M59 164h1M62 164h2M67 164h2M74 164h1M86 164h11M136 164h1M163 164h1M165 164h1M167 164h1M228 164h1M231 164h1M0 165h24M27 165h20M59 165h1M62 165h1M68 165h1M74 165h2M86 165h10M165 165h1M229 165h1M231 165h1M0 166h47M59 166h1M62 166h1M68 166h1M74 166h1M76 166h1M86 166h10M229 166h1M231 166h1M0 167h6M7 167h1M12 167h35M59 167h1M61 167h3M67 167h3M74 167h1M76 167h1M86 167h10M229 167h1M231 167h2M321 167h10M0 168h24M25 168h4M31 168h16M59 168h1M63 168h5M74 168h1M76 168h1M86 168h10M229 168h1M231 168h2M320 168h1M331 168h1M0 169h47M53 169h1M59 169h1M63 169h5M74 169h2M86 169h10M229 169h1M231 169h1M233 169h1M319 169h1M332 169h1M0 170h38M39 170h1M41 170h1M45 170h2M54 170h1M57 170h1M59 170h2M73 170h2M86 170h10M229 170h1M231 170h1M233 170h1M318 170h1M333 170h1M0 171h28M30 171h17M54 171h1M56 171h1M60 171h14M86 171h10M216 171h53M318 171h1M333 171h1M0 172h47M54 172h1M56 172h1M63 172h1M65 172h2M70 172h1M72 172h1M86 172h10M215 172h30M247 172h2M250 172h1M253 172h17M318 172h1M333 172h1M0 173h47M51 173h1M54 173h1M56 173h1M64 173h1M67 173h1M86 173h10M214 173h6M221 173h1M224 173h3M228 173h6M235 173h26M263 173h1M265 173h6M318 173h1M325 173h5M333 173h1M36 174h11M52 174h1M54 174h1M56 174h1M64 174h1M66 174h1M86 174h10M214 174h14M230 174h3M234 174h5M242 174h11M256 174h15M318 174h1M324 174h2M329 174h2M333 174h1M360 174h1M37 175h10M52 175h1M54 175h1M56 175h1M61 175h1M64 175h1M66 175h1M86 175h10M136 175h4M214 175h24M243 175h9M256 175h15M317 175h2M324 175h1M330 175h1M333 175h1M37 176h11M52 176h1M54 176h1M56 176h1M62 176h1M64 176h1M66 176h1M85 176h11M136 176h1M140 176h2M214 176h10M226 176h3M231 176h1M233 176h3M237 176h8M246 176h4M251 176h6M258 176h13M316 176h1M318 176h1M324 176h1M330 176h1M333 176h1M357 176h2M37 177h59M135 177h1M141 177h1M214 177h23M241 177h1M243 177h1M245 177h6M253 177h1M255 177h1M257 177h14M316 177h1M318 177h1M323 177h3M329 177h3M333 177h1M352 177h1M357 177h2M37 178h13M51 178h6M58 178h38M135 178h1M142 178h2M214 178h57M316 178h1M318 178h1M325 178h5M333 178h1M360 178h1M37 179h14M52 179h1M54 179h1M57 179h5M63 179h4M68 179h9M80 179h1M82 179h14M135 179h1M143 179h2M214 179h1M217 179h54M317 179h2M325 179h5M333 179h1M356 179h1M37 180h26M67 180h19M89 180h7M134 180h1M136 180h1M144 180h1M171 180h10M214 180h57M318 180h2M332 180h2M353 180h2M362 180h1M37 181h48M90 181h6M134 181h1M137 181h2M144 181h2M170 181h1M181 181h1M214 181h11M260 181h12M319 181h14M353 181h2M37 182h20M60 182h22M83 182h8M92 182h4M134 182h1M139 182h1M144 182h2M169 182h1M182 182h1M214 182h5M220 182h1M223 182h1M261 182h32M320 182h1M322 182h1M326 182h1M329 182h1M358 182h2M37 183h6M44 183h1M49 183h8M61 183h22M84 183h1M86 183h1M91 183h5M134 183h1M141 183h1M143 183h3M168 183h1M183 183h1M214 183h10M261 183h33M358 183h2M37 184h18M56 184h6M63 184h33M134 184h1M139 184h1M142 184h4M168 184h1M183 184h1M214 184h10M230 184h1M237 184h1M254 184h1M261 184h34M353 184h1M37 185h19M57 185h1M59 185h1M62 185h34M128 185h4M134 185h1M138 185h1M141 185h5M168 185h1M183 185h1M214 185h10M261 185h12M274 185h2M277 185h1M281 185h5M289 185h6M361 185h1M38 186h57M127 186h1M130 186h3M135 186h1M137 186h2M140 186h5M168 186h1M175 186h5M183 186h1M214 186h10M247 186h1M261 186h24M290 186h5M39 187h55M127 187h1M131 187h2M168 187h1M174 187h2M179 187h2M183 187h1M213 187h11M231 187h1M261 187h22M284 187h8M293 187h2M315 187h1M146 188h2M167 188h2M174 188h1M180 188h1M183 188h1M203 188h21M261 188h23M288 188h1M290 188h1M292 188h3M312 188h1M315 188h1M137 189h4M145 189h1M148 189h1M166 189h1M168 189h1M174 189h1M180 189h1M183 189h1M202 189h22M228 189h1M261 189h34M313 189h1M315 189h1M136 190h1M140 190h1M166 190h1M168 190h1M173 190h3M179 190h3M183 190h1M201 190h23M262 190h33M304 190h1M313 190h1M315 190h1M166 191h1M168 191h1M175 191h5M183 191h1M201 191h23M239 191h1M263 191h32M302 191h1M305 191h1M313 191h1M315 191h2M167 192h2M175 192h5M183 192h1M201 192h23M284 192h11M303 192h1M305 192h1M313 192h1M315 192h2M24 193h1M168 193h2M182 193h2M201 193h23M285 193h10M303 193h1M305 193h1M308 193h1M313 193h1M315 193h1M317 193h1M169 194h14M201 194h23M253 194h1M270 194h1M277 194h1M285 194h11M303 194h1M305 194h1M307 194h1M313 194h1M315 194h1M317 194h1M26 195h2M170 195h1M172 195h1M176 195h1M179 195h1M201 195h23M285 195h44M26 196h2M32 196h1M201 196h22M260 196h1M285 196h26M312 196h7M320 196h10M24 197h1M201 197h21M245 197h6M276 197h1M285 197h16M302 197h6M309 197h3M313 197h1M315 197h2M319 197h12M28 198h1M201 198h11M244 198h1M251 198h1M285 198h17M304 198h3M308 198h23M22 199h1M30 199h2M106 199h1M201 199h10M243 199h1M245 199h3M252 199h1M279 199h1M285 199h7M293 199h1M297 199h1M299 199h32M30 200h2M105 200h1M108 200h1M201 200h10M216 200h1M242 200h1M244 200h1M249 200h3M253 200h1M285 200h33M319 200h4M324 200h7M25 201h2M102 201h1M105 201h1M107 201h1M201 201h10M242 201h1M244 201h1M246 201h3M251 201h1M253 201h1M268 201h1M285 201h46M0 202h8M25 202h2M103 202h1M105 202h1M107 202h1M201 202h10M214 202h1M242 202h1M244 202h1M251 202h1M253 202h1M285 202h17M306 202h2M310 202h21M8 203h1M31 203h1M103 203h1M105 203h1M107 203h1M197 203h1M201 203h10M242 203h2M245 203h6M252 203h2M286 203h45M3 204h5M9 204h1M23 204h1M103 204h1M105 204h1M107 204h1M193 204h1M201 204h10M242 204h3M251 204h1M253 204h1M287 204h44M2 205h2M7 205h2M10 205h1M105 205h1M201 205h10M242 205h2M245 205h7M253 205h1M320 205h11M2 206h1M8 206h1M10 206h1M198 206h1M201 206h1M205 206h2M209 206h2M221 206h1M241 206h3M245 206h4M250 206h2M254 206h1M321 206h10M1 207h1M8 207h1M10 207h1M199 207h1M201 207h10M240 207h3M244 207h1M246 207h3M250 207h3M254 207h2M287 207h1M294 207h1M311 207h1M321 207h11M1 208h1M7 208h2M10 208h1M196 208h1M199 208h1M201 208h10M213 208h1M241 208h2M244 208h5M250 208h1M253 208h3M321 208h13M1 209h2M5 209h2M8 209h6M197 209h1M199 209h1M201 209h10M243 209h1M245 209h3M250 209h1M252 209h1M304 209h1M321 209h63M2 210h3M6 210h8M197 210h1M199 210h1M201 210h10M244 210h8M288 210h1M321 210h63M1 211h1M3 211h5M9 211h1M11 211h1M13 211h1M197 211h1M199 211h1M201 211h10M243 211h3M250 211h3M321 211h26M351 211h2M355 211h29M3 212h4M199 212h1M201 212h10M285 212h1M321 212h63M3 213h4M8 213h1M10 213h1M12 213h1M199 213h1M201 213h10M321 213h63M4 214h9M201 214h10M296 214h1M321 214h16M338 214h1M342 214h1M344 214h40M9 215h2M201 215h10M321 215h63" />
<path stroke="#ff0000" d="M267 108h1M265 109h3M264 110h4M262 111h1M264 111h4M260 112h3M264 112h4M260 113h3M264 113h4M260 114h3M264 114h4M7 209h1M5 210h1" />
</svg>