<svg xmlns="http://www.w3.org/2000/svg" viewBox="0 -0.5 64 32" shape-rendering="crispEdges">
<metadata>Made with Pixels to Svg https://codepen.io/shshaw/pen/XbxvNj</metadata>
<path stroke="#000000" d="M23 3h1M22 4h2M21 5h3M20 6h4M12 7h2M20 7h4M49 7h3M12 8h3M20 8h4M49 8h3M11 9h5M21 9h4M49 9h3M11 10h6M19 10h33M11 11h6M18 11h33M11 12h40M11 13h22M37 13h1M48 13h1M50 13h1M11 14h9M23 14h8M48 14h1M50 14h1M12 15h7M21 15h2M24 15h6M16 16h3M20 16h3M24 16h5M16 17h3M20 17h3M24 17h4M41 17h1M16 18h4M23 18h5M40 18h3M16 19h11M39 19h5M16 20h11M38 20h7M16 21h11M37 21h9M16 22h11M38 22h7M16 23h11M38 23h7M16 24h12M38 24h2M42 24h3M16 25h12M38 25h2M42 25h3M48 25h1M50 25h1M16 26h13M35 26h1M38 26h2M42 26h3M48 26h1M50 26h1M16 27h35M16 28h35" />
</svg>