<?xml version="1.0" encoding="UTF-8" standalone="no"?>
<svg
   xmlns:dc="http://purl.org/dc/elements/1.1/"
   xmlns:cc="http://creativecommons.org/ns#"
   xmlns:rdf="http://www.w3.org/1999/02/22-rdf-syntax-ns#"
   xmlns:svg="http://www.w3.org/2000/svg"
   xmlns="http://www.w3.org/2000/svg"
   xmlns:sodipodi="http://sodipodi.sourceforge.net/DTD/sodipodi-0.dtd"
   xmlns:inkscape="http://www.inkscape.org/namespaces/inkscape"
   version="1.1"
   width="208"
   height="104"
   id="svg3754"
   sodipodi:docname="Possum House Pixel White.svg"
   inkscape:version="0.92.2 (5c3e80d, 2017-08-06)">
  <metadata
     id="metadata3760">
    <rdf:RDF>
      <cc:Work
         rdf:about="">
        <dc:format>image/svg+xml</dc:format>
        <dc:type
           rdf:resource="http://purl.org/dc/dcmitype/StillImage" />
      </cc:Work>
    </rdf:RDF>
  </metadata>
  <defs
     id="defs3758" />
  <sodipodi:namedview
     pagecolor="#ffffff"
     bordercolor="#666666"
     borderopacity="1"
     objecttolerance="10"
     gridtolerance="10"
     guidetolerance="10"
     inkscape:pageopacity="0"
     inkscape:pageshadow="2"
     inkscape:window-width="640"
     inkscape:window-height="480"
     id="namedview3756"
     showgrid="false"
     inkscape:zoom="1.3798077"
     inkscape:cx="91.317073"
     inkscape:cy="52"
     inkscape:window-x="329"
     inkscape:window-y="762"
     inkscape:window-maximized="0"
     inkscape:current-layer="svg3754" />
  <path
     id="rect3752"
     style="fill:#ffffff"
     d="m 180,102 h 2 v 2 h -2 z m -2,0 h 2 v 2 h -2 z m -2,0 h 2 v 2 h -2 z m -2,0 h 2 v 2 h -2 z m -2,0 h 2 v 2 h -2 z m -2,0 h 2 v 2 h -2 z m -2,0 h 2 v 2 h -2 z m -2,0 h 2 v 2 h -2 z m -2,0 h 2 v 2 h -2 z m -2,0 h 2 v 2 h -2 z m -2,0 h 2 v 2 h -2 z m -2,0 h 2 v 2 h -2 z m -2,0 h 2 v 2 h -2 z m -2,0 h 2 v 2 h -2 z m -2,0 h 2 v 2 h -2 z m -2,0 h 2 v 2 h -2 z m -2,0 h 2 v 2 h -2 z m -2,0 h 2 v 2 h -2 z m -2,0 h 2 v 2 h -2 z m -2,0 h 2 v 2 h -2 z m -2,0 h 2 v 2 h -2 z m -2,0 h 2 v 2 h -2 z m -2,0 h 2 v 2 h -2 z m -2,0 h 2 v 2 h -2 z m -2,0 h 2 v 2 h -2 z m -2,0 h 2 v 2 h -2 z m -2,0 h 2 v 2 h -2 z m -2,0 h 2 v 2 h -2 z m -2,0 h 2 v 2 h -2 z m -2,0 h 2 v 2 h -2 z m -2,0 h 2 v 2 h -2 z m -2,0 h 2 v 2 h -2 z m -2,0 h 2 v 2 h -2 z m -2,0 h 2 v 2 h -2 z m -2,0 h 2 v 2 h -2 z m -2,0 h 2 v 2 h -2 z m -2,0 h 2 v 2 h -2 z m -2,0 h 2 v 2 h -2 z m -2,0 h 2 v 2 h -2 z m -2,0 h 2 v 2 h -2 z m -2,0 h 2 v 2 h -2 z m -2,0 h 2 v 2 h -2 z m -2,0 h 2 v 2 h -2 z m -2,0 h 2 v 2 h -2 z m -2,0 h 2 v 2 h -2 z m -2,0 h 2 v 2 h -2 z m -2,0 h 2 v 2 h -2 z m -2,0 h 2 v 2 h -2 z m -2,0 h 2 v 2 h -2 z m -2,0 h 2 v 2 h -2 z m -2,0 h 2 v 2 h -2 z m -2,0 h 2 v 2 h -2 z m -2,0 h 2 v 2 h -2 z m -2,0 h 2 v 2 h -2 z m -2,0 h 2 v 2 h -2 z m -2,0 h 2 v 2 h -2 z m -2,0 h 2 v 2 h -2 z m -2,0 h 2 v 2 h -2 z m -2,0 h 2 v 2 h -2 z m -2,0 h 2 v 2 h -2 z m -2,0 h 2 v 2 h -2 z m -2,0 h 2 v 2 h -2 z m -2,0 h 2 v 2 h -2 z m -2,0 h 2 v 2 h -2 z m -2,0 h 2 v 2 h -2 z m -2,0 h 2 v 2 h -2 z m -2,0 h 2 v 2 h -2 z m -2,0 h 2 v 2 h -2 z m -2,0 h 2 v 2 h -2 z m -2,0 h 2 v 2 h -2 z m 138,-2 h 2 v 2 h -2 z m -2,0 h 2 v 2 h -2 z m -2,0 h 2 v 2 h -2 z m -2,0 h 2 v 2 h -2 z m -2,0 h 2 v 2 h -2 z m -2,0 h 2 v 2 h -2 z m -2,0 h 2 v 2 h -2 z m -2,0 h 2 v 2 h -2 z m -2,0 h 2 v 2 h -2 z m -2,0 h 2 v 2 h -2 z m -2,0 h 2 v 2 h -2 z m -2,0 h 2 v 2 h -2 z m -2,0 h 2 v 2 h -2 z m -2,0 h 2 v 2 h -2 z m -2,0 h 2 v 2 h -2 z m -2,0 h 2 v 2 h -2 z m -2,0 h 2 v 2 h -2 z m -2,0 h 2 v 2 h -2 z m -2,0 h 2 v 2 h -2 z m -2,0 h 2 v 2 h -2 z m -2,0 h 2 v 2 h -2 z m -2,0 h 2 v 2 h -2 z m -2,0 h 2 v 2 h -2 z m -2,0 h 2 v 2 h -2 z m -2,0 h 2 v 2 h -2 z m -2,0 h 2 v 2 h -2 z m -2,0 h 2 v 2 h -2 z m -2,0 h 2 v 2 h -2 z m -2,0 h 2 v 2 h -2 z m -2,0 h 2 v 2 h -2 z m -2,0 h 2 v 2 h -2 z m -2,0 h 2 v 2 h -2 z m -2,0 h 2 v 2 h -2 z m -2,0 h 2 v 2 h -2 z m -2,0 h 2 v 2 h -2 z m -2,0 h 2 v 2 h -2 z m -2,0 h 2 v 2 h -2 z m -2,0 h 2 v 2 h -2 z m -2,0 h 2 v 2 h -2 z m -2,0 h 2 v 2 h -2 z m -2,0 h 2 v 2 h -2 z m -2,0 h 2 v 2 h -2 z m -2,0 h 2 v 2 h -2 z m -2,0 h 2 v 2 h -2 z m -2,0 h 2 v 2 h -2 z m -2,0 h 2 v 2 h -2 z m -2,0 h 2 v 2 h -2 z m -2,0 h 2 v 2 h -2 z m -2,0 h 2 v 2 h -2 z m -2,0 h 2 v 2 h -2 z m -2,0 h 2 v 2 h -2 z m -2,0 h 2 v 2 h -2 z m -2,0 h 2 v 2 h -2 z m -2,0 h 2 v 2 h -2 z m -2,0 h 2 v 2 h -2 z m -2,0 h 2 v 2 h -2 z m -2,0 h 2 v 2 h -2 z m -2,0 h 2 v 2 h -2 z m -2,0 h 2 v 2 h -2 z m -2,0 h 2 v 2 h -2 z m -2,0 h 2 v 2 h -2 z m -2,0 h 2 v 2 h -2 z m -2,0 h 2 v 2 h -2 z m -2,0 h 2 v 2 h -2 z m -2,0 h 2 v 2 h -2 z m -2,0 h 2 v 2 h -2 z m -2,0 h 2 v 2 h -2 z m -2,0 h 2 v 2 h -2 z m -2,0 h 2 v 2 h -2 z m -2,0 h 2 v 2 h -2 z m 138,-2 h 2 v 2 h -2 z m -2,0 h 2 v 2 h -2 z m -2,0 h 2 v 2 h -2 z m -2,0 h 2 v 2 h -2 z m -2,0 h 2 v 2 h -2 z m -2,0 h 2 v 2 h -2 z m -2,0 h 2 v 2 h -2 z m -2,0 h 2 v 2 h -2 z m -2,0 h 2 v 2 h -2 z m -2,0 h 2 v 2 h -2 z m -2,0 h 2 v 2 h -2 z m -2,0 h 2 v 2 h -2 z m -2,0 h 2 v 2 h -2 z m -2,0 h 2 v 2 h -2 z m -2,0 h 2 v 2 h -2 z m -2,0 h 2 v 2 h -2 z m -2,0 h 2 v 2 h -2 z m -2,0 h 2 v 2 h -2 z m -2,0 h 2 v 2 h -2 z m -2,0 h 2 v 2 h -2 z m -2,0 h 2 v 2 h -2 z m -2,0 h 2 v 2 h -2 z m -2,0 h 2 v 2 h -2 z m -2,0 h 2 v 2 h -2 z m -2,0 h 2 v 2 h -2 z m -2,0 h 2 v 2 h -2 z m -2,0 h 2 v 2 h -2 z m -2,0 h 2 v 2 h -2 z m -2,0 h 2 v 2 h -2 z m -2,0 h 2 v 2 h -2 z m -2,0 h 2 v 2 h -2 z m -2,0 h 2 v 2 h -2 z m -2,0 h 2 v 2 h -2 z m -2,0 h 2 v 2 h -2 z m -2,0 h 2 v 2 h -2 z m -2,0 h 2 v 2 h -2 z m -2,0 h 2 v 2 h -2 z m -2,0 h 2 v 2 h -2 z m -2,0 h 2 v 2 h -2 z m -2,0 h 2 v 2 h -2 z m -2,0 h 2 v 2 h -2 z m -2,0 h 2 v 2 h -2 z m -2,0 h 2 v 2 h -2 z m -2,0 h 2 v 2 h -2 z m -2,0 h 2 v 2 h -2 z m -2,0 h 2 v 2 h -2 z m -2,0 h 2 v 2 h -2 z m -2,0 h 2 v 2 h -2 z m -2,0 h 2 v 2 h -2 z m -2,0 h 2 v 2 h -2 z m -2,0 h 2 v 2 h -2 z m -2,0 h 2 v 2 h -2 z m -2,0 h 2 v 2 h -2 z m -2,0 h 2 v 2 h -2 z m -2,0 h 2 v 2 h -2 z m -2,0 h 2 v 2 h -2 z m -2,0 h 2 v 2 h -2 z m -2,0 h 2 v 2 h -2 z m -2,0 h 2 v 2 h -2 z m -2,0 h 2 v 2 h -2 z m -2,0 h 2 v 2 h -2 z m -2,0 h 2 v 2 h -2 z m -2,0 h 2 v 2 h -2 z m -2,0 h 2 v 2 h -2 z m -2,0 h 2 v 2 h -2 z m -2,0 h 2 v 2 h -2 z m -2,0 h 2 v 2 h -2 z m -2,0 h 2 v 2 h -2 z m -2,0 h 2 v 2 h -2 z m -2,0 h 2 v 2 h -2 z m 138,-2 h 2 v 2 h -2 z m -2,0 h 2 v 2 h -2 z m -2,0 h 2 v 2 h -2 z m -2,0 h 2 v 2 h -2 z m -2,0 h 2 v 2 h -2 z m -2,0 h 2 v 2 h -2 z m -2,0 h 2 v 2 h -2 z m -2,0 h 2 v 2 h -2 z m -2,0 h 2 v 2 h -2 z m -2,0 h 2 v 2 h -2 z m -2,0 h 2 v 2 h -2 z m -2,0 h 2 v 2 h -2 z m -2,0 h 2 v 2 h -2 z m -2,0 h 2 v 2 h -2 z m -2,0 h 2 v 2 h -2 z m -2,0 h 2 v 2 h -2 z m -2,0 h 2 v 2 h -2 z m -2,0 h 2 v 2 h -2 z m -2,0 h 2 v 2 h -2 z m -2,0 h 2 v 2 h -2 z m -2,0 h 2 v 2 h -2 z m -2,0 h 2 v 2 h -2 z m -2,0 h 2 v 2 h -2 z m -2,0 h 2 v 2 h -2 z m -2,0 h 2 v 2 h -2 z m -2,0 h 2 v 2 h -2 z m -2,0 h 2 v 2 h -2 z m -2,0 h 2 v 2 h -2 z m -2,0 h 2 v 2 h -2 z m -2,0 h 2 v 2 h -2 z m -2,0 h 2 v 2 h -2 z m -2,0 h 2 v 2 h -2 z m -2,0 h 2 v 2 h -2 z m -2,0 h 2 v 2 h -2 z m -2,0 h 2 v 2 h -2 z m -2,0 h 2 v 2 h -2 z m -2,0 h 2 v 2 h -2 z m -2,0 h 2 v 2 h -2 z m -2,0 h 2 v 2 h -2 z m -2,0 h 2 v 2 h -2 z m -2,0 h 2 v 2 h -2 z m -2,0 h 2 v 2 h -2 z m -2,0 h 2 v 2 h -2 z m -2,0 h 2 v 2 h -2 z m -2,0 h 2 v 2 h -2 z m -2,0 h 2 v 2 h -2 z m -2,0 h 2 v 2 h -2 z m -2,0 h 2 v 2 h -2 z m -2,0 h 2 v 2 h -2 z m -2,0 h 2 v 2 h -2 z m -2,0 h 2 v 2 h -2 z m -2,0 h 2 v 2 h -2 z m -2,0 h 2 v 2 h -2 z m -2,0 h 2 v 2 h -2 z m -2,0 h 2 v 2 h -2 z m -2,0 h 2 v 2 h -2 z m -2,0 h 2 v 2 h -2 z m -2,0 h 2 v 2 h -2 z m -2,0 h 2 v 2 h -2 z m -2,0 h 2 v 2 h -2 z m -2,0 h 2 v 2 h -2 z m -2,0 h 2 v 2 h -2 z m -2,0 h 2 v 2 h -2 z m -2,0 h 2 v 2 h -2 z m -2,0 h 2 v 2 h -2 z m -2,0 h 2 v 2 h -2 z m -2,0 h 2 v 2 h -2 z m -2,0 h 2 v 2 h -2 z m -2,0 h 2 v 2 h -2 z m -2,0 h 2 v 2 h -2 z m 138,-2 h 2 v 2 h -2 z m -2,0 h 2 v 2 h -2 z m -6,0 h 2 v 2 h -2 z m -2,0 h 2 v 2 h -2 z m -14,0 h 2 v 2 h -2 z m -2,0 h 2 v 2 h -2 z m -2,0 h 2 v 2 h -2 z m -2,0 h 2 v 2 h -2 z m -2,0 h 2 v 2 h -2 z m -2,0 h 2 v 2 h -2 z m -10,0 h 2 v 2 h -2 z m -2,0 h 2 v 2 h -2 z m -2,0 h 2 v 2 h -2 z m -2,0 h 2 v 2 h -2 z m -10,0 h 2 v 2 h -2 z m -2,0 h 2 v 2 h -2 z m -26,0 h 2 v 2 h -2 z m -2,0 h 2 v 2 h -2 z m -2,0 h 2 v 2 h -2 z m -2,0 h 2 v 2 h -2 z m -2,0 h 2 v 2 h -2 z m -2,0 h 2 v 2 h -2 z m -2,0 h 2 v 2 h -2 z m -2,0 h 2 v 2 h -2 z m -2,0 h 2 v 2 h -2 z m -2,0 h 2 v 2 h -2 z m -2,0 h 2 v 2 h -2 z m -2,0 h 2 v 2 h -2 z m -2,0 h 2 v 2 h -2 z m -2,0 h 2 v 2 h -2 z m -2,0 h 2 v 2 h -2 z m -2,0 h 2 v 2 h -2 z m -2,0 h 2 v 2 h -2 z m -2,0 h 2 v 2 h -2 z m -2,0 h 2 v 2 h -2 z m -2,0 h 2 v 2 h -2 z m -2,0 h 2 v 2 h -2 z m -2,0 h 2 v 2 h -2 z m -2,0 h 2 v 2 h -2 z m -2,0 h 2 v 2 h -2 z m -2,0 h 2 v 2 h -2 z m -2,0 h 2 v 2 h -2 z m 138,-2 h 2 v 2 h -2 z m -2,0 h 2 v 2 h -2 z m -6,0 h 2 v 2 h -2 z m -2,0 h 2 v 2 h -2 z m -14,0 h 2 v 2 h -2 z m -2,0 h 2 v 2 h -2 z m -2,0 h 2 v 2 h -2 z m -2,0 h 2 v 2 h -2 z m -2,0 h 2 v 2 h -2 z m -2,0 h 2 v 2 h -2 z m -10,0 h 2 v 2 h -2 z m -2,0 h 2 v 2 h -2 z m -2,0 h 2 v 2 h -2 z m -2,0 h 2 v 2 h -2 z m -10,0 h 2 v 2 h -2 z m -2,0 h 2 v 2 h -2 z m -26,0 h 2 v 2 h -2 z m -2,0 h 2 v 2 h -2 z m -2,0 h 2 v 2 h -2 z m -2,0 h 2 v 2 h -2 z m -2,0 h 2 v 2 h -2 z m -2,0 h 2 v 2 h -2 z m -2,0 h 2 v 2 h -2 z m -2,0 h 2 v 2 h -2 z m -2,0 h 2 v 2 h -2 z m -2,0 h 2 v 2 h -2 z m -2,0 h 2 v 2 h -2 z m -2,0 h 2 v 2 h -2 z m -2,0 h 2 v 2 h -2 z m -2,0 h 2 v 2 h -2 z m -2,0 h 2 v 2 h -2 z m -2,0 h 2 v 2 h -2 z m -2,0 h 2 v 2 h -2 z m -2,0 h 2 v 2 h -2 z m -2,0 h 2 v 2 h -2 z m -2,0 h 2 v 2 h -2 z m -2,0 h 2 v 2 h -2 z m -2,0 h 2 v 2 h -2 z m -2,0 h 2 v 2 h -2 z m -2,0 h 2 v 2 h -2 z m -2,0 h 2 v 2 h -2 z m -2,0 h 2 v 2 h -2 z m 138,-2 h 2 v 2 h -2 z m -2,0 h 2 v 2 h -2 z m -6,0 h 2 v 2 h -2 z m -2,0 h 2 v 2 h -2 z m -14,0 h 2 v 2 h -2 z m -2,0 h 2 v 2 h -2 z m -2,0 h 2 v 2 h -2 z m -2,0 h 2 v 2 h -2 z m -2,0 h 2 v 2 h -2 z m -2,0 h 2 v 2 h -2 z m -10,0 h 2 v 2 h -2 z m -2,0 h 2 v 2 h -2 z m -2,0 h 2 v 2 h -2 z m -2,0 h 2 v 2 h -2 z m -42,0 h 2 v 2 h -2 z m -2,0 h 2 v 2 h -2 z m -2,0 h 2 v 2 h -2 z m -2,0 h 2 v 2 h -2 z m -2,0 h 2 v 2 h -2 z m -2,0 h 2 v 2 h -2 z m -2,0 h 2 v 2 h -2 z m -2,0 h 2 v 2 h -2 z m -2,0 h 2 v 2 h -2 z m -2,0 h 2 v 2 h -2 z m -2,0 h 2 v 2 h -2 z m -2,0 h 2 v 2 h -2 z m -2,0 h 2 v 2 h -2 z m -2,0 h 2 v 2 h -2 z m -2,0 h 2 v 2 h -2 z m -2,0 h 2 v 2 h -2 z m -2,0 h 2 v 2 h -2 z m -2,0 h 2 v 2 h -2 z m -2,0 h 2 v 2 h -2 z m -2,0 h 2 v 2 h -2 z m -2,0 h 2 v 2 h -2 z m -2,0 h 2 v 2 h -2 z m -2,0 h 2 v 2 h -2 z m -2,0 h 2 v 2 h -2 z m 138,-2 h 2 v 2 h -2 z m -2,0 h 2 v 2 h -2 z m -6,0 h 2 v 2 h -2 z m -2,0 h 2 v 2 h -2 z m -14,0 h 2 v 2 h -2 z m -2,0 h 2 v 2 h -2 z m -2,0 h 2 v 2 h -2 z m -2,0 h 2 v 2 h -2 z m -2,0 h 2 v 2 h -2 z m -2,0 h 2 v 2 h -2 z m -10,0 h 2 v 2 h -2 z m -2,0 h 2 v 2 h -2 z m -2,0 h 2 v 2 h -2 z m -2,0 h 2 v 2 h -2 z m -42,0 h 2 v 2 h -2 z m -2,0 h 2 v 2 h -2 z m -2,0 h 2 v 2 h -2 z m -2,0 h 2 v 2 h -2 z m -2,0 h 2 v 2 h -2 z m -2,0 h 2 v 2 h -2 z m -2,0 h 2 v 2 h -2 z m -2,0 h 2 v 2 h -2 z m -2,0 h 2 v 2 h -2 z m -2,0 h 2 v 2 h -2 z m -2,0 h 2 v 2 h -2 z m -2,0 h 2 v 2 h -2 z m -2,0 h 2 v 2 h -2 z m -2,0 h 2 v 2 h -2 z m -2,0 h 2 v 2 h -2 z m -2,0 h 2 v 2 h -2 z m -2,0 h 2 v 2 h -2 z m -2,0 h 2 v 2 h -2 z m -2,0 h 2 v 2 h -2 z m -2,0 h 2 v 2 h -2 z m -2,0 h 2 v 2 h -2 z m -2,0 h 2 v 2 h -2 z m -2,0 h 2 v 2 h -2 z m -2,0 h 2 v 2 h -2 z m 114,-2 h 2 v 2 h -2 z m -2,0 h 2 v 2 h -2 z m -2,0 h 2 v 2 h -2 z m -2,0 h 2 v 2 h -2 z m -2,0 h 2 v 2 h -2 z m -2,0 h 2 v 2 h -2 z m -10,0 h 2 v 2 h -2 z m -2,0 h 2 v 2 h -2 z m -2,0 h 2 v 2 h -2 z m -2,0 h 2 v 2 h -2 z m -42,0 h 2 v 2 h -2 z m -2,0 h 2 v 2 h -2 z m -2,0 h 2 v 2 h -2 z m -2,0 h 2 v 2 h -2 z m -2,0 h 2 v 2 h -2 z m -2,0 h 2 v 2 h -2 z m -2,0 h 2 v 2 h -2 z m -2,0 h 2 v 2 h -2 z m -2,0 h 2 v 2 h -2 z m -2,0 h 2 v 2 h -2 z m -2,0 h 2 v 2 h -2 z m -2,0 h 2 v 2 h -2 z m -2,0 h 2 v 2 h -2 z m -2,0 h 2 v 2 h -2 z m -2,0 h 2 v 2 h -2 z m -2,0 h 2 v 2 h -2 z m -2,0 h 2 v 2 h -2 z m -2,0 h 2 v 2 h -2 z m -2,0 h 2 v 2 h -2 z m -2,0 h 2 v 2 h -2 z m -2,0 h 2 v 2 h -2 z m -2,0 h 2 v 2 h -2 z m -2,0 h 2 v 2 h -2 z m -2,0 h 2 v 2 h -2 z m 114,-2 h 2 v 2 h -2 z m -2,0 h 2 v 2 h -2 z m -2,0 h 2 v 2 h -2 z m -2,0 h 2 v 2 h -2 z m -2,0 h 2 v 2 h -2 z m -2,0 h 2 v 2 h -2 z m -10,0 h 2 v 2 h -2 z m -2,0 h 2 v 2 h -2 z m -2,0 h 2 v 2 h -2 z m -2,0 h 2 v 2 h -2 z m -42,0 h 2 v 2 h -2 z m -2,0 h 2 v 2 h -2 z m -2,0 h 2 v 2 h -2 z m -2,0 h 2 v 2 h -2 z m -2,0 h 2 v 2 h -2 z m -2,0 h 2 v 2 h -2 z m -2,0 h 2 v 2 h -2 z m -2,0 h 2 v 2 h -2 z m -2,0 h 2 v 2 h -2 z m -2,0 h 2 v 2 h -2 z m -2,0 h 2 v 2 h -2 z m -2,0 h 2 v 2 h -2 z m -2,0 h 2 v 2 h -2 z m -2,0 h 2 v 2 h -2 z m -2,0 h 2 v 2 h -2 z m -2,0 h 2 v 2 h -2 z m -2,0 h 2 v 2 h -2 z m -2,0 h 2 v 2 h -2 z m -2,0 h 2 v 2 h -2 z m -2,0 h 2 v 2 h -2 z m -2,0 h 2 v 2 h -2 z m -2,0 h 2 v 2 h -2 z m -2,0 h 2 v 2 h -2 z m -2,0 h 2 v 2 h -2 z m 114,-2 h 2 v 2 h -2 z m -2,0 h 2 v 2 h -2 z m -2,0 h 2 v 2 h -2 z m -2,0 h 2 v 2 h -2 z m -2,0 h 2 v 2 h -2 z m -2,0 h 2 v 2 h -2 z m -2,0 h 2 v 2 h -2 z m -2,0 h 2 v 2 h -2 z m -2,0 h 2 v 2 h -2 z m -2,0 h 2 v 2 h -2 z m -2,0 h 2 v 2 h -2 z m -2,0 h 2 v 2 h -2 z m -2,0 h 2 v 2 h -2 z m -2,0 h 2 v 2 h -2 z m -46,0 h 2 v 2 h -2 z m -2,0 h 2 v 2 h -2 z m -2,0 h 2 v 2 h -2 z m -2,0 h 2 v 2 h -2 z m -2,0 h 2 v 2 h -2 z m -2,0 h 2 v 2 h -2 z m -2,0 h 2 v 2 h -2 z m -2,0 h 2 v 2 h -2 z m -2,0 h 2 v 2 h -2 z m -2,0 h 2 v 2 h -2 z m -2,0 h 2 v 2 h -2 z m -2,0 h 2 v 2 h -2 z m -2,0 h 2 v 2 h -2 z m -2,0 h 2 v 2 h -2 z m -2,0 h 2 v 2 h -2 z m -2,0 h 2 v 2 h -2 z m -2,0 h 2 v 2 h -2 z m -2,0 h 2 v 2 h -2 z m -2,0 h 2 v 2 h -2 z m -2,0 h 2 v 2 h -2 z m -2,0 h 2 v 2 h -2 z m -2,0 h 2 v 2 h -2 z m 114,-2 h 2 v 2 h -2 z m -2,0 h 2 v 2 h -2 z m -2,0 h 2 v 2 h -2 z m -2,0 h 2 v 2 h -2 z m -2,0 h 2 v 2 h -2 z m -2,0 h 2 v 2 h -2 z m -2,0 h 2 v 2 h -2 z m -2,0 h 2 v 2 h -2 z m -2,0 h 2 v 2 h -2 z m -2,0 h 2 v 2 h -2 z m -2,0 h 2 v 2 h -2 z m -2,0 h 2 v 2 h -2 z m -2,0 h 2 v 2 h -2 z m -2,0 h 2 v 2 h -2 z m -46,0 h 2 v 2 h -2 z m -2,0 h 2 v 2 h -2 z m -2,0 h 2 v 2 h -2 z m -2,0 h 2 v 2 h -2 z m -2,0 h 2 v 2 h -2 z m -2,0 h 2 v 2 h -2 z m -2,0 h 2 v 2 h -2 z m -2,0 h 2 v 2 h -2 z m -2,0 h 2 v 2 h -2 z m -2,0 h 2 v 2 h -2 z m -2,0 h 2 v 2 h -2 z m -2,0 h 2 v 2 h -2 z m -2,0 h 2 v 2 h -2 z m -2,0 h 2 v 2 h -2 z m -2,0 h 2 v 2 h -2 z m -2,0 h 2 v 2 h -2 z m -2,0 h 2 v 2 h -2 z m -2,0 h 2 v 2 h -2 z m -2,0 h 2 v 2 h -2 z m -2,0 h 2 v 2 h -2 z m -2,0 h 2 v 2 h -2 z m -2,0 h 2 v 2 h -2 z m 114,-2 h 2 v 2 h -2 z m -2,0 h 2 v 2 h -2 z m -2,0 h 2 v 2 h -2 z m -2,0 h 2 v 2 h -2 z m -2,0 h 2 v 2 h -2 z m -2,0 h 2 v 2 h -2 z m -2,0 h 2 v 2 h -2 z m -2,0 h 2 v 2 h -2 z m -2,0 h 2 v 2 h -2 z m -2,0 h 2 v 2 h -2 z m -2,0 h 2 v 2 h -2 z m -2,0 h 2 v 2 h -2 z m -2,0 h 2 v 2 h -2 z m -2,0 h 2 v 2 h -2 z m -46,0 h 2 v 2 h -2 z m -2,0 h 2 v 2 h -2 z m -2,0 h 2 v 2 h -2 z m -2,0 h 2 v 2 h -2 z m -2,0 h 2 v 2 h -2 z m -2,0 h 2 v 2 h -2 z m -2,0 h 2 v 2 h -2 z m -2,0 h 2 v 2 h -2 z m -2,0 h 2 v 2 h -2 z m -2,0 h 2 v 2 h -2 z m -2,0 h 2 v 2 h -2 z m -2,0 h 2 v 2 h -2 z m -2,0 h 2 v 2 h -2 z m -2,0 h 2 v 2 h -2 z m -2,0 h 2 v 2 h -2 z m -2,0 h 2 v 2 h -2 z m -2,0 h 2 v 2 h -2 z m -2,0 h 2 v 2 h -2 z m -2,0 h 2 v 2 h -2 z m -2,0 h 2 v 2 h -2 z m -2,0 h 2 v 2 h -2 z m -2,0 h 2 v 2 h -2 z m 114,-2 h 2 v 2 h -2 z m -2,0 h 2 v 2 h -2 z m -2,0 h 2 v 2 h -2 z m -2,0 h 2 v 2 h -2 z m -2,0 h 2 v 2 h -2 z m -2,0 h 2 v 2 h -2 z m -2,0 h 2 v 2 h -2 z m -2,0 h 2 v 2 h -2 z m -2,0 h 2 v 2 h -2 z m -2,0 h 2 v 2 h -2 z m -2,0 h 2 v 2 h -2 z m -2,0 h 2 v 2 h -2 z m -2,0 h 2 v 2 h -2 z m -2,0 h 2 v 2 h -2 z m -46,0 h 2 v 2 h -2 z m -2,0 h 2 v 2 h -2 z m -2,0 h 2 v 2 h -2 z m -2,0 h 2 v 2 h -2 z m -2,0 h 2 v 2 h -2 z m -2,0 h 2 v 2 h -2 z m -2,0 h 2 v 2 h -2 z m -2,0 h 2 v 2 h -2 z m -2,0 h 2 v 2 h -2 z m -2,0 h 2 v 2 h -2 z m -2,0 h 2 v 2 h -2 z m -2,0 h 2 v 2 h -2 z m -2,0 h 2 v 2 h -2 z m -2,0 h 2 v 2 h -2 z m -2,0 h 2 v 2 h -2 z m -2,0 h 2 v 2 h -2 z m -2,0 h 2 v 2 h -2 z m -2,0 h 2 v 2 h -2 z m -2,0 h 2 v 2 h -2 z m -2,0 h 2 v 2 h -2 z m -2,0 h 2 v 2 h -2 z m -2,0 h 2 v 2 h -2 z m 118,-2 h 2 v 2 h -2 z m -2,0 h 2 v 2 h -2 z m -2,0 h 2 v 2 h -2 z m -2,0 h 2 v 2 h -2 z m -2,0 h 2 v 2 h -2 z m -2,0 h 2 v 2 h -2 z m -2,0 h 2 v 2 h -2 z m -2,0 h 2 v 2 h -2 z m -2,0 h 2 v 2 h -2 z m -2,0 h 2 v 2 h -2 z m -2,0 h 2 v 2 h -2 z m -2,0 h 2 v 2 h -2 z m -2,0 h 2 v 2 h -2 z m -2,0 h 2 v 2 h -2 z m -2,0 h 2 v 2 h -2 z m -2,0 h 2 v 2 h -2 z m -2,0 h 2 v 2 h -2 z m -2,0 h 2 v 2 h -2 z m -42,0 h 2 v 2 h -2 z m -2,0 h 2 v 2 h -2 z m -2,0 h 2 v 2 h -2 z m -2,0 h 2 v 2 h -2 z m -2,0 h 2 v 2 h -2 z m -2,0 h 2 v 2 h -2 z m -2,0 h 2 v 2 h -2 z m -2,0 h 2 v 2 h -2 z m -2,0 h 2 v 2 h -2 z m -2,0 h 2 v 2 h -2 z m -2,0 h 2 v 2 h -2 z m -2,0 h 2 v 2 h -2 z m -2,0 h 2 v 2 h -2 z m -2,0 h 2 v 2 h -2 z m -2,0 h 2 v 2 h -2 z m -2,0 h 2 v 2 h -2 z m -2,0 h 2 v 2 h -2 z m -2,0 h 2 v 2 h -2 z m -2,0 h 2 v 2 h -2 z m -2,0 h 2 v 2 h -2 z m -2,0 h 2 v 2 h -2 z m -2,0 h 2 v 2 h -2 z m 118,-2 h 2 v 2 h -2 z m -2,0 h 2 v 2 h -2 z m -2,0 h 2 v 2 h -2 z m -2,0 h 2 v 2 h -2 z m -2,0 h 2 v 2 h -2 z m -2,0 h 2 v 2 h -2 z m -2,0 h 2 v 2 h -2 z m -2,0 h 2 v 2 h -2 z m -2,0 h 2 v 2 h -2 z m -2,0 h 2 v 2 h -2 z m -2,0 h 2 v 2 h -2 z m -2,0 h 2 v 2 h -2 z m -2,0 h 2 v 2 h -2 z m -2,0 h 2 v 2 h -2 z m -2,0 h 2 v 2 h -2 z m -2,0 h 2 v 2 h -2 z m -2,0 h 2 v 2 h -2 z m -2,0 h 2 v 2 h -2 z m -42,0 h 2 v 2 h -2 z m -2,0 h 2 v 2 h -2 z m -2,0 h 2 v 2 h -2 z m -2,0 h 2 v 2 h -2 z m -2,0 h 2 v 2 h -2 z m -2,0 h 2 v 2 h -2 z m -2,0 h 2 v 2 h -2 z m -2,0 h 2 v 2 h -2 z m -2,0 h 2 v 2 h -2 z m -2,0 h 2 v 2 h -2 z m -2,0 h 2 v 2 h -2 z m -2,0 h 2 v 2 h -2 z m -2,0 h 2 v 2 h -2 z m -2,0 h 2 v 2 h -2 z m -2,0 h 2 v 2 h -2 z m -2,0 h 2 v 2 h -2 z m -2,0 h 2 v 2 h -2 z m -2,0 h 2 v 2 h -2 z m -2,0 h 2 v 2 h -2 z m -2,0 h 2 v 2 h -2 z m -2,0 h 2 v 2 h -2 z m -2,0 h 2 v 2 h -2 z m 114,-2 h 2 v 2 h -2 z m -2,0 h 2 v 2 h -2 z m -2,0 h 2 v 2 h -2 z m -2,0 h 2 v 2 h -2 z m -2,0 h 2 v 2 h -2 z m -2,0 h 2 v 2 h -2 z m -2,0 h 2 v 2 h -2 z m -2,0 h 2 v 2 h -2 z m -2,0 h 2 v 2 h -2 z m -2,0 h 2 v 2 h -2 z m -2,0 h 2 v 2 h -2 z m -2,0 h 2 v 2 h -2 z m -2,0 h 2 v 2 h -2 z m -2,0 h 2 v 2 h -2 z m -46,0 h 2 v 2 h -2 z m -2,0 h 2 v 2 h -2 z m -2,0 h 2 v 2 h -2 z m -2,0 h 2 v 2 h -2 z m -2,0 h 2 v 2 h -2 z m -2,0 h 2 v 2 h -2 z m -2,0 h 2 v 2 h -2 z m -2,0 h 2 v 2 h -2 z m -2,0 h 2 v 2 h -2 z m -2,0 h 2 v 2 h -2 z m -2,0 h 2 v 2 h -2 z m -2,0 h 2 v 2 h -2 z m -2,0 h 2 v 2 h -2 z m -2,0 h 2 v 2 h -2 z m -2,0 h 2 v 2 h -2 z m -2,0 h 2 v 2 h -2 z m -2,0 h 2 v 2 h -2 z m -2,0 h 2 v 2 h -2 z m -2,0 h 2 v 2 h -2 z m -2,0 h 2 v 2 h -2 z m -2,0 h 2 v 2 h -2 z m -2,0 h 2 v 2 h -2 z m 114,-2 h 2 v 2 h -2 z m -2,0 h 2 v 2 h -2 z m -2,0 h 2 v 2 h -2 z m -2,0 h 2 v 2 h -2 z m -2,0 h 2 v 2 h -2 z m -2,0 h 2 v 2 h -2 z m -2,0 h 2 v 2 h -2 z m -2,0 h 2 v 2 h -2 z m -2,0 h 2 v 2 h -2 z m -2,0 h 2 v 2 h -2 z m -2,0 h 2 v 2 h -2 z m -2,0 h 2 v 2 h -2 z m -2,0 h 2 v 2 h -2 z m -2,0 h 2 v 2 h -2 z m -46,0 h 2 v 2 h -2 z m -2,0 h 2 v 2 h -2 z m -2,0 h 2 v 2 h -2 z m -2,0 h 2 v 2 h -2 z m -2,0 h 2 v 2 h -2 z m -2,0 h 2 v 2 h -2 z m -2,0 h 2 v 2 h -2 z m -2,0 h 2 v 2 h -2 z m -2,0 h 2 v 2 h -2 z m -2,0 h 2 v 2 h -2 z m -2,0 h 2 v 2 h -2 z m -2,0 h 2 v 2 h -2 z m -2,0 h 2 v 2 h -2 z m -2,0 h 2 v 2 h -2 z m -2,0 h 2 v 2 h -2 z m -2,0 h 2 v 2 h -2 z m -2,0 h 2 v 2 h -2 z m -2,0 h 2 v 2 h -2 z m -2,0 h 2 v 2 h -2 z m -2,0 h 2 v 2 h -2 z m -2,0 h 2 v 2 h -2 z m -2,0 h 2 v 2 h -2 z m 110,-2 h 2 v 2 h -2 z m -2,0 h 2 v 2 h -2 z m -2,0 h 2 v 2 h -2 z m -2,0 h 2 v 2 h -2 z m -2,0 h 2 v 2 h -2 z m -2,0 h 2 v 2 h -2 z m -2,0 h 2 v 2 h -2 z m -2,0 h 2 v 2 h -2 z m -2,0 h 2 v 2 h -2 z m -2,0 h 2 v 2 h -2 z m -50,0 h 2 v 2 h -2 z m -2,0 h 2 v 2 h -2 z m -2,0 h 2 v 2 h -2 z m -2,0 h 2 v 2 h -2 z m -2,0 h 2 v 2 h -2 z m -2,0 h 2 v 2 h -2 z m -2,0 h 2 v 2 h -2 z m -2,0 h 2 v 2 h -2 z m -2,0 h 2 v 2 h -2 z m -2,0 h 2 v 2 h -2 z m -2,0 h 2 v 2 h -2 z m -2,0 h 2 v 2 h -2 z m -2,0 h 2 v 2 h -2 z m -2,0 h 2 v 2 h -2 z m -2,0 h 2 v 2 h -2 z m -2,0 h 2 v 2 h -2 z m -2,0 h 2 v 2 h -2 z m -2,0 h 2 v 2 h -2 z m -2,0 h 2 v 2 h -2 z m -2,0 h 2 v 2 h -2 z m -2,0 h 2 v 2 h -2 z m -2,0 h 2 v 2 h -2 z m 110,-2 h 2 v 2 h -2 z m -2,0 h 2 v 2 h -2 z m -2,0 h 2 v 2 h -2 z m -2,0 h 2 v 2 h -2 z m -2,0 h 2 v 2 h -2 z m -2,0 h 2 v 2 h -2 z m -2,0 h 2 v 2 h -2 z m -2,0 h 2 v 2 h -2 z m -2,0 h 2 v 2 h -2 z m -2,0 h 2 v 2 h -2 z m -50,0 h 2 v 2 h -2 z m -2,0 h 2 v 2 h -2 z m -2,0 h 2 v 2 h -2 z m -2,0 h 2 v 2 h -2 z m -2,0 h 2 v 2 h -2 z m -2,0 h 2 v 2 h -2 z m -2,0 h 2 v 2 h -2 z m -2,0 h 2 v 2 h -2 z m -2,0 h 2 v 2 h -2 z m -2,0 h 2 v 2 h -2 z m -2,0 h 2 v 2 h -2 z m -2,0 h 2 v 2 h -2 z m -2,0 h 2 v 2 h -2 z m -2,0 h 2 v 2 h -2 z m -2,0 h 2 v 2 h -2 z m -2,0 h 2 v 2 h -2 z m -2,0 h 2 v 2 h -2 z m -2,0 h 2 v 2 h -2 z m -2,0 h 2 v 2 h -2 z m -2,0 h 2 v 2 h -2 z m -2,0 h 2 v 2 h -2 z m -2,0 h 2 v 2 h -2 z m 106,-2 h 2 v 2 h -2 z m -2,0 h 2 v 2 h -2 z m -2,0 h 2 v 2 h -2 z m -2,0 h 2 v 2 h -2 z m -2,0 h 2 v 2 h -2 z m -2,0 h 2 v 2 h -2 z m -50,0 h 2 v 2 h -2 z m -2,0 h 2 v 2 h -2 z m -2,0 h 2 v 2 h -2 z m -2,0 h 2 v 2 h -2 z m -2,0 h 2 v 2 h -2 z m -2,0 h 2 v 2 h -2 z m -2,0 h 2 v 2 h -2 z m -2,0 h 2 v 2 h -2 z m -2,0 h 2 v 2 h -2 z m -2,0 h 2 v 2 h -2 z m -14,0 h 2 v 2 h -2 z m -2,0 h 2 v 2 h -2 z m -2,0 h 2 v 2 h -2 z m -2,0 h 2 v 2 h -2 z m -2,0 h 2 v 2 h -2 z m -2,0 h 2 v 2 h -2 z m -2,0 h 2 v 2 h -2 z m -2,0 h 2 v 2 h -2 z m 106,-2 h 2 v 2 h -2 z m -2,0 h 2 v 2 h -2 z m -2,0 h 2 v 2 h -2 z m -2,0 h 2 v 2 h -2 z m -2,0 h 2 v 2 h -2 z m -2,0 h 2 v 2 h -2 z m -50,0 h 2 v 2 h -2 z m -2,0 h 2 v 2 h -2 z m -2,0 h 2 v 2 h -2 z m -2,0 h 2 v 2 h -2 z m -2,0 h 2 v 2 h -2 z m -2,0 h 2 v 2 h -2 z m -2,0 h 2 v 2 h -2 z m -2,0 h 2 v 2 h -2 z m -2,0 h 2 v 2 h -2 z m -2,0 h 2 v 2 h -2 z m -14,0 h 2 v 2 h -2 z m -2,0 h 2 v 2 h -2 z m -2,0 h 2 v 2 h -2 z m -2,0 h 2 v 2 h -2 z m -2,0 h 2 v 2 h -2 z m -2,0 h 2 v 2 h -2 z m -2,0 h 2 v 2 h -2 z m -2,0 h 2 v 2 h -2 z m 102,-2 h 2 v 2 h -2 z m -2,0 h 2 v 2 h -2 z m -54,0 h 2 v 2 h -2 z m -2,0 h 2 v 2 h -2 z m -2,0 h 2 v 2 h -2 z m -2,0 h 2 v 2 h -2 z m -2,0 h 2 v 2 h -2 z m -2,0 h 2 v 2 h -2 z m -2,0 h 2 v 2 h -2 z m -2,0 h 2 v 2 h -2 z m -6,0 h 2 v 2 h -2 z m -2,0 h 2 v 2 h -2 z m -2,0 h 2 v 2 h -2 z m -2,0 h 2 v 2 h -2 z m -2,0 h 2 v 2 h -2 z m -2,0 h 2 v 2 h -2 z m -6,0 h 2 v 2 h -2 z m -2,0 h 2 v 2 h -2 z m -2,0 h 2 v 2 h -2 z m -2,0 h 2 v 2 h -2 z m -2,0 h 2 v 2 h -2 z m -2,0 h 2 v 2 h -2 z m 102,-2 h 2 v 2 h -2 z m -2,0 h 2 v 2 h -2 z m -54,0 h 2 v 2 h -2 z m -2,0 h 2 v 2 h -2 z m -2,0 h 2 v 2 h -2 z m -2,0 h 2 v 2 h -2 z m -2,0 h 2 v 2 h -2 z m -2,0 h 2 v 2 h -2 z m -2,0 h 2 v 2 h -2 z m -2,0 h 2 v 2 h -2 z m -6,0 h 2 v 2 h -2 z m -2,0 h 2 v 2 h -2 z m -2,0 h 2 v 2 h -2 z m -2,0 h 2 v 2 h -2 z m -2,0 h 2 v 2 h -2 z m -2,0 h 2 v 2 h -2 z m -6,0 h 2 v 2 h -2 z m -2,0 h 2 v 2 h -2 z m -2,0 h 2 v 2 h -2 z m -2,0 h 2 v 2 h -2 z m -2,0 h 2 v 2 h -2 z m -2,0 h 2 v 2 h -2 z m 50,-2 h 2 v 2 h -2 z m -2,0 h 2 v 2 h -2 z m -2,0 h 2 v 2 h -2 z m -2,0 h 2 v 2 h -2 z m -2,0 h 2 v 2 h -2 z m -2,0 h 2 v 2 h -2 z m -2,0 h 2 v 2 h -2 z m -2,0 h 2 v 2 h -2 z m -2,0 h 2 v 2 h -2 z m -2,0 h 2 v 2 h -2 z m -6,0 h 2 v 2 h -2 z m -2,0 h 2 v 2 h -2 z m -2,0 h 2 v 2 h -2 z m -2,0 h 2 v 2 h -2 z m -2,0 h 2 v 2 h -2 z m -2,0 h 2 v 2 h -2 z m -6,0 h 2 v 2 h -2 z m -2,0 h 2 v 2 h -2 z m -2,0 h 2 v 2 h -2 z m -2,0 h 2 v 2 h -2 z m -2,0 h 2 v 2 h -2 z m -2,0 h 2 v 2 h -2 z m 50,-2 h 2 v 2 h -2 z m -2,0 h 2 v 2 h -2 z m -2,0 h 2 v 2 h -2 z m -2,0 h 2 v 2 h -2 z m -2,0 h 2 v 2 h -2 z m -2,0 h 2 v 2 h -2 z m -2,0 h 2 v 2 h -2 z m -2,0 h 2 v 2 h -2 z m -2,0 h 2 v 2 h -2 z m -2,0 h 2 v 2 h -2 z m -6,0 h 2 v 2 h -2 z m -2,0 h 2 v 2 h -2 z m -2,0 h 2 v 2 h -2 z m -2,0 h 2 v 2 h -2 z m -2,0 h 2 v 2 h -2 z m -2,0 h 2 v 2 h -2 z m -6,0 h 2 v 2 h -2 z m -2,0 h 2 v 2 h -2 z m -2,0 h 2 v 2 h -2 z m -2,0 h 2 v 2 h -2 z m -2,0 h 2 v 2 h -2 z m -2,0 h 2 v 2 h -2 z m 54,-2 h 2 v 2 h -2 z m -2,0 h 2 v 2 h -2 z m -2,0 h 2 v 2 h -2 z m -2,0 h 2 v 2 h -2 z m -2,0 h 2 v 2 h -2 z m -2,0 h 2 v 2 h -2 z m -2,0 h 2 v 2 h -2 z m -2,0 h 2 v 2 h -2 z m -2,0 h 2 v 2 h -2 z m -2,0 h 2 v 2 h -2 z m -2,0 h 2 v 2 h -2 z m -2,0 h 2 v 2 h -2 z m -6,0 h 2 v 2 h -2 z m -2,0 h 2 v 2 h -2 z m -2,0 h 2 v 2 h -2 z m -2,0 h 2 v 2 h -2 z m -10,0 h 2 v 2 h -2 z m -2,0 h 2 v 2 h -2 z m -2,0 h 2 v 2 h -2 z m -2,0 h 2 v 2 h -2 z m -2,0 h 2 v 2 h -2 z m -2,0 h 2 v 2 h -2 z m -2,0 h 2 v 2 h -2 z m -2,0 h 2 v 2 h -2 z m -2,0 h 2 v 2 h -2 z m -2,0 h 2 v 2 h -2 z m -2,0 h 2 v 2 h -2 z m -2,0 h 2 v 2 h -2 z m -2,0 h 2 v 2 h -2 z m -2,0 h 2 v 2 h -2 z m 70,-2 h 2 v 2 h -2 z m -2,0 h 2 v 2 h -2 z m -2,0 h 2 v 2 h -2 z m -2,0 h 2 v 2 h -2 z m -2,0 h 2 v 2 h -2 z m -2,0 h 2 v 2 h -2 z m -2,0 h 2 v 2 h -2 z m -2,0 h 2 v 2 h -2 z m -2,0 h 2 v 2 h -2 z m -2,0 h 2 v 2 h -2 z m -2,0 h 2 v 2 h -2 z m -2,0 h 2 v 2 h -2 z m -6,0 h 2 v 2 h -2 z m -2,0 h 2 v 2 h -2 z m -2,0 h 2 v 2 h -2 z m -2,0 h 2 v 2 h -2 z m -10,0 h 2 v 2 h -2 z m -2,0 h 2 v 2 h -2 z m -2,0 h 2 v 2 h -2 z m -2,0 h 2 v 2 h -2 z m -2,0 h 2 v 2 h -2 z m -2,0 h 2 v 2 h -2 z m -2,0 h 2 v 2 h -2 z m -2,0 h 2 v 2 h -2 z m -2,0 h 2 v 2 h -2 z m -2,0 h 2 v 2 h -2 z m -2,0 h 2 v 2 h -2 z m -2,0 h 2 v 2 h -2 z m -2,0 h 2 v 2 h -2 z m -2,0 h 2 v 2 h -2 z m 154,-2 h 2 v 2 h -2 z m -2,0 h 2 v 2 h -2 z m -6,0 h 2 v 2 h -2 z m -2,0 h 2 v 2 h -2 z m -70,0 h 2 v 2 h -2 z m -2,0 h 2 v 2 h -2 z m -2,0 h 2 v 2 h -2 z m -2,0 h 2 v 2 h -2 z m -2,0 h 2 v 2 h -2 z m -2,0 h 2 v 2 h -2 z m -2,0 h 2 v 2 h -2 z m -2,0 h 2 v 2 h -2 z m -2,0 h 2 v 2 h -2 z m -2,0 h 2 v 2 h -2 z m -2,0 h 2 v 2 h -2 z m -2,0 h 2 v 2 h -2 z m -2,0 h 2 v 2 h -2 z m -2,0 h 2 v 2 h -2 z m -2,0 h 2 v 2 h -2 z m -2,0 h 2 v 2 h -2 z m -14,0 h 2 v 2 h -2 z m -2,0 h 2 v 2 h -2 z m -2,0 h 2 v 2 h -2 z m -2,0 h 2 v 2 h -2 z m -2,0 h 2 v 2 h -2 z m -2,0 h 2 v 2 h -2 z m -2,0 h 2 v 2 h -2 z m -2,0 h 2 v 2 h -2 z m -2,0 h 2 v 2 h -2 z m -2,0 h 2 v 2 h -2 z m -2,0 h 2 v 2 h -2 z m -2,0 h 2 v 2 h -2 z m -2,0 h 2 v 2 h -2 z m -2,0 h 2 v 2 h -2 z m -2,0 h 2 v 2 h -2 z m -2,0 h 2 v 2 h -2 z m -2,0 h 2 v 2 h -2 z m -2,0 h 2 v 2 h -2 z m 158,-2 h 2 v 2 h -2 z m -2,0 h 2 v 2 h -2 z m -6,0 h 2 v 2 h -2 z m -2,0 h 2 v 2 h -2 z m -70,0 h 2 v 2 h -2 z m -2,0 h 2 v 2 h -2 z m -2,0 h 2 v 2 h -2 z m -2,0 h 2 v 2 h -2 z m -2,0 h 2 v 2 h -2 z m -2,0 h 2 v 2 h -2 z m -2,0 h 2 v 2 h -2 z m -2,0 h 2 v 2 h -2 z m -2,0 h 2 v 2 h -2 z m -2,0 h 2 v 2 h -2 z m -2,0 h 2 v 2 h -2 z m -2,0 h 2 v 2 h -2 z m -2,0 h 2 v 2 h -2 z m -2,0 h 2 v 2 h -2 z m -2,0 h 2 v 2 h -2 z m -2,0 h 2 v 2 h -2 z m -14,0 h 2 v 2 h -2 z m -2,0 h 2 v 2 h -2 z m -2,0 h 2 v 2 h -2 z m -2,0 h 2 v 2 h -2 z m -2,0 h 2 v 2 h -2 z m -2,0 h 2 v 2 h -2 z m -2,0 h 2 v 2 h -2 z m -2,0 h 2 v 2 h -2 z m -2,0 h 2 v 2 h -2 z m -2,0 h 2 v 2 h -2 z m -2,0 h 2 v 2 h -2 z m -2,0 h 2 v 2 h -2 z m -2,0 h 2 v 2 h -2 z m -2,0 h 2 v 2 h -2 z m -2,0 h 2 v 2 h -2 z m -2,0 h 2 v 2 h -2 z m -2,0 h 2 v 2 h -2 z m -2,0 h 2 v 2 h -2 z m 158,-2 h 2 v 2 h -2 z m -2,0 h 2 v 2 h -2 z m -6,0 h 2 v 2 h -2 z m -2,0 h 2 v 2 h -2 z m -42,0 h 2 v 2 h -2 z m -2,0 h 2 v 2 h -2 z m -18,0 h 2 v 2 h -2 z m -2,0 h 2 v 2 h -2 z m -2,0 h 2 v 2 h -2 z m -2,0 h 2 v 2 h -2 z m -2,0 h 2 v 2 h -2 z m -2,0 h 2 v 2 h -2 z m -2,0 h 2 v 2 h -2 z m -2,0 h 2 v 2 h -2 z m -2,0 h 2 v 2 h -2 z m -2,0 h 2 v 2 h -2 z m -2,0 h 2 v 2 h -2 z m -2,0 h 2 v 2 h -2 z m -2,0 h 2 v 2 h -2 z m -2,0 h 2 v 2 h -2 z m -2,0 h 2 v 2 h -2 z m -2,0 h 2 v 2 h -2 z m -2,0 h 2 v 2 h -2 z m -2,0 h 2 v 2 h -2 z m -2,0 h 2 v 2 h -2 z m -2,0 h 2 v 2 h -2 z m -2,0 h 2 v 2 h -2 z m -2,0 h 2 v 2 h -2 z m -2,0 h 2 v 2 h -2 z m -2,0 h 2 v 2 h -2 z m -2,0 h 2 v 2 h -2 z m -2,0 h 2 v 2 h -2 z m -2,0 h 2 v 2 h -2 z m -2,0 h 2 v 2 h -2 z m -2,0 h 2 v 2 h -2 z m -2,0 h 2 v 2 h -2 z m -2,0 h 2 v 2 h -2 z m -2,0 h 2 v 2 h -2 z m -2,0 h 2 v 2 h -2 z m -2,0 h 2 v 2 h -2 z m -2,0 h 2 v 2 h -2 z m -2,0 h 2 v 2 h -2 z m -2,0 h 2 v 2 h -2 z m -2,0 h 2 v 2 h -2 z m -2,0 h 2 v 2 h -2 z m -2,0 h 2 v 2 h -2 z m -2,0 h 2 v 2 h -2 z m -2,0 h 2 v 2 h -2 z m -2,0 h 2 v 2 h -2 z m -2,0 h 2 v 2 h -2 z m 158,-2 h 2 v 2 h -2 z m -2,0 h 2 v 2 h -2 z m -6,0 h 2 v 2 h -2 z m -2,0 h 2 v 2 h -2 z m -42,0 h 2 v 2 h -2 z m -2,0 h 2 v 2 h -2 z m -18,0 h 2 v 2 h -2 z m -2,0 h 2 v 2 h -2 z m -2,0 h 2 v 2 h -2 z m -2,0 h 2 v 2 h -2 z m -2,0 h 2 v 2 h -2 z m -2,0 h 2 v 2 h -2 z m -2,0 h 2 v 2 h -2 z m -2,0 h 2 v 2 h -2 z m -2,0 h 2 v 2 h -2 z m -2,0 h 2 v 2 h -2 z m -2,0 h 2 v 2 h -2 z m -2,0 h 2 v 2 h -2 z m -2,0 h 2 v 2 h -2 z m -2,0 h 2 v 2 h -2 z m -2,0 h 2 v 2 h -2 z m -2,0 h 2 v 2 h -2 z m -2,0 h 2 v 2 h -2 z m -2,0 h 2 v 2 h -2 z m -2,0 h 2 v 2 h -2 z m -2,0 h 2 v 2 h -2 z m -2,0 h 2 v 2 h -2 z m -2,0 h 2 v 2 h -2 z m -2,0 h 2 v 2 h -2 z m -2,0 h 2 v 2 h -2 z m -2,0 h 2 v 2 h -2 z m -2,0 h 2 v 2 h -2 z m -2,0 h 2 v 2 h -2 z m -2,0 h 2 v 2 h -2 z m -2,0 h 2 v 2 h -2 z m -2,0 h 2 v 2 h -2 z m -2,0 h 2 v 2 h -2 z m -2,0 h 2 v 2 h -2 z m -2,0 h 2 v 2 h -2 z m -2,0 h 2 v 2 h -2 z m -2,0 h 2 v 2 h -2 z m -2,0 h 2 v 2 h -2 z m -2,0 h 2 v 2 h -2 z m -2,0 h 2 v 2 h -2 z m -2,0 h 2 v 2 h -2 z m -2,0 h 2 v 2 h -2 z m -2,0 h 2 v 2 h -2 z m -2,0 h 2 v 2 h -2 z m -2,0 h 2 v 2 h -2 z m -2,0 h 2 v 2 h -2 z m 158,-2 h 2 v 2 h -2 z m -2,0 h 2 v 2 h -2 z m -2,0 h 2 v 2 h -2 z m -2,0 h 2 v 2 h -2 z m -2,0 h 2 v 2 h -2 z m -2,0 h 2 v 2 h -2 z m -2,0 h 2 v 2 h -2 z m -2,0 h 2 v 2 h -2 z m -2,0 h 2 v 2 h -2 z m -2,0 h 2 v 2 h -2 z m -2,0 h 2 v 2 h -2 z m -2,0 h 2 v 2 h -2 z m -2,0 h 2 v 2 h -2 z m -2,0 h 2 v 2 h -2 z m -2,0 h 2 v 2 h -2 z m -2,0 h 2 v 2 h -2 z m -2,0 h 2 v 2 h -2 z m -2,0 h 2 v 2 h -2 z m -2,0 h 2 v 2 h -2 z m -2,0 h 2 v 2 h -2 z m -2,0 h 2 v 2 h -2 z m -2,0 h 2 v 2 h -2 z m -2,0 h 2 v 2 h -2 z m -2,0 h 2 v 2 h -2 z m -2,0 h 2 v 2 h -2 z m -2,0 h 2 v 2 h -2 z m -2,0 h 2 v 2 h -2 z m -2,0 h 2 v 2 h -2 z m -2,0 h 2 v 2 h -2 z m -2,0 h 2 v 2 h -2 z m -2,0 h 2 v 2 h -2 z m -2,0 h 2 v 2 h -2 z m -2,0 h 2 v 2 h -2 z m -2,0 h 2 v 2 h -2 z m -2,0 h 2 v 2 h -2 z m -2,0 h 2 v 2 h -2 z m -2,0 h 2 v 2 h -2 z m -2,0 h 2 v 2 h -2 z m -2,0 h 2 v 2 h -2 z m -2,0 h 2 v 2 h -2 z m -2,0 h 2 v 2 h -2 z m -2,0 h 2 v 2 h -2 z m -2,0 h 2 v 2 h -2 z m -2,0 h 2 v 2 h -2 z m -2,0 h 2 v 2 h -2 z m -2,0 h 2 v 2 h -2 z m -2,0 h 2 v 2 h -2 z m -2,0 h 2 v 2 h -2 z m -2,0 h 2 v 2 h -2 z m -2,0 h 2 v 2 h -2 z m -2,0 h 2 v 2 h -2 z m -2,0 h 2 v 2 h -2 z m -2,0 h 2 v 2 h -2 z m -2,0 h 2 v 2 h -2 z m -2,0 h 2 v 2 h -2 z m -2,0 h 2 v 2 h -2 z m -2,0 h 2 v 2 h -2 z m -2,0 h 2 v 2 h -2 z m -2,0 h 2 v 2 h -2 z m -2,0 h 2 v 2 h -2 z m -2,0 h 2 v 2 h -2 z m -2,0 h 2 v 2 h -2 z m -2,0 h 2 v 2 h -2 z m -2,0 h 2 v 2 h -2 z m -2,0 h 2 v 2 h -2 z m -2,0 h 2 v 2 h -2 z m -2,0 h 2 v 2 h -2 z m -2,0 h 2 v 2 h -2 z m -2,0 h 2 v 2 h -2 z m -2,0 h 2 v 2 h -2 z m -2,0 h 2 v 2 h -2 z m -2,0 h 2 v 2 h -2 z m -2,0 h 2 v 2 h -2 z m -2,0 h 2 v 2 h -2 z m -2,0 h 2 v 2 h -2 z m -2,0 h 2 v 2 h -2 z m -2,0 h 2 v 2 h -2 z m -2,0 h 2 v 2 h -2 z m -2,0 h 2 v 2 h -2 z m -2,0 h 2 v 2 h -2 z m 158,-2 h 2 v 2 h -2 z m -2,0 h 2 v 2 h -2 z m -2,0 h 2 v 2 h -2 z m -2,0 h 2 v 2 h -2 z m -2,0 h 2 v 2 h -2 z m -2,0 h 2 v 2 h -2 z m -2,0 h 2 v 2 h -2 z m -2,0 h 2 v 2 h -2 z m -2,0 h 2 v 2 h -2 z m -2,0 h 2 v 2 h -2 z m -2,0 h 2 v 2 h -2 z m -2,0 h 2 v 2 h -2 z m -2,0 h 2 v 2 h -2 z m -2,0 h 2 v 2 h -2 z m -2,0 h 2 v 2 h -2 z m -2,0 h 2 v 2 h -2 z m -2,0 h 2 v 2 h -2 z m -2,0 h 2 v 2 h -2 z m -2,0 h 2 v 2 h -2 z m -2,0 h 2 v 2 h -2 z m -2,0 h 2 v 2 h -2 z m -2,0 h 2 v 2 h -2 z m -2,0 h 2 v 2 h -2 z m -2,0 h 2 v 2 h -2 z m -2,0 h 2 v 2 h -2 z m -2,0 h 2 v 2 h -2 z m -2,0 h 2 v 2 h -2 z m -2,0 h 2 v 2 h -2 z m -2,0 h 2 v 2 h -2 z m -2,0 h 2 v 2 h -2 z m -2,0 h 2 v 2 h -2 z m -2,0 h 2 v 2 h -2 z m -2,0 h 2 v 2 h -2 z m -2,0 h 2 v 2 h -2 z m -2,0 h 2 v 2 h -2 z m -2,0 h 2 v 2 h -2 z m -2,0 h 2 v 2 h -2 z m -2,0 h 2 v 2 h -2 z m -2,0 h 2 v 2 h -2 z m -2,0 h 2 v 2 h -2 z m -2,0 h 2 v 2 h -2 z m -2,0 h 2 v 2 h -2 z m -2,0 h 2 v 2 h -2 z m -2,0 h 2 v 2 h -2 z m -2,0 h 2 v 2 h -2 z m -2,0 h 2 v 2 h -2 z m -2,0 h 2 v 2 h -2 z m -2,0 h 2 v 2 h -2 z m -2,0 h 2 v 2 h -2 z m -2,0 h 2 v 2 h -2 z m -2,0 h 2 v 2 h -2 z m -2,0 h 2 v 2 h -2 z m -2,0 h 2 v 2 h -2 z m -2,0 h 2 v 2 h -2 z m -2,0 h 2 v 2 h -2 z m -2,0 h 2 v 2 h -2 z m -2,0 h 2 v 2 h -2 z m -2,0 h 2 v 2 h -2 z m -2,0 h 2 v 2 h -2 z m -2,0 h 2 v 2 h -2 z m -2,0 h 2 v 2 h -2 z m -2,0 h 2 v 2 h -2 z m -2,0 h 2 v 2 h -2 z m -2,0 h 2 v 2 h -2 z m -2,0 h 2 v 2 h -2 z m -2,0 h 2 v 2 h -2 z m -2,0 h 2 v 2 h -2 z m -2,0 h 2 v 2 h -2 z m -2,0 h 2 v 2 h -2 z m -2,0 h 2 v 2 h -2 z m -2,0 h 2 v 2 h -2 z m -2,0 h 2 v 2 h -2 z m -2,0 h 2 v 2 h -2 z m -2,0 h 2 v 2 h -2 z m -2,0 h 2 v 2 h -2 z m -2,0 h 2 v 2 h -2 z m -2,0 h 2 v 2 h -2 z m -2,0 h 2 v 2 h -2 z m -2,0 h 2 v 2 h -2 z m -2,0 h 2 v 2 h -2 z m 158,-2 h 2 v 2 h -2 z m -2,0 h 2 v 2 h -2 z m -2,0 h 2 v 2 h -2 z m -2,0 h 2 v 2 h -2 z m -2,0 h 2 v 2 h -2 z m -2,0 h 2 v 2 h -2 z m -2,0 h 2 v 2 h -2 z m -2,0 h 2 v 2 h -2 z m -2,0 h 2 v 2 h -2 z m -2,0 h 2 v 2 h -2 z m -2,0 h 2 v 2 h -2 z m -2,0 h 2 v 2 h -2 z m -2,0 h 2 v 2 h -2 z m -2,0 h 2 v 2 h -2 z m -2,0 h 2 v 2 h -2 z m -2,0 h 2 v 2 h -2 z m -2,0 h 2 v 2 h -2 z m -2,0 h 2 v 2 h -2 z m -2,0 h 2 v 2 h -2 z m -2,0 h 2 v 2 h -2 z m -2,0 h 2 v 2 h -2 z m -2,0 h 2 v 2 h -2 z m -2,0 h 2 v 2 h -2 z m -2,0 h 2 v 2 h -2 z m -2,0 h 2 v 2 h -2 z m -2,0 h 2 v 2 h -2 z m -2,0 h 2 v 2 h -2 z m -2,0 h 2 v 2 h -2 z m -2,0 h 2 v 2 h -2 z m -2,0 h 2 v 2 h -2 z m -2,0 h 2 v 2 h -2 z m -2,0 h 2 v 2 h -2 z m -2,0 h 2 v 2 h -2 z m -2,0 h 2 v 2 h -2 z m -2,0 h 2 v 2 h -2 z m -2,0 h 2 v 2 h -2 z m -2,0 h 2 v 2 h -2 z m -2,0 h 2 v 2 h -2 z m -2,0 h 2 v 2 h -2 z m -2,0 h 2 v 2 h -2 z m -2,0 h 2 v 2 h -2 z m -2,0 h 2 v 2 h -2 z m -2,0 h 2 v 2 h -2 z m -2,0 h 2 v 2 h -2 z m -2,0 h 2 v 2 h -2 z m -2,0 h 2 v 2 h -2 z m -2,0 h 2 v 2 h -2 z m -2,0 h 2 v 2 h -2 z m -2,0 h 2 v 2 h -2 z m -2,0 h 2 v 2 h -2 z m -2,0 h 2 v 2 h -2 z m -2,0 h 2 v 2 h -2 z m -2,0 h 2 v 2 h -2 z m -2,0 h 2 v 2 h -2 z m -2,0 h 2 v 2 h -2 z m -2,0 h 2 v 2 h -2 z m -2,0 h 2 v 2 h -2 z m -2,0 h 2 v 2 h -2 z m -2,0 h 2 v 2 h -2 z m -2,0 h 2 v 2 h -2 z m -2,0 h 2 v 2 h -2 z m -2,0 h 2 v 2 h -2 z m -2,0 h 2 v 2 h -2 z m -2,0 h 2 v 2 h -2 z m -2,0 h 2 v 2 h -2 z m -2,0 h 2 v 2 h -2 z m -6,0 h 2 v 2 h -2 z m -2,0 h 2 v 2 h -2 z m -2,0 h 2 v 2 h -2 z m -2,0 h 2 v 2 h -2 z m -2,0 h 2 v 2 h -2 z m -2,0 h 2 v 2 h -2 z m -2,0 h 2 v 2 h -2 z m -2,0 h 2 v 2 h -2 z m -2,0 h 2 v 2 h -2 z m -2,0 h 2 v 2 h -2 z m -2,0 h 2 v 2 h -2 z m -2,0 h 2 v 2 h -2 z m 158,-2 h 2 v 2 h -2 z m -2,0 h 2 v 2 h -2 z m -2,0 h 2 v 2 h -2 z m -2,0 h 2 v 2 h -2 z m -2,0 h 2 v 2 h -2 z m -2,0 h 2 v 2 h -2 z m -2,0 h 2 v 2 h -2 z m -2,0 h 2 v 2 h -2 z m -2,0 h 2 v 2 h -2 z m -2,0 h 2 v 2 h -2 z m -2,0 h 2 v 2 h -2 z m -2,0 h 2 v 2 h -2 z m -2,0 h 2 v 2 h -2 z m -2,0 h 2 v 2 h -2 z m -2,0 h 2 v 2 h -2 z m -2,0 h 2 v 2 h -2 z m -2,0 h 2 v 2 h -2 z m -2,0 h 2 v 2 h -2 z m -2,0 h 2 v 2 h -2 z m -2,0 h 2 v 2 h -2 z m -2,0 h 2 v 2 h -2 z m -2,0 h 2 v 2 h -2 z m -2,0 h 2 v 2 h -2 z m -2,0 h 2 v 2 h -2 z m -2,0 h 2 v 2 h -2 z m -2,0 h 2 v 2 h -2 z m -2,0 h 2 v 2 h -2 z m -2,0 h 2 v 2 h -2 z m -2,0 h 2 v 2 h -2 z m -2,0 h 2 v 2 h -2 z m -2,0 h 2 v 2 h -2 z m -2,0 h 2 v 2 h -2 z m -2,0 h 2 v 2 h -2 z m -2,0 h 2 v 2 h -2 z m -2,0 h 2 v 2 h -2 z m -2,0 h 2 v 2 h -2 z m -2,0 h 2 v 2 h -2 z m -2,0 h 2 v 2 h -2 z m -2,0 h 2 v 2 h -2 z m -2,0 h 2 v 2 h -2 z m -2,0 h 2 v 2 h -2 z m -2,0 h 2 v 2 h -2 z m -2,0 h 2 v 2 h -2 z m -2,0 h 2 v 2 h -2 z m -2,0 h 2 v 2 h -2 z m -2,0 h 2 v 2 h -2 z m -2,0 h 2 v 2 h -2 z m -2,0 h 2 v 2 h -2 z m -2,0 h 2 v 2 h -2 z m -2,0 h 2 v 2 h -2 z m -2,0 h 2 v 2 h -2 z m -2,0 h 2 v 2 h -2 z m -2,0 h 2 v 2 h -2 z m -2,0 h 2 v 2 h -2 z m -2,0 h 2 v 2 h -2 z m -2,0 h 2 v 2 h -2 z m -2,0 h 2 v 2 h -2 z m -2,0 h 2 v 2 h -2 z m -2,0 h 2 v 2 h -2 z m -2,0 h 2 v 2 h -2 z m -2,0 h 2 v 2 h -2 z m -2,0 h 2 v 2 h -2 z m -2,0 h 2 v 2 h -2 z m -2,0 h 2 v 2 h -2 z m -2,0 h 2 v 2 h -2 z m -2,0 h 2 v 2 h -2 z m -6,0 h 2 v 2 h -2 z m -2,0 h 2 v 2 h -2 z m -2,0 h 2 v 2 h -2 z m -2,0 h 2 v 2 h -2 z m -2,0 h 2 v 2 h -2 z m -2,0 h 2 v 2 h -2 z m -2,0 h 2 v 2 h -2 z m -2,0 h 2 v 2 h -2 z m -2,0 h 2 v 2 h -2 z m -2,0 h 2 v 2 h -2 z m -2,0 h 2 v 2 h -2 z m -2,0 h 2 v 2 h -2 z m 162,-2 h 2 v 2 h -2 z m -2,0 h 2 v 2 h -2 z m -2,0 h 2 v 2 h -2 z m -2,0 h 2 v 2 h -2 z m -2,0 h 2 v 2 h -2 z m -2,0 h 2 v 2 h -2 z m -2,0 h 2 v 2 h -2 z m -2,0 h 2 v 2 h -2 z m -2,0 h 2 v 2 h -2 z m -2,0 h 2 v 2 h -2 z m -2,0 h 2 v 2 h -2 z m -2,0 h 2 v 2 h -2 z m -2,0 h 2 v 2 h -2 z m -2,0 h 2 v 2 h -2 z m -2,0 h 2 v 2 h -2 z m -2,0 h 2 v 2 h -2 z m -2,0 h 2 v 2 h -2 z m -2,0 h 2 v 2 h -2 z m -2,0 h 2 v 2 h -2 z m -2,0 h 2 v 2 h -2 z m -2,0 h 2 v 2 h -2 z m -2,0 h 2 v 2 h -2 z m -2,0 h 2 v 2 h -2 z m -2,0 h 2 v 2 h -2 z m -2,0 h 2 v 2 h -2 z m -2,0 h 2 v 2 h -2 z m -2,0 h 2 v 2 h -2 z m -2,0 h 2 v 2 h -2 z m -2,0 h 2 v 2 h -2 z m -2,0 h 2 v 2 h -2 z m -2,0 h 2 v 2 h -2 z m -2,0 h 2 v 2 h -2 z m -2,0 h 2 v 2 h -2 z m -2,0 h 2 v 2 h -2 z m -2,0 h 2 v 2 h -2 z m -2,0 h 2 v 2 h -2 z m -2,0 h 2 v 2 h -2 z m -2,0 h 2 v 2 h -2 z m -2,0 h 2 v 2 h -2 z m -2,0 h 2 v 2 h -2 z m -2,0 h 2 v 2 h -2 z m -2,0 h 2 v 2 h -2 z m -2,0 h 2 v 2 h -2 z m -2,0 h 2 v 2 h -2 z m -2,0 h 2 v 2 h -2 z m -2,0 h 2 v 2 h -2 z m -2,0 h 2 v 2 h -2 z m -2,0 h 2 v 2 h -2 z m -2,0 h 2 v 2 h -2 z m -2,0 h 2 v 2 h -2 z m -2,0 h 2 v 2 h -2 z m -2,0 h 2 v 2 h -2 z m -2,0 h 2 v 2 h -2 z m -2,0 h 2 v 2 h -2 z m -2,0 h 2 v 2 h -2 z m -2,0 h 2 v 2 h -2 z m -2,0 h 2 v 2 h -2 z m -2,0 h 2 v 2 h -2 z m -2,0 h 2 v 2 h -2 z m -2,0 h 2 v 2 h -2 z m -2,0 h 2 v 2 h -2 z m -2,0 h 2 v 2 h -2 z m -2,0 h 2 v 2 h -2 z m -2,0 h 2 v 2 h -2 z m -2,0 h 2 v 2 h -2 z m -2,0 h 2 v 2 h -2 z m -10,0 h 2 v 2 h -2 z m -2,0 h 2 v 2 h -2 z m -2,0 h 2 v 2 h -2 z m -2,0 h 2 v 2 h -2 z m -2,0 h 2 v 2 h -2 z m -2,0 h 2 v 2 h -2 z m -2,0 h 2 v 2 h -2 z m -2,0 h 2 v 2 h -2 z m -2,0 h 2 v 2 h -2 z m -2,0 h 2 v 2 h -2 z m -2,0 h 2 v 2 h -2 z m -2,0 h 2 v 2 h -2 z m 162,-2 h 2 v 2 h -2 z m -2,0 h 2 v 2 h -2 z m -2,0 h 2 v 2 h -2 z m -2,0 h 2 v 2 h -2 z m -2,0 h 2 v 2 h -2 z m -2,0 h 2 v 2 h -2 z m -2,0 h 2 v 2 h -2 z m -2,0 h 2 v 2 h -2 z m -2,0 h 2 v 2 h -2 z m -2,0 h 2 v 2 h -2 z m -2,0 h 2 v 2 h -2 z m -2,0 h 2 v 2 h -2 z m -2,0 h 2 v 2 h -2 z m -2,0 h 2 v 2 h -2 z m -2,0 h 2 v 2 h -2 z m -2,0 h 2 v 2 h -2 z m -2,0 h 2 v 2 h -2 z m -2,0 h 2 v 2 h -2 z m -2,0 h 2 v 2 h -2 z m -2,0 h 2 v 2 h -2 z m -2,0 h 2 v 2 h -2 z m -2,0 h 2 v 2 h -2 z m -2,0 h 2 v 2 h -2 z m -2,0 h 2 v 2 h -2 z m -2,0 h 2 v 2 h -2 z m -2,0 h 2 v 2 h -2 z m -2,0 h 2 v 2 h -2 z m -2,0 h 2 v 2 h -2 z m -2,0 h 2 v 2 h -2 z m -2,0 h 2 v 2 h -2 z m -2,0 h 2 v 2 h -2 z m -2,0 h 2 v 2 h -2 z m -2,0 h 2 v 2 h -2 z m -2,0 h 2 v 2 h -2 z m -2,0 h 2 v 2 h -2 z m -2,0 h 2 v 2 h -2 z m -2,0 h 2 v 2 h -2 z m -2,0 h 2 v 2 h -2 z m -2,0 h 2 v 2 h -2 z m -2,0 h 2 v 2 h -2 z m -2,0 h 2 v 2 h -2 z m -2,0 h 2 v 2 h -2 z m -2,0 h 2 v 2 h -2 z m -2,0 h 2 v 2 h -2 z m -2,0 h 2 v 2 h -2 z m -2,0 h 2 v 2 h -2 z m -2,0 h 2 v 2 h -2 z m -2,0 h 2 v 2 h -2 z m -2,0 h 2 v 2 h -2 z m -2,0 h 2 v 2 h -2 z m -2,0 h 2 v 2 h -2 z m -2,0 h 2 v 2 h -2 z m -2,0 h 2 v 2 h -2 z m -2,0 h 2 v 2 h -2 z m -2,0 h 2 v 2 h -2 z m -2,0 h 2 v 2 h -2 z m -2,0 h 2 v 2 h -2 z m -2,0 h 2 v 2 h -2 z m -2,0 h 2 v 2 h -2 z m -2,0 h 2 v 2 h -2 z m -2,0 h 2 v 2 h -2 z m -2,0 h 2 v 2 h -2 z m -2,0 h 2 v 2 h -2 z m -2,0 h 2 v 2 h -2 z m -2,0 h 2 v 2 h -2 z m -2,0 h 2 v 2 h -2 z m -10,0 h 2 v 2 h -2 z m -2,0 h 2 v 2 h -2 z m -2,0 h 2 v 2 h -2 z m -2,0 h 2 v 2 h -2 z m -2,0 h 2 v 2 h -2 z m -2,0 h 2 v 2 h -2 z m -2,0 h 2 v 2 h -2 z m -2,0 h 2 v 2 h -2 z m -2,0 h 2 v 2 h -2 z m -2,0 h 2 v 2 h -2 z m -2,0 h 2 v 2 h -2 z m -2,0 h 2 v 2 h -2 z m 162,-2 h 2 v 2 h -2 z m -2,0 h 2 v 2 h -2 z m -2,0 h 2 v 2 h -2 z m -2,0 h 2 v 2 h -2 z m -2,0 h 2 v 2 h -2 z m -2,0 h 2 v 2 h -2 z m -98,0 h 2 v 2 h -2 z m -2,0 h 2 v 2 h -2 z m -2,0 h 2 v 2 h -2 z m -2,0 h 2 v 2 h -2 z m -2,0 h 2 v 2 h -2 z m -2,0 h 2 v 2 h -2 z m -2,0 h 2 v 2 h -2 z m -2,0 h 2 v 2 h -2 z m -22,0 h 2 v 2 h -2 z m -2,0 h 2 v 2 h -2 z m -2,0 h 2 v 2 h -2 z m -2,0 h 2 v 2 h -2 z m -2,0 h 2 v 2 h -2 z m -2,0 h 2 v 2 h -2 z m -2,0 h 2 v 2 h -2 z m -2,0 h 2 v 2 h -2 z m -2,0 h 2 v 2 h -2 z m -2,0 h 2 v 2 h -2 z m 162,-2 h 2 v 2 h -2 z m -2,0 h 2 v 2 h -2 z m -2,0 h 2 v 2 h -2 z m -2,0 h 2 v 2 h -2 z m -2,0 h 2 v 2 h -2 z m -2,0 h 2 v 2 h -2 z m -98,0 h 2 v 2 h -2 z m -2,0 h 2 v 2 h -2 z m -2,0 h 2 v 2 h -2 z m -2,0 h 2 v 2 h -2 z m -2,0 h 2 v 2 h -2 z m -2,0 h 2 v 2 h -2 z m -2,0 h 2 v 2 h -2 z m -2,0 h 2 v 2 h -2 z m -22,0 h 2 v 2 h -2 z m -2,0 h 2 v 2 h -2 z m -2,0 h 2 v 2 h -2 z m -2,0 h 2 v 2 h -2 z m -2,0 h 2 v 2 h -2 z m -2,0 h 2 v 2 h -2 z m -2,0 h 2 v 2 h -2 z m -2,0 h 2 v 2 h -2 z m -2,0 h 2 v 2 h -2 z m -2,0 h 2 v 2 h -2 z m 162,-2 h 2 v 2 h -2 z m -2,0 h 2 v 2 h -2 z m -2,0 h 2 v 2 h -2 z m -2,0 h 2 v 2 h -2 z m -2,0 h 2 v 2 h -2 z m -2,0 h 2 v 2 h -2 z M 72,22 h 2 v 2 h -2 z m -2,0 h 2 v 2 h -2 z m -2,0 h 2 v 2 h -2 z m -2,0 h 2 v 2 h -2 z m -2,0 h 2 v 2 h -2 z m -2,0 h 2 v 2 h -2 z m -2,0 h 2 v 2 h -2 z m -2,0 h 2 v 2 h -2 z m -22,0 h 2 v 2 h -2 z m -2,0 h 2 v 2 h -2 z m -2,0 h 2 v 2 h -2 z m -2,0 h 2 v 2 h -2 z m -2,0 h 2 v 2 h -2 z m -2,0 h 2 v 2 h -2 z m 158,-2 h 2 v 2 h -2 z m -2,0 h 2 v 2 h -2 z m -2,0 h 2 v 2 h -2 z m -2,0 h 2 v 2 h -2 z m -2,0 h 2 v 2 h -2 z m -2,0 h 2 v 2 h -2 z M 72,20 h 2 v 2 h -2 z m -2,0 h 2 v 2 h -2 z m -2,0 h 2 v 2 h -2 z m -2,0 h 2 v 2 h -2 z m -2,0 h 2 v 2 h -2 z m -2,0 h 2 v 2 h -2 z m -2,0 h 2 v 2 h -2 z m -2,0 h 2 v 2 h -2 z m -22,0 h 2 v 2 h -2 z m -2,0 h 2 v 2 h -2 z m -2,0 h 2 v 2 h -2 z m -2,0 h 2 v 2 h -2 z m -2,0 h 2 v 2 h -2 z m -2,0 h 2 v 2 h -2 z m 158,-2 h 2 v 2 h -2 z m -2,0 h 2 v 2 h -2 z m -2,0 h 2 v 2 h -2 z m -2,0 h 2 v 2 h -2 z m -2,0 h 2 v 2 h -2 z m -2,0 h 2 v 2 h -2 z M 72,18 h 2 v 2 h -2 z m -2,0 h 2 v 2 h -2 z m -2,0 h 2 v 2 h -2 z m -2,0 h 2 v 2 h -2 z m -2,0 h 2 v 2 h -2 z m -2,0 h 2 v 2 h -2 z m -2,0 h 2 v 2 h -2 z m -2,0 h 2 v 2 h -2 z m -26,0 h 2 v 2 h -2 z m -2,0 h 2 v 2 h -2 z m -2,0 h 2 v 2 h -2 z m -2,0 h 2 v 2 h -2 z m 158,-2 h 2 v 2 h -2 z m -2,0 h 2 v 2 h -2 z m -2,0 h 2 v 2 h -2 z m -2,0 h 2 v 2 h -2 z m -2,0 h 2 v 2 h -2 z m -2,0 h 2 v 2 h -2 z M 72,16 h 2 v 2 h -2 z m -2,0 h 2 v 2 h -2 z m -2,0 h 2 v 2 h -2 z m -2,0 h 2 v 2 h -2 z m -2,0 h 2 v 2 h -2 z m -2,0 h 2 v 2 h -2 z m -2,0 h 2 v 2 h -2 z m -2,0 h 2 v 2 h -2 z m -26,0 h 2 v 2 h -2 z m -2,0 h 2 v 2 h -2 z m -2,0 h 2 v 2 h -2 z m -2,0 h 2 v 2 h -2 z m 46,-2 h 2 v 2 h -2 z m -2,0 h 2 v 2 h -2 z m -2,0 h 2 v 2 h -2 z m -2,0 h 2 v 2 h -2 z m -2,0 h 2 v 2 h -2 z m -2,0 h 2 v 2 h -2 z m -2,0 h 2 v 2 h -2 z m -2,0 h 2 v 2 h -2 z m 14,-2 h 2 v 2 h -2 z m -2,0 h 2 v 2 h -2 z m -2,0 h 2 v 2 h -2 z m -2,0 h 2 v 2 h -2 z m -2,0 h 2 v 2 h -2 z m -2,0 h 2 v 2 h -2 z m -2,0 h 2 v 2 h -2 z m -2,0 h 2 v 2 h -2 z m 14,-2 h 2 v 2 h -2 z m -2,0 h 2 v 2 h -2 z m -2,0 h 2 v 2 h -2 z m -2,0 h 2 v 2 h -2 z m -2,0 h 2 v 2 h -2 z m -2,0 h 2 v 2 H 62 Z M 72,8 h 2 v 2 h -2 z m -2,0 h 2 v 2 h -2 z m -2,0 h 2 v 2 h -2 z m -2,0 h 2 v 2 h -2 z m -2,0 h 2 v 2 h -2 z m -2,0 h 2 v 2 H 62 Z M 72,6 h 2 v 2 h -2 z m -2,0 h 2 v 2 h -2 z m -2,0 h 2 v 2 h -2 z m -2,0 h 2 v 2 h -2 z m 6,-2 h 2 v 2 h -2 z m -2,0 h 2 v 2 h -2 z m -2,0 h 2 v 2 h -2 z m -2,0 h 2 v 2 h -2 z m 6,-2 h 2 v 2 h -2 z m -2,0 h 2 v 2 h -2 z m 2,-2 h 2 v 2 h -2 z m -2,0 h 2 v 2 h -2 z" />
</svg>
