<?xml version="1.0" standalone="no"?>
<!DOCTYPE svg PUBLIC "-//W3C//DTD SVG 20010904//EN"
 "http://www.w3.org/TR/2001/REC-SVG-20010904/DTD/svg10.dtd">
<svg version="1.0" xmlns="http://www.w3.org/2000/svg"
 width="260.000000pt" height="260.000000pt" viewBox="0 0 260.000000 260.000000"
 preserveAspectRatio="xMidYMid meet">
<metadata>
Created by potrace 1.14, written by Peter Selinger 2001-2017
</metadata>
<g transform="translate(0.000000,260.000000) scale(0.100000,-0.100000)"
fill="#000000" stroke="none">
<path d="M730 2180 c0 -25 -4 -30 -25 -30 -21 0 -25 -5 -25 -30 0 -27 -3 -30
-30 -30 -27 0 -30 -3 -30 -30 0 -27 -3 -30 -30 -30 l-30 0 0 -90 0 -90 30 0
c27 0 30 -3 30 -30 l0 -30 -60 0 c-57 0 -60 -1 -60 -25 0 -21 -5 -25 -30 -25
-27 0 -30 -3 -30 -30 0 -27 -3 -30 -30 -30 -30 0 -30 1 -30 55 0 54 0 55 -30
55 -27 0 -30 3 -30 30 0 25 -4 30 -25 30 -21 0 -25 5 -25 30 0 27 -3 30 -30
30 -27 0 -30 3 -30 30 l0 30 -60 0 -60 0 0 -60 0 -60 -30 0 -30 0 0 -175 0
-175 30 0 c27 0 30 -3 30 -30 l0 -30 115 0 115 0 0 -380 0 -380 30 0 c27 0 30
-3 30 -30 0 -27 3 -30 30 -30 27 0 30 -3 30 -30 l0 -30 900 0 900 0 0 30 c0
27 3 30 30 30 27 0 30 3 30 30 0 28 3 30 35 30 l35 0 0 115 0 115 -25 0 c-24
0 -25 -3 -25 -60 l0 -60 -30 0 -30 0 0 60 0 60 -30 0 -30 0 0 -60 0 -60 -90 0
-90 0 0 150 0 150 30 0 c27 0 30 3 30 30 0 27 -3 30 -30 30 -27 0 -30 3 -30
30 0 27 -3 30 -30 30 -27 0 -30 3 -30 30 0 25 -4 30 -25 30 -20 0 -25 5 -25
25 0 21 -5 25 -30 25 -27 0 -30 3 -30 30 0 27 -3 30 -30 30 -27 0 -30 -3 -30
-30 0 -27 -3 -30 -30 -30 -25 0 -30 -4 -30 -25 0 -21 -5 -25 -30 -25 -27 0
-30 -3 -30 -30 0 -27 -3 -30 -30 -30 -27 0 -30 -3 -30 -30 0 -27 -3 -30 -30
-30 -27 0 -30 -3 -30 -30 0 -27 3 -30 30 -30 l30 0 0 -150 0 -150 -55 0 c-54
0 -55 0 -55 30 0 27 -3 30 -30 30 -27 0 -30 -3 -30 -30 l0 -30 -175 0 -175 0
0 30 c0 27 -3 30 -30 30 l-30 0 0 60 0 60 -30 0 -30 0 0 150 0 150 30 0 c30 0
30 1 30 55 0 54 0 55 30 55 27 0 30 3 30 30 0 25 4 30 25 30 21 0 25 5 25 30
0 27 3 30 30 30 27 0 30 3 30 30 l0 30 60 0 60 0 0 30 0 30 115 0 115 0 0 -30
c0 -27 3 -30 30 -30 27 0 30 3 30 30 l0 30 295 0 295 0 0 -60 0 -60 30 0 30 0
0 60 0 60 30 0 30 0 0 -60 c0 -57 1 -60 25 -60 l25 0 0 120 0 120 30 0 30 0 0
115 0 115 -85 0 -85 0 0 -90 0 -90 -705 0 -705 0 0 30 c0 27 -3 30 -30 30
l-30 0 0 180 0 180 -30 0 c-27 0 -30 -3 -30 -30z m0 -650 c0 -27 3 -30 30 -30
l30 0 0 -90 0 -90 -30 0 c-25 0 -30 -4 -30 -25 0 -25 -1 -25 -85 -25 -84 0
-85 0 -85 25 0 21 -5 25 -30 25 l-30 0 0 90 0 90 30 0 c27 0 30 3 30 30 l0 30
85 0 85 0 0 -30z m1120 -650 l0 -90 -60 0 -60 0 0 90 0 90 60 0 60 0 0 -90z"/>
<path d="M620 1470 c0 -27 -3 -30 -30 -30 l-30 0 0 -60 0 -60 85 0 85 0 0 90
0 90 -55 0 c-54 0 -55 0 -55 -30z"/>
</g>
</svg>
