<svg xmlns="http://www.w3.org/2000/svg" viewBox="0 -0.5 384 216" shape-rendering="crispEdges">
<metadata>Made with Pixels to Svg https://codepen.io/shshaw/pen/XbxvNj</metadata>
<path stroke="#000000" d="M0 0h384M0 1h384M0 2h384M0 3h384M0 4h384M0 5h384M0 6h384M0 7h384M0 8h384M0 9h86M92 9h67M161 9h223M0 10h85M87 10h2M92 10h66M161 10h223M0 11h85M86 11h5M94 11h13M119 11h39M161 11h223M0 12h92M98 12h3M104 12h280M0 13h92M97 13h3M104 13h280M0 14h93M96 14h3M104 14h5M119 14h2M125 14h2M161 14h223M0 15h94M95 15h3M104 15h3M112 15h6M119 15h8M161 15h223M0 16h94M95 16h3M104 16h3M112 16h6M119 16h8M161 16h223M0 17h94M95 17h3M104 17h3M112 17h1M119 17h2M125 17h259M0 18h98M104 18h3M119 18h2M125 18h259M0 19h98M104 19h3M119 19h2M125 19h2M160 19h224M0 20h98M104 20h3M119 20h8M160 20h224M0 21h98M104 21h3M112 21h6M119 21h265M0 22h98M104 22h3M112 22h6M119 22h265M0 23h99M104 23h3M112 23h1M119 23h2M124 23h260M0 24h100M104 24h3M119 24h265M0 25h101M104 25h3M119 25h265M0 26h384M0 27h384M0 28h384M0 29h98M115 29h269M0 30h97M98 30h2M107 30h277M0 31h97M98 31h2M107 31h277M0 32h92M96 32h1M103 32h281M0 33h90M93 33h2M96 33h1M100 33h3M107 33h6M115 33h269M0 34h89M91 34h4M96 34h1M100 34h2M104 34h1M106 34h7M115 34h269M0 35h88M90 35h5M96 35h5M103 35h2M106 35h7M115 35h269M0 36h87M89 36h6M97 36h4M103 36h2M106 36h7M115 36h9M130 36h6M139 36h6M148 36h6M160 36h6M175 36h38M225 36h18M249 36h12M273 36h12M288 36h12M303 36h81M0 37h86M88 37h8M103 37h2M106 37h7M115 37h9M130 37h6M139 37h6M148 37h6M160 37h6M175 37h38M225 37h18M249 37h12M273 37h12M288 37h12M303 37h81M0 38h86M87 38h10M99 38h3M103 38h3M107 38h5M114 38h10M130 38h6M139 38h6M148 38h6M160 38h6M175 38h38M225 38h18M249 38h12M273 38h12M288 38h12M303 38h81M0 39h85M87 39h10M98 39h4M104 39h7M113 39h8M124 39h6M133 39h3M139 39h6M148 39h3M154 39h6M163 39h6M172 39h41M216 39h9M228 39h12M243 39h6M252 39h9M264 39h9M276 39h9M288 39h12M303 39h81M0 40h85M86 40h10M98 40h5M105 40h4M112 40h9M124 40h6M133 40h3M139 40h6M148 40h3M154 40h6M163 40h6M172 40h41M216 40h9M228 40h12M243 40h6M252 40h9M264 40h9M276 40h9M288 40h12M303 40h81M0 41h85M86 41h9M97 41h7M110 41h11M124 41h6M133 41h3M139 41h6M148 41h3M154 41h6M163 41h6M172 41h41M216 41h9M228 41h12M243 41h6M252 41h9M264 41h9M276 41h9M288 41h12M303 41h81M0 42h84M86 42h9M96 42h25M124 42h6M133 42h3M139 42h6M148 42h3M154 42h6M163 42h6M172 42h41M216 42h12M231 42h6M240 42h12M255 42h6M264 42h12M279 42h6M288 42h12M303 42h81M0 43h84M85 43h9M96 43h25M124 43h6M133 43h3M139 43h6M148 43h3M154 43h6M163 43h6M172 43h41M216 43h12M231 43h6M240 43h12M255 43h6M264 43h12M279 43h6M288 43h12M303 43h81M0 44h84M85 44h4M91 44h3M95 44h26M124 44h6M133 44h3M139 44h6M148 44h3M154 44h6M163 44h6M172 44h41M216 44h12M231 44h6M240 44h12M255 44h6M264 44h12M279 44h6M288 44h12M303 44h81M0 45h83M85 45h4M91 45h3M95 45h26M124 45h6M133 45h3M139 45h6M148 45h3M154 45h6M163 45h6M172 45h41M216 45h12M231 45h6M240 45h12M255 45h6M264 45h12M279 45h6M288 45h12M303 45h81M0 46h83M84 46h10M95 46h26M124 46h6M133 46h3M139 46h6M148 46h3M154 46h6M163 46h6M172 46h41M216 46h12M231 46h6M240 46h12M255 46h6M264 46h12M279 46h6M288 46h12M303 46h81M0 47h83M84 47h10M95 47h26M124 47h6M133 47h3M139 47h6M148 47h3M154 47h6M163 47h6M172 47h8M183 47h6M195 47h18M216 47h12M231 47h6M240 47h12M255 47h6M264 47h12M279 47h6M288 47h12M303 47h81M0 48h82M84 48h10M95 48h26M124 48h12M139 48h6M148 48h3M154 48h6M163 48h6M172 48h8M183 48h6M195 48h18M216 48h12M231 48h6M240 48h12M255 48h6M264 48h12M279 48h6M288 48h12M303 48h81M0 49h82M83 49h11M95 49h26M124 49h12M139 49h6M148 49h3M154 49h6M163 49h6M172 49h8M183 49h6M195 49h18M216 49h12M231 49h6M240 49h12M255 49h6M264 49h12M279 49h6M288 49h12M303 49h81M0 50h82M83 50h11M95 50h26M124 50h12M139 50h6M148 50h3M154 50h6M163 50h6M172 50h14M189 50h3M195 50h18M216 50h12M231 50h6M240 50h12M255 50h6M264 50h12M279 50h6M288 50h12M303 50h81M0 51h82M83 51h11M96 51h25M124 51h12M139 51h6M148 51h3M154 51h6M163 51h6M172 51h14M189 51h3M195 51h18M216 51h12M231 51h6M240 51h12M255 51h6M264 51h12M279 51h6M288 51h12M303 51h81M0 52h82M83 52h12M96 52h25M124 52h12M139 52h6M148 52h3M154 52h6M163 52h6M172 52h14M189 52h3M195 52h18M216 52h12M231 52h6M240 52h12M255 52h6M264 52h12M279 52h6M288 52h12M303 52h81M0 53h82M83 53h12M96 53h25M124 53h12M139 53h6M148 53h3M154 53h6M163 53h6M172 53h8M183 53h3M189 53h3M195 53h18M216 53h12M231 53h6M240 53h12M255 53h6M264 53h12M279 53h6M288 53h12M303 53h81M0 54h82M83 54h12M96 54h25M124 54h12M139 54h6M148 54h3M154 54h6M163 54h6M172 54h8M183 54h3M189 54h3M195 54h18M216 54h12M231 54h6M240 54h12M255 54h6M264 54h12M279 54h6M288 54h9M300 54h84M0 55h82M83 55h4M89 55h6M96 55h25M124 55h12M139 55h6M148 55h3M154 55h6M163 55h6M172 55h8M183 55h3M189 55h3M195 55h18M216 55h12M231 55h6M240 55h12M255 55h6M264 55h12M279 55h6M288 55h9M300 55h84M0 56h82M83 56h4M89 56h6M97 56h24M124 56h12M139 56h6M148 56h3M154 56h6M163 56h6M172 56h8M183 56h3M189 56h3M195 56h18M216 56h12M231 56h6M240 56h12M255 56h6M264 56h12M279 56h6M288 56h9M300 56h84M0 57h82M83 57h13M97 57h27M127 57h9M139 57h6M148 57h3M154 57h6M163 57h6M172 57h8M183 57h3M189 57h3M195 57h18M216 57h12M231 57h6M240 57h12M255 57h6M264 57h9M276 57h9M288 57h6M297 57h87M0 58h82M83 58h13M97 58h27M127 58h9M139 58h6M148 58h3M154 58h6M163 58h6M172 58h8M183 58h3M189 58h3M195 58h18M216 58h12M231 58h6M240 58h12M255 58h6M264 58h9M276 58h9M288 58h6M297 58h87M0 59h82M83 59h13M98 59h26M127 59h9M139 59h6M148 59h3M154 59h6M163 59h6M172 59h8M183 59h3M189 59h3M195 59h18M216 59h12M231 59h6M240 59h12M255 59h6M264 59h9M276 59h9M288 59h6M297 59h87M0 60h82M83 60h14M98 60h29M130 60h6M148 60h3M154 60h6M163 60h6M172 60h8M183 60h3M189 60h3M195 60h18M216 60h12M231 60h6M255 60h6M273 60h12M294 60h90M0 61h82M98 61h29M130 61h6M148 61h3M154 61h6M163 61h6M172 61h8M183 61h3M189 61h3M195 61h18M216 61h12M231 61h6M255 61h6M273 61h12M294 61h90M0 62h127M130 62h6M148 62h3M154 62h6M163 62h6M172 62h41M216 62h12M231 62h6M255 62h6M273 62h12M294 62h90M0 63h130M133 63h3M139 63h6M148 63h3M154 63h6M163 63h6M172 63h41M216 63h12M231 63h6M240 63h12M255 63h6M264 63h9M276 63h9M288 63h6M297 63h87M0 64h130M133 64h3M139 64h6M148 64h3M154 64h6M163 64h6M172 64h41M216 64h12M231 64h6M240 64h12M255 64h6M264 64h9M276 64h9M288 64h6M297 64h87M0 65h130M133 65h3M139 65h6M148 65h3M154 65h6M163 65h6M172 65h41M216 65h12M231 65h6M240 65h12M255 65h6M264 65h9M276 65h9M288 65h6M297 65h87M0 66h130M133 66h3M139 66h6M148 66h3M154 66h6M163 66h6M172 66h8M183 66h6M192 66h3M198 66h3M207 66h6M216 66h12M231 66h6M240 66h12M255 66h6M264 66h12M279 66h6M288 66h9M300 66h84M0 67h130M133 67h3M139 67h6M148 67h3M154 67h6M163 67h6M172 67h8M183 67h6M192 67h3M198 67h3M207 67h6M216 67h12M231 67h6M240 67h12M255 67h6M264 67h12M279 67h6M288 67h9M300 67h84M0 68h130M133 68h3M139 68h6M148 68h3M154 68h6M163 68h6M172 68h8M183 68h6M192 68h3M198 68h3M207 68h6M216 68h12M231 68h6M240 68h12M255 68h6M264 68h12M279 68h6M288 68h9M300 68h84M0 69h130M133 69h3M139 69h6M148 69h3M154 69h6M163 69h6M172 69h5M186 69h3M192 69h3M198 69h3M204 69h9M216 69h12M231 69h6M240 69h12M255 69h6M264 69h12M279 69h6M288 69h12M303 69h81M0 70h130M133 70h3M139 70h6M148 70h3M154 70h6M163 70h6M172 70h5M186 70h3M192 70h3M198 70h3M204 70h9M216 70h12M231 70h6M240 70h12M255 70h6M264 70h12M279 70h6M288 70h12M303 70h81M0 71h130M133 71h3M139 71h6M148 71h3M154 71h6M163 71h6M172 71h5M186 71h3M192 71h3M198 71h3M204 71h9M216 71h12M231 71h6M240 71h12M255 71h6M264 71h12M279 71h6M288 71h12M303 71h81M0 72h121M124 72h6M133 72h3M139 72h6M148 72h3M154 72h6M163 72h6M172 72h8M183 72h6M198 72h3M207 72h6M216 72h12M231 72h6M240 72h12M255 72h6M264 72h12M279 72h6M288 72h12M303 72h81M0 73h121M124 73h6M133 73h3M139 73h6M148 73h3M154 73h6M163 73h6M172 73h8M183 73h6M198 73h3M207 73h6M216 73h12M231 73h6M240 73h12M255 73h6M264 73h12M279 73h6M288 73h12M303 73h81M0 74h121M124 74h6M133 74h3M139 74h6M148 74h3M154 74h6M163 74h6M172 74h8M183 74h6M198 74h3M207 74h6M216 74h12M231 74h6M240 74h12M255 74h6M264 74h12M279 74h6M288 74h12M303 74h81M0 75h121M124 75h6M133 75h3M139 75h6M148 75h3M154 75h6M163 75h6M172 75h8M183 75h6M192 75h3M198 75h3M204 75h9M216 75h9M228 75h9M240 75h12M255 75h6M264 75h12M279 75h6M288 75h12M303 75h81M0 76h121M124 76h6M133 76h3M139 76h6M148 76h3M154 76h6M163 76h6M172 76h8M183 76h6M192 76h3M198 76h3M204 76h9M216 76h9M228 76h9M240 76h12M255 76h6M264 76h12M279 76h6M288 76h12M303 76h81M0 77h121M124 77h6M133 77h3M139 77h6M148 77h3M154 77h6M163 77h6M172 77h8M183 77h6M192 77h3M198 77h3M204 77h9M216 77h9M228 77h9M240 77h12M255 77h6M264 77h12M279 77h6M288 77h12M303 77h81M0 78h124M130 78h6M139 78h6M148 78h6M160 78h9M172 78h8M183 78h6M192 78h3M198 78h3M207 78h6M225 78h12M240 78h12M255 78h6M264 78h12M279 78h6M288 78h12M303 78h81M0 79h124M130 79h6M139 79h6M148 79h6M160 79h9M172 79h8M183 79h6M192 79h3M198 79h3M207 79h6M225 79h12M240 79h12M255 79h6M264 79h12M279 79h6M288 79h12M303 79h81M0 80h124M130 80h6M139 80h6M148 80h6M160 80h9M172 80h8M183 80h6M192 80h3M198 80h3M207 80h6M225 80h12M240 80h12M255 80h6M264 80h12M279 80h6M288 80h12M303 80h81M0 81h384M0 82h384M0 83h384M0 84h384M0 85h384M0 86h384M0 87h384M0 88h173M181 88h203M0 89h166M188 89h196M0 90h161M193 90h191M0 91h158M196 91h188M0 92h156M198 92h186M0 93h153M201 93h183M0 94h151M204 94h180M0 95h150M205 95h179M0 96h147M207 96h177M0 97h146M192 97h7M208 97h176M0 98h144M184 98h23M210 98h174M0 99h143M180 99h58M239 99h10M250 99h40M291 99h10M302 99h82M0 100h142M177 100h61M239 100h10M250 100h40M291 100h10M302 100h82M0 101h141M177 101h61M240 101h8M250 101h4M257 101h33M292 101h8M302 101h4M309 101h75M0 102h140M174 102h65M249 102h4M258 102h33M301 102h4M310 102h74M0 103h139M171 103h73M249 103h4M254 103h3M259 103h37M301 103h4M306 103h3M311 103h73M0 104h138M169 104h76M250 104h3M257 104h1M259 104h38M302 104h3M309 104h1M311 104h73M0 105h137M168 105h78M250 105h2M257 105h1M260 105h38M302 105h2M309 105h1M312 105h72M0 106h136M166 106h80M250 106h2M258 106h1M260 106h38M302 106h2M310 106h1M312 106h72M0 107h135M165 107h81M258 107h1M260 107h38M310 107h1M312 107h72M0 108h59M60 108h1M64 108h1M68 108h1M70 108h64M163 108h83M258 108h1M260 108h30M291 108h3M295 108h3M310 108h1M312 108h72M0 109h58M60 109h1M64 109h1M68 109h1M71 109h62M161 109h85M258 109h1M260 109h38M310 109h1M312 109h72M0 110h58M60 110h1M64 110h1M68 110h1M71 110h62M160 110h86M258 110h1M260 110h38M310 110h1M312 110h72M0 111h57M60 111h1M64 111h1M68 111h1M72 111h60M159 111h87M258 111h1M260 111h38M310 111h1M312 111h72M0 112h57M60 112h1M64 112h1M68 112h1M72 112h59M158 112h88M258 112h1M260 112h38M310 112h1M312 112h72M0 113h56M60 113h1M64 113h1M68 113h1M73 113h58M157 113h89M258 113h1M260 113h38M310 113h1M312 113h72M0 114h56M60 114h1M64 114h1M68 114h1M73 114h57M156 114h90M258 114h1M260 114h38M310 114h1M312 114h72M0 115h55M60 115h1M64 115h1M68 115h1M74 115h56M156 115h90M250 115h2M258 115h1M260 115h38M302 115h2M310 115h1M312 115h72M0 116h54M60 116h1M64 116h1M68 116h1M75 116h54M155 116h82M238 116h1M240 116h1M242 116h1M244 116h2M250 116h3M258 116h1M260 116h29M290 116h1M292 116h1M294 116h1M296 116h2M302 116h3M310 116h1M312 116h72M0 117h54M60 117h1M64 117h1M68 117h1M75 117h54M154 117h83M238 117h1M240 117h1M242 117h1M244 117h3M250 117h3M258 117h1M260 117h29M290 117h1M292 117h1M294 117h1M296 117h3M302 117h3M310 117h1M312 117h72M0 118h53M60 118h9M76 118h52M153 118h94M250 118h3M258 118h1M260 118h39M302 118h3M310 118h1M312 118h72M0 119h53M61 119h7M76 119h52M152 119h95M250 119h3M258 119h1M260 119h39M302 119h3M310 119h1M312 119h72M0 120h52M62 120h5M77 120h51M152 120h95M250 120h3M258 120h1M260 120h39M302 120h3M310 120h1M312 120h72M0 121h51M63 121h3M78 121h49M137 121h3M151 121h96M250 121h3M258 121h1M260 121h39M302 121h3M310 121h1M312 121h72M0 122h51M63 122h3M78 122h49M136 122h5M150 122h87M238 122h1M240 122h1M242 122h1M244 122h3M250 122h4M258 122h1M260 122h29M290 122h1M292 122h1M294 122h1M296 122h3M302 122h4M310 122h1M312 122h72M0 123h50M63 123h3M79 123h47M136 123h3M150 123h96M250 123h5M258 123h1M260 123h38M302 123h5M310 123h1M312 123h72M0 124h50M63 124h3M79 124h47M136 124h2M149 124h97M251 124h5M258 124h1M260 124h38M303 124h5M310 124h1M312 124h72M0 125h49M63 125h3M80 125h46M136 125h2M147 125h99M252 125h5M258 125h1M260 125h38M304 125h5M310 125h1M312 125h72M0 126h49M63 126h3M80 126h45M147 126h99M253 126h5M260 126h38M305 126h5M312 126h72M0 127h48M63 127h3M81 127h44M146 127h100M255 127h4M260 127h38M307 127h4M312 127h72M0 128h47M63 128h3M82 128h43M146 128h100M253 128h1M255 128h1M257 128h41M305 128h1M307 128h1M309 128h75M0 129h47M63 129h3M82 129h43M146 129h101M252 129h2M257 129h42M304 129h2M309 129h75M0 130h46M63 130h3M83 130h42M146 130h94M242 130h1M245 130h2M248 130h1M250 130h42M294 130h1M297 130h2M300 130h1M302 130h82M0 131h46M63 131h3M83 131h41M145 131h95M241 131h2M244 131h3M248 131h1M250 131h42M293 131h2M296 131h3M300 131h1M302 131h82M0 132h45M63 132h3M84 132h40M145 132h98M258 132h37M310 132h74M0 133h45M63 133h3M84 133h40M144 133h99M258 133h15M274 133h2M277 133h18M310 133h15M326 133h2M329 133h55M0 134h44M63 134h3M85 134h39M144 134h94M240 134h30M271 134h2M274 134h2M277 134h13M292 134h30M323 134h2M326 134h2M329 134h55M0 135h43M63 135h3M86 135h38M144 135h100M257 135h10M268 135h2M271 135h2M274 135h2M277 135h19M309 135h10M320 135h2M323 135h2M326 135h2M329 135h55M0 136h43M63 136h3M86 136h38M127 136h3M143 136h101M257 136h10M268 136h2M271 136h2M274 136h2M277 136h19M309 136h10M320 136h2M323 136h2M326 136h2M329 136h55M0 137h42M63 137h3M87 137h37M127 137h2M143 137h95M240 137h1M242 137h22M265 137h2M268 137h2M271 137h2M274 137h2M277 137h13M292 137h1M294 137h22M317 137h2M320 137h2M323 137h2M326 137h2M329 137h55M0 138h42M63 138h3M87 138h36M127 138h2M143 138h103M248 138h2M255 138h9M265 138h2M268 138h2M271 138h2M274 138h2M277 138h21M300 138h2M307 138h9M317 138h2M320 138h2M323 138h2M326 138h2M329 138h55M0 139h41M63 139h3M88 139h35M127 139h2M143 139h103M249 139h1M255 139h9M265 139h2M268 139h2M271 139h2M274 139h2M277 139h21M301 139h1M307 139h9M317 139h2M320 139h2M323 139h2M326 139h2M329 139h16M346 139h3M350 139h34M0 140h41M63 140h3M88 140h35M142 140h104M255 140h6M262 140h2M265 140h2M268 140h2M271 140h2M274 140h2M277 140h21M307 140h6M314 140h2M317 140h2M320 140h2M323 140h2M326 140h2M329 140h55M0 141h40M63 141h3M89 141h34M142 141h95M238 141h5M244 141h1M249 141h1M255 141h6M262 141h2M265 141h2M268 141h2M271 141h2M274 141h2M277 141h12M290 141h5M296 141h1M301 141h1M307 141h6M314 141h2M317 141h2M320 141h2M323 141h2M326 141h2M329 141h55M0 142h39M63 142h3M90 142h33M142 142h104M255 142h6M262 142h2M265 142h2M268 142h2M271 142h2M274 142h2M277 142h21M307 142h6M314 142h2M317 142h2M320 142h2M323 142h2M326 142h2M329 142h55M0 143h39M63 143h3M90 143h33M142 143h104M255 143h6M262 143h2M265 143h2M268 143h2M271 143h2M274 143h2M277 143h21M307 143h6M314 143h2M317 143h2M320 143h2M323 143h2M326 143h2M329 143h55M0 144h38M63 144h3M91 144h32M142 144h104M255 144h3M259 144h2M262 144h2M265 144h2M268 144h2M271 144h2M274 144h2M277 144h21M307 144h3M311 144h2M314 144h2M317 144h2M320 144h2M323 144h2M326 144h2M329 144h34M364 144h3M368 144h16M0 145h38M63 145h3M91 145h32M142 145h101M244 145h1M250 145h1M252 145h6M259 145h2M262 145h2M265 145h2M268 145h2M271 145h2M274 145h2M277 145h18M296 145h1M302 145h1M304 145h6M311 145h2M314 145h2M317 145h2M320 145h2M323 145h2M326 145h2M329 145h55M0 146h37M63 146h3M92 146h32M142 146h95M238 146h8M255 146h3M259 146h2M262 146h2M265 146h2M268 146h2M271 146h2M274 146h2M277 146h12M290 146h8M307 146h3M311 146h2M314 146h2M317 146h2M320 146h2M323 146h2M326 146h2M329 146h55M0 147h36M63 147h3M93 147h31M142 147h95M238 147h8M255 147h3M277 147h12M290 147h8M307 147h3M329 147h55M0 148h36M63 148h3M93 148h31M141 148h105M255 148h3M259 148h2M262 148h2M265 148h2M268 148h2M271 148h2M274 148h2M277 148h21M307 148h3M311 148h2M314 148h2M317 148h2M320 148h2M323 148h2M326 148h2M329 148h55M0 149h35M63 149h3M94 149h30M141 149h100M242 149h1M255 149h3M259 149h2M262 149h2M265 149h2M268 149h2M271 149h2M274 149h2M277 149h16M294 149h1M307 149h3M311 149h2M314 149h2M317 149h2M320 149h2M323 149h2M326 149h2M329 149h55M0 150h35M63 150h3M94 150h30M141 150h96M238 150h8M255 150h3M259 150h2M262 150h2M265 150h2M268 150h2M271 150h2M274 150h2M277 150h12M290 150h8M307 150h3M311 150h2M314 150h2M317 150h2M320 150h2M323 150h2M326 150h2M329 150h55M0 151h34M63 151h3M95 151h29M141 151h105M249 151h1M251 151h2M255 151h3M259 151h2M262 151h2M265 151h2M268 151h2M271 151h2M274 151h2M277 151h21M301 151h1M303 151h2M307 151h3M311 151h2M314 151h2M317 151h2M320 151h2M323 151h2M326 151h2M329 151h55M0 152h34M63 152h3M95 152h29M141 152h105M255 152h3M259 152h2M262 152h2M265 152h2M268 152h2M271 152h2M274 152h2M277 152h21M307 152h3M311 152h2M314 152h2M317 152h2M320 152h2M323 152h2M326 152h2M329 152h33M363 152h1M365 152h1M367 152h1M369 152h15M0 153h33M63 153h3M96 153h29M141 153h96M238 153h8M255 153h3M259 153h2M262 153h2M265 153h2M268 153h2M271 153h2M274 153h2M277 153h12M290 153h8M307 153h3M311 153h2M314 153h2M317 153h2M320 153h2M323 153h2M326 153h2M329 153h33M363 153h1M365 153h1M367 153h1M369 153h15M0 154h32M63 154h3M97 154h28M141 154h96M239 154h1M241 154h5M255 154h3M259 154h2M262 154h2M265 154h2M268 154h2M271 154h2M274 154h2M277 154h12M291 154h1M293 154h5M307 154h3M311 154h2M314 154h2M317 154h2M320 154h2M323 154h2M326 154h2M329 154h33M371 154h13M0 155h32M63 155h3M97 155h28M141 155h96M238 155h8M255 155h3M259 155h2M262 155h2M265 155h2M268 155h2M271 155h2M274 155h2M277 155h12M290 155h8M307 155h3M311 155h2M314 155h2M317 155h2M320 155h2M323 155h2M326 155h2M329 155h33M363 155h1M365 155h1M367 155h1M369 155h15M0 156h31M63 156h3M98 156h27M133 156h1M142 156h95M238 156h8M255 156h3M259 156h2M262 156h2M265 156h2M268 156h2M271 156h2M274 156h2M277 156h12M290 156h8M307 156h3M311 156h2M314 156h2M317 156h2M320 156h2M323 156h2M326 156h2M329 156h55M0 157h31M63 157h3M98 157h27M142 157h95M238 157h8M255 157h3M259 157h2M262 157h2M265 157h2M268 157h2M271 157h2M274 157h2M277 157h12M290 157h8M307 157h3M311 157h2M314 157h2M317 157h2M320 157h2M323 157h2M326 157h2M329 157h55M0 158h30M63 158h3M99 158h27M142 158h95M240 158h3M244 158h2M255 158h3M259 158h2M262 158h2M265 158h2M268 158h2M271 158h2M274 158h2M277 158h12M292 158h3M296 158h2M307 158h3M311 158h2M314 158h2M317 158h2M320 158h2M323 158h2M326 158h2M329 158h55M0 159h30M63 159h3M99 159h27M142 159h104M277 159h21M329 159h55M0 160h29M63 160h3M100 160h26M142 160h104M255 160h3M259 160h2M262 160h2M265 160h2M268 160h2M271 160h2M274 160h2M277 160h21M307 160h3M311 160h2M314 160h2M317 160h2M320 160h2M323 160h2M326 160h2M329 160h55M0 161h28M63 161h3M100 161h27M142 161h104M255 161h3M259 161h2M262 161h2M265 161h2M268 161h2M271 161h2M274 161h2M277 161h21M307 161h3M311 161h2M314 161h2M317 161h2M320 161h2M323 161h2M326 161h2M329 161h55M0 162h28M63 162h3M93 162h1M99 162h28M136 162h2M142 162h68M211 162h3M215 162h31M255 162h3M259 162h2M262 162h2M265 162h2M268 162h2M271 162h2M274 162h2M277 162h21M307 162h3M311 162h2M314 162h2M317 162h2M320 162h2M323 162h2M326 162h2M329 162h55M0 163h27M63 163h3M93 163h1M98 163h30M137 163h1M143 163h103M255 163h3M259 163h2M262 163h2M265 163h2M268 163h2M271 163h2M274 163h2M277 163h21M307 163h3M311 163h2M314 163h2M317 163h2M320 163h2M323 163h2M326 163h2M329 163h55M0 164h27M63 164h3M93 164h2M98 164h16M115 164h13M130 164h1M143 164h100M247 164h1M249 164h2M255 164h3M259 164h2M262 164h2M265 164h2M268 164h2M271 164h2M274 164h2M277 164h18M299 164h1M301 164h2M307 164h3M311 164h2M314 164h2M317 164h2M320 164h2M323 164h2M326 164h2M329 164h55M0 165h26M63 165h3M93 165h21M115 165h13M130 165h2M143 165h99M243 165h3M250 165h1M255 165h3M259 165h2M262 165h2M265 165h2M268 165h2M271 165h2M274 165h2M277 165h17M295 165h3M302 165h1M307 165h3M311 165h2M314 165h2M317 165h2M320 165h2M323 165h2M326 165h2M329 165h55M0 166h26M63 166h3M94 166h20M115 166h14M131 166h1M143 166h103M255 166h3M259 166h2M262 166h2M265 166h2M268 166h2M271 166h2M274 166h2M277 166h21M307 166h3M311 166h2M314 166h2M317 166h2M320 166h2M323 166h2M326 166h2M329 166h55M0 167h25M63 167h3M98 167h2M101 167h3M105 167h9M115 167h14M131 167h3M144 167h33M178 167h3M182 167h60M243 167h3M250 167h1M255 167h3M259 167h2M262 167h2M265 167h2M268 167h2M271 167h2M274 167h2M277 167h17M295 167h3M302 167h1M307 167h3M311 167h2M314 167h2M317 167h2M320 167h2M323 167h2M326 167h2M329 167h23M353 167h3M357 167h27M0 168h24M63 168h3M98 168h12M114 168h1M119 168h11M144 168h94M240 168h1M244 168h1M246 168h5M255 168h3M259 168h2M262 168h2M265 168h2M268 168h2M271 168h2M274 168h2M277 168h13M292 168h1M296 168h1M298 168h5M307 168h3M311 168h2M314 168h2M317 168h2M320 168h2M323 168h2M326 168h2M329 168h55M0 169h24M33 169h2M63 169h3M98 169h16M115 169h15M144 169h94M239 169h7M248 169h1M255 169h3M259 169h2M262 169h2M265 169h2M268 169h2M271 169h2M274 169h2M277 169h13M291 169h7M300 169h1M307 169h3M311 169h2M314 169h2M317 169h2M320 169h2M323 169h2M326 169h2M329 169h55M0 170h23M33 170h1M35 170h1M63 170h3M98 170h16M115 170h16M144 170h102M255 170h3M259 170h2M262 170h2M265 170h2M268 170h2M271 170h2M274 170h2M277 170h3M281 170h3M285 170h13M307 170h3M311 170h2M314 170h2M317 170h2M320 170h2M323 170h2M326 170h2M329 170h55M0 171h23M34 171h1M36 171h8M63 171h3M98 171h16M115 171h16M141 171h1M145 171h93M239 171h7M248 171h1M255 171h3M259 171h2M262 171h2M265 171h2M268 171h2M271 171h2M274 171h2M277 171h13M291 171h7M300 171h1M307 171h3M311 171h2M314 171h2M317 171h2M320 171h2M323 171h2M326 171h2M329 171h55M0 172h22M35 172h2M43 172h1M63 172h3M98 172h16M115 172h17M145 172h94M240 172h1M242 172h1M247 172h2M255 172h3M259 172h2M262 172h2M265 172h2M268 172h2M271 172h2M274 172h2M277 172h14M292 172h1M294 172h1M299 172h2M307 172h3M311 172h2M314 172h2M317 172h2M320 172h2M323 172h2M326 172h2M329 172h6M336 172h3M340 172h44M0 173h21M30 173h4M35 173h1M43 173h1M45 173h3M63 173h3M98 173h35M146 173h100M255 173h3M259 173h2M262 173h2M265 173h2M268 173h2M271 173h2M274 173h2M277 173h21M307 173h3M311 173h2M314 173h2M317 173h2M320 173h2M323 173h2M326 173h2M329 173h55M0 174h21M30 174h1M33 174h1M35 174h1M43 174h1M45 174h1M47 174h1M63 174h3M98 174h35M146 174h100M255 174h3M259 174h2M262 174h2M265 174h2M268 174h2M271 174h2M274 174h2M277 174h21M307 174h3M311 174h2M314 174h2M317 174h2M320 174h2M323 174h2M326 174h2M329 174h55M0 175h20M30 175h1M33 175h3M43 175h3M47 175h1M63 175h3M98 175h1M100 175h1M102 175h1M104 175h1M106 175h1M108 175h26M146 175h100M255 175h3M259 175h2M262 175h2M265 175h2M268 175h2M271 175h2M274 175h2M277 175h21M307 175h3M311 175h2M314 175h2M317 175h2M320 175h2M323 175h2M326 175h2M329 175h22M352 175h1M354 175h1M356 175h1M358 175h26M0 176h20M30 176h1M47 176h1M63 176h3M98 176h1M100 176h1M102 176h1M104 176h1M106 176h1M109 176h26M147 176h99M255 176h3M259 176h2M262 176h2M265 176h2M268 176h2M271 176h2M274 176h2M277 176h21M307 176h3M311 176h2M314 176h2M317 176h2M320 176h2M323 176h2M326 176h2M329 176h22M352 176h1M354 176h1M356 176h1M358 176h11M370 176h3M374 176h10M0 177h19M30 177h18M56 177h3M63 177h3M109 177h27M147 177h99M255 177h3M259 177h2M262 177h2M265 177h2M268 177h2M271 177h2M274 177h2M277 177h21M307 177h3M311 177h2M314 177h2M317 177h2M320 177h2M323 177h2M326 177h2M329 177h22M360 177h24M0 178h19M35 178h1M38 178h2M42 178h2M47 178h3M56 178h1M58 178h1M63 178h3M109 178h28M148 178h98M255 178h3M259 178h2M262 178h2M265 178h2M268 178h2M271 178h2M274 178h2M277 178h21M307 178h3M311 178h2M314 178h2M317 178h2M320 178h2M323 178h2M326 178h2M329 178h22M360 178h24M0 179h18M35 179h1M43 179h1M46 179h2M49 179h10M63 179h3M109 179h29M149 179h99M249 179h1M255 179h3M259 179h2M262 179h2M265 179h2M268 179h2M271 179h2M274 179h2M277 179h23M301 179h1M307 179h3M311 179h2M314 179h2M317 179h2M320 179h2M323 179h2M326 179h2M329 179h22M360 179h24M0 180h17M35 180h1M43 180h1M46 180h1M49 180h1M53 180h1M58 180h1M63 180h3M109 180h30M150 180h96M255 180h3M259 180h2M262 180h2M265 180h2M268 180h2M271 180h2M274 180h2M277 180h21M307 180h3M311 180h2M314 180h2M317 180h2M320 180h2M323 180h2M326 180h2M329 180h22M360 180h24M0 181h17M34 181h1M36 181h1M43 181h1M46 181h4M52 181h7M63 181h3M98 181h1M100 181h1M102 181h1M104 181h1M106 181h1M109 181h31M151 181h73M225 181h3M229 181h17M255 181h3M259 181h2M262 181h2M265 181h2M268 181h2M271 181h2M274 181h2M277 181h21M307 181h3M311 181h2M314 181h2M317 181h2M320 181h2M323 181h2M326 181h2M329 181h22M352 181h1M354 181h1M356 181h1M358 181h26M0 182h16M33 182h1M37 182h1M43 182h1M48 182h2M53 182h1M63 182h3M98 182h43M151 182h95M255 182h3M259 182h2M262 182h2M265 182h2M268 182h2M271 182h2M274 182h2M277 182h21M307 182h3M311 182h2M314 182h2M317 182h2M320 182h2M323 182h2M326 182h2M329 182h55M0 183h16M33 183h1M38 183h6M47 183h2M50 183h4M63 183h3M98 183h44M152 183h94M277 183h21M329 183h55M0 184h15M33 184h1M40 184h1M42 184h1M47 184h1M49 184h2M63 184h3M98 184h45M152 184h94M255 184h3M259 184h2M262 184h2M265 184h2M268 184h2M271 184h2M274 184h2M277 184h21M307 184h3M311 184h2M314 184h2M317 184h2M320 184h2M323 184h2M326 184h2M329 184h55M0 185h15M33 185h1M40 185h1M42 185h1M47 185h3M63 185h3M98 185h46M153 185h84M238 185h1M241 185h5M247 185h1M250 185h1M252 185h1M255 185h3M259 185h2M262 185h2M265 185h2M268 185h2M271 185h2M274 185h2M277 185h12M290 185h1M293 185h5M299 185h1M302 185h1M304 185h1M307 185h3M311 185h2M314 185h2M317 185h2M320 185h2M323 185h2M326 185h2M329 185h55M0 186h14M33 186h1M40 186h1M42 186h1M63 186h3M98 186h48M154 186h90M257 186h1M259 186h2M262 186h2M265 186h2M268 186h2M271 186h2M274 186h2M277 186h19M309 186h1M311 186h2M314 186h2M317 186h2M320 186h2M323 186h2M326 186h2M329 186h55M0 187h13M33 187h1M40 187h1M42 187h1M63 187h3M99 187h16M116 187h31M155 187h80M236 187h1M240 187h4M246 187h1M248 187h2M251 187h1M253 187h2M257 187h1M259 187h2M262 187h2M265 187h2M268 187h2M271 187h2M274 187h2M277 187h10M288 187h1M292 187h4M298 187h1M300 187h2M303 187h1M305 187h2M309 187h1M311 187h2M314 187h2M317 187h2M320 187h2M323 187h2M326 187h2M329 187h55M0 188h13M33 188h9M63 188h3M100 188h14M116 188h34M156 188h86M259 188h2M262 188h2M265 188h2M268 188h2M271 188h2M274 188h2M277 188h17M311 188h2M314 188h2M317 188h2M320 188h2M323 188h2M326 188h2M329 188h55M0 189h12M34 189h1M36 189h2M39 189h1M41 189h2M63 189h3M102 189h2M105 189h2M109 189h4M117 189h34M157 189h85M259 189h2M262 189h2M265 189h2M268 189h2M271 189h2M274 189h2M277 189h17M311 189h2M314 189h2M317 189h2M320 189h2M323 189h2M326 189h2M329 189h55M0 190h12M34 190h1M37 190h1M39 190h1M42 190h1M63 190h3M102 190h1M105 190h1M109 190h1M111 190h1M117 190h36M158 190h84M259 190h35M311 190h73M0 191h156M159 191h225M0 192h158M160 192h224M0 193h384M0 194h384M0 195h384M0 196h384M0 197h384M0 198h384M0 199h384M0 200h384M0 201h384M0 202h384M0 203h384M0 204h384M0 205h384M0 206h384M0 207h384M0 208h384M0 209h384M0 210h384M0 211h384M0 212h384M0 213h384M0 214h384M0 215h384" />
<path stroke="#ffffff" d="M86 9h6M159 9h2M85 10h2M89 10h3M158 10h3M85 11h1M91 11h3M107 11h12M158 11h3M92 12h6M101 12h3M92 13h5M100 13h4M93 14h3M99 14h5M109 14h10M121 14h4M127 14h34M94 15h1M98 15h6M107 15h5M118 15h1M127 15h34M94 16h1M98 16h6M107 16h5M118 16h1M127 16h34M94 17h1M98 17h6M107 17h5M113 17h6M121 17h4M98 18h6M107 18h12M121 18h4M98 19h6M107 19h12M121 19h4M127 19h33M98 20h6M107 20h12M127 20h33M98 21h6M107 21h5M118 21h1M98 22h6M107 22h5M118 22h1M99 23h5M107 23h5M113 23h6M121 23h3M100 24h4M107 24h12M101 25h3M107 25h12M98 29h17M97 30h1M100 30h7M97 31h1M100 31h7M92 32h4M97 32h6M90 33h3M95 33h1M97 33h3M103 33h4M113 33h2M89 34h2M95 34h1M97 34h3M102 34h2M105 34h1M113 34h2M88 35h2M95 35h1M101 35h2M105 35h1M113 35h2M87 36h2M95 36h2M101 36h2M105 36h1M113 36h2M124 36h6M136 36h3M145 36h3M154 36h6M166 36h9M213 36h12M243 36h6M261 36h12M285 36h3M300 36h3M86 37h2M96 37h7M105 37h1M113 37h2M124 37h6M136 37h3M145 37h3M154 37h6M166 37h9M213 37h12M243 37h6M261 37h12M285 37h3M300 37h3M86 38h1M97 38h2M102 38h1M106 38h1M112 38h2M124 38h6M136 38h3M145 38h3M154 38h6M166 38h9M213 38h12M243 38h6M261 38h12M285 38h3M300 38h3M85 39h2M97 39h1M102 39h2M111 39h2M121 39h3M130 39h3M136 39h3M145 39h3M151 39h3M160 39h3M169 39h3M213 39h3M225 39h3M240 39h3M249 39h3M261 39h3M273 39h3M285 39h3M300 39h3M85 40h1M96 40h2M103 40h2M109 40h3M121 40h3M130 40h3M136 40h3M145 40h3M151 40h3M160 40h3M169 40h3M213 40h3M225 40h3M240 40h3M249 40h3M261 40h3M273 40h3M285 40h3M300 40h3M85 41h1M95 41h2M104 41h6M121 41h3M130 41h3M136 41h3M145 41h3M151 41h3M160 41h3M169 41h3M213 41h3M225 41h3M240 41h3M249 41h3M261 41h3M273 41h3M285 41h3M300 41h3M84 42h2M95 42h1M121 42h3M130 42h3M136 42h3M145 42h3M151 42h3M160 42h3M169 42h3M213 42h3M228 42h3M237 42h3M252 42h3M261 42h3M276 42h3M285 42h3M300 42h3M84 43h1M94 43h2M121 43h3M130 43h3M136 43h3M145 43h3M151 43h3M160 43h3M169 43h3M213 43h3M228 43h3M237 43h3M252 43h3M261 43h3M276 43h3M285 43h3M300 43h3M84 44h1M89 44h2M94 44h1M121 44h3M130 44h3M136 44h3M145 44h3M151 44h3M160 44h3M169 44h3M213 44h3M228 44h3M237 44h3M252 44h3M261 44h3M276 44h3M285 44h3M300 44h3M83 45h2M89 45h2M94 45h1M121 45h3M130 45h3M136 45h3M145 45h3M151 45h3M160 45h3M169 45h3M213 45h3M228 45h3M237 45h3M252 45h3M261 45h3M276 45h3M285 45h3M300 45h3M83 46h1M94 46h1M121 46h3M130 46h3M136 46h3M145 46h3M151 46h3M160 46h3M169 46h3M213 46h3M228 46h3M237 46h3M252 46h3M261 46h3M276 46h3M285 46h3M300 46h3M83 47h1M94 47h1M121 47h3M130 47h3M136 47h3M145 47h3M151 47h3M160 47h3M169 47h3M180 47h3M189 47h6M213 47h3M228 47h3M237 47h3M252 47h3M261 47h3M276 47h3M285 47h3M300 47h3M82 48h2M94 48h1M121 48h3M136 48h3M145 48h3M151 48h3M160 48h3M169 48h3M180 48h3M189 48h6M213 48h3M228 48h3M237 48h3M252 48h3M261 48h3M276 48h3M285 48h3M300 48h3M82 49h1M94 49h1M121 49h3M136 49h3M145 49h3M151 49h3M160 49h3M169 49h3M180 49h3M189 49h6M213 49h3M228 49h3M237 49h3M252 49h3M261 49h3M276 49h3M285 49h3M300 49h3M82 50h1M94 50h1M121 50h3M136 50h3M145 50h3M151 50h3M160 50h3M169 50h3M186 50h3M192 50h3M213 50h3M228 50h3M237 50h3M252 50h3M261 50h3M276 50h3M285 50h3M300 50h3M82 51h1M94 51h2M121 51h3M136 51h3M145 51h3M151 51h3M160 51h3M169 51h3M186 51h3M192 51h3M213 51h3M228 51h3M237 51h3M252 51h3M261 51h3M276 51h3M285 51h3M300 51h3M82 52h1M95 52h1M121 52h3M136 52h3M145 52h3M151 52h3M160 52h3M169 52h3M186 52h3M192 52h3M213 52h3M228 52h3M237 52h3M252 52h3M261 52h3M276 52h3M285 52h3M300 52h3M82 53h1M95 53h1M121 53h3M136 53h3M145 53h3M151 53h3M160 53h3M169 53h3M180 53h3M186 53h3M192 53h3M213 53h3M228 53h3M237 53h3M252 53h3M261 53h3M276 53h3M285 53h3M300 53h3M82 54h1M95 54h1M121 54h3M136 54h3M145 54h3M151 54h3M160 54h3M169 54h3M180 54h3M186 54h3M192 54h3M213 54h3M228 54h3M237 54h3M252 54h3M261 54h3M276 54h3M285 54h3M297 54h3M82 55h1M87 55h2M95 55h1M121 55h3M136 55h3M145 55h3M151 55h3M160 55h3M169 55h3M180 55h3M186 55h3M192 55h3M213 55h3M228 55h3M237 55h3M252 55h3M261 55h3M276 55h3M285 55h3M297 55h3M82 56h1M87 56h2M95 56h2M121 56h3M136 56h3M145 56h3M151 56h3M160 56h3M169 56h3M180 56h3M186 56h3M192 56h3M213 56h3M228 56h3M237 56h3M252 56h3M261 56h3M276 56h3M285 56h3M297 56h3M82 57h1M96 57h1M124 57h3M136 57h3M145 57h3M151 57h3M160 57h3M169 57h3M180 57h3M186 57h3M192 57h3M213 57h3M228 57h3M237 57h3M252 57h3M261 57h3M273 57h3M285 57h3M294 57h3M82 58h1M96 58h1M124 58h3M136 58h3M145 58h3M151 58h3M160 58h3M169 58h3M180 58h3M186 58h3M192 58h3M213 58h3M228 58h3M237 58h3M252 58h3M261 58h3M273 58h3M285 58h3M294 58h3M82 59h1M96 59h2M124 59h3M136 59h3M145 59h3M151 59h3M160 59h3M169 59h3M180 59h3M186 59h3M192 59h3M213 59h3M228 59h3M237 59h3M252 59h3M261 59h3M273 59h3M285 59h3M294 59h3M82 60h1M97 60h1M127 60h3M136 60h12M151 60h3M160 60h3M169 60h3M180 60h3M186 60h3M192 60h3M213 60h3M228 60h3M237 60h18M261 60h12M285 60h9M82 61h16M127 61h3M136 61h12M151 61h3M160 61h3M169 61h3M180 61h3M186 61h3M192 61h3M213 61h3M228 61h3M237 61h18M261 61h12M285 61h9M127 62h3M136 62h12M151 62h3M160 62h3M169 62h3M213 62h3M228 62h3M237 62h18M261 62h12M285 62h9M130 63h3M136 63h3M145 63h3M151 63h3M160 63h3M169 63h3M213 63h3M228 63h3M237 63h3M252 63h3M261 63h3M273 63h3M285 63h3M294 63h3M130 64h3M136 64h3M145 64h3M151 64h3M160 64h3M169 64h3M213 64h3M228 64h3M237 64h3M252 64h3M261 64h3M273 64h3M285 64h3M294 64h3M130 65h3M136 65h3M145 65h3M151 65h3M160 65h3M169 65h3M213 65h3M228 65h3M237 65h3M252 65h3M261 65h3M273 65h3M285 65h3M294 65h3M130 66h3M136 66h3M145 66h3M151 66h3M160 66h3M169 66h3M180 66h3M189 66h3M195 66h3M201 66h6M213 66h3M228 66h3M237 66h3M252 66h3M261 66h3M276 66h3M285 66h3M297 66h3M130 67h3M136 67h3M145 67h3M151 67h3M160 67h3M169 67h3M180 67h3M189 67h3M195 67h3M201 67h6M213 67h3M228 67h3M237 67h3M252 67h3M261 67h3M276 67h3M285 67h3M297 67h3M130 68h3M136 68h3M145 68h3M151 68h3M160 68h3M169 68h3M180 68h3M189 68h3M195 68h3M201 68h6M213 68h3M228 68h3M237 68h3M252 68h3M261 68h3M276 68h3M285 68h3M297 68h3M130 69h3M136 69h3M145 69h3M151 69h3M160 69h3M169 69h3M177 69h9M189 69h3M195 69h3M201 69h3M213 69h3M228 69h3M237 69h3M252 69h3M261 69h3M276 69h3M285 69h3M300 69h3M130 70h3M136 70h3M145 70h3M151 70h3M160 70h3M169 70h3M177 70h9M189 70h3M195 70h3M201 70h3M213 70h3M228 70h3M237 70h3M252 70h3M261 70h3M276 70h3M285 70h3M300 70h3M130 71h3M136 71h3M145 71h3M151 71h3M160 71h3M169 71h3M177 71h9M189 71h3M195 71h3M201 71h3M213 71h3M228 71h3M237 71h3M252 71h3M261 71h3M276 71h3M285 71h3M300 71h3M121 72h3M130 72h3M136 72h3M145 72h3M151 72h3M160 72h3M169 72h3M180 72h3M189 72h9M201 72h6M213 72h3M228 72h3M237 72h3M252 72h3M261 72h3M276 72h3M285 72h3M300 72h3M121 73h3M130 73h3M136 73h3M145 73h3M151 73h3M160 73h3M169 73h3M180 73h3M189 73h9M201 73h6M213 73h3M228 73h3M237 73h3M252 73h3M261 73h3M276 73h3M285 73h3M300 73h3M121 74h3M130 74h3M136 74h3M145 74h3M151 74h3M160 74h3M169 74h3M180 74h3M189 74h9M201 74h6M213 74h3M228 74h3M237 74h3M252 74h3M261 74h3M276 74h3M285 74h3M300 74h3M121 75h3M130 75h3M136 75h3M145 75h3M151 75h3M160 75h3M169 75h3M180 75h3M189 75h3M195 75h3M201 75h3M213 75h3M225 75h3M237 75h3M252 75h3M261 75h3M276 75h3M285 75h3M300 75h3M121 76h3M130 76h3M136 76h3M145 76h3M151 76h3M160 76h3M169 76h3M180 76h3M189 76h3M195 76h3M201 76h3M213 76h3M225 76h3M237 76h3M252 76h3M261 76h3M276 76h3M285 76h3M300 76h3M121 77h3M130 77h3M136 77h3M145 77h3M151 77h3M160 77h3M169 77h3M180 77h3M189 77h3M195 77h3M201 77h3M213 77h3M225 77h3M237 77h3M252 77h3M261 77h3M276 77h3M285 77h3M300 77h3M124 78h6M136 78h3M145 78h3M154 78h6M169 78h3M180 78h3M189 78h3M195 78h3M201 78h6M213 78h12M237 78h3M252 78h3M261 78h3M276 78h3M285 78h3M300 78h3M124 79h6M136 79h3M145 79h3M154 79h6M169 79h3M180 79h3M189 79h3M195 79h3M201 79h6M213 79h12M237 79h3M252 79h3M261 79h3M276 79h3M285 79h3M300 79h3M124 80h6M136 80h3M145 80h3M154 80h6M169 80h3M180 80h3M189 80h3M195 80h3M201 80h6M213 80h12M237 80h3M252 80h3M261 80h3M276 80h3M285 80h3M300 80h3M173 88h8M166 89h22M161 90h32M158 91h38M156 92h42M153 93h48M151 94h53M150 95h55M147 96h60M146 97h46M199 97h9M144 98h40M207 98h3M143 99h37M238 99h1M249 99h1M290 99h1M301 99h1M142 100h35M238 100h1M249 100h1M290 100h1M301 100h1M141 101h36M238 101h2M248 101h2M254 101h3M290 101h2M300 101h2M306 101h3M140 102h34M239 102h10M253 102h5M291 102h10M305 102h5M139 103h32M244 103h5M253 103h1M257 103h2M296 103h5M305 103h1M309 103h2M138 104h31M245 104h5M253 104h4M258 104h1M297 104h5M305 104h4M310 104h1M137 105h31M246 105h4M252 105h5M258 105h2M298 105h4M304 105h5M310 105h2M136 106h30M246 106h4M252 106h6M259 106h1M298 106h4M304 106h6M311 106h1M135 107h30M246 107h12M259 107h1M298 107h12M311 107h1M59 108h1M61 108h3M65 108h3M69 108h1M134 108h29M246 108h12M259 108h1M298 108h12M311 108h1M58 109h2M61 109h3M65 109h3M69 109h2M133 109h28M246 109h12M259 109h1M298 109h12M311 109h1M58 110h2M61 110h3M65 110h3M69 110h2M133 110h27M246 110h12M259 110h1M298 110h12M311 110h1M57 111h3M61 111h3M65 111h3M69 111h3M132 111h27M246 111h12M259 111h1M298 111h12M311 111h1M57 112h3M61 112h3M65 112h3M69 112h3M131 112h27M246 112h12M259 112h1M298 112h12M311 112h1M56 113h4M61 113h3M65 113h3M69 113h4M131 113h26M246 113h12M259 113h1M298 113h12M311 113h1M56 114h4M61 114h3M65 114h3M69 114h4M130 114h26M246 114h12M259 114h1M298 114h12M311 114h1M55 115h5M61 115h3M65 115h3M69 115h5M130 115h26M246 115h4M252 115h6M259 115h1M298 115h4M304 115h6M311 115h1M54 116h6M61 116h3M65 116h3M69 116h6M129 116h26M237 116h1M239 116h1M241 116h1M243 116h1M246 116h4M253 116h5M259 116h1M289 116h1M291 116h1M293 116h1M295 116h1M298 116h4M305 116h5M311 116h1M54 117h6M61 117h3M65 117h3M69 117h6M129 117h25M237 117h1M239 117h1M241 117h1M243 117h1M247 117h3M253 117h5M259 117h1M289 117h1M291 117h1M293 117h1M295 117h1M299 117h3M305 117h5M311 117h1M53 118h7M69 118h7M128 118h25M247 118h3M253 118h5M259 118h1M299 118h3M305 118h5M311 118h1M53 119h8M68 119h8M128 119h24M247 119h3M253 119h5M259 119h1M299 119h3M305 119h5M311 119h1M52 120h10M67 120h10M128 120h24M247 120h3M253 120h5M259 120h1M299 120h3M305 120h5M311 120h1M51 121h12M66 121h12M127 121h10M140 121h11M247 121h3M253 121h5M259 121h1M299 121h3M305 121h5M311 121h1M51 122h12M66 122h12M127 122h9M141 122h9M237 122h1M239 122h1M241 122h1M243 122h1M247 122h3M254 122h4M259 122h1M289 122h1M291 122h1M293 122h1M295 122h1M299 122h3M306 122h4M311 122h1M50 123h13M66 123h13M126 123h10M139 123h11M246 123h4M255 123h3M259 123h1M298 123h4M307 123h3M311 123h1M50 124h13M66 124h13M126 124h10M138 124h11M246 124h5M256 124h2M259 124h1M298 124h5M308 124h2M311 124h1M49 125h14M66 125h14M126 125h10M138 125h9M246 125h6M257 125h1M259 125h1M298 125h6M309 125h1M311 125h1M49 126h14M66 126h14M125 126h22M246 126h7M258 126h2M298 126h7M310 126h2M48 127h15M66 127h15M125 127h21M246 127h9M259 127h1M298 127h9M311 127h1M47 128h16M66 128h16M125 128h21M246 128h7M254 128h1M256 128h1M298 128h7M306 128h1M308 128h1M47 129h16M66 129h16M125 129h21M247 129h5M254 129h3M299 129h5M306 129h3M46 130h17M66 130h17M125 130h21M240 130h2M243 130h2M247 130h1M249 130h1M292 130h2M295 130h2M299 130h1M301 130h1M46 131h17M66 131h17M124 131h21M240 131h1M243 131h1M247 131h1M249 131h1M292 131h1M295 131h1M299 131h1M301 131h1M45 132h18M66 132h18M124 132h21M243 132h15M295 132h15M45 133h18M66 133h18M124 133h20M243 133h15M276 133h1M295 133h15M328 133h1M44 134h19M66 134h19M124 134h20M238 134h2M270 134h1M273 134h1M276 134h1M290 134h2M322 134h1M325 134h1M328 134h1M43 135h20M66 135h20M124 135h20M244 135h13M267 135h1M270 135h1M273 135h1M276 135h1M296 135h13M319 135h1M322 135h1M325 135h1M328 135h1M43 136h20M66 136h20M124 136h3M130 136h13M244 136h13M267 136h1M270 136h1M273 136h1M276 136h1M296 136h13M319 136h1M322 136h1M325 136h1M328 136h1M42 137h21M66 137h21M124 137h3M129 137h14M238 137h2M241 137h1M264 137h1M267 137h1M270 137h1M273 137h1M276 137h1M290 137h2M293 137h1M316 137h1M319 137h1M322 137h1M325 137h1M328 137h1M42 138h21M66 138h21M123 138h4M129 138h14M246 138h2M250 138h5M264 138h1M267 138h1M270 138h1M273 138h1M276 138h1M298 138h2M302 138h5M316 138h1M319 138h1M322 138h1M325 138h1M328 138h1M41 139h22M66 139h22M123 139h4M129 139h14M246 139h3M250 139h5M264 139h1M267 139h1M270 139h1M273 139h1M276 139h1M298 139h3M302 139h5M316 139h1M319 139h1M322 139h1M325 139h1M328 139h1M41 140h22M66 140h22M123 140h19M246 140h9M261 140h1M264 140h1M267 140h1M270 140h1M273 140h1M276 140h1M298 140h9M313 140h1M316 140h1M319 140h1M322 140h1M325 140h1M328 140h1M40 141h23M66 141h23M123 141h19M237 141h1M243 141h1M245 141h4M250 141h5M261 141h1M264 141h1M267 141h1M270 141h1M273 141h1M276 141h1M289 141h1M295 141h1M297 141h4M302 141h5M313 141h1M316 141h1M319 141h1M322 141h1M325 141h1M328 141h1M39 142h24M66 142h24M123 142h19M246 142h9M261 142h1M264 142h1M267 142h1M270 142h1M273 142h1M276 142h1M298 142h9M313 142h1M316 142h1M319 142h1M322 142h1M325 142h1M328 142h1M39 143h24M66 143h24M123 143h19M246 143h9M261 143h1M264 143h1M267 143h1M270 143h1M273 143h1M276 143h1M298 143h9M313 143h1M316 143h1M319 143h1M322 143h1M325 143h1M328 143h1M38 144h25M66 144h25M123 144h19M246 144h9M261 144h1M264 144h1M267 144h1M270 144h1M273 144h1M276 144h1M298 144h9M313 144h1M316 144h1M319 144h1M322 144h1M325 144h1M328 144h1M38 145h25M66 145h25M123 145h19M243 145h1M245 145h5M251 145h1M258 145h1M261 145h1M264 145h1M267 145h1M270 145h1M273 145h1M276 145h1M295 145h1M297 145h5M303 145h1M310 145h1M313 145h1M316 145h1M319 145h1M322 145h1M325 145h1M328 145h1M37 146h26M66 146h26M124 146h18M237 146h1M246 146h9M258 146h1M261 146h1M264 146h1M267 146h1M270 146h1M273 146h1M276 146h1M289 146h1M298 146h9M310 146h1M313 146h1M316 146h1M319 146h1M322 146h1M325 146h1M328 146h1M36 147h27M66 147h27M124 147h18M237 147h1M246 147h9M258 147h19M289 147h1M298 147h9M310 147h19M36 148h27M66 148h27M124 148h17M246 148h9M258 148h1M261 148h1M264 148h1M267 148h1M270 148h1M273 148h1M276 148h1M298 148h9M310 148h1M313 148h1M316 148h1M319 148h1M322 148h1M325 148h1M328 148h1M35 149h28M66 149h28M124 149h17M241 149h1M243 149h12M258 149h1M261 149h1M264 149h1M267 149h1M270 149h1M273 149h1M276 149h1M293 149h1M295 149h12M310 149h1M313 149h1M316 149h1M319 149h1M322 149h1M325 149h1M328 149h1M35 150h28M66 150h28M124 150h17M237 150h1M246 150h9M258 150h1M261 150h1M264 150h1M267 150h1M270 150h1M273 150h1M276 150h1M289 150h1M298 150h9M310 150h1M313 150h1M316 150h1M319 150h1M322 150h1M325 150h1M328 150h1M34 151h29M66 151h29M124 151h17M246 151h3M250 151h1M253 151h2M258 151h1M261 151h1M264 151h1M267 151h1M270 151h1M273 151h1M276 151h1M298 151h3M302 151h1M305 151h2M310 151h1M313 151h1M316 151h1M319 151h1M322 151h1M325 151h1M328 151h1M34 152h29M66 152h29M124 152h17M246 152h9M258 152h1M261 152h1M264 152h1M267 152h1M270 152h1M273 152h1M276 152h1M298 152h9M310 152h1M313 152h1M316 152h1M319 152h1M322 152h1M325 152h1M328 152h1M33 153h30M66 153h30M125 153h16M237 153h1M246 153h9M258 153h1M261 153h1M264 153h1M267 153h1M270 153h1M273 153h1M276 153h1M289 153h1M298 153h9M310 153h1M313 153h1M316 153h1M319 153h1M322 153h1M325 153h1M328 153h1M32 154h31M66 154h31M125 154h16M237 154h2M240 154h1M246 154h9M258 154h1M261 154h1M264 154h1M267 154h1M270 154h1M273 154h1M276 154h1M289 154h2M292 154h1M298 154h9M310 154h1M313 154h1M316 154h1M319 154h1M322 154h1M325 154h1M328 154h1M32 155h31M66 155h31M125 155h16M237 155h1M246 155h9M258 155h1M261 155h1M264 155h1M267 155h1M270 155h1M273 155h1M276 155h1M289 155h1M298 155h9M310 155h1M313 155h1M316 155h1M319 155h1M322 155h1M325 155h1M328 155h1M31 156h32M66 156h32M125 156h8M134 156h8M237 156h1M246 156h9M258 156h1M261 156h1M264 156h1M267 156h1M270 156h1M273 156h1M276 156h1M289 156h1M298 156h9M310 156h1M313 156h1M316 156h1M319 156h1M322 156h1M325 156h1M328 156h1M31 157h32M66 157h32M125 157h17M237 157h1M246 157h9M258 157h1M261 157h1M264 157h1M267 157h1M270 157h1M273 157h1M276 157h1M289 157h1M298 157h9M310 157h1M313 157h1M316 157h1M319 157h1M322 157h1M325 157h1M328 157h1M30 158h33M66 158h33M126 158h16M237 158h3M243 158h1M246 158h9M258 158h1M261 158h1M264 158h1M267 158h1M270 158h1M273 158h1M276 158h1M289 158h3M295 158h1M298 158h9M310 158h1M313 158h1M316 158h1M319 158h1M322 158h1M325 158h1M328 158h1M30 159h33M66 159h33M126 159h16M246 159h31M298 159h31M29 160h34M66 160h34M126 160h16M246 160h9M258 160h1M261 160h1M264 160h1M267 160h1M270 160h1M273 160h1M276 160h1M298 160h9M310 160h1M313 160h1M316 160h1M319 160h1M322 160h1M325 160h1M328 160h1M28 161h35M66 161h34M127 161h15M246 161h9M258 161h1M261 161h1M264 161h1M267 161h1M270 161h1M273 161h1M276 161h1M298 161h9M310 161h1M313 161h1M316 161h1M319 161h1M322 161h1M325 161h1M328 161h1M28 162h35M66 162h27M94 162h5M127 162h9M138 162h4M246 162h9M258 162h1M261 162h1M264 162h1M267 162h1M270 162h1M273 162h1M276 162h1M298 162h9M310 162h1M313 162h1M316 162h1M319 162h1M322 162h1M325 162h1M328 162h1M27 163h36M66 163h27M94 163h4M128 163h9M138 163h5M246 163h9M258 163h1M261 163h1M264 163h1M267 163h1M270 163h1M273 163h1M276 163h1M298 163h9M310 163h1M313 163h1M316 163h1M319 163h1M322 163h1M325 163h1M328 163h1M27 164h36M66 164h27M95 164h3M114 164h1M128 164h2M131 164h12M243 164h4M248 164h1M251 164h4M258 164h1M261 164h1M264 164h1M267 164h1M270 164h1M273 164h1M276 164h1M295 164h4M300 164h1M303 164h4M310 164h1M313 164h1M316 164h1M319 164h1M322 164h1M325 164h1M328 164h1M26 165h37M66 165h27M114 165h1M128 165h2M132 165h11M242 165h1M246 165h4M251 165h4M258 165h1M261 165h1M264 165h1M267 165h1M270 165h1M273 165h1M276 165h1M294 165h1M298 165h4M303 165h4M310 165h1M313 165h1M316 165h1M319 165h1M322 165h1M325 165h1M328 165h1M26 166h37M66 166h28M114 166h1M129 166h2M132 166h11M246 166h9M258 166h1M261 166h1M264 166h1M267 166h1M270 166h1M273 166h1M276 166h1M298 166h9M310 166h1M313 166h1M316 166h1M319 166h1M322 166h1M325 166h1M328 166h1M25 167h38M66 167h32M114 167h1M129 167h2M134 167h10M242 167h1M246 167h4M251 167h4M258 167h1M261 167h1M264 167h1M267 167h1M270 167h1M273 167h1M276 167h1M294 167h1M298 167h4M303 167h4M310 167h1M313 167h1M316 167h1M319 167h1M322 167h1M325 167h1M328 167h1M24 168h39M66 168h32M110 168h4M115 168h4M130 168h14M238 168h2M241 168h3M245 168h1M251 168h4M258 168h1M261 168h1M264 168h1M267 168h1M270 168h1M273 168h1M276 168h1M290 168h2M293 168h3M297 168h1M303 168h4M310 168h1M313 168h1M316 168h1M319 168h1M322 168h1M325 168h1M328 168h1M24 169h9M35 169h28M66 169h32M114 169h1M130 169h14M238 169h1M246 169h2M249 169h6M258 169h1M261 169h1M264 169h1M267 169h1M270 169h1M273 169h1M276 169h1M290 169h1M298 169h2M301 169h6M310 169h1M313 169h1M316 169h1M319 169h1M322 169h1M325 169h1M328 169h1M23 170h10M34 170h1M36 170h27M66 170h32M114 170h1M131 170h13M246 170h9M258 170h1M261 170h1M264 170h1M267 170h1M270 170h1M273 170h1M276 170h1M298 170h9M310 170h1M313 170h1M316 170h1M319 170h1M322 170h1M325 170h1M328 170h1M23 171h11M35 171h1M44 171h19M66 171h32M114 171h1M131 171h10M142 171h3M238 171h1M246 171h2M249 171h6M258 171h1M261 171h1M264 171h1M267 171h1M270 171h1M273 171h1M276 171h1M290 171h1M298 171h2M301 171h6M310 171h1M313 171h1M316 171h1M319 171h1M322 171h1M325 171h1M328 171h1M22 172h13M37 172h6M44 172h19M66 172h32M114 172h1M132 172h13M239 172h1M241 172h1M243 172h4M249 172h6M258 172h1M261 172h1M264 172h1M267 172h1M270 172h1M273 172h1M276 172h1M291 172h1M293 172h1M295 172h4M301 172h6M310 172h1M313 172h1M316 172h1M319 172h1M322 172h1M325 172h1M328 172h1M21 173h9M34 173h1M36 173h7M44 173h1M48 173h15M66 173h32M133 173h13M246 173h9M258 173h1M261 173h1M264 173h1M267 173h1M270 173h1M273 173h1M276 173h1M298 173h9M310 173h1M313 173h1M316 173h1M319 173h1M322 173h1M325 173h1M328 173h1M21 174h9M31 174h2M34 174h1M36 174h7M44 174h1M46 174h1M48 174h15M66 174h32M133 174h13M246 174h9M258 174h1M261 174h1M264 174h1M267 174h1M270 174h1M273 174h1M276 174h1M298 174h9M310 174h1M313 174h1M316 174h1M319 174h1M322 174h1M325 174h1M328 174h1M20 175h10M31 175h2M46 175h1M48 175h15M66 175h32M99 175h1M101 175h1M103 175h1M105 175h1M107 175h1M134 175h12M246 175h9M258 175h1M261 175h1M264 175h1M267 175h1M270 175h1M273 175h1M276 175h1M298 175h9M310 175h1M313 175h1M316 175h1M319 175h1M322 175h1M325 175h1M328 175h1M20 176h10M31 176h16M48 176h15M66 176h32M99 176h1M101 176h1M103 176h1M105 176h1M107 176h2M135 176h12M246 176h9M258 176h1M261 176h1M264 176h1M267 176h1M270 176h1M273 176h1M276 176h1M298 176h9M310 176h1M313 176h1M316 176h1M319 176h1M322 176h1M325 176h1M328 176h1M19 177h11M48 177h8M59 177h4M66 177h43M136 177h11M246 177h9M258 177h1M261 177h1M264 177h1M267 177h1M270 177h1M273 177h1M276 177h1M298 177h9M310 177h1M313 177h1M316 177h1M319 177h1M322 177h1M325 177h1M328 177h1M19 178h16M36 178h2M40 178h2M44 178h3M50 178h6M57 178h1M59 178h4M66 178h43M137 178h11M246 178h9M258 178h1M261 178h1M264 178h1M267 178h1M270 178h1M273 178h1M276 178h1M298 178h9M310 178h1M313 178h1M316 178h1M319 178h1M322 178h1M325 178h1M328 178h1M18 179h17M44 179h2M48 179h1M59 179h4M66 179h43M138 179h11M248 179h1M250 179h5M258 179h1M261 179h1M264 179h1M267 179h1M270 179h1M273 179h1M276 179h1M300 179h1M302 179h5M310 179h1M313 179h1M316 179h1M319 179h1M322 179h1M325 179h1M328 179h1M17 180h18M44 180h2M47 180h2M50 180h3M54 180h4M59 180h4M66 180h43M139 180h11M246 180h9M258 180h1M261 180h1M264 180h1M267 180h1M270 180h1M273 180h1M276 180h1M298 180h9M310 180h1M313 180h1M316 180h1M319 180h1M322 180h1M325 180h1M328 180h1M17 181h17M35 181h1M44 181h2M50 181h2M59 181h4M66 181h32M99 181h1M101 181h1M103 181h1M105 181h1M107 181h2M140 181h11M246 181h9M258 181h1M261 181h1M264 181h1M267 181h1M270 181h1M273 181h1M276 181h1M298 181h9M310 181h1M313 181h1M316 181h1M319 181h1M322 181h1M325 181h1M328 181h1M16 182h17M34 182h3M44 182h4M50 182h3M54 182h9M66 182h32M141 182h10M246 182h9M258 182h1M261 182h1M264 182h1M267 182h1M270 182h1M273 182h1M276 182h1M298 182h9M310 182h1M313 182h1M316 182h1M319 182h1M322 182h1M325 182h1M328 182h1M16 183h17M34 183h4M44 183h3M49 183h1M54 183h9M66 183h32M142 183h10M246 183h31M298 183h31M15 184h18M34 184h6M41 184h1M43 184h4M48 184h1M51 184h12M66 184h32M143 184h9M246 184h9M258 184h1M261 184h1M264 184h1M267 184h1M270 184h1M273 184h1M276 184h1M298 184h9M310 184h1M313 184h1M316 184h1M319 184h1M322 184h1M325 184h1M328 184h1M15 185h18M34 185h6M41 185h1M43 185h4M50 185h13M66 185h32M144 185h9M237 185h1M239 185h2M246 185h1M248 185h2M251 185h1M253 185h2M258 185h1M261 185h1M264 185h1M267 185h1M270 185h1M273 185h1M276 185h1M289 185h1M291 185h2M298 185h1M300 185h2M303 185h1M305 185h2M310 185h1M313 185h1M316 185h1M319 185h1M322 185h1M325 185h1M328 185h1M14 186h19M34 186h6M41 186h1M43 186h20M66 186h32M146 186h8M244 186h13M258 186h1M261 186h1M264 186h1M267 186h1M270 186h1M273 186h1M276 186h1M296 186h13M310 186h1M313 186h1M316 186h1M319 186h1M322 186h1M325 186h1M328 186h1M13 187h20M34 187h6M41 187h1M43 187h20M66 187h33M115 187h1M147 187h8M235 187h1M237 187h3M244 187h2M247 187h1M250 187h1M252 187h1M255 187h2M258 187h1M261 187h1M264 187h1M267 187h1M270 187h1M273 187h1M276 187h1M287 187h1M289 187h3M296 187h2M299 187h1M302 187h1M304 187h1M307 187h2M310 187h1M313 187h1M316 187h1M319 187h1M322 187h1M325 187h1M328 187h1M13 188h20M42 188h21M66 188h34M114 188h2M150 188h6M242 188h17M261 188h1M264 188h1M267 188h1M270 188h1M273 188h1M276 188h1M294 188h17M313 188h1M316 188h1M319 188h1M322 188h1M325 188h1M328 188h1M12 189h22M35 189h1M38 189h1M40 189h1M43 189h20M66 189h36M104 189h1M107 189h2M113 189h4M151 189h6M242 189h17M261 189h1M264 189h1M267 189h1M270 189h1M273 189h1M276 189h1M294 189h17M313 189h1M316 189h1M319 189h1M322 189h1M325 189h1M328 189h1M12 190h22M35 190h2M38 190h1M40 190h2M43 190h20M66 190h36M103 190h2M106 190h3M110 190h1M112 190h5M153 190h5M242 190h17M294 190h17M156 191h3M158 192h2" />
<path stroke="#ff0000" d="M290 108h1M294 108h1M345 139h1M349 139h1M363 144h1M367 144h1M362 152h1M364 152h1M366 152h1M368 152h1M362 153h1M364 153h1M366 153h1M368 153h1M362 154h9M362 155h1M364 155h1M366 155h1M368 155h1M210 162h1M214 162h1M100 167h1M104 167h1M177 167h1M181 167h1M352 167h1M356 167h1M280 170h1M284 170h1M335 172h1M339 172h1M36 175h7M351 175h1M353 175h1M355 175h1M357 175h1M351 176h1M353 176h1M355 176h1M357 176h1M369 176h1M373 176h1M351 177h9M351 178h9M36 179h7M351 179h9M36 180h7M351 180h9M37 181h6M224 181h1M228 181h1M351 181h1M353 181h1M355 181h1M357 181h1M38 182h5" />
<path stroke="#fdfdfd" d="M273 133h1M325 133h1M258 144h1M310 144h1" />
</svg>