<?xml version="1.0" encoding="UTF-8" standalone="no"?>
<svg
   xmlns:dc="http://purl.org/dc/elements/1.1/"
   xmlns:cc="http://creativecommons.org/ns#"
   xmlns:rdf="http://www.w3.org/1999/02/22-rdf-syntax-ns#"
   xmlns:svg="http://www.w3.org/2000/svg"
   xmlns="http://www.w3.org/2000/svg"
   xmlns:sodipodi="http://sodipodi.sourceforge.net/DTD/sodipodi-0.dtd"
   xmlns:inkscape="http://www.inkscape.org/namespaces/inkscape"
   version="1.1"
   width="304"
   height="152"
   id="svg23106"
   sodipodi:docname="ShotintheDarkBannerOriginal (1)-export.svg"
   inkscape:version="0.92.2 (5c3e80d, 2017-08-06)">
  <metadata
     id="metadata23112">
    <rdf:RDF>
      <cc:Work
         rdf:about="">
        <dc:format>image/svg+xml</dc:format>
        <dc:type
           rdf:resource="http://purl.org/dc/dcmitype/StillImage" />
      </cc:Work>
    </rdf:RDF>
  </metadata>
  <defs
     id="defs23110" />
  <sodipodi:namedview
     pagecolor="#ffffff"
     bordercolor="#666666"
     borderopacity="1"
     objecttolerance="10"
     gridtolerance="10"
     guidetolerance="10"
     inkscape:pageopacity="0"
     inkscape:pageshadow="2"
     inkscape:window-width="725"
     inkscape:window-height="857"
     id="namedview23108"
     showgrid="false"
     inkscape:zoom="2.6702585"
     inkscape:cx="101.43158"
     inkscape:cy="72.624892"
     inkscape:window-x="3608"
     inkscape:window-y="924"
     inkscape:window-maximized="0"
     inkscape:current-layer="svg23106" />
  <path
     d="M 0 0 L 0 2 L 0 4 L 0 6 L 0 8 L 0 10 L 0 12 L 0 14 L 0 16 L 0 18 L 0 20 L 0 22 L 0 24 L 0 26 L 0 28 L 0 30 L 0 32 L 0 34 L 0 36 L 0 38 L 0 40 L 0 42 L 0 44 L 0 46 L 0 48 L 0 50 L 0 52 L 0 54 L 0 56 L 0 58 L 0 60 L 0 62 L 0 64 L 0 66 L 0 68 L 0 70 L 0 72 L 0 74 L 0 76 L 0 78 L 0 80 L 0 82 L 0 84 L 0 86 L 0 88 L 0 90 L 0 92 L 0 94 L 0 96 L 0 98 L 0 100 L 0 102 L 0 104 L 0 106 L 0 108 L 0 110 L 0 112 L 0 114 L 0 116 L 0 118 L 0 120 L 0 122 L 0 124 L 0 126 L 0 128 L 0 130 L 0 132 L 0 134 L 0 136 L 0 138 L 0 140 L 0 142 L 0 144 L 0 146 L 0 148 L 0 150 L 0 152 L 2 152 L 4 152 L 6 152 L 8 152 L 10 152 L 12 152 L 14 152 L 16 152 L 18 152 L 20 152 L 22 152 L 24 152 L 26 152 L 28 152 L 30 152 L 32 152 L 34 152 L 36 152 L 38 152 L 40 152 L 42 152 L 44 152 L 46 152 L 48 152 L 50 152 L 52 152 L 54 152 L 56 152 L 58 152 L 60 152 L 62 152 L 64 152 L 66 152 L 68 152 L 70 152 L 72 152 L 74 152 L 76 152 L 78 152 L 80 152 L 82 152 L 84 152 L 86 152 L 88 152 L 90 152 L 92 152 L 94 152 L 96 152 L 98 152 L 100 152 L 102 152 L 104 152 L 106 152 L 108 152 L 110 152 L 112 152 L 114 152 L 116 152 L 118 152 L 120 152 L 122 152 L 124 152 L 126 152 L 128 152 L 130 152 L 132 152 L 134 152 L 136 152 L 138 152 L 140 152 L 142 152 L 144 152 L 146 152 L 148 152 L 150 152 L 152 152 L 154 152 L 156 152 L 158 152 L 160 152 L 162 152 L 164 152 L 166 152 L 168 152 L 170 152 L 172 152 L 174 152 L 176 152 L 178 152 L 180 152 L 182 152 L 184 152 L 186 152 L 188 152 L 190 152 L 192 152 L 194 152 L 196 152 L 198 152 L 200 152 L 202 152 L 204 152 L 206 152 L 208 152 L 210 152 L 212 152 L 214 152 L 216 152 L 218 152 L 220 152 L 222 152 L 224 152 L 226 152 L 228 152 L 230 152 L 232 152 L 234 152 L 236 152 L 238 152 L 240 152 L 242 152 L 244 152 L 246 152 L 248 152 L 250 152 L 252 152 L 254 152 L 256 152 L 258 152 L 260 152 L 262 152 L 264 152 L 266 152 L 268 152 L 270 152 L 272 152 L 274 152 L 276 152 L 278 152 L 280 152 L 282 152 L 284 152 L 286 152 L 288 152 L 290 152 L 292 152 L 294 152 L 296 152 L 298 152 L 300 152 L 302 152 L 304 152 L 304 150 L 304 148 L 304 146 L 304 144 L 304 142 L 304 140 L 304 138 L 304 136 L 304 134 L 304 132 L 304 130 L 304 128 L 304 126 L 304 124 L 304 122 L 304 120 L 304 118 L 304 116 L 304 114 L 304 112 L 304 110 L 304 108 L 304 106 L 304 104 L 304 102 L 304 100 L 304 98 L 304 96 L 304 94 L 304 92 L 304 90 L 304 88 L 304 86 L 304 84 L 304 82 L 304 80 L 304 78 L 304 76 L 304 74 L 304 72 L 304 70 L 304 68 L 304 66 L 304 64 L 304 62 L 304 60 L 304 58 L 304 56 L 304 54 L 304 52 L 304 50 L 304 48 L 304 46 L 304 44 L 304 42 L 304 40 L 304 38 L 304 36 L 304 34 L 304 32 L 304 30 L 304 28 L 304 26 L 304 24 L 304 22 L 304 20 L 304 18 L 304 16 L 304 14 L 304 12 L 304 10 L 304 8 L 304 6 L 304 4 L 304 2 L 304 0 L 302 0 L 300 0 L 298 0 L 296 0 L 294 0 L 292 0 L 290 0 L 288 0 L 286 0 L 284 0 L 282 0 L 280 0 L 278 0 L 276 0 L 274 0 L 272 0 L 270 0 L 268 0 L 266 0 L 264 0 L 262 0 L 260 0 L 258 0 L 256 0 L 254 0 L 252 0 L 250 0 L 248 0 L 246 0 L 244 0 L 242 0 L 240 0 L 238 0 L 236 0 L 234 0 L 232 0 L 230 0 L 228 0 L 226 0 L 224 0 L 222 0 L 220 0 L 218 0 L 216 0 L 214 0 L 212 0 L 210 0 L 208 0 L 206 0 L 204 0 L 202 0 L 200 0 L 198 0 L 196 0 L 194 0 L 192 0 L 190 0 L 188 0 L 186 0 L 184 0 L 182 0 L 180 0 L 178 0 L 176 0 L 174 0 L 172 0 L 170 0 L 168 0 L 166 0 L 164 0 L 162 0 L 160 0 L 158 0 L 156 0 L 154 0 L 152 0 L 150 0 L 148 0 L 146 0 L 144 0 L 142 0 L 140 0 L 138 0 L 136 0 L 134 0 L 132 0 L 130 0 L 128 0 L 126 0 L 124 0 L 122 0 L 120 0 L 118 0 L 116 0 L 114 0 L 112 0 L 110 0 L 108 0 L 106 0 L 104 0 L 102 0 L 100 0 L 98 0 L 96 0 L 94 0 L 92 0 L 90 0 L 88 0 L 86 0 L 84 0 L 82 0 L 80 0 L 78 0 L 76 0 L 74 0 L 72 0 L 70 0 L 68 0 L 66 0 L 64 0 L 62 0 L 60 0 L 58 0 L 56 0 L 54 0 L 52 0 L 50 0 L 48 0 L 46 0 L 44 0 L 42 0 L 40 0 L 38 0 L 36 0 L 34 0 L 32 0 L 30 0 L 28 0 L 26 0 L 24 0 L 22 0 L 20 0 L 18 0 L 16 0 L 14 0 L 12 0 L 10 0 L 8 0 L 6 0 L 4 0 L 2 0 L 0 0 z M 116 38 L 118 38 L 120 38 L 122 38 L 124 38 L 126 38 L 128 38 L 130 38 L 132 38 L 134 38 L 134 40 L 136 40 L 138 40 L 138 42 L 140 42 L 142 42 L 142 44 L 144 44 L 146 44 L 146 46 L 148 46 L 148 48 L 150 48 L 150 50 L 150 52 L 152 52 L 152 54 L 152 56 L 154 56 L 154 58 L 154 60 L 156 60 L 156 62 L 156 64 L 156 66 L 156 68 L 156 70 L 156 72 L 154 72 L 152 72 L 150 72 L 148 72 L 146 72 L 144 72 L 142 72 L 140 72 L 138 72 L 136 72 L 134 72 L 132 72 L 130 72 L 128 72 L 126 72 L 124 72 L 122 72 L 120 72 L 118 72 L 116 72 L 114 72 L 112 72 L 110 72 L 108 72 L 106 72 L 104 72 L 102 72 L 100 72 L 98 72 L 96 72 L 94 72 L 94 70 L 94 68 L 94 66 L 94 64 L 94 62 L 94 60 L 96 60 L 96 58 L 96 56 L 98 56 L 98 54 L 98 52 L 100 52 L 100 50 L 100 48 L 102 48 L 102 46 L 104 46 L 104 44 L 106 44 L 108 44 L 108 42 L 110 42 L 112 42 L 112 40 L 114 40 L 116 40 L 116 38 z M 18 46 L 20 46 L 22 46 L 24 46 L 26 46 L 26 48 L 26 50 L 28 50 L 30 50 L 30 52 L 30 54 L 30 56 L 30 58 L 30 60 L 30 62 L 28 62 L 26 62 L 26 60 L 26 58 L 26 56 L 26 54 L 26 52 L 26 50 L 24 50 L 22 50 L 20 50 L 18 50 L 18 52 L 18 54 L 18 56 L 18 58 L 18 60 L 18 62 L 18 64 L 18 66 L 18 68 L 18 70 L 20 70 L 22 70 L 22 72 L 22 74 L 24 74 L 26 74 L 26 76 L 26 78 L 28 78 L 30 78 L 30 80 L 30 82 L 30 84 L 30 86 L 30 88 L 30 90 L 30 92 L 30 94 L 30 96 L 30 98 L 30 100 L 30 102 L 28 102 L 26 102 L 26 104 L 26 106 L 24 106 L 22 106 L 20 106 L 18 106 L 18 104 L 18 102 L 16 102 L 14 102 L 14 100 L 14 98 L 14 96 L 14 94 L 16 94 L 18 94 L 18 96 L 18 98 L 18 100 L 18 102 L 20 102 L 22 102 L 24 102 L 26 102 L 26 100 L 26 98 L 26 96 L 26 94 L 26 92 L 26 90 L 26 88 L 26 86 L 26 84 L 26 82 L 26 80 L 26 78 L 24 78 L 22 78 L 22 76 L 22 74 L 20 74 L 18 74 L 18 72 L 18 70 L 16 70 L 14 70 L 14 68 L 14 66 L 14 64 L 14 62 L 14 60 L 14 58 L 14 56 L 14 54 L 14 52 L 14 50 L 16 50 L 18 50 L 18 48 L 18 46 z M 34 46 L 36 46 L 38 46 L 38 48 L 38 50 L 38 52 L 38 54 L 38 56 L 38 58 L 38 60 L 38 62 L 38 64 L 38 66 L 38 68 L 38 70 L 38 72 L 38 74 L 38 76 L 38 78 L 40 78 L 42 78 L 44 78 L 46 78 L 46 76 L 46 74 L 46 72 L 46 70 L 46 68 L 46 66 L 46 64 L 46 62 L 46 60 L 46 58 L 46 56 L 46 54 L 46 52 L 46 50 L 46 48 L 46 46 L 48 46 L 50 46 L 50 48 L 50 50 L 50 52 L 50 54 L 50 56 L 50 58 L 50 60 L 50 62 L 50 64 L 50 66 L 50 68 L 50 70 L 50 72 L 50 74 L 50 76 L 50 78 L 50 80 L 50 82 L 50 84 L 50 86 L 50 88 L 50 90 L 50 92 L 50 94 L 50 96 L 50 98 L 50 100 L 50 102 L 50 104 L 50 106 L 48 106 L 46 106 L 46 104 L 46 102 L 46 100 L 46 98 L 46 96 L 46 94 L 46 92 L 46 90 L 46 88 L 46 86 L 46 84 L 46 82 L 44 82 L 42 82 L 40 82 L 38 82 L 38 84 L 38 86 L 38 88 L 38 90 L 38 92 L 38 94 L 38 96 L 38 98 L 38 100 L 38 102 L 38 104 L 38 106 L 36 106 L 34 106 L 34 104 L 34 102 L 34 100 L 34 98 L 34 96 L 34 94 L 34 92 L 34 90 L 34 88 L 34 86 L 34 84 L 34 82 L 34 80 L 34 78 L 34 76 L 34 74 L 34 72 L 34 70 L 34 68 L 34 66 L 34 64 L 34 62 L 34 60 L 34 58 L 34 56 L 34 54 L 34 52 L 34 50 L 34 48 L 34 46 z M 58 46 L 60 46 L 62 46 L 64 46 L 66 46 L 66 48 L 66 50 L 68 50 L 70 50 L 70 52 L 70 54 L 70 56 L 70 58 L 70 60 L 70 62 L 70 64 L 70 66 L 70 68 L 70 70 L 70 72 L 70 74 L 70 76 L 70 78 L 70 80 L 70 82 L 70 84 L 70 86 L 70 88 L 70 90 L 70 92 L 70 94 L 70 96 L 70 98 L 70 100 L 70 102 L 68 102 L 66 102 L 66 104 L 66 106 L 64 106 L 62 106 L 60 106 L 58 106 L 58 104 L 58 102 L 56 102 L 54 102 L 54 100 L 54 98 L 54 96 L 54 94 L 54 92 L 54 90 L 54 88 L 54 86 L 54 84 L 54 82 L 54 80 L 54 78 L 54 76 L 54 74 L 54 72 L 54 70 L 54 68 L 54 66 L 54 64 L 54 62 L 54 60 L 54 58 L 54 56 L 54 54 L 54 52 L 54 50 L 56 50 L 58 50 L 58 48 L 58 46 z M 58 50 L 58 52 L 58 54 L 58 56 L 58 58 L 58 60 L 58 62 L 58 64 L 58 66 L 58 68 L 58 70 L 58 72 L 58 74 L 58 76 L 58 78 L 58 80 L 58 82 L 58 84 L 58 86 L 58 88 L 58 90 L 58 92 L 58 94 L 58 96 L 58 98 L 58 100 L 58 102 L 60 102 L 62 102 L 64 102 L 66 102 L 66 100 L 66 98 L 66 96 L 66 94 L 66 92 L 66 90 L 66 88 L 66 86 L 66 84 L 66 82 L 66 80 L 66 78 L 66 76 L 66 74 L 66 72 L 66 70 L 66 68 L 66 66 L 66 64 L 66 62 L 66 60 L 66 58 L 66 56 L 66 54 L 66 52 L 66 50 L 64 50 L 62 50 L 60 50 L 58 50 z M 74 46 L 76 46 L 78 46 L 80 46 L 82 46 L 84 46 L 86 46 L 86 48 L 86 50 L 84 50 L 82 50 L 82 52 L 82 54 L 82 56 L 82 58 L 82 60 L 82 62 L 82 64 L 82 66 L 82 68 L 82 70 L 82 72 L 82 74 L 82 76 L 82 78 L 82 80 L 82 82 L 82 84 L 82 86 L 82 88 L 82 90 L 82 92 L 82 94 L 82 96 L 82 98 L 82 100 L 82 102 L 82 104 L 82 106 L 80 106 L 78 106 L 78 104 L 78 102 L 78 100 L 78 98 L 78 96 L 78 94 L 78 92 L 78 90 L 78 88 L 78 86 L 78 84 L 78 82 L 78 80 L 78 78 L 78 76 L 78 74 L 78 72 L 78 70 L 78 68 L 78 66 L 78 64 L 78 62 L 78 60 L 78 58 L 78 56 L 78 54 L 78 52 L 78 50 L 76 50 L 74 50 L 74 48 L 74 46 z M 166 46 L 168 46 L 170 46 L 172 46 L 174 46 L 176 46 L 178 46 L 180 46 L 182 46 L 182 48 L 182 50 L 184 50 L 186 50 L 186 52 L 186 54 L 188 54 L 190 54 L 190 56 L 190 58 L 190 60 L 190 62 L 190 64 L 190 66 L 190 68 L 190 70 L 190 72 L 190 74 L 190 76 L 190 78 L 190 80 L 190 82 L 190 84 L 190 86 L 190 88 L 190 90 L 190 92 L 190 94 L 190 96 L 190 98 L 188 98 L 186 98 L 186 100 L 186 102 L 184 102 L 182 102 L 182 104 L 182 106 L 180 106 L 178 106 L 176 106 L 174 106 L 172 106 L 170 106 L 168 106 L 166 106 L 166 104 L 166 102 L 166 100 L 166 98 L 166 96 L 166 94 L 166 92 L 166 90 L 166 88 L 166 86 L 166 84 L 166 82 L 166 80 L 166 78 L 166 76 L 166 74 L 166 72 L 166 70 L 166 68 L 166 66 L 166 64 L 166 62 L 166 60 L 166 58 L 166 56 L 166 54 L 166 52 L 166 50 L 166 48 L 166 46 z M 182 102 L 182 100 L 182 98 L 184 98 L 186 98 L 186 96 L 186 94 L 186 92 L 186 90 L 186 88 L 186 86 L 186 84 L 186 82 L 186 80 L 186 78 L 186 76 L 186 74 L 186 72 L 186 70 L 186 68 L 186 66 L 186 64 L 186 62 L 186 60 L 186 58 L 186 56 L 186 54 L 184 54 L 182 54 L 182 52 L 182 50 L 180 50 L 178 50 L 176 50 L 174 50 L 172 50 L 170 50 L 170 52 L 170 54 L 170 56 L 170 58 L 170 60 L 170 62 L 170 64 L 170 66 L 170 68 L 170 70 L 170 72 L 170 74 L 170 76 L 170 78 L 170 80 L 170 82 L 170 84 L 170 86 L 170 88 L 170 90 L 170 92 L 170 94 L 170 96 L 170 98 L 170 100 L 170 102 L 172 102 L 174 102 L 176 102 L 178 102 L 180 102 L 182 102 z M 206 46 L 208 46 L 210 46 L 212 46 L 214 46 L 214 48 L 214 50 L 216 50 L 218 50 L 218 52 L 218 54 L 220 54 L 222 54 L 222 56 L 222 58 L 222 60 L 222 62 L 222 64 L 222 66 L 222 68 L 222 70 L 222 72 L 222 74 L 222 76 L 222 78 L 222 80 L 222 82 L 222 84 L 222 86 L 222 88 L 222 90 L 222 92 L 222 94 L 222 96 L 222 98 L 222 100 L 222 102 L 222 104 L 222 106 L 220 106 L 218 106 L 218 104 L 218 102 L 218 100 L 218 98 L 218 96 L 218 94 L 218 92 L 218 90 L 218 88 L 218 86 L 218 84 L 218 82 L 216 82 L 214 82 L 212 82 L 210 82 L 208 82 L 206 82 L 204 82 L 202 82 L 202 84 L 202 86 L 202 88 L 202 90 L 202 92 L 202 94 L 202 96 L 202 98 L 202 100 L 202 102 L 202 104 L 202 106 L 200 106 L 198 106 L 198 104 L 198 102 L 198 100 L 198 98 L 198 96 L 198 94 L 198 92 L 198 90 L 198 88 L 198 86 L 198 84 L 198 82 L 198 80 L 198 78 L 198 76 L 198 74 L 198 72 L 198 70 L 198 68 L 198 66 L 198 64 L 198 62 L 198 60 L 198 58 L 198 56 L 198 54 L 200 54 L 202 54 L 202 52 L 202 50 L 204 50 L 206 50 L 206 48 L 206 46 z M 206 50 L 206 52 L 206 54 L 204 54 L 202 54 L 202 56 L 202 58 L 202 60 L 202 62 L 202 64 L 202 66 L 202 68 L 202 70 L 202 72 L 202 74 L 202 76 L 202 78 L 204 78 L 206 78 L 208 78 L 210 78 L 212 78 L 214 78 L 216 78 L 218 78 L 218 76 L 218 74 L 218 72 L 218 70 L 218 68 L 218 66 L 218 64 L 218 62 L 218 60 L 218 58 L 218 56 L 218 54 L 216 54 L 214 54 L 214 52 L 214 50 L 212 50 L 210 50 L 208 50 L 206 50 z M 230 46 L 232 46 L 234 46 L 236 46 L 238 46 L 240 46 L 242 46 L 244 46 L 246 46 L 246 48 L 246 50 L 248 50 L 250 50 L 250 52 L 250 54 L 252 54 L 254 54 L 254 56 L 254 58 L 254 60 L 254 62 L 254 64 L 254 66 L 254 68 L 254 70 L 254 72 L 254 74 L 252 74 L 250 74 L 250 76 L 250 78 L 248 78 L 246 78 L 246 80 L 246 82 L 248 82 L 250 82 L 250 84 L 250 86 L 252 86 L 254 86 L 254 88 L 254 90 L 254 92 L 254 94 L 254 96 L 254 98 L 254 100 L 254 102 L 254 104 L 254 106 L 252 106 L 250 106 L 250 104 L 250 102 L 250 100 L 250 98 L 250 96 L 250 94 L 250 92 L 250 90 L 250 88 L 250 86 L 248 86 L 246 86 L 246 84 L 246 82 L 244 82 L 242 82 L 240 82 L 238 82 L 236 82 L 234 82 L 234 84 L 234 86 L 234 88 L 234 90 L 234 92 L 234 94 L 234 96 L 234 98 L 234 100 L 234 102 L 234 104 L 234 106 L 232 106 L 230 106 L 230 104 L 230 102 L 230 100 L 230 98 L 230 96 L 230 94 L 230 92 L 230 90 L 230 88 L 230 86 L 230 84 L 230 82 L 230 80 L 230 78 L 230 76 L 230 74 L 230 72 L 230 70 L 230 68 L 230 66 L 230 64 L 230 62 L 230 60 L 230 58 L 230 56 L 230 54 L 230 52 L 230 50 L 230 48 L 230 46 z M 246 78 L 246 76 L 246 74 L 248 74 L 250 74 L 250 72 L 250 70 L 250 68 L 250 66 L 250 64 L 250 62 L 250 60 L 250 58 L 250 56 L 250 54 L 248 54 L 246 54 L 246 52 L 246 50 L 244 50 L 242 50 L 240 50 L 238 50 L 236 50 L 234 50 L 234 52 L 234 54 L 234 56 L 234 58 L 234 60 L 234 62 L 234 64 L 234 66 L 234 68 L 234 70 L 234 72 L 234 74 L 234 76 L 234 78 L 236 78 L 238 78 L 240 78 L 242 78 L 244 78 L 246 78 z M 262 46 L 264 46 L 266 46 L 266 48 L 266 50 L 266 52 L 266 54 L 266 56 L 266 58 L 266 60 L 266 62 L 266 64 L 266 66 L 266 68 L 266 70 L 266 72 L 266 74 L 266 76 L 266 78 L 268 78 L 270 78 L 272 78 L 274 78 L 274 76 L 274 74 L 276 74 L 278 74 L 278 72 L 278 70 L 280 70 L 282 70 L 282 68 L 282 66 L 282 64 L 282 62 L 282 60 L 282 58 L 282 56 L 282 54 L 282 52 L 282 50 L 282 48 L 282 46 L 284 46 L 286 46 L 286 48 L 286 50 L 286 52 L 286 54 L 286 56 L 286 58 L 286 60 L 286 62 L 286 64 L 286 66 L 286 68 L 286 70 L 284 70 L 282 70 L 282 72 L 282 74 L 280 74 L 278 74 L 278 76 L 278 78 L 276 78 L 274 78 L 274 80 L 274 82 L 276 82 L 278 82 L 278 84 L 278 86 L 280 86 L 282 86 L 282 88 L 282 90 L 284 90 L 286 90 L 286 92 L 286 94 L 286 96 L 286 98 L 286 100 L 286 102 L 286 104 L 286 106 L 284 106 L 282 106 L 282 104 L 282 102 L 282 100 L 282 98 L 282 96 L 282 94 L 282 92 L 282 90 L 280 90 L 278 90 L 278 88 L 278 86 L 276 86 L 274 86 L 274 84 L 274 82 L 272 82 L 270 82 L 268 82 L 266 82 L 266 84 L 266 86 L 266 88 L 266 90 L 266 92 L 266 94 L 266 96 L 266 98 L 266 100 L 266 102 L 266 104 L 266 106 L 264 106 L 262 106 L 262 104 L 262 102 L 262 100 L 262 98 L 262 96 L 262 94 L 262 92 L 262 90 L 262 88 L 262 86 L 262 84 L 262 82 L 262 80 L 262 78 L 262 76 L 262 74 L 262 72 L 262 70 L 262 68 L 262 66 L 262 64 L 262 62 L 262 60 L 262 58 L 262 56 L 262 54 L 262 52 L 262 50 L 262 48 L 262 46 z M 96 74 L 98 74 L 100 74 L 102 74 L 104 74 L 106 74 L 108 74 L 110 74 L 112 74 L 114 74 L 116 74 L 118 74 L 120 74 L 122 74 L 124 74 L 126 74 L 128 74 L 130 74 L 132 74 L 134 74 L 136 74 L 138 74 L 140 74 L 142 74 L 144 74 L 146 74 L 148 74 L 150 74 L 152 74 L 154 74 L 154 76 L 152 76 L 150 76 L 148 76 L 146 76 L 144 76 L 142 76 L 140 76 L 138 76 L 136 76 L 134 76 L 132 76 L 130 76 L 128 76 L 126 76 L 124 76 L 122 76 L 120 76 L 118 76 L 116 76 L 114 76 L 112 76 L 110 76 L 108 76 L 106 76 L 104 76 L 102 76 L 100 76 L 98 76 L 96 76 L 96 74 z M 104 78 L 106 78 L 108 78 L 110 78 L 112 78 L 114 78 L 116 78 L 118 78 L 120 78 L 122 78 L 124 78 L 126 78 L 128 78 L 130 78 L 132 78 L 134 78 L 136 78 L 138 78 L 140 78 L 142 78 L 144 78 L 146 78 L 146 80 L 144 80 L 142 80 L 140 80 L 138 80 L 136 80 L 134 80 L 132 80 L 130 80 L 128 80 L 126 80 L 124 80 L 122 80 L 120 80 L 118 80 L 116 80 L 114 80 L 112 80 L 110 80 L 108 80 L 106 80 L 104 80 L 104 78 z M 112 82 L 114 82 L 116 82 L 118 82 L 120 82 L 122 82 L 124 82 L 126 82 L 128 82 L 130 82 L 132 82 L 134 82 L 136 82 L 138 82 L 138 84 L 136 84 L 134 84 L 132 84 L 130 84 L 128 84 L 126 84 L 124 84 L 122 84 L 120 84 L 118 84 L 116 84 L 114 84 L 112 84 L 112 82 z M 90 86 L 92 86 L 94 86 L 94 88 L 94 90 L 92 90 L 90 90 L 90 88 L 90 86 z M 102 86 L 104 86 L 106 86 L 108 86 L 110 86 L 110 88 L 110 90 L 110 92 L 110 94 L 110 96 L 110 98 L 110 100 L 110 102 L 110 104 L 110 106 L 108 106 L 106 106 L 106 104 L 106 102 L 106 100 L 106 98 L 106 96 L 106 94 L 106 92 L 106 90 L 104 90 L 102 90 L 102 92 L 102 94 L 102 96 L 102 98 L 102 100 L 102 102 L 102 104 L 102 106 L 100 106 L 98 106 L 98 104 L 98 102 L 98 100 L 98 98 L 98 96 L 98 94 L 98 92 L 98 90 L 100 90 L 102 90 L 102 88 L 102 86 z M 122 86 L 124 86 L 126 86 L 126 88 L 126 90 L 128 90 L 130 90 L 130 92 L 130 94 L 128 94 L 126 94 L 126 96 L 126 98 L 126 100 L 126 102 L 126 104 L 126 106 L 124 106 L 122 106 L 122 104 L 122 102 L 122 100 L 122 98 L 122 96 L 122 94 L 120 94 L 118 94 L 118 92 L 118 90 L 120 90 L 122 90 L 122 88 L 122 86 z M 134 86 L 136 86 L 138 86 L 138 88 L 138 90 L 138 92 L 138 94 L 140 94 L 142 94 L 142 92 L 142 90 L 142 88 L 142 86 L 144 86 L 146 86 L 146 88 L 146 90 L 146 92 L 146 94 L 146 96 L 146 98 L 146 100 L 146 102 L 146 104 L 146 106 L 144 106 L 142 106 L 142 104 L 142 102 L 142 100 L 142 98 L 140 98 L 138 98 L 138 100 L 138 102 L 138 104 L 138 106 L 136 106 L 134 106 L 134 104 L 134 102 L 134 100 L 134 98 L 134 96 L 134 94 L 134 92 L 134 90 L 134 88 L 134 86 z M 150 86 L 152 86 L 154 86 L 156 86 L 158 86 L 158 88 L 158 90 L 156 90 L 154 90 L 154 92 L 154 94 L 156 94 L 158 94 L 158 96 L 158 98 L 156 98 L 154 98 L 154 100 L 154 102 L 156 102 L 158 102 L 158 104 L 158 106 L 156 106 L 154 106 L 152 106 L 150 106 L 150 104 L 150 102 L 150 100 L 150 98 L 150 96 L 150 94 L 150 92 L 150 90 L 150 88 L 150 86 z M 90 94 L 92 94 L 94 94 L 94 96 L 94 98 L 94 100 L 94 102 L 94 104 L 94 106 L 92 106 L 90 106 L 90 104 L 90 102 L 90 100 L 90 98 L 90 96 L 90 94 z "
     id="rect2" />
  <path
     id="rect12602"
     style="fill:#ff0000"
     d="m 136,82 h 2 v 2 h -2 z m -2,0 h 2 v 2 h -2 z m -2,0 h 2 v 2 h -2 z m -2,0 h 2 v 2 h -2 z m -2,0 h 2 v 2 h -2 z m -2,0 h 2 v 2 h -2 z m -2,0 h 2 v 2 h -2 z m -2,0 h 2 v 2 h -2 z m -2,0 h 2 v 2 h -2 z m -2,0 h 2 v 2 h -2 z m -2,0 h 2 v 2 h -2 z m -2,0 h 2 v 2 h -2 z m -2,0 h 2 v 2 h -2 z m 32,-4 h 2 v 2 h -2 z m -2,0 h 2 v 2 h -2 z m -2,0 h 2 v 2 h -2 z m -2,0 h 2 v 2 h -2 z m -2,0 h 2 v 2 h -2 z m -2,0 h 2 v 2 h -2 z m -2,0 h 2 v 2 h -2 z m -2,0 h 2 v 2 h -2 z m -2,0 h 2 v 2 h -2 z m -2,0 h 2 v 2 h -2 z m -2,0 h 2 v 2 h -2 z m -2,0 h 2 v 2 h -2 z m -2,0 h 2 v 2 h -2 z m -2,0 h 2 v 2 h -2 z m -2,0 h 2 v 2 h -2 z m -2,0 h 2 v 2 h -2 z m -2,0 h 2 v 2 h -2 z m -2,0 h 2 v 2 h -2 z m -2,0 h 2 v 2 h -2 z m -2,0 h 2 v 2 h -2 z m -2,0 h 2 v 2 h -2 z m 48,-4 h 2 v 2 h -2 z m -2,0 h 2 v 2 h -2 z m -2,0 h 2 v 2 h -2 z m -2,0 h 2 v 2 h -2 z m -2,0 h 2 v 2 h -2 z m -2,0 h 2 v 2 h -2 z m -2,0 h 2 v 2 h -2 z m -2,0 h 2 v 2 h -2 z m -2,0 h 2 v 2 h -2 z m -2,0 h 2 v 2 h -2 z m -2,0 h 2 v 2 h -2 z m -2,0 h 2 v 2 h -2 z m -2,0 h 2 v 2 h -2 z m -2,0 h 2 v 2 h -2 z m -2,0 h 2 v 2 h -2 z m -2,0 h 2 v 2 h -2 z m -2,0 h 2 v 2 h -2 z m -2,0 h 2 v 2 h -2 z m -2,0 h 2 v 2 h -2 z m -2,0 h 2 v 2 h -2 z m -2,0 h 2 v 2 h -2 z m -2,0 h 2 v 2 h -2 z m -2,0 h 2 v 2 h -2 z m -2,0 h 2 v 2 h -2 z m -2,0 h 2 v 2 h -2 z m -2,0 h 2 v 2 h -2 z m -2,0 h 2 v 2 h -2 z m -2,0 h 2 v 2 h -2 z m -2,0 h 2 v 2 h -2 z m 58,-4 h 2 v 2 h -2 z m -2,0 h 2 v 2 h -2 z m -2,0 h 2 v 2 h -2 z m -2,0 h 2 v 2 h -2 z m -2,0 h 2 v 2 h -2 z m -2,0 h 2 v 2 h -2 z m -2,0 h 2 v 2 h -2 z m -2,0 h 2 v 2 h -2 z m -2,0 h 2 v 2 h -2 z m -2,0 h 2 v 2 h -2 z m -2,0 h 2 v 2 h -2 z m -2,0 h 2 v 2 h -2 z m -2,0 h 2 v 2 h -2 z m -2,0 h 2 v 2 h -2 z m -2,0 h 2 v 2 h -2 z m -2,0 h 2 v 2 h -2 z m -2,0 h 2 v 2 h -2 z m -2,0 h 2 v 2 h -2 z m -2,0 h 2 v 2 h -2 z m -2,0 h 2 v 2 h -2 z m -2,0 h 2 v 2 h -2 z m -2,0 h 2 v 2 h -2 z m -2,0 h 2 v 2 h -2 z m -2,0 h 2 v 2 h -2 z m -2,0 h 2 v 2 h -2 z m -2,0 h 2 v 2 h -2 z m -2,0 h 2 v 2 h -2 z m -2,0 h 2 v 2 h -2 z m -2,0 h 2 v 2 h -2 z m -2,0 h 2 v 2 h -2 z m -2,0 h 2 v 2 h -2 z m 60,-2 h 2 v 2 h -2 z m -2,0 h 2 v 2 h -2 z m -2,0 h 2 v 2 h -2 z m -2,0 h 2 v 2 h -2 z m -2,0 h 2 v 2 h -2 z m -2,0 h 2 v 2 h -2 z m -2,0 h 2 v 2 h -2 z m -2,0 h 2 v 2 h -2 z m -2,0 h 2 v 2 h -2 z m -2,0 h 2 v 2 h -2 z m -2,0 h 2 v 2 h -2 z m -2,0 h 2 v 2 h -2 z m -2,0 h 2 v 2 h -2 z m -2,0 h 2 v 2 h -2 z m -2,0 h 2 v 2 h -2 z m -2,0 h 2 v 2 h -2 z m -2,0 h 2 v 2 h -2 z m -2,0 h 2 v 2 h -2 z m -2,0 h 2 v 2 h -2 z m -2,0 h 2 v 2 h -2 z m -2,0 h 2 v 2 h -2 z m -2,0 h 2 v 2 h -2 z m -2,0 h 2 v 2 h -2 z m -2,0 h 2 v 2 h -2 z m -2,0 h 2 v 2 h -2 z m -2,0 h 2 v 2 h -2 z m -2,0 h 2 v 2 h -2 z m -2,0 h 2 v 2 h -2 z m -2,0 h 2 v 2 h -2 z m -2,0 h 2 v 2 h -2 z m -2,0 h 2 v 2 h -2 z m 60,-2 h 2 v 2 h -2 z m -2,0 h 2 v 2 h -2 z m -2,0 h 2 v 2 h -2 z m -2,0 h 2 v 2 h -2 z m -2,0 h 2 v 2 h -2 z m -2,0 h 2 v 2 h -2 z m -2,0 h 2 v 2 h -2 z m -2,0 h 2 v 2 h -2 z m -2,0 h 2 v 2 h -2 z m -2,0 h 2 v 2 h -2 z m -2,0 h 2 v 2 h -2 z m -2,0 h 2 v 2 h -2 z m -2,0 h 2 v 2 h -2 z m -2,0 h 2 v 2 h -2 z m -2,0 h 2 v 2 h -2 z m -2,0 h 2 v 2 h -2 z m -2,0 h 2 v 2 h -2 z m -2,0 h 2 v 2 h -2 z m -2,0 h 2 v 2 h -2 z m -2,0 h 2 v 2 h -2 z m -2,0 h 2 v 2 h -2 z m -2,0 h 2 v 2 h -2 z m -2,0 h 2 v 2 h -2 z m -2,0 h 2 v 2 h -2 z m -2,0 h 2 v 2 h -2 z m -2,0 h 2 v 2 h -2 z m -2,0 h 2 v 2 h -2 z m -2,0 h 2 v 2 h -2 z m -2,0 h 2 v 2 h -2 z m -2,0 h 2 v 2 h -2 z m -2,0 h 2 v 2 h -2 z m 60,-2 h 2 v 2 h -2 z m -2,0 h 2 v 2 h -2 z m -2,0 h 2 v 2 h -2 z m -2,0 h 2 v 2 h -2 z m -2,0 h 2 v 2 h -2 z m -2,0 h 2 v 2 h -2 z m -2,0 h 2 v 2 h -2 z m -2,0 h 2 v 2 h -2 z m -2,0 h 2 v 2 h -2 z m -2,0 h 2 v 2 h -2 z m -2,0 h 2 v 2 h -2 z m -2,0 h 2 v 2 h -2 z m -2,0 h 2 v 2 h -2 z m -2,0 h 2 v 2 h -2 z m -2,0 h 2 v 2 h -2 z m -2,0 h 2 v 2 h -2 z m -2,0 h 2 v 2 h -2 z m -2,0 h 2 v 2 h -2 z m -2,0 h 2 v 2 h -2 z m -2,0 h 2 v 2 h -2 z m -2,0 h 2 v 2 h -2 z m -2,0 h 2 v 2 h -2 z m -2,0 h 2 v 2 h -2 z m -2,0 h 2 v 2 h -2 z m -2,0 h 2 v 2 h -2 z m -2,0 h 2 v 2 h -2 z m -2,0 h 2 v 2 h -2 z m -2,0 h 2 v 2 h -2 z m -2,0 h 2 v 2 h -2 z m -2,0 h 2 v 2 h -2 z m -2,0 h 2 v 2 h -2 z m 60,-2 h 2 v 2 h -2 z m -2,0 h 2 v 2 h -2 z m -2,0 h 2 v 2 h -2 z m -2,0 h 2 v 2 h -2 z m -2,0 h 2 v 2 h -2 z m -2,0 h 2 v 2 h -2 z m -2,0 h 2 v 2 h -2 z m -2,0 h 2 v 2 h -2 z m -2,0 h 2 v 2 h -2 z m -2,0 h 2 v 2 h -2 z m -2,0 h 2 v 2 h -2 z m -2,0 h 2 v 2 h -2 z m -2,0 h 2 v 2 h -2 z m -2,0 h 2 v 2 h -2 z m -2,0 h 2 v 2 h -2 z m -2,0 h 2 v 2 h -2 z m -2,0 h 2 v 2 h -2 z m -2,0 h 2 v 2 h -2 z m -2,0 h 2 v 2 h -2 z m -2,0 h 2 v 2 h -2 z m -2,0 h 2 v 2 h -2 z m -2,0 h 2 v 2 h -2 z m -2,0 h 2 v 2 h -2 z m -2,0 h 2 v 2 h -2 z m -2,0 h 2 v 2 h -2 z m -2,0 h 2 v 2 h -2 z m -2,0 h 2 v 2 h -2 z m -2,0 h 2 v 2 h -2 z m -2,0 h 2 v 2 h -2 z m -2,0 h 2 v 2 h -2 z m -2,0 h 2 v 2 h -2 z m 60,-2 h 2 v 2 h -2 z m -2,0 h 2 v 2 h -2 z m -2,0 h 2 v 2 h -2 z m -2,0 h 2 v 2 h -2 z m -2,0 h 2 v 2 h -2 z m -2,0 h 2 v 2 h -2 z m -2,0 h 2 v 2 h -2 z m -2,0 h 2 v 2 h -2 z m -2,0 h 2 v 2 h -2 z m -2,0 h 2 v 2 h -2 z m -2,0 h 2 v 2 h -2 z m -2,0 h 2 v 2 h -2 z m -2,0 h 2 v 2 h -2 z m -2,0 h 2 v 2 h -2 z m -2,0 h 2 v 2 h -2 z m -2,0 h 2 v 2 h -2 z m -2,0 h 2 v 2 h -2 z m -2,0 h 2 v 2 h -2 z m -2,0 h 2 v 2 h -2 z m -2,0 h 2 v 2 h -2 z m -2,0 h 2 v 2 h -2 z m -2,0 h 2 v 2 h -2 z m -2,0 h 2 v 2 h -2 z m -2,0 h 2 v 2 h -2 z m -2,0 h 2 v 2 h -2 z m -2,0 h 2 v 2 h -2 z m -2,0 h 2 v 2 h -2 z m -2,0 h 2 v 2 h -2 z m -2,0 h 2 v 2 h -2 z m -2,0 h 2 v 2 h -2 z m -2,0 h 2 v 2 h -2 z m 58,-2 h 2 v 2 h -2 z m -2,0 h 2 v 2 h -2 z m -2,0 h 2 v 2 h -2 z m -2,0 h 2 v 2 h -2 z m -2,0 h 2 v 2 h -2 z m -2,0 h 2 v 2 h -2 z m -2,0 h 2 v 2 h -2 z m -2,0 h 2 v 2 h -2 z m -2,0 h 2 v 2 h -2 z m -2,0 h 2 v 2 h -2 z m -2,0 h 2 v 2 h -2 z m -2,0 h 2 v 2 h -2 z m -2,0 h 2 v 2 h -2 z m -2,0 h 2 v 2 h -2 z m -2,0 h 2 v 2 h -2 z m -2,0 h 2 v 2 h -2 z m -2,0 h 2 v 2 h -2 z m -2,0 h 2 v 2 h -2 z m -2,0 h 2 v 2 h -2 z m -2,0 h 2 v 2 h -2 z m -2,0 h 2 v 2 h -2 z m -2,0 h 2 v 2 h -2 z m -2,0 h 2 v 2 h -2 z m -2,0 h 2 v 2 h -2 z m -2,0 h 2 v 2 h -2 z m -2,0 h 2 v 2 h -2 z m -2,0 h 2 v 2 h -2 z m -2,0 h 2 v 2 h -2 z m -2,0 h 2 v 2 h -2 z m 56,-2 h 2 v 2 h -2 z m -2,0 h 2 v 2 h -2 z m -2,0 h 2 v 2 h -2 z m -2,0 h 2 v 2 h -2 z m -2,0 h 2 v 2 h -2 z m -2,0 h 2 v 2 h -2 z m -2,0 h 2 v 2 h -2 z m -2,0 h 2 v 2 h -2 z m -2,0 h 2 v 2 h -2 z m -2,0 h 2 v 2 h -2 z m -2,0 h 2 v 2 h -2 z m -2,0 h 2 v 2 h -2 z m -2,0 h 2 v 2 h -2 z m -2,0 h 2 v 2 h -2 z m -2,0 h 2 v 2 h -2 z m -2,0 h 2 v 2 h -2 z m -2,0 h 2 v 2 h -2 z m -2,0 h 2 v 2 h -2 z m -2,0 h 2 v 2 h -2 z m -2,0 h 2 v 2 h -2 z m -2,0 h 2 v 2 h -2 z m -2,0 h 2 v 2 h -2 z m -2,0 h 2 v 2 h -2 z m -2,0 h 2 v 2 h -2 z m -2,0 h 2 v 2 h -2 z m -2,0 h 2 v 2 h -2 z m -2,0 h 2 v 2 h -2 z m -2,0 h 2 v 2 h -2 z m -2,0 h 2 v 2 h -2 z m 54,-2 h 2 v 2 h -2 z m -2,0 h 2 v 2 h -2 z m -2,0 h 2 v 2 h -2 z m -2,0 h 2 v 2 h -2 z m -2,0 h 2 v 2 h -2 z m -2,0 h 2 v 2 h -2 z m -2,0 h 2 v 2 h -2 z m -2,0 h 2 v 2 h -2 z m -2,0 h 2 v 2 h -2 z m -2,0 h 2 v 2 h -2 z m -2,0 h 2 v 2 h -2 z m -2,0 h 2 v 2 h -2 z m -2,0 h 2 v 2 h -2 z m -2,0 h 2 v 2 h -2 z m -2,0 h 2 v 2 h -2 z m -2,0 h 2 v 2 h -2 z m -2,0 h 2 v 2 h -2 z m -2,0 h 2 v 2 h -2 z m -2,0 h 2 v 2 h -2 z m -2,0 h 2 v 2 h -2 z m -2,0 h 2 v 2 h -2 z m -2,0 h 2 v 2 h -2 z m -2,0 h 2 v 2 h -2 z m -2,0 h 2 v 2 h -2 z m -2,0 h 2 v 2 h -2 z m -2,0 h 2 v 2 h -2 z m -2,0 h 2 v 2 h -2 z m 52,-2 h 2 v 2 h -2 z m -2,0 h 2 v 2 h -2 z m -2,0 h 2 v 2 h -2 z m -2,0 h 2 v 2 h -2 z m -2,0 h 2 v 2 h -2 z m -2,0 h 2 v 2 h -2 z m -2,0 h 2 v 2 h -2 z m -2,0 h 2 v 2 h -2 z m -2,0 h 2 v 2 h -2 z m -2,0 h 2 v 2 h -2 z m -2,0 h 2 v 2 h -2 z m -2,0 h 2 v 2 h -2 z m -2,0 h 2 v 2 h -2 z m -2,0 h 2 v 2 h -2 z m -2,0 h 2 v 2 h -2 z m -2,0 h 2 v 2 h -2 z m -2,0 h 2 v 2 h -2 z m -2,0 h 2 v 2 h -2 z m -2,0 h 2 v 2 h -2 z m -2,0 h 2 v 2 h -2 z m -2,0 h 2 v 2 h -2 z m -2,0 h 2 v 2 h -2 z m -2,0 h 2 v 2 h -2 z m -2,0 h 2 v 2 h -2 z m -2,0 h 2 v 2 h -2 z m -2,0 h 2 v 2 h -2 z m -2,0 h 2 v 2 h -2 z m 50,-2 h 2 v 2 h -2 z m -2,0 h 2 v 2 h -2 z m -2,0 h 2 v 2 h -2 z m -2,0 h 2 v 2 h -2 z m -2,0 h 2 v 2 h -2 z m -2,0 h 2 v 2 h -2 z m -2,0 h 2 v 2 h -2 z m -2,0 h 2 v 2 h -2 z m -2,0 h 2 v 2 h -2 z m -2,0 h 2 v 2 h -2 z m -2,0 h 2 v 2 h -2 z m -2,0 h 2 v 2 h -2 z m -2,0 h 2 v 2 h -2 z m -2,0 h 2 v 2 h -2 z m -2,0 h 2 v 2 h -2 z m -2,0 h 2 v 2 h -2 z m -2,0 h 2 v 2 h -2 z m -2,0 h 2 v 2 h -2 z m -2,0 h 2 v 2 h -2 z m -2,0 h 2 v 2 h -2 z m -2,0 h 2 v 2 h -2 z m -2,0 h 2 v 2 h -2 z m -2,0 h 2 v 2 h -2 z m -2,0 h 2 v 2 h -2 z m -2,0 h 2 v 2 h -2 z m 48,-2 h 2 v 2 h -2 z m -2,0 h 2 v 2 h -2 z m -2,0 h 2 v 2 h -2 z m -2,0 h 2 v 2 h -2 z m -2,0 h 2 v 2 h -2 z m -2,0 h 2 v 2 h -2 z m -2,0 h 2 v 2 h -2 z m -2,0 h 2 v 2 h -2 z m -2,0 h 2 v 2 h -2 z m -2,0 h 2 v 2 h -2 z m -2,0 h 2 v 2 h -2 z m -2,0 h 2 v 2 h -2 z m -2,0 h 2 v 2 h -2 z m -2,0 h 2 v 2 h -2 z m -2,0 h 2 v 2 h -2 z m -2,0 h 2 v 2 h -2 z m -2,0 h 2 v 2 h -2 z m -2,0 h 2 v 2 h -2 z m -2,0 h 2 v 2 h -2 z m -2,0 h 2 v 2 h -2 z m -2,0 h 2 v 2 h -2 z m -2,0 h 2 v 2 h -2 z m -2,0 h 2 v 2 h -2 z m -2,0 h 2 v 2 h -2 z m -2,0 h 2 v 2 h -2 z m 46,-2 h 2 v 2 h -2 z m -2,0 h 2 v 2 h -2 z m -2,0 h 2 v 2 h -2 z m -2,0 h 2 v 2 h -2 z m -2,0 h 2 v 2 h -2 z m -2,0 h 2 v 2 h -2 z m -2,0 h 2 v 2 h -2 z m -2,0 h 2 v 2 h -2 z m -2,0 h 2 v 2 h -2 z m -2,0 h 2 v 2 h -2 z m -2,0 h 2 v 2 h -2 z m -2,0 h 2 v 2 h -2 z m -2,0 h 2 v 2 h -2 z m -2,0 h 2 v 2 h -2 z m -2,0 h 2 v 2 h -2 z m -2,0 h 2 v 2 h -2 z m -2,0 h 2 v 2 h -2 z m -2,0 h 2 v 2 h -2 z m -2,0 h 2 v 2 h -2 z m -2,0 h 2 v 2 h -2 z m -2,0 h 2 v 2 h -2 z m -2,0 h 2 v 2 h -2 z m -2,0 h 2 v 2 h -2 z m 42,-2 h 2 v 2 h -2 z m -2,0 h 2 v 2 h -2 z m -2,0 h 2 v 2 h -2 z m -2,0 h 2 v 2 h -2 z m -2,0 h 2 v 2 h -2 z m -2,0 h 2 v 2 h -2 z m -2,0 h 2 v 2 h -2 z m -2,0 h 2 v 2 h -2 z m -2,0 h 2 v 2 h -2 z m -2,0 h 2 v 2 h -2 z m -2,0 h 2 v 2 h -2 z m -2,0 h 2 v 2 h -2 z m -2,0 h 2 v 2 h -2 z m -2,0 h 2 v 2 h -2 z m -2,0 h 2 v 2 h -2 z m -2,0 h 2 v 2 h -2 z m -2,0 h 2 v 2 h -2 z m -2,0 h 2 v 2 h -2 z m -2,0 h 2 v 2 h -2 z m -2,0 h 2 v 2 h -2 z m -2,0 h 2 v 2 h -2 z m 36,-2 h 2 v 2 h -2 z m -2,0 h 2 v 2 h -2 z m -2,0 h 2 v 2 h -2 z m -2,0 h 2 v 2 h -2 z m -2,0 h 2 v 2 h -2 z m -2,0 h 2 v 2 h -2 z m -2,0 h 2 v 2 h -2 z m -2,0 h 2 v 2 h -2 z m -2,0 h 2 v 2 h -2 z m -2,0 h 2 v 2 h -2 z m -2,0 h 2 v 2 h -2 z m -2,0 h 2 v 2 h -2 z m -2,0 h 2 v 2 h -2 z m -2,0 h 2 v 2 h -2 z m -2,0 h 2 v 2 h -2 z m -2,0 h 2 v 2 h -2 z m -2,0 h 2 v 2 h -2 z m 28,-2 h 2 v 2 h -2 z m -2,0 h 2 v 2 h -2 z m -2,0 h 2 v 2 h -2 z m -2,0 h 2 v 2 h -2 z m -2,0 h 2 v 2 h -2 z m -2,0 h 2 v 2 h -2 z m -2,0 h 2 v 2 h -2 z m -2,0 h 2 v 2 h -2 z m -2,0 h 2 v 2 h -2 z m -2,0 h 2 v 2 h -2 z m -2,0 h 2 v 2 h -2 z m -2,0 h 2 v 2 h -2 z m -2,0 h 2 v 2 h -2 z m 20,-2 h 2 v 2 h -2 z m -2,0 h 2 v 2 h -2 z m -2,0 h 2 v 2 h -2 z m -2,0 h 2 v 2 h -2 z m -2,0 h 2 v 2 h -2 z m -2,0 h 2 v 2 h -2 z m -2,0 h 2 v 2 h -2 z m -2,0 h 2 v 2 h -2 z m -2,0 h 2 v 2 h -2 z" />
  <path
     id="rect16094"
     style="fill:#ffffff"
     d="m 284,104 h 2 v 2 h -2 z m -2,0 h 2 v 2 h -2 z m -18,0 h 2 v 2 h -2 z m -2,0 h 2 v 2 h -2 z m -10,0 h 2 v 2 h -2 z m -2,0 h 2 v 2 h -2 z m -18,0 h 2 v 2 h -2 z m -2,0 h 2 v 2 h -2 z m -10,0 h 2 v 2 h -2 z m -2,0 h 2 v 2 h -2 z m -18,0 h 2 v 2 h -2 z m -2,0 h 2 v 2 h -2 z m -18,0 h 2 v 2 h -2 z m -2,0 h 2 v 2 h -2 z m -2,0 h 2 v 2 h -2 z m -2,0 h 2 v 2 h -2 z m -2,0 h 2 v 2 h -2 z m -2,0 h 2 v 2 h -2 z m -2,0 h 2 v 2 h -2 z m -2,0 h 2 v 2 h -2 z m -10,0 h 2 v 2 h -2 z m -2,0 h 2 v 2 h -2 z m -2,0 h 2 v 2 h -2 z m -2,0 h 2 v 2 h -2 z m -6,0 h 2 v 2 h -2 z m -2,0 h 2 v 2 h -2 z m -6,0 h 2 v 2 h -2 z m -2,0 h 2 v 2 h -2 z m -10,0 h 2 v 2 h -2 z m -2,0 h 2 v 2 h -2 z m -14,0 h 2 v 2 h -2 z m -2,0 h 2 v 2 h -2 z m -6,0 h 2 v 2 h -2 z m -2,0 h 2 v 2 h -2 z m -6,0 h 2 v 2 h -2 z m -2,0 h 2 v 2 h -2 z m -10,0 h 2 v 2 h -2 z m -2,0 h 2 v 2 h -2 z m -14,0 h 2 v 2 h -2 z m -2,0 h 2 v 2 h -2 z m -2,0 h 2 v 2 h -2 z m -2,0 h 2 v 2 h -2 z m -10,0 h 2 v 2 h -2 z m -2,0 h 2 v 2 h -2 z m -10,0 h 2 v 2 h -2 z m -2,0 h 2 v 2 h -2 z m -10,0 h 2 v 2 h -2 z m -2,0 h 2 v 2 h -2 z m -2,0 h 2 v 2 h -2 z m -2,0 h 2 v 2 h -2 z m 266,-2 h 2 v 2 h -2 z m -2,0 h 2 v 2 h -2 z m -18,0 h 2 v 2 h -2 z m -2,0 h 2 v 2 h -2 z m -10,0 h 2 v 2 h -2 z m -2,0 h 2 v 2 h -2 z m -18,0 h 2 v 2 h -2 z m -2,0 h 2 v 2 h -2 z m -10,0 h 2 v 2 h -2 z m -2,0 h 2 v 2 h -2 z m -18,0 h 2 v 2 h -2 z m -2,0 h 2 v 2 h -2 z m -18,0 h 2 v 2 h -2 z m -2,0 h 2 v 2 h -2 z m -2,0 h 2 v 2 h -2 z m -2,0 h 2 v 2 h -2 z m -2,0 h 2 v 2 h -2 z m -2,0 h 2 v 2 h -2 z m -2,0 h 2 v 2 h -2 z m -2,0 h 2 v 2 h -2 z m -10,0 h 2 v 2 h -2 z m -2,0 h 2 v 2 h -2 z m -2,0 h 2 v 2 h -2 z m -2,0 h 2 v 2 h -2 z m -6,0 h 2 v 2 h -2 z m -2,0 h 2 v 2 h -2 z m -6,0 h 2 v 2 h -2 z m -2,0 h 2 v 2 h -2 z m -10,0 h 2 v 2 h -2 z m -2,0 h 2 v 2 h -2 z m -14,0 h 2 v 2 h -2 z m -2,0 h 2 v 2 h -2 z m -6,0 h 2 v 2 h -2 z m -2,0 h 2 v 2 h -2 z m -6,0 h 2 v 2 h -2 z m -2,0 h 2 v 2 h -2 z m -10,0 h 2 v 2 h -2 z m -2,0 h 2 v 2 h -2 z m -14,0 h 2 v 2 h -2 z m -2,0 h 2 v 2 h -2 z m -2,0 h 2 v 2 h -2 z m -2,0 h 2 v 2 h -2 z m -10,0 h 2 v 2 h -2 z m -2,0 h 2 v 2 h -2 z m -10,0 h 2 v 2 h -2 z m -2,0 h 2 v 2 h -2 z m -10,0 h 2 v 2 h -2 z m -2,0 h 2 v 2 h -2 z m -2,0 h 2 v 2 h -2 z m -2,0 h 2 v 2 h -2 z m 266,-2 h 2 v 2 h -2 z m -2,0 h 2 v 2 h -2 z m -18,0 h 2 v 2 h -2 z m -2,0 h 2 v 2 h -2 z m -10,0 h 2 v 2 h -2 z m -2,0 h 2 v 2 h -2 z m -18,0 h 2 v 2 h -2 z m -2,0 h 2 v 2 h -2 z m -10,0 h 2 v 2 h -2 z m -2,0 h 2 v 2 h -2 z m -18,0 h 2 v 2 h -2 z m -2,0 h 2 v 2 h -2 z m -14,0 h 2 v 2 h -2 z m -2,0 h 2 v 2 h -2 z m -14,0 h 2 v 2 h -2 z m -2,0 h 2 v 2 h -2 z m -14,0 h 2 v 2 h -2 z m -2,0 h 2 v 2 h -2 z m -6,0 h 2 v 2 h -2 z m -2,0 h 2 v 2 h -2 z m -6,0 h 2 v 2 h -2 z m -2,0 h 2 v 2 h -2 z m -10,0 h 2 v 2 h -2 z m -2,0 h 2 v 2 h -2 z m -14,0 h 2 v 2 h -2 z m -2,0 h 2 v 2 h -2 z m -6,0 h 2 v 2 h -2 z m -2,0 h 2 v 2 h -2 z m -6,0 h 2 v 2 h -2 z m -2,0 h 2 v 2 h -2 z m -10,0 h 2 v 2 h -2 z m -2,0 h 2 v 2 h -2 z m -10,0 h 2 v 2 h -2 z m -2,0 h 2 v 2 h -2 z m -10,0 h 2 v 2 h -2 z m -2,0 h 2 v 2 h -2 z m -6,0 h 2 v 2 h -2 z m -2,0 h 2 v 2 h -2 z m -10,0 h 2 v 2 h -2 z m -2,0 h 2 v 2 h -2 z m -6,0 h 2 v 2 h -2 z m -2,0 h 2 v 2 h -2 z m -10,0 h 2 v 2 h -2 z m -2,0 h 2 v 2 h -2 z m 270,-2 h 2 v 2 h -2 z m -2,0 h 2 v 2 h -2 z m -18,0 h 2 v 2 h -2 z m -2,0 h 2 v 2 h -2 z m -10,0 h 2 v 2 h -2 z m -2,0 h 2 v 2 h -2 z m -18,0 h 2 v 2 h -2 z m -2,0 h 2 v 2 h -2 z m -10,0 h 2 v 2 h -2 z m -2,0 h 2 v 2 h -2 z m -18,0 h 2 v 2 h -2 z m -2,0 h 2 v 2 h -2 z m -14,0 h 2 v 2 h -2 z m -2,0 h 2 v 2 h -2 z m -14,0 h 2 v 2 h -2 z m -2,0 h 2 v 2 h -2 z m -14,0 h 2 v 2 h -2 z m -2,0 h 2 v 2 h -2 z m -6,0 h 2 v 2 h -2 z m -2,0 h 2 v 2 h -2 z m -6,0 h 2 v 2 h -2 z m -2,0 h 2 v 2 h -2 z m -10,0 h 2 v 2 h -2 z m -2,0 h 2 v 2 h -2 z m -14,0 h 2 v 2 h -2 z m -2,0 h 2 v 2 h -2 z m -6,0 h 2 v 2 h -2 z m -2,0 h 2 v 2 h -2 z m -6,0 h 2 v 2 h -2 z m -2,0 h 2 v 2 h -2 z m -10,0 h 2 v 2 h -2 z m -2,0 h 2 v 2 h -2 z m -10,0 h 2 v 2 h -2 z m -2,0 h 2 v 2 h -2 z m -10,0 h 2 v 2 h -2 z m -2,0 h 2 v 2 h -2 z m -6,0 h 2 v 2 h -2 z m -2,0 h 2 v 2 h -2 z m -10,0 h 2 v 2 h -2 z m -2,0 h 2 v 2 h -2 z m -6,0 h 2 v 2 h -2 z m -2,0 h 2 v 2 h -2 z m -10,0 h 2 v 2 h -2 z m -2,0 h 2 v 2 h -2 z m 270,-2 h 2 v 2 h -2 z m -2,0 h 2 v 2 h -2 z m -18,0 h 2 v 2 h -2 z m -2,0 h 2 v 2 h -2 z m -10,0 h 2 v 2 h -2 z m -2,0 h 2 v 2 h -2 z m -18,0 h 2 v 2 h -2 z m -2,0 h 2 v 2 h -2 z m -10,0 h 2 v 2 h -2 z m -2,0 h 2 v 2 h -2 z m -18,0 h 2 v 2 h -2 z m -2,0 h 2 v 2 h -2 z m -10,0 h 2 v 2 h -2 z m -2,0 h 2 v 2 h -2 z m -18,0 h 2 v 2 h -2 z m -2,0 h 2 v 2 h -2 z m -10,0 h 2 v 2 h -2 z m -2,0 h 2 v 2 h -2 z m -2,0 h 2 v 2 h -2 z m -2,0 h 2 v 2 h -2 z m -6,0 h 2 v 2 h -2 z m -2,0 h 2 v 2 h -2 z m -2,0 h 2 v 2 h -2 z m -2,0 h 2 v 2 h -2 z m -2,0 h 2 v 2 h -2 z m -2,0 h 2 v 2 h -2 z m -10,0 h 2 v 2 h -2 z m -2,0 h 2 v 2 h -2 z m -14,0 h 2 v 2 h -2 z m -2,0 h 2 v 2 h -2 z m -6,0 h 2 v 2 h -2 z m -2,0 h 2 v 2 h -2 z m -6,0 h 2 v 2 h -2 z m -2,0 h 2 v 2 h -2 z m -10,0 h 2 v 2 h -2 z m -2,0 h 2 v 2 h -2 z m -10,0 h 2 v 2 h -2 z m -2,0 h 2 v 2 h -2 z m -10,0 h 2 v 2 h -2 z m -2,0 h 2 v 2 h -2 z m -6,0 h 2 v 2 h -2 z m -2,0 h 2 v 2 h -2 z m -10,0 h 2 v 2 h -2 z m -2,0 h 2 v 2 h -2 z m -6,0 h 2 v 2 h -2 z m -2,0 h 2 v 2 h -2 z m -10,0 h 2 v 2 h -2 z m -2,0 h 2 v 2 h -2 z m 270,-2 h 2 v 2 h -2 z m -2,0 h 2 v 2 h -2 z m -18,0 h 2 v 2 h -2 z m -2,0 h 2 v 2 h -2 z m -10,0 h 2 v 2 h -2 z m -2,0 h 2 v 2 h -2 z m -18,0 h 2 v 2 h -2 z m -2,0 h 2 v 2 h -2 z m -10,0 h 2 v 2 h -2 z m -2,0 h 2 v 2 h -2 z m -18,0 h 2 v 2 h -2 z m -2,0 h 2 v 2 h -2 z m -10,0 h 2 v 2 h -2 z m -2,0 h 2 v 2 h -2 z m -18,0 h 2 v 2 h -2 z m -2,0 h 2 v 2 h -2 z m -10,0 h 2 v 2 h -2 z m -2,0 h 2 v 2 h -2 z m -2,0 h 2 v 2 h -2 z m -2,0 h 2 v 2 h -2 z m -6,0 h 2 v 2 h -2 z m -2,0 h 2 v 2 h -2 z m -2,0 h 2 v 2 h -2 z m -2,0 h 2 v 2 h -2 z m -2,0 h 2 v 2 h -2 z m -2,0 h 2 v 2 h -2 z m -10,0 h 2 v 2 h -2 z m -2,0 h 2 v 2 h -2 z m -14,0 h 2 v 2 h -2 z m -2,0 h 2 v 2 h -2 z m -6,0 h 2 v 2 h -2 z m -2,0 h 2 v 2 h -2 z m -6,0 h 2 v 2 h -2 z m -2,0 h 2 v 2 h -2 z m -10,0 h 2 v 2 h -2 z m -2,0 h 2 v 2 h -2 z m -10,0 h 2 v 2 h -2 z m -2,0 h 2 v 2 h -2 z m -10,0 h 2 v 2 h -2 z m -2,0 h 2 v 2 h -2 z m -6,0 h 2 v 2 h -2 z m -2,0 h 2 v 2 h -2 z m -10,0 h 2 v 2 h -2 z m -2,0 h 2 v 2 h -2 z m -6,0 h 2 v 2 h -2 z m -2,0 h 2 v 2 h -2 z m -10,0 h 2 v 2 h -2 z m -2,0 h 2 v 2 h -2 z m 270,-2 h 2 v 2 h -2 z m -2,0 h 2 v 2 h -2 z m -18,0 h 2 v 2 h -2 z m -2,0 h 2 v 2 h -2 z m -10,0 h 2 v 2 h -2 z m -2,0 h 2 v 2 h -2 z m -18,0 h 2 v 2 h -2 z m -2,0 h 2 v 2 h -2 z m -10,0 h 2 v 2 h -2 z m -2,0 h 2 v 2 h -2 z m -18,0 h 2 v 2 h -2 z m -2,0 h 2 v 2 h -2 z m -10,0 h 2 v 2 h -2 z m -2,0 h 2 v 2 h -2 z m -18,0 h 2 v 2 h -2 z m -2,0 h 2 v 2 h -2 z m -14,0 h 2 v 2 h -2 z m -2,0 h 2 v 2 h -2 z m -6,0 h 2 v 2 h -2 z m -2,0 h 2 v 2 h -2 z m -6,0 h 2 v 2 h -2 z m -2,0 h 2 v 2 h -2 z m -6,0 h 2 v 2 h -2 z m -2,0 h 2 v 2 h -2 z m -2,0 h 2 v 2 h -2 z m -2,0 h 2 v 2 h -2 z m -2,0 h 2 v 2 h -2 z m -2,0 h 2 v 2 h -2 z m -10,0 h 2 v 2 h -2 z m -2,0 h 2 v 2 h -2 z m -6,0 h 2 v 2 h -2 z m -2,0 h 2 v 2 h -2 z m -18,0 h 2 v 2 h -2 z m -2,0 h 2 v 2 h -2 z m -10,0 h 2 v 2 h -2 z m -2,0 h 2 v 2 h -2 z m -10,0 h 2 v 2 h -2 z m -2,0 h 2 v 2 h -2 z m -6,0 h 2 v 2 h -2 z m -2,0 h 2 v 2 h -2 z m -10,0 h 2 v 2 h -2 z m -2,0 h 2 v 2 h -2 z m -6,0 h 2 v 2 h -2 z m -2,0 h 2 v 2 h -2 z m 258,-2 h 2 v 2 h -2 z m -2,0 h 2 v 2 h -2 z m -18,0 h 2 v 2 h -2 z m -2,0 h 2 v 2 h -2 z m -10,0 h 2 v 2 h -2 z m -2,0 h 2 v 2 h -2 z m -18,0 h 2 v 2 h -2 z m -2,0 h 2 v 2 h -2 z m -10,0 h 2 v 2 h -2 z m -2,0 h 2 v 2 h -2 z m -18,0 h 2 v 2 h -2 z m -2,0 h 2 v 2 h -2 z m -10,0 h 2 v 2 h -2 z m -2,0 h 2 v 2 h -2 z m -18,0 h 2 v 2 h -2 z m -2,0 h 2 v 2 h -2 z m -14,0 h 2 v 2 h -2 z m -2,0 h 2 v 2 h -2 z m -6,0 h 2 v 2 h -2 z m -2,0 h 2 v 2 h -2 z m -6,0 h 2 v 2 h -2 z m -2,0 h 2 v 2 h -2 z m -6,0 h 2 v 2 h -2 z m -2,0 h 2 v 2 h -2 z m -2,0 h 2 v 2 h -2 z m -2,0 h 2 v 2 h -2 z m -2,0 h 2 v 2 h -2 z m -2,0 h 2 v 2 h -2 z m -10,0 h 2 v 2 h -2 z m -2,0 h 2 v 2 h -2 z m -6,0 h 2 v 2 h -2 z m -2,0 h 2 v 2 h -2 z m -18,0 h 2 v 2 h -2 z m -2,0 h 2 v 2 h -2 z m -10,0 h 2 v 2 h -2 z m -2,0 h 2 v 2 h -2 z m -10,0 h 2 v 2 h -2 z m -2,0 h 2 v 2 h -2 z m -6,0 h 2 v 2 h -2 z m -2,0 h 2 v 2 h -2 z m -10,0 h 2 v 2 h -2 z m -2,0 h 2 v 2 h -2 z m -6,0 h 2 v 2 h -2 z m -2,0 h 2 v 2 h -2 z m 254,-2 h 2 v 2 h -2 z m -2,0 h 2 v 2 h -2 z m -14,0 h 2 v 2 h -2 z m -2,0 h 2 v 2 h -2 z m -10,0 h 2 v 2 h -2 z m -2,0 h 2 v 2 h -2 z m -18,0 h 2 v 2 h -2 z m -2,0 h 2 v 2 h -2 z m -10,0 h 2 v 2 h -2 z m -2,0 h 2 v 2 h -2 z m -18,0 h 2 v 2 h -2 z m -2,0 h 2 v 2 h -2 z m -10,0 h 2 v 2 h -2 z m -2,0 h 2 v 2 h -2 z m -18,0 h 2 v 2 h -2 z m -2,0 h 2 v 2 h -2 z m -10,0 h 2 v 2 h -2 z m -2,0 h 2 v 2 h -2 z m -2,0 h 2 v 2 h -2 z m -2,0 h 2 v 2 h -2 z m -6,0 h 2 v 2 h -2 z m -2,0 h 2 v 2 h -2 z m -6,0 h 2 v 2 h -2 z m -2,0 h 2 v 2 h -2 z m -10,0 h 2 v 2 h -2 z m -2,0 h 2 v 2 h -2 z m -14,0 h 2 v 2 h -2 z m -2,0 h 2 v 2 h -2 z m -2,0 h 2 v 2 h -2 z m -2,0 h 2 v 2 h -2 z m -10,0 h 2 v 2 h -2 z m -2,0 h 2 v 2 h -2 z m -10,0 h 2 v 2 h -2 z m -2,0 h 2 v 2 h -2 z m -10,0 h 2 v 2 h -2 z m -2,0 h 2 v 2 h -2 z m -10,0 h 2 v 2 h -2 z m -2,0 h 2 v 2 h -2 z m -6,0 h 2 v 2 h -2 z m -2,0 h 2 v 2 h -2 z m -10,0 h 2 v 2 h -2 z m -2,0 h 2 v 2 h -2 z m -6,0 h 2 v 2 h -2 z m -2,0 h 2 v 2 h -2 z m 254,-2 h 2 v 2 h -2 z m -2,0 h 2 v 2 h -2 z m -14,0 h 2 v 2 h -2 z m -2,0 h 2 v 2 h -2 z m -10,0 h 2 v 2 h -2 z m -2,0 h 2 v 2 h -2 z m -18,0 h 2 v 2 h -2 z m -2,0 h 2 v 2 h -2 z m -10,0 h 2 v 2 h -2 z m -2,0 h 2 v 2 h -2 z m -18,0 h 2 v 2 h -2 z m -2,0 h 2 v 2 h -2 z m -10,0 h 2 v 2 h -2 z m -2,0 h 2 v 2 h -2 z m -18,0 h 2 v 2 h -2 z m -2,0 h 2 v 2 h -2 z m -10,0 h 2 v 2 h -2 z m -2,0 h 2 v 2 h -2 z m -2,0 h 2 v 2 h -2 z m -2,0 h 2 v 2 h -2 z m -6,0 h 2 v 2 h -2 z m -2,0 h 2 v 2 h -2 z m -6,0 h 2 v 2 h -2 z m -2,0 h 2 v 2 h -2 z m -10,0 h 2 v 2 h -2 z m -2,0 h 2 v 2 h -2 z m -14,0 h 2 v 2 h -2 z m -2,0 h 2 v 2 h -2 z m -2,0 h 2 v 2 h -2 z m -2,0 h 2 v 2 h -2 z m -10,0 h 2 v 2 h -2 z m -2,0 h 2 v 2 h -2 z m -10,0 h 2 v 2 h -2 z m -2,0 h 2 v 2 h -2 z m -10,0 h 2 v 2 h -2 z m -2,0 h 2 v 2 h -2 z m -10,0 h 2 v 2 h -2 z m -2,0 h 2 v 2 h -2 z m -6,0 h 2 v 2 h -2 z m -2,0 h 2 v 2 h -2 z m -10,0 h 2 v 2 h -2 z m -2,0 h 2 v 2 h -2 z m -6,0 h 2 v 2 h -2 z m -2,0 h 2 v 2 h -2 z m 250,-2 h 2 v 2 h -2 z m -2,0 h 2 v 2 h -2 z m -10,0 h 2 v 2 h -2 z m -2,0 h 2 v 2 h -2 z m -14,0 h 2 v 2 h -2 z m -2,0 h 2 v 2 h -2 z m -14,0 h 2 v 2 h -2 z m -2,0 h 2 v 2 h -2 z m -10,0 h 2 v 2 h -2 z m -2,0 h 2 v 2 h -2 z m -18,0 h 2 v 2 h -2 z m -2,0 h 2 v 2 h -2 z m -10,0 h 2 v 2 h -2 z m -2,0 h 2 v 2 h -2 z m -18,0 h 2 v 2 h -2 z m -2,0 h 2 v 2 h -2 z m -86,0 h 2 v 2 h -2 z m -2,0 h 2 v 2 h -2 z m -10,0 h 2 v 2 h -2 z m -2,0 h 2 v 2 h -2 z m -10,0 h 2 v 2 h -2 z m -2,0 h 2 v 2 h -2 z m -6,0 h 2 v 2 h -2 z m -2,0 h 2 v 2 h -2 z m -10,0 h 2 v 2 h -2 z m -2,0 h 2 v 2 h -2 z m -6,0 h 2 v 2 h -2 z m -2,0 h 2 v 2 h -2 z m 250,-2 h 2 v 2 h -2 z m -2,0 h 2 v 2 h -2 z m -10,0 h 2 v 2 h -2 z m -2,0 h 2 v 2 h -2 z m -14,0 h 2 v 2 h -2 z m -2,0 h 2 v 2 h -2 z m -14,0 h 2 v 2 h -2 z m -2,0 h 2 v 2 h -2 z m -10,0 h 2 v 2 h -2 z m -2,0 h 2 v 2 h -2 z m -18,0 h 2 v 2 h -2 z m -2,0 h 2 v 2 h -2 z m -10,0 h 2 v 2 h -2 z m -2,0 h 2 v 2 h -2 z m -18,0 h 2 v 2 h -2 z m -2,0 h 2 v 2 h -2 z m -86,0 h 2 v 2 h -2 z m -2,0 h 2 v 2 h -2 z m -10,0 h 2 v 2 h -2 z m -2,0 h 2 v 2 h -2 z m -10,0 h 2 v 2 h -2 z m -2,0 h 2 v 2 h -2 z m -6,0 h 2 v 2 h -2 z m -2,0 h 2 v 2 h -2 z m -10,0 h 2 v 2 h -2 z m -2,0 h 2 v 2 h -2 z m -6,0 h 2 v 2 h -2 z m -2,0 h 2 v 2 h -2 z m 246,-2 h 2 v 2 h -2 z m -2,0 h 2 v 2 h -2 z m -2,0 h 2 v 2 h -2 z m -2,0 h 2 v 2 h -2 z m -2,0 h 2 v 2 h -2 z m -2,0 h 2 v 2 h -2 z m -18,0 h 2 v 2 h -2 z m -2,0 h 2 v 2 h -2 z m -2,0 h 2 v 2 h -2 z m -2,0 h 2 v 2 h -2 z m -2,0 h 2 v 2 h -2 z m -2,0 h 2 v 2 h -2 z m -2,0 h 2 v 2 h -2 z m -2,0 h 2 v 2 h -2 z m -10,0 h 2 v 2 h -2 z m -2,0 h 2 v 2 h -2 z m -2,0 h 2 v 2 h -2 z m -2,0 h 2 v 2 h -2 z m -2,0 h 2 v 2 h -2 z m -2,0 h 2 v 2 h -2 z m -2,0 h 2 v 2 h -2 z m -2,0 h 2 v 2 h -2 z m -2,0 h 2 v 2 h -2 z m -2,0 h 2 v 2 h -2 z m -2,0 h 2 v 2 h -2 z m -2,0 h 2 v 2 h -2 z m -10,0 h 2 v 2 h -2 z m -2,0 h 2 v 2 h -2 z m -18,0 h 2 v 2 h -2 z m -2,0 h 2 v 2 h -2 z m -86,0 h 2 v 2 h -2 z m -2,0 h 2 v 2 h -2 z m -10,0 h 2 v 2 h -2 z m -2,0 h 2 v 2 h -2 z m -10,0 h 2 v 2 h -2 z m -2,0 h 2 v 2 h -2 z m -6,0 h 2 v 2 h -2 z m -2,0 h 2 v 2 h -2 z m -2,0 h 2 v 2 h -2 z m -2,0 h 2 v 2 h -2 z m -2,0 h 2 v 2 h -2 z m -2,0 h 2 v 2 h -2 z m -2,0 h 2 v 2 h -2 z m -2,0 h 2 v 2 h -2 z m -6,0 h 2 v 2 h -2 z m -2,0 h 2 v 2 h -2 z m 246,-2 h 2 v 2 h -2 z m -2,0 h 2 v 2 h -2 z m -2,0 h 2 v 2 h -2 z m -2,0 h 2 v 2 h -2 z m -2,0 h 2 v 2 h -2 z m -2,0 h 2 v 2 h -2 z m -18,0 h 2 v 2 h -2 z m -2,0 h 2 v 2 h -2 z m -2,0 h 2 v 2 h -2 z m -2,0 h 2 v 2 h -2 z m -2,0 h 2 v 2 h -2 z m -2,0 h 2 v 2 h -2 z m -2,0 h 2 v 2 h -2 z m -2,0 h 2 v 2 h -2 z m -10,0 h 2 v 2 h -2 z m -2,0 h 2 v 2 h -2 z m -2,0 h 2 v 2 h -2 z m -2,0 h 2 v 2 h -2 z m -2,0 h 2 v 2 h -2 z m -2,0 h 2 v 2 h -2 z m -2,0 h 2 v 2 h -2 z m -2,0 h 2 v 2 h -2 z m -2,0 h 2 v 2 h -2 z m -2,0 h 2 v 2 h -2 z m -2,0 h 2 v 2 h -2 z m -2,0 h 2 v 2 h -2 z m -10,0 h 2 v 2 h -2 z m -2,0 h 2 v 2 h -2 z m -18,0 h 2 v 2 h -2 z m -2,0 h 2 v 2 h -2 z m -86,0 h 2 v 2 h -2 z m -2,0 h 2 v 2 h -2 z m -10,0 h 2 v 2 h -2 z m -2,0 h 2 v 2 h -2 z m -10,0 h 2 v 2 h -2 z m -2,0 h 2 v 2 h -2 z m -6,0 h 2 v 2 h -2 z m -2,0 h 2 v 2 h -2 z m -2,0 h 2 v 2 h -2 z m -2,0 h 2 v 2 h -2 z m -2,0 h 2 v 2 h -2 z m -2,0 h 2 v 2 h -2 z m -2,0 h 2 v 2 h -2 z m -2,0 h 2 v 2 h -2 z m -6,0 h 2 v 2 h -2 z m -2,0 h 2 v 2 h -2 z m 250,-2 h 2 v 2 h -2 z m -2,0 h 2 v 2 h -2 z m -10,0 h 2 v 2 h -2 z m -2,0 h 2 v 2 h -2 z m -14,0 h 2 v 2 h -2 z m -2,0 h 2 v 2 h -2 z m -14,0 h 2 v 2 h -2 z m -2,0 h 2 v 2 h -2 z m -10,0 h 2 v 2 h -2 z m -2,0 h 2 v 2 h -2 z m -18,0 h 2 v 2 h -2 z m -2,0 h 2 v 2 h -2 z m -10,0 h 2 v 2 h -2 z m -2,0 h 2 v 2 h -2 z m -18,0 h 2 v 2 h -2 z m -2,0 h 2 v 2 h -2 z m -86,0 h 2 v 2 h -2 z m -2,0 h 2 v 2 h -2 z m -10,0 h 2 v 2 h -2 z m -2,0 h 2 v 2 h -2 z m -10,0 h 2 v 2 h -2 z m -2,0 h 2 v 2 h -2 z m -6,0 h 2 v 2 h -2 z m -2,0 h 2 v 2 h -2 z m -10,0 h 2 v 2 h -2 z m -2,0 h 2 v 2 h -2 z m -10,0 h 2 v 2 h -2 z m -2,0 h 2 v 2 h -2 z m 254,-2 h 2 v 2 h -2 z m -2,0 h 2 v 2 h -2 z m -10,0 h 2 v 2 h -2 z m -2,0 h 2 v 2 h -2 z m -14,0 h 2 v 2 h -2 z m -2,0 h 2 v 2 h -2 z m -14,0 h 2 v 2 h -2 z m -2,0 h 2 v 2 h -2 z m -10,0 h 2 v 2 h -2 z m -2,0 h 2 v 2 h -2 z m -18,0 h 2 v 2 h -2 z m -2,0 h 2 v 2 h -2 z m -10,0 h 2 v 2 h -2 z m -2,0 h 2 v 2 h -2 z m -18,0 h 2 v 2 h -2 z m -2,0 h 2 v 2 h -2 z m -86,0 h 2 v 2 h -2 z m -2,0 h 2 v 2 h -2 z m -10,0 h 2 v 2 h -2 z m -2,0 h 2 v 2 h -2 z m -10,0 h 2 v 2 h -2 z m -2,0 h 2 v 2 h -2 z m -6,0 h 2 v 2 h -2 z m -2,0 h 2 v 2 h -2 z m -10,0 h 2 v 2 h -2 z m -2,0 h 2 v 2 h -2 z m -10,0 h 2 v 2 h -2 z m -2,0 h 2 v 2 h -2 z m 258,-2 h 2 v 2 h -2 z m -2,0 h 2 v 2 h -2 z m -14,0 h 2 v 2 h -2 z m -2,0 h 2 v 2 h -2 z m -10,0 h 2 v 2 h -2 z m -2,0 h 2 v 2 h -2 z m -18,0 h 2 v 2 h -2 z m -2,0 h 2 v 2 h -2 z m -10,0 h 2 v 2 h -2 z m -2,0 h 2 v 2 h -2 z m -18,0 h 2 v 2 h -2 z m -2,0 h 2 v 2 h -2 z m -10,0 h 2 v 2 h -2 z m -2,0 h 2 v 2 h -2 z m -18,0 h 2 v 2 h -2 z m -2,0 h 2 v 2 h -2 z m -86,0 h 2 v 2 h -2 z m -2,0 h 2 v 2 h -2 z m -10,0 h 2 v 2 h -2 z m -2,0 h 2 v 2 h -2 z m -10,0 h 2 v 2 h -2 z m -2,0 h 2 v 2 h -2 z m -6,0 h 2 v 2 h -2 z m -2,0 h 2 v 2 h -2 z m -10,0 h 2 v 2 h -2 z m -2,0 h 2 v 2 h -2 z m -14,0 h 2 v 2 h -2 z m -2,0 h 2 v 2 h -2 z m 262,-2 h 2 v 2 h -2 z m -2,0 h 2 v 2 h -2 z m -14,0 h 2 v 2 h -2 z m -2,0 h 2 v 2 h -2 z m -10,0 h 2 v 2 h -2 z m -2,0 h 2 v 2 h -2 z m -18,0 h 2 v 2 h -2 z m -2,0 h 2 v 2 h -2 z m -10,0 h 2 v 2 h -2 z m -2,0 h 2 v 2 h -2 z m -18,0 h 2 v 2 h -2 z m -2,0 h 2 v 2 h -2 z m -10,0 h 2 v 2 h -2 z m -2,0 h 2 v 2 h -2 z m -18,0 h 2 v 2 h -2 z m -2,0 h 2 v 2 h -2 z m -86,0 h 2 v 2 h -2 z m -2,0 h 2 v 2 h -2 z m -10,0 h 2 v 2 h -2 z m -2,0 h 2 v 2 h -2 z m -10,0 h 2 v 2 h -2 z m -2,0 h 2 v 2 h -2 z m -6,0 h 2 v 2 h -2 z m -2,0 h 2 v 2 h -2 z m -10,0 h 2 v 2 h -2 z m -2,0 h 2 v 2 h -2 z m -14,0 h 2 v 2 h -2 z m -2,0 h 2 v 2 h -2 z m 266,-2 h 2 v 2 h -2 z m -2,0 h 2 v 2 h -2 z m -18,0 h 2 v 2 h -2 z m -2,0 h 2 v 2 h -2 z m -10,0 h 2 v 2 h -2 z m -2,0 h 2 v 2 h -2 z m -18,0 h 2 v 2 h -2 z m -2,0 h 2 v 2 h -2 z m -10,0 h 2 v 2 h -2 z m -2,0 h 2 v 2 h -2 z m -18,0 h 2 v 2 h -2 z m -2,0 h 2 v 2 h -2 z m -10,0 h 2 v 2 h -2 z m -2,0 h 2 v 2 h -2 z m -18,0 h 2 v 2 h -2 z m -2,0 h 2 v 2 h -2 z m -86,0 h 2 v 2 h -2 z m -2,0 h 2 v 2 h -2 z m -10,0 h 2 v 2 h -2 z m -2,0 h 2 v 2 h -2 z m -10,0 h 2 v 2 h -2 z m -2,0 h 2 v 2 h -2 z m -6,0 h 2 v 2 h -2 z m -2,0 h 2 v 2 h -2 z m -10,0 h 2 v 2 h -2 z m -2,0 h 2 v 2 h -2 z m -18,0 h 2 v 2 h -2 z m -2,0 h 2 v 2 h -2 z m 270,-2 h 2 v 2 h -2 z m -2,0 h 2 v 2 h -2 z m -18,0 h 2 v 2 h -2 z m -2,0 h 2 v 2 h -2 z m -10,0 h 2 v 2 h -2 z m -2,0 h 2 v 2 h -2 z m -18,0 h 2 v 2 h -2 z m -2,0 h 2 v 2 h -2 z m -10,0 h 2 v 2 h -2 z m -2,0 h 2 v 2 h -2 z m -18,0 h 2 v 2 h -2 z m -2,0 h 2 v 2 h -2 z m -10,0 h 2 v 2 h -2 z m -2,0 h 2 v 2 h -2 z m -18,0 h 2 v 2 h -2 z m -2,0 h 2 v 2 h -2 z m -86,0 h 2 v 2 h -2 z m -2,0 h 2 v 2 h -2 z m -10,0 h 2 v 2 h -2 z m -2,0 h 2 v 2 h -2 z m -10,0 h 2 v 2 h -2 z m -2,0 h 2 v 2 h -2 z m -6,0 h 2 v 2 h -2 z m -2,0 h 2 v 2 h -2 z m -10,0 h 2 v 2 h -2 z m -2,0 h 2 v 2 h -2 z m -18,0 h 2 v 2 h -2 z m -2,0 h 2 v 2 h -2 z m 270,-2 h 2 v 2 h -2 z m -2,0 h 2 v 2 h -2 z m -18,0 h 2 v 2 h -2 z m -2,0 h 2 v 2 h -2 z m -10,0 h 2 v 2 h -2 z m -2,0 h 2 v 2 h -2 z m -18,0 h 2 v 2 h -2 z m -2,0 h 2 v 2 h -2 z m -10,0 h 2 v 2 h -2 z m -2,0 h 2 v 2 h -2 z m -18,0 h 2 v 2 h -2 z m -2,0 h 2 v 2 h -2 z m -10,0 h 2 v 2 h -2 z m -2,0 h 2 v 2 h -2 z m -18,0 h 2 v 2 h -2 z m -2,0 h 2 v 2 h -2 z m -86,0 h 2 v 2 h -2 z m -2,0 h 2 v 2 h -2 z m -10,0 h 2 v 2 h -2 z m -2,0 h 2 v 2 h -2 z m -10,0 h 2 v 2 h -2 z m -2,0 h 2 v 2 h -2 z m -6,0 h 2 v 2 h -2 z m -2,0 h 2 v 2 h -2 z m -10,0 h 2 v 2 h -2 z m -2,0 h 2 v 2 h -2 z m -18,0 h 2 v 2 h -2 z m -2,0 h 2 v 2 h -2 z m 270,-2 h 2 v 2 h -2 z m -2,0 h 2 v 2 h -2 z m -18,0 h 2 v 2 h -2 z m -2,0 h 2 v 2 h -2 z m -10,0 h 2 v 2 h -2 z m -2,0 h 2 v 2 h -2 z m -18,0 h 2 v 2 h -2 z m -2,0 h 2 v 2 h -2 z m -10,0 h 2 v 2 h -2 z m -2,0 h 2 v 2 h -2 z m -18,0 h 2 v 2 h -2 z m -2,0 h 2 v 2 h -2 z m -10,0 h 2 v 2 h -2 z m -2,0 h 2 v 2 h -2 z m -18,0 h 2 v 2 h -2 z m -2,0 h 2 v 2 h -2 z m -86,0 h 2 v 2 h -2 z m -2,0 h 2 v 2 h -2 z m -10,0 h 2 v 2 h -2 z m -2,0 h 2 v 2 h -2 z m -10,0 h 2 v 2 h -2 z m -2,0 h 2 v 2 h -2 z m -6,0 h 2 v 2 h -2 z m -2,0 h 2 v 2 h -2 z m -10,0 h 2 v 2 h -2 z m -2,0 h 2 v 2 h -2 z m -18,0 h 2 v 2 h -2 z m -2,0 h 2 v 2 h -2 z m 270,-2 h 2 v 2 h -2 z m -2,0 h 2 v 2 h -2 z m -18,0 h 2 v 2 h -2 z m -2,0 h 2 v 2 h -2 z m -10,0 h 2 v 2 h -2 z m -2,0 h 2 v 2 h -2 z m -18,0 h 2 v 2 h -2 z m -2,0 h 2 v 2 h -2 z m -10,0 h 2 v 2 h -2 z m -2,0 h 2 v 2 h -2 z m -18,0 h 2 v 2 h -2 z m -2,0 h 2 v 2 h -2 z m -10,0 h 2 v 2 h -2 z m -2,0 h 2 v 2 h -2 z m -18,0 h 2 v 2 h -2 z m -2,0 h 2 v 2 h -2 z m -86,0 h 2 v 2 h -2 z m -2,0 h 2 v 2 h -2 z m -10,0 h 2 v 2 h -2 z m -2,0 h 2 v 2 h -2 z m -10,0 h 2 v 2 h -2 z m -2,0 h 2 v 2 h -2 z m -6,0 h 2 v 2 h -2 z m -2,0 h 2 v 2 h -2 z m -10,0 h 2 v 2 h -2 z m -2,0 h 2 v 2 h -2 z m -6,0 h 2 v 2 h -2 z m -2,0 h 2 v 2 h -2 z m -10,0 h 2 v 2 h -2 z m -2,0 h 2 v 2 h -2 z m 270,-2 h 2 v 2 h -2 z m -2,0 h 2 v 2 h -2 z m -18,0 h 2 v 2 h -2 z m -2,0 h 2 v 2 h -2 z m -10,0 h 2 v 2 h -2 z m -2,0 h 2 v 2 h -2 z m -18,0 h 2 v 2 h -2 z m -2,0 h 2 v 2 h -2 z m -10,0 h 2 v 2 h -2 z m -2,0 h 2 v 2 h -2 z m -18,0 h 2 v 2 h -2 z m -2,0 h 2 v 2 h -2 z m -10,0 h 2 v 2 h -2 z m -2,0 h 2 v 2 h -2 z m -18,0 h 2 v 2 h -2 z m -2,0 h 2 v 2 h -2 z m -86,0 h 2 v 2 h -2 z m -2,0 h 2 v 2 h -2 z m -10,0 h 2 v 2 h -2 z m -2,0 h 2 v 2 h -2 z m -10,0 h 2 v 2 h -2 z m -2,0 h 2 v 2 h -2 z m -6,0 h 2 v 2 h -2 z m -2,0 h 2 v 2 h -2 z m -10,0 h 2 v 2 h -2 z m -2,0 h 2 v 2 h -2 z m -6,0 h 2 v 2 h -2 z m -2,0 h 2 v 2 h -2 z m -10,0 h 2 v 2 h -2 z m -2,0 h 2 v 2 h -2 z m 270,-2 h 2 v 2 h -2 z m -2,0 h 2 v 2 h -2 z m -18,0 h 2 v 2 h -2 z m -2,0 h 2 v 2 h -2 z m -10,0 h 2 v 2 h -2 z m -2,0 h 2 v 2 h -2 z m -18,0 h 2 v 2 h -2 z m -2,0 h 2 v 2 h -2 z m -10,0 h 2 v 2 h -2 z m -2,0 h 2 v 2 h -2 z m -18,0 h 2 v 2 h -2 z m -2,0 h 2 v 2 h -2 z m -10,0 h 2 v 2 h -2 z m -2,0 h 2 v 2 h -2 z m -18,0 h 2 v 2 h -2 z m -2,0 h 2 v 2 h -2 z m -86,0 h 2 v 2 h -2 z m -2,0 h 2 v 2 h -2 z m -10,0 h 2 v 2 h -2 z m -2,0 h 2 v 2 h -2 z m -10,0 h 2 v 2 h -2 z m -2,0 h 2 v 2 h -2 z m -6,0 h 2 v 2 h -2 z m -2,0 h 2 v 2 h -2 z m -10,0 h 2 v 2 h -2 z m -2,0 h 2 v 2 h -2 z m -6,0 h 2 v 2 h -2 z m -2,0 h 2 v 2 h -2 z m -10,0 h 2 v 2 h -2 z m -2,0 h 2 v 2 h -2 z m 270,-2 h 2 v 2 h -2 z m -2,0 h 2 v 2 h -2 z m -18,0 h 2 v 2 h -2 z m -2,0 h 2 v 2 h -2 z m -10,0 h 2 v 2 h -2 z m -2,0 h 2 v 2 h -2 z m -18,0 h 2 v 2 h -2 z m -2,0 h 2 v 2 h -2 z m -10,0 h 2 v 2 h -2 z m -2,0 h 2 v 2 h -2 z m -18,0 h 2 v 2 h -2 z m -2,0 h 2 v 2 h -2 z m -10,0 h 2 v 2 h -2 z m -2,0 h 2 v 2 h -2 z m -18,0 h 2 v 2 h -2 z m -2,0 h 2 v 2 h -2 z m -86,0 h 2 v 2 h -2 z m -2,0 h 2 v 2 h -2 z m -10,0 h 2 v 2 h -2 z m -2,0 h 2 v 2 h -2 z m -10,0 h 2 v 2 h -2 z m -2,0 h 2 v 2 h -2 z m -6,0 h 2 v 2 h -2 z m -2,0 h 2 v 2 h -2 z m -10,0 h 2 v 2 h -2 z m -2,0 h 2 v 2 h -2 z m -6,0 h 2 v 2 h -2 z m -2,0 h 2 v 2 h -2 z m -10,0 h 2 v 2 h -2 z m -2,0 h 2 v 2 h -2 z m 270,-2 h 2 v 2 h -2 z m -2,0 h 2 v 2 h -2 z m -18,0 h 2 v 2 h -2 z m -2,0 h 2 v 2 h -2 z m -14,0 h 2 v 2 h -2 z m -2,0 h 2 v 2 h -2 z m -14,0 h 2 v 2 h -2 z m -2,0 h 2 v 2 h -2 z m -14,0 h 2 v 2 h -2 z m -2,0 h 2 v 2 h -2 z m -10,0 h 2 v 2 h -2 z m -2,0 h 2 v 2 h -2 z m -18,0 h 2 v 2 h -2 z m -2,0 h 2 v 2 h -2 z m -14,0 h 2 v 2 h -2 z m -2,0 h 2 v 2 h -2 z m -86,0 h 2 v 2 h -2 z m -2,0 h 2 v 2 h -2 z m -10,0 h 2 v 2 h -2 z m -2,0 h 2 v 2 h -2 z m -10,0 h 2 v 2 h -2 z m -2,0 h 2 v 2 h -2 z m -6,0 h 2 v 2 h -2 z m -2,0 h 2 v 2 h -2 z m -10,0 h 2 v 2 h -2 z m -2,0 h 2 v 2 h -2 z m -6,0 h 2 v 2 h -2 z m -2,0 h 2 v 2 h -2 z m -10,0 h 2 v 2 h -2 z m -2,0 h 2 v 2 h -2 z m 270,-2 h 2 v 2 h -2 z m -2,0 h 2 v 2 h -2 z m -18,0 h 2 v 2 h -2 z m -2,0 h 2 v 2 h -2 z m -14,0 h 2 v 2 h -2 z m -2,0 h 2 v 2 h -2 z m -14,0 h 2 v 2 h -2 z m -2,0 h 2 v 2 h -2 z m -14,0 h 2 v 2 h -2 z m -2,0 h 2 v 2 h -2 z m -10,0 h 2 v 2 h -2 z m -2,0 h 2 v 2 h -2 z m -18,0 h 2 v 2 h -2 z m -2,0 h 2 v 2 h -2 z m -14,0 h 2 v 2 h -2 z m -2,0 h 2 v 2 h -2 z m -86,0 h 2 v 2 h -2 z m -2,0 h 2 v 2 h -2 z m -10,0 h 2 v 2 h -2 z m -2,0 h 2 v 2 h -2 z m -10,0 h 2 v 2 h -2 z m -2,0 h 2 v 2 h -2 z m -6,0 h 2 v 2 h -2 z m -2,0 h 2 v 2 h -2 z m -10,0 h 2 v 2 h -2 z m -2,0 h 2 v 2 h -2 z m -6,0 h 2 v 2 h -2 z m -2,0 h 2 v 2 h -2 z m -10,0 h 2 v 2 h -2 z m -2,0 h 2 v 2 h -2 z m 270,-2 h 2 v 2 h -2 z m -2,0 h 2 v 2 h -2 z m -18,0 h 2 v 2 h -2 z m -2,0 h 2 v 2 h -2 z m -18,0 h 2 v 2 h -2 z m -2,0 h 2 v 2 h -2 z m -2,0 h 2 v 2 h -2 z m -2,0 h 2 v 2 h -2 z m -2,0 h 2 v 2 h -2 z m -2,0 h 2 v 2 h -2 z m -2,0 h 2 v 2 h -2 z m -2,0 h 2 v 2 h -2 z m -18,0 h 2 v 2 h -2 z m -2,0 h 2 v 2 h -2 z m -2,0 h 2 v 2 h -2 z m -2,0 h 2 v 2 h -2 z m -26,0 h 2 v 2 h -2 z m -2,0 h 2 v 2 h -2 z m -2,0 h 2 v 2 h -2 z m -2,0 h 2 v 2 h -2 z m -2,0 h 2 v 2 h -2 z m -2,0 h 2 v 2 h -2 z m -2,0 h 2 v 2 h -2 z m -2,0 h 2 v 2 h -2 z m -82,0 h 2 v 2 h -2 z m -2,0 h 2 v 2 h -2 z m -2,0 h 2 v 2 h -2 z m -2,0 h 2 v 2 h -2 z m -2,0 h 2 v 2 h -2 z m -2,0 h 2 v 2 h -2 z m -10,0 h 2 v 2 h -2 z m -2,0 h 2 v 2 h -2 z m -2,0 h 2 v 2 h -2 z m -2,0 h 2 v 2 h -2 z m -10,0 h 2 v 2 h -2 z m -2,0 h 2 v 2 h -2 z m -10,0 h 2 v 2 h -2 z m -2,0 h 2 v 2 h -2 z m -10,0 h 2 v 2 h -2 z m -2,0 h 2 v 2 h -2 z m -2,0 h 2 v 2 h -2 z m -2,0 h 2 v 2 h -2 z m 266,-2 h 2 v 2 h -2 z m -2,0 h 2 v 2 h -2 z m -18,0 h 2 v 2 h -2 z m -2,0 h 2 v 2 h -2 z m -18,0 h 2 v 2 h -2 z m -2,0 h 2 v 2 h -2 z m -2,0 h 2 v 2 h -2 z m -2,0 h 2 v 2 h -2 z m -2,0 h 2 v 2 h -2 z m -2,0 h 2 v 2 h -2 z m -2,0 h 2 v 2 h -2 z m -2,0 h 2 v 2 h -2 z m -18,0 h 2 v 2 h -2 z m -2,0 h 2 v 2 h -2 z m -2,0 h 2 v 2 h -2 z m -2,0 h 2 v 2 h -2 z m -26,0 h 2 v 2 h -2 z m -2,0 h 2 v 2 h -2 z m -2,0 h 2 v 2 h -2 z m -2,0 h 2 v 2 h -2 z m -2,0 h 2 v 2 h -2 z m -2,0 h 2 v 2 h -2 z m -2,0 h 2 v 2 h -2 z m -2,0 h 2 v 2 h -2 z m -82,0 h 2 v 2 h -2 z m -2,0 h 2 v 2 h -2 z m -2,0 h 2 v 2 h -2 z m -2,0 h 2 v 2 h -2 z m -2,0 h 2 v 2 h -2 z m -2,0 h 2 v 2 h -2 z m -10,0 h 2 v 2 h -2 z m -2,0 h 2 v 2 h -2 z m -2,0 h 2 v 2 h -2 z m -2,0 h 2 v 2 h -2 z m -10,0 h 2 v 2 h -2 z m -2,0 h 2 v 2 h -2 z m -10,0 h 2 v 2 h -2 z m -2,0 h 2 v 2 h -2 z m -10,0 h 2 v 2 h -2 z m -2,0 h 2 v 2 h -2 z m -2,0 h 2 v 2 h -2 z m -2,0 h 2 v 2 h -2 z" />
</svg>
